v 0 -0.2 -0.2
v 0 -0.2 0.2
v 0 0.2 -0.2
v 0 0.2 0.2
v 0.2 -0.1 -0.1
v 0.2 -0.1 0.1
v 0.2 0.1 -0.1
v 0.2 0.1 0.1
v 0.8 -0.1 -0.1
v 0.8 -0.1 0.1
v 0.8 0.1 -0.1
v 0.8 0.1 0.1
v 1.2 -0.1 -0.1
v 1.2 -0.1 0.1
v 1.2 0.1 -0.1
v 1.2 0.1 0.1
v 1.8 -0.1 -0.1
v 1.8 -0.1 0.1
v 1.8 0.1 -0.1
v 1.8 0.1 0.1
v 2 -0.2 -0.2
v 2 -0.2 0.2
v 2 0.2 -0.2
v 2 0.2 0.2
v 1.82746 0.2 -0.2
v 1.64524 -0.2 -0.0411937
v 1.26374 -0.2 0.0715819
v 0.771467 0.146304 0.0461842
v 1.13791 0.055234 0.0529262
v 1.14167 0.0510959 -0.0450144
v 0.918732 0.2 0.00330339
v 0.721068 0.2 -0.0526474
v 0.088691 -0.0965007 -0.101232
v 0.100541 -0.0967689 -0.00489055
v 0.0869559 -0.0960171 0.108951
v 0.117548 -0.0130919 -0.102303
v 0.0886666 0.0851294 -0.103108
v 0.0850245 0.0997774 0.099335
v 0.752661 -0.0687945 -0.2
v 0.632057 0.2 -0.0402432
v 0.665826 -0.0647928 0.154222
v 0.649108 0.1 -0.1
v 1.35089 -0.1 -0.1
v 1.07303 0.0501113 -0.0142407
v 1.47671 -0.145078 0.144931
v 0.655233 -0.1 0.0191039
v 0.744471 0.2 0.0209779
v 1.34719 -0.0986829 0.150098
v 0.0713067 -0.00970904 -0.2
v 1.53889 -0.046897 -0.148904
v 1.48979 -0.2 -0.0350307
v 1.3274 0.0480039 0.2
v 1.3633 -0.2 0.0457281
v 1.01465 -0.0122949 0.00743048
v 0.0984808 -0.2 -0.0214783
v 0.163834 0.0753269 0.2
v 0.8 0.00956486 0.00785986
v 1.8 0 0
v 1.2 0.00417483 -0.00437432
v 0.888162 -0.10744 0.111582
v 0.702295 -0.122565 -0.2
v 0.883415 -0.0126539 -0.107209
v 0.912265 0.0857488 -0.109363
v 0.91123 0.103467 0.0156912
v 0.912943 0.110757 0.121935
v 0.663237 -0.1 -0.1
v 0.998949 -0.0924417 -0.0936714
v 0.993239 -0.085825 0.076886
v 1.02185 0.0907437 0.09095
v 1.3851 0.2 -0.061712
v 0.657844 -0.00658826 0.2
v 1.09518 -0.114995 -0.109989
v 1.0892 -0.108998 0.0103108
v 1.09879 -0.114215 0.117718
v 0.371097 -0.1 0.0333333
v 1.08646 0.0935044 -0.113786
v 1.45106 -0.2 0.0627689
v 1.14746 -0.082603 0.2
v 0.694886 0.1 0.0236513
v 0.689767 -0.0408498 0.1
v 1.30753 -0.1 0.018997
v 1.70892 0.2 -0.0752797
v 1.84133 -0.0349033 -0.2
v 0.667702 -0.00530438 -0.2
v 0.509581 -0.150763 0.053476
v 1.86819 0.2 0.2
v 0 -0.0345334 0.073773
v 1.66763 -0.2 -0.139738
v 0.0559699 0.143231 -0.147623
v 0.917424 0.0766739 0.2
v 0.748047 -0.151451 -0.080483
v 0.172467 0.2 0.0254809
v 1.73752 -0.2 -0.0824904
v 0.572071 0.2 -0.0910526
v 0.625063 0.088675 -0.2
v 1.6866 0.014658 0.1
v 1.67551 0.1 -0.0193608
v 1.23172 0.0639635 0.2
v 1.23916 0.2 0.0652272
v 1.74429 0.0745191 0.2
v 0.109606 0.14376 0.2
v 1.20442 -0.2 0.122686
v 1.75463 0.124673 -0.2
v 1.10511 -0.130974 -0.2
v 1.10973 0.13006 0.115317
v 1.75463 0.2 -0.125981
v 0.938214 0.0159446 -0.032853
v 0.943701 -0.00274954 0.071521
v 1.77981 -0.2 -0.00758458
v 0.859967 0.0292921 -0.00236912
v 0.852229 -0.0511844 -0.0266038
v 0.690779 0.0413844 0.1
v 0.694054 0.1 -0.0444306
v 1.41343 0.0212514 0.2
v 1.30071 -0.0333333 -0.1
v 1.15371 0.2 0.125358
v 0.280786 -0.1 -0.0160291
v 0.295619 0.00597717 -0.1
v 1.33356 0.0697375 -0.2
v 1.92065 -0.112793 -0.109299
v 1.89315 -0.11783 0.0013417
v 1.91383 -0.0914106 0.112752
v 1.91351 0.00303349 -0.119833
v 1.91121 0.00436179 -0.00403516
v 1.93065 0.0127133 0.103643
v 1.30174 -0.0269559 -0.2
v 1.92445 0.101529 -0.108182
v 1.90024 0.112663 0.0154625
v 1.35395 -0.145846 -0.169636
v 0.995227 -0.2 0.0232714
v 1.3553 -0.06007 0.2
v 1.68667 0.112782 -0.2
v 0.0854569 -0.2 0.2
v 0.732141 -0.1 -0.0372771
v 0 0.2 0.0161204
v 0.115439 0.2 0.2
v 0.105898 -0.0871063 -0.2
v 0.999971 0.128327 -0.124397
v 1.91426 -0.116609 0.2
v 0.947913 -0.140449 0.139703
v 0.0767868 0.0991384 -0.2
v 0 -0.117267 0.0875404
v 1.80837 -0.153003 0.0143115
v 0.0967902 -0.101308 0.2
v 0.0556997 0.0213173 -0.144135
v 0 -0.0179205 -0.2
v 0 0.0351191 0.124839
v 0.221982 0.120255 -0.2
v 0.0888691 0.2 -0.109887
v 1.29927 -0.0897732 -0.148364
v 0.0795727 -0.152012 -0.0666558
v 0.0859014 0.2 0.12462
v 0.929627 -0.0746192 -0.00123063
v 0.2 0.00913011 0.00939056
v 0.259135 -0.2 -0.0447617
v 0.25909 -0.2 0.047249
v 0.198601 -0.0509619 -0.2
v 0.245825 0.0405092 -0.2
v 0.198601 -0.2 -0.100641
v 1.10484 -0.0269199 -0.0868801
v 0.213342 -0.118846 -0.2
v 2 -0.2 0.117921
v 0.0908208 0.0365842 -0.0133768
v 0.0857601 -0.00532985 0.0681911
v 0.114346 0.116559 -0.0106654
v 0.14529 -0.000664585 0.114157
v 0.307456 -0.0493837 -0.2
v 1.50681 -0.2 0.131222
v 0.412463 -0.0184656 -0.1
v 1.06465 -0.0020875 0.102435
v 0.146064 -0.2 0.0520252
v 0.204493 -0.120106 0.2
v 0.213103 -0.2 0.137489
v 0.0947268 -0.2 0.140407
v 0.323666 -0.2 0.115584
v 0.291057 -0.0504477 0.2
v 0.396974 -0.0109208 0.1
v 0.14486 0.039704 -0.2
v 0.173879 0.2 -0.101191
v 0.139463 0.132314 -0.2
v 1.57039 -0.2 -0.0634353
v 0.251268 0.2 -0.13584
v 0.294825 0.120047 -0.2
v 0.0809837 0.2 -0.2
v 0.393473 0.1 -0.0223861
v 0.706594 0.150876 0.0889263
v 0.71275 0.0352708 -0.1
v 0.713373 -0.0365275 -0.1
v 1.30071 0.1 -0.05
v 1.29715 -0.0287021 0.1
v 1.00389 0.111317 -0.0330187
v 0 0.0327333 -0.126227
v 1.29222 0.130756 0.2
v 0.298903 0.0533401 0.2
v 0.297027 0.2 0.0509619
v 0.750437 -0.2 0.0509619
v 0.795602 -0.2 -0.0444059
v 0.829232 -0.2 0.0632529
v 1.65404 -0.152074 0.0986945
v 0.598326 -0.00396069 -0.1
v 0.475104 -0.0377212 0.1
v 0.300757 0.2 -0.12484
v 0.852478 -0.0568888 -0.2
v 0.81579 -0.0603622 0.2
v 0.809247 0.0512657 0.2
v 0.701224 -0.100641 0.2
v 0.750437 -0.2 0.100641
v 0.870654 -0.0133281 0.0895936
v 0.867324 -0.125276 0.00636619
v 0.79965 -0.150321 0.2
v 0.839723 -0.2 0.138683
v 0.199657 0.0078635 0.2
v 0.550957 0.00519321 0.1
v 1.68869 0.1 -0.1
v 1.68869 0.1 0.1
v 0.750437 0.100641 -0.2
v 0.311313 -0.1 0.1
v 0.311313 -0.1 -0.1
v 0.0900027 -0.2 -0.129618
v 1.70107 -0.1 0.05
v 1.71503 -0.1 -0.0292035
v 1.68707 -0.0156805 -0.1
v 0.79965 0.2 -0.150321
v 0.315545 0.0256347 0.1
v 0.29893 0.1 0.05
v 2 0.125081 -0.124427
v 0.843372 0.2 -0.0523133
v 0.0448511 -0.000385984 0.144336
v 0.715753 0.101816 0.2
v 1.34273 0.2 0.2
v 0.339782 0.2 0.2
v 1.81445 -0.137169 0.145895
v 0.500299 -0.0875455 0.2
v 1.30893 0.2 0.132892
v 1.81657 0.0395328 0.2
v 0.786616 0.2 0.0965291
v 1.39087 0.118234 0.2
v 0.537361 0.00354644 -0.2
v 1.1995 -0.2 -0.0438841
v 0.619946 0.150666 -0.120828
v 1.54435 -0.2 0.0355466
v 1.28684 0.0471237 -0.1
v 1.20549 -0.0567475 -0.2
v 1.21683 0.0441696 -0.2
v 0.930075 -0.128149 -0.2
v 1.14708 -0.2 -0.125605
v 1.91264 0.125482 -0.2
v 1.42097 -0.145913 -0.140568
v 1.28397 -0.2 -0.124004
v 0.722395 -0.2 -0.124051
v 1.2532 -0.140267 -0.2
v 0.975559 0.0493462 0.2
v 1.24956 -0.0509619 0.2
v 1.14675 -0.2 0.0587287
v 1.92716 0.2 -0.125981
v 1.87341 0.137511 -0.141018
v 1.13733 -0.0206641 0.135694
v 0.240285 -0.199404 0.2
v 0.27242 0.2 -0.0496794
v 1.15096 0.0222824 -0.142292
v 0.525043 -0.142436 0.141949
v 1.40143 -1.38778e-17 0.1
v 0.85492 0.12075 -0.2
v 1.25142 0.2 -0.0525781
v 1.16706 0.2 -0.0525542
v 0.892882 0.2 0.0872336
v 1.15734 0.120712 -0.2
v 1.22699 0.2 -0.138814
v 1.13858 0.2 -0.134764
v 1.25953 0.126933 -0.2
v 1.27403 -0.125481 0.2
v 1.91081 -0.2 -0.138531
v 0.748393 -0.143686 -0.149685
v 1.39452 0.1 -0.00108603
v 1.38051 0.0181108 -0.1
v 0.550646 0.2 -0.2
v 1.38711 -0.15 0.2
v 0.668906 -0.2 -0.0451244
v 0.992947 -0.00267045 0.114944
v 1.00108 -0.130506 0.00664505
v 1.0187 -0.122681 -0.2
v 1.93403 -0.0602653 -0.0429441
v 1.85433 -0.2 -1.38778e-17
v 1.74525 -0.0485871 -0.2
v 1.57637 -0.1 -0.0150723
v 1.76323 -0.136612 -0.2
v 1.8014 -0.2 -0.150321
v 1.85218 -0.109566 -0.2
v 1.28917 -0.2 -0.0438877
v 0.518182 -0.2 0.108259
v 1.7564 -0.0312177 0.2
v 0.699287 0.1 0.1
v 0.680953 -0.1 0.1
v 1.30071 0.1 0.1
v 1.30071 0.1 -0.1
v 1.3007 -0.1 0.1
v 1.70262 -0.2 0.0428368
v 1.69525 -0.2 0.126299
v 0.699112 0.2 0.100321
v 1.7609 -0.110546 0.2
v 1.79014 -0.2 0.0926639
v 1.85433 -0.0519615 0.2
v 1.75219 0.2 0.0509619
v 1.70984 0.039001 -0.2
v 1.8503 0.0513194 -0.2
v 1.88036 0.2 -0.059348
v 0.967411 0.2 -0.2
v 0.19518 -0.0539128 0.2
v 0.889499 -0.117049 -0.111794
v 0.8 0 0.1
v 1.8 0.1 0
v 0.8 0 -0.1
v 0 -0.2 -0.1
v 1.8 0 0.1
v 0.8 -0.1 0
v 1.84658 0.2 0.0433196
v 1.8 -0.00608664 -0.1
v 1.90796 0.124475 0.108786
v 1.8 -0.1 0
v 1.2 0.1 0
v 0.2 0 -0.1
v 0.2 -0.1 0
v 1.2 0 0.1
v 1.93411 -0.141612 -0.2
v 1.2 -0.1 0
v 1.2 0 -0.1
v 0.2 0.1 0
v 2 0.1 -0.2
v 0.8 0.1 0
v 0.2 0 0.1
v 1.15534 0.134319 0.2
v 2 -0.113463 0.0928915
v 0.942206 -0.0302916 -0.2
v 1.70418 -0.0995921 0.1
v 1.70107 -0.1 -0.1
v 0.29893 0.1 0.1
v 0.29893 0.1 -0.1
v 0.732871 0.0127405 0.2
v 1.9078 0.0964687 0.2
v 0.380157 0.138266 -0.2
v 0.607761 -0.0683336 0.2
v 1.92143 0.2 0.0980952
v 1.46952 0.0467726 0.1
v 1.48791 -0.0239363 0.1
v 1.82381 0.13202 0.2
v 0 -0.0937704 -0.031458
v 1.32861 0.2 0.0302545
v 0.57807 -0.152605 -0.144216
v 0 -0.0554708 -0.12624
v 0.247006 -0.146997 -0.143435
v 0.269224 -0.142803 0.143769
v 1.79225 0.2 0.119597
v 0 -1.38778e-17 -0.0524539
v 0.808825 -0.2 -0.121414
v 0.394905 0.156936 0.147224
v 0.736773 -0.0339315 0.152733
v 1.67086 0.2 0.00744336
v 1.67716 0.00785239 0.2
v 0 0.119778 -0.073212
v 0 0.113807 0.0447932
v 0.0722472 0.2 0.000185337
v 0.0998837 -0.031816 0.2
v 0.430881 -0.1 -0.0333333
v 0.924668 0.031527 0.143652
v 0.459144 0.0400458 0.1
v 0.498217 0.0333333 -0.1
v 0.48978 0.1 0.0122174
v 0.540079 -0.1 -0.0163192
v 0.893756 -0.2 -0.115959
v 1.33296 0.15119 -0.0518604
v 0.578077 0.1 -0.022754
v 1.21 0.0288614 0.15287
v 0.883422 0.0519898 -0.2
v 0.557657 0.150476 0.0547509
v 0.0712775 -0.2 0.0755202
v 0.951073 -0.2 -0.0502851
v 0.932135 -0.2 0.0664189
v 0.742438 0.151624 -0.133736
v 1.02493 -0.0635585 0.146148
v 0.982008 -0.137075 0.2
v 0.951117 -0.0519615 0.2
v 0.992278 0.0559466 -0.2
v 1.94846 0.0732564 -0.0211003
v 0.943115 0.2 -0.138691
v 0.961065 0.138206 -0.2
v 1.61497 -0.2 0.0464353
v 0.957495 0.2 0.135955
v 1.6445 0.2 0.2
v 0.995532 0.138911 0.2
v 0.984566 0.2 0.0461984
v 1.0551 -0.2 -0.144987
v 1.06773 -0.2 -0.044537
v 1.03628 -0.2 0.100109
v 1.66413 -0.12516 -0.2
v 0.875384 -0.000499815 0.2
v 1.05679 -0.0490753 -0.2
v 1.05187 -0.0857609 0.2
v 0.791712 0.0171256 -0.2
v 1.04793 0.2 -0.0821345
v 1.09169 0.0416727 -0.2
v 1.62398 0.080785 -0.2
v 0.743536 -0.2 -0.2
v 1.03077 -0.00678322 0.2
v 1.06127 0.2 0.121226
v 1.1082 0.0463821 0.2
v 1.85273 -0.2 -0.0802706
v 1.09266 0.2 0.0132487
v 1.4289 -0.1 -0.0241512
v 1.5647 -0.146017 0.155998
v 1.48977 -0.0151657 -0.1
v 1.17496 0.000499815 0.2
v 1.30071 0.1 0.025
v 0.330041 -0.151754 0.0391186
v 0.329295 -0.150121 -0.0315898
v 2 -0.0506538 0.026227
v 1.48899 0.1 0.0254618
v 0.678213 0.2 -0.115746
v 1.12219 -0.2 0.130331
v 1.57156 0.00285282 0.1
v 1.59192 0.0187693 -0.1
v 1.58933 0.1 0.00410164
v 1.92174 -0.2 -0.0357506
v 1.89583 -0.2 0.0714715
v 0.0935919 0.0404114 0.151293
v 2 -0.122209 -0.0304248
v 1.92541 -0.0485478 -0.2
v 2 -0.0526503 -0.13222
v 0.874088 -0.2 0.000807868
v 0.849647 0.125481 0.2
v 1.50779 0.00820093 -0.2
v 1.94196 -0.2 0.139365
v 0.0593666 0.0218065 0.2
v 2 -0.0175401 -0.0528756
v 2 0.049073 -0.132525
v 1.29848 0.2 -0.125481
v 2 0.0409145 0.0395016
v 2 0.0523766 0.1341
v 0.723589 0.2 0.153096
v 2 0.140547 -0.050677
v 1.94095 0.2 0.0150958
v 1.48113 -0.1 0.0389773
v 0.672696 -0.2 0.129407
v 2 0.131558 0.0498031
v 0 -0.0873403 -0.2
v 0 -0.2 0.101308
v 0 0.101308 0.2
v 0 0.2 0.10166
v 0.161967 -0.2 -0.2
v 0.329093 -0.2 -0.2
v 0.380884 -0.2 0.0003277
v 0.362849 -0.2 -0.0814273
v 0.725514 -0.150266 -0.0134816
v 0.170914 -0.2 0.2
v 0.510599 -0.1 0.1
v 0.329093 -0.2 0.2
v 0.400648 0.00827594 0.2
v 0.411741 -0.2 0.083422
v 1.66973 -0.148841 0.2
v 0.405676 -0.08445 0.2
v 0.198138 0.2 -0.2
v 0.161967 0.2 -0.2
v 0.329093 0.2 -0.2
v 0.384041 0.2 -0.0021714
v 0.369358 0.0565026 -0.2
v 1.86593 0.0622764 -0.0457488
v 0.230877 0.2 0.2
v 1.86725 -0.0433746 0.0557973
v 0.375 0.2 0.0989343
v 0.652607 -0.2 -0.2
v 0.834466 -0.2 -0.2
v 0.610067 -0.2 0.0897503
v 0.598573 -0.1 0.1
v 0.603707 -0.2 0.2
v 1.15122 -0.0789667 -0.143151
v 0.766796 -0.2 0.2
v 0.643066 0.2 -0.2
v 0.766796 0.2 -0.2
v 0.598573 0.0666667 0.2
v 0.598573 0.2 0.1
v 0.652607 0.2 0.2
v 0.766796 0.2 0.2
v 1.16553 -0.2 -0.2
v 0 -0.136225 -0.130712
v 1.29849 -0.2 -0.2
v 0.145155 -0.0730224 0.0549851
v 1.38817 -0.2 -0.0660996
v 1.40143 -0.0666667 -0.2
v 1.52591 -0.0767593 0.152293
v 0.6487 0.14604 0.148423
v 1.20047 -0.2 0.2
v 1.29849 -0.2 0.2
v 0.154768 -0.135653 -0.0487455
v 1.42266 -0.1 0.1
v 1.20971 0.2 -0.2
v 1.45263 0.138534 0.145848
v 1.34739 0.2 -0.2
v 1.2332 0.2 0.2
v 1.40143 0.2 0.0666667
v 0.848803 0.148206 0.0564024
v 1.74119 0.2 -0.2
v 1.91164 0.2 -0.2
v 1.24597 -0.156575 0.137725
v 1.4789 0.2 0.0500236
v 1.61048 -0.0770455 -0.2
v 1.73638 -0.2 -0.2
v 1.57368 -0.000908009 -0.2
v 1.84637 -0.2 -0.2
v 0.0549031 -0.135719 0.0443189
v 1.60718 -0.2 0.2
v 1.60214 -0.1 0.1
v 1.73177 -0.2 0.2
v 1.18803 -0.140439 -0.158331
v 1.83803 -0.2 0.2
v 1.4555 0.147034 0.089134
v 0 0.0161204 0.2
v 0.451882 0.0147664 -0.2
v 1.62261 0.2 -0.0642512
v 1.65492 0.2 -0.2
v 0.0471341 0.15267 0.153441
v 1.59892 0.0662989 0.2
v 1.62165 0.2 0.0635579
v 0.281236 -0.2 -0.133292
v 1.73638 0.2 0.2
v 2 -0.2 -0.101308
v 2 -0.101308 -0.2
v 2 -0.101308 0.2
v 0 -0.2 -1.38778e-17
v 1.01629 -0.2 0.2
v 0 -0.0690668 0.2
v 0 0.0654666 -0.2
v 2 0.199605 -0.11578
v 0 0.2 -0.0826268
v 0.46934 -0.0117925 0.152099
v 1.37431 -0.2 0.126306
v 0.470027 -0.2 -0.0255084
v 0.403709 -0.114408 -0.2
v 0.422625 -0.1 0.1
v 0.384961 -0.14651 -0.147584
v 0.472156 -0.1 -0.2
v 0.24553 -0.2 -0.2
v 1.74036 0.144424 0.141795
v 1.12719 -0.02831 0.0339828
v 0.447518 0.2 0.0587414
v 1.54111 0.2 0.0172789
v 1.44969 0.2 -0.00639955
v 0.169438 0.2 0.125883
v 0.497915 0.118087 -0.2
v 0.526109 0.2 0.0114467
v 0.494595 0.2 0.125253
v 0.560043 -0.2 -0.00604248
v 0.586121 -0.109301 -0.2
v 0.517107 0.00328499 0.2
v 0.0879206 0.0904504 0.2
v 1.11269 0.126228 -0.0222956
v 0.849514 -0.2 0.2
v 0.872589 0.2 -0.2
v 1.00745 0.0214268 -0.106481
v 0.899643 0.2 0.2
v 0.932232 -0.2 0.2
v 2 0.117921 0.2
v 1 -0.2 -0.2
v 0 -0.128157 0.148815
v 1 0.2 0.2
v 1.09427 -0.2 -0.2
v 1.10036 -0.2 0.2
v 0.405512 -0.142836 0.145826
v 1.07242 0.2 -0.2
v 1.08511 0.2 0.2
v 0.265333 0.129464 0.2
v 1.43574 0.0666667 -0.2
v 1.49396 -0.2 -0.116601
v 1.50199 -0.100396 -0.2
v 0.189795 -0.2 -0.0104996
v 2 -0.0290476 0.111582
v 1.50178 0.2 -0.0666667
v 1.50178 0.2 0.1
v 0.822151 0.2 0.0356514
v 1.55131 -0.1 0.1
v 1.5361 -1.38778e-17 0.2
v 1.54006 0.0960742 -0.2
v 1.08352 -0.0219152 0.2
v 1.87877 0.0246731 0.2
v 0.7606 0.149975 -0.0432123
v 0.648843 0.2 0.0374198
v 2 -0.2 0.0358411
v 2 0.00519172 -0.2
v 2 -1.38778e-17 0.2
v 2 0.2 0.042898
v 2 0.2 -0.0532718
v 0.39786 -0.2 0.2
v 0.39786 0.1 -0.1
v 0.39786 0.1 0.1
v 0.598573 0.1 0.1
v 1.38001 0.1 -0.1
v 1.40143 0.1 0.1
v 1.60214 -0.1 -0.1
v 1.60118 -0.2 -0.199964
v 1.5945 -0.117945 0.2
v 0.447391 -0.2 -0.2
v 0.447391 -0.2 0.2
v 0.443162 -0.1 -0.1
v 1.1731 0.2 0.0292222
v 0.53971 0.1 0.0592423
v 0.448686 0.2 -0.2
v 0.434361 0.2 0.2
v 0.498217 0.1 -0.1
v 0.498217 0.1 0.1
v 0.522982 -0.1 -0.1
v 0.547747 -0.2 -0.2
v 0.978428 -0.2 -0.116743
v 0.549043 0.2 0.2
v 1.45711 -0.2 0.2
v 1.50049 -0.2 -0.2
v 1.47598 -0.0948412 0.2
v 1.49181 -0.1 -0.1
v 1.45225 0.2 -0.2
v 1.45225 0.2 0.2
v 1.50178 0.1 -0.1
v 1.5062 0.1 0.099114
v 1.55131 -0.2 0.2
v 2 -0.125346 -0.10701
v 1.58721 0.1 -0.1
v 1.55261 0.2 -0.2
v 1.58824 0.1 0.1
v 1.55261 0.2 0.2
v 0.324329 -0.2 -0.00663604
v 1.11442 0.0586809 0.117092
v 1.52882 0.0435969 0.14839
v 1.46319 -0.0340058 -0.149364
v 0.813459 -0.12484 -0.2
v 0.592274 -0.0317249 0.147802
v 1.32269 -0.115911 -0.2
v 1.74607 -0.148599 0.137016
v 0.154518 -0.145746 -0.132813
v 1.87573 -0.151956 0.144729
v 1.67716 -0.083654 0.2
v 1.92716 0.0246731 -0.2
v 0.322724 -0.13412 -0.2
v 1.42394 -0.2 -0.2
v 0.33023 -0.13024 0.2
v 1.67068 0.134136 0.2
v 1.67068 0.2 0.134136
v 1.37473 -0.2 0.2
v 1.79326 0.2 -0.0361122
v 0.147745 -0.0571727 0.154161
v 1.85352 -0.144667 0.0790689
v 0.399519 0.2 -0.115433
v 0.596095 -0.2 -0.0975671
v 1.59593 -0.2 0.125778
v 0.42237 -0.2 -0.127766
v 0.512827 -0.2 -0.104435
v 0.502513 0.2 -0.11267
v 1.50178 0.100357 0.2
v 1.06328 0.115194 0.2
v 1.12462 -0.050154 -0.2
v 0.854408 0.2 0.144291
v 0 0.120567 0.123814
v 0.743285 -0.103659 0.147612
v 0.713104 0.1 -0.1
v 0.573663 0.1 -0.1
v 1.42634 -0.1 -0.1
v 0.335613 -0.2 0.0475687
v 0.688607 0.146015 -0.2
v 1.43546 0.144259 0.0417199
v 2 0.0750807 -0.0488537
v 0.734959 -0.1 0.0444831
v 1.94464 0.03974 -0.0724093
v 0.0620808 -0.0332386 -0.0213049
v 0.433868 0.123041 0.2
v 1.15794 0.0738618 0.155782
v 1.83775 -0.123997 0.2
v 0.889432 -0.134646 0.2
v 1.75012 -0.146246 0.0645537
v 0.243234 -0.0690453 0.15774
v 1.59948 -0.2 -0.122489
v 1.39548 0.2 0.142222
v 0.524112 0.0781785 0.153123
v 1.45257 -0.093346 -0.153786
v 1.85975 0.0447195 0.0932426
v 1.86209 -0.0480781 -0.0745487
v 0 0.0506538 -0.0018001
v 1.16657 0.0409626 0.114632
v 0.196799 -0.0356791 0.144964
v 1.15137 0.00394978 -0.2
v 1.16971 -0.146376 0.148161
v 0.8 -0.05 0.05
v 0.2 -0.0476311 -0.0459545
v 0.508191 -0.147791 -0.153309
v 0.447988 -0.145221 -0.15965
t 472 471 260 340
t 263 294 434 369
t 399 556 159 75
t 235 11 498 428
t 368 609 244 308
t 218 150 32 482
t 82 679 287 425
t 269 14 241 294
t 272 8 90 353
t 605 547 462 366
t 74 413 362 449
t 473 12 71 245
t 139 67 378 392
t 232 453 630 260
t 92 108 16 220
t 4 320 35 686
t 408 597 508 457
t 4 32 686 35
t 536 565 216 456
t 301 581 124 678
t 553 601 406 104
t 8 314 208 110
t 577 509 487 408
t 139 378 380 379
t 9 207 685 309
t 253 13 101 26
t 101 501 13 684
t 185 11 27 235
t 626 15 104 669
t 28 319 601 15
t 12 71 324 159
t 29 14 75 553
t 14 319 553 29
t 13 322 541 256
t 13 72 73 541
t 13 256 541 73
t 63 383 30 190
t 389 30 190 63
t 112 582 10 658
t 16 318 120 679
t 16 679 120 119
t 275 239 94 475
t 17 466 121 120
t 17 121 466 301
t 628 660 409 274
t 628 614 409 660
t 19 678 310 127
t 44 167 611 76
t 611 619 44 613
t 613 487 408 44
t 408 577 44 487
t 550 199 83 237
t 357 578 519 418
t 357 519 95 418
t 177 48 35 144
t 193 568 230 335
t 348 144 35 48
t 348 145 48 443
t 482 0 218 312
t 136 0 218 482
t 629 353 8 272
t 136 218 32 482
t 505 503 49 571
t 571 674 503 49
t 429 49 571 505
t 328 582 10 112
t 407 614 50 485
t 189 113 293 51
t 130 113 189 51
t 113 51 236 293
t 153 667 35 33
t 66 395 159 71
t 66 159 72 71
t 205 40 70 355
t 477 551 212 630
t 205 40 472 340
t 345 33 507 526
t 507 526 444 141
t 345 507 141 526
t 238 42 248 12
t 80 42 288 238
t 61 62 109 106
t 324 42 238 12
t 80 42 238 324
t 59 207 107 152
t 536 74 362 456
t 74 413 412 116
t 106 190 62 63
t 362 413 74 116
t 185 27 11 78
t 90 8 65 133
t 63 226 30 383
t 383 226 62 63
t 298 185 478 583
t 252 189 130 47
t 276 490 47 533
t 613 47 261 492
t 393 596 504 87
t 674 393 87 596
t 88 36 140 179
t 148 88 36 358
t 148 179 36 88
t 342 261 343 113
t 342 418 627 343
t 578 343 627 418
t 578 343 418 487
t 196 8 90 314
t 65 249 272 90
t 451 196 90 314
t 451 196 277 90
t 196 249 277 90
t 61 62 556 332
t 61 66 332 556
t 303 213 131 400
t 579 400 621 419
t 65 90 272 8
t 295 501 13 26
t 108 282 142 300
t 67 53 278 169
t 108 300 142 296
t 53 72 159 541
t 288 42 248 238
t 288 42 485 248
t 0 447 136 218
t 1 173 444 561
t 33 54 507 526
t 2 358 529 88
t 507 33 170 54
t 7 193 568 55
t 2 88 140 183
t 37 552 100 445
t 3 445 656 518
t 3 100 445 518
t 3 518 446 151
t 100 55 37 7
t 17 313 466 318
t 18 57 464 310
t 4 158 154 491
t 28 322 319 15
t 4 156 166 160
t 4 349 160 166
t 14 319 29 325
t 5 153 165 329
t 5 172 170 155
t 38 272 8 65
t 5 307 171 673
t 5 172 155 350
t 6 326 164 153
t 6 181 178 258
t 94 237 199 365
t 94 237 365 546
t 365 659 199 94
t 6 182 157 147
t 546 659 365 94
t 356 420 96 214
t 647 65 607 367
t 195 451 277 45
t 579 622 617 621
t 9 195 197 206
t 622 579 617 615
t 11 228 204 480
t 153 484 321 5
t 153 165 484 5
t 153 163 33 484
t 153 165 163 484
t 153 484 33 321
t 12 242 149 250
t 630 471 453 212
t 203 337 204 309
t 228 337 111 309
t 13 252 270 295
t 247 486 638 128
t 486 638 128 631
t 263 369 69 346
t 631 638 128 483
t 128 638 248 483
t 14 264 263 267
t 477 70 551 630
t 205 40 340 70
t 130 51 189 252
t 623 520 624 641
t 273 69 544 574
t 492 76 44 533
t 16 287 285 283
t 647 549 277 367
t 376 392 129 279
t 392 391 129 279
t 285 87 504 92
t 455 668 591 193
t 668 591 364 455
t 316 16 679 318
t 40 630 79 471
t 143 132 173 452
t 90 8 133 314
t 305 18 643 105
t 451 665 133 45
t 82 16 283 287
t 679 16 287 119
t 82 122 425 304
t 451 90 133 314
t 187 38 8 65
t 84 534 289 456
t 549 84 289 470
t 453 84 471 260
t 260 84 471 470
t 20 323 506 271
t 20 323 271 523
t 20 523 524 323
t 21 430 512 138
t 381 137 384 62
t 556 75 381 137
t 556 381 62 137
t 569 118 274 593
t 89 204 428 64
t 89 64 557 388
t 35 348 352 144
t 381 75 566 137
t 2 88 529 140
t 37 423 552 445
t 398 383 137 190
t 34 141 444 561
t 507 141 444 34
t 177 48 144 140
t 348 145 144 48
t 144 348 352 191
t 352 36 144 191
t 140 177 36 144
t 36 179 177 140
t 258 6 181 336
t 39 93 370 547
t 519 623 95 418
t 621 420 96 516
t 61 202 372 332
t 97 15 669 330
t 6 182 147 459
t 601 15 98 115
t 177 6 147 179
t 595 393 334 674
t 595 334 220 25
t 50 407 440 284
t 59 210 376 139
t 646 339 201 461
t 646 339 590 201
t 378 380 379 396
t 102 18 213 303
t 635 597 418 509
t 28 15 601 104
t 104 403 115 406
t 601 104 15 115
t 635 333 509 95
t 60 550 468 65
t 73 77 256 396
t 73 396 564 77
t 83 60 65 550
t 635 418 95 509
t 105 18 81 213
t 73 253 417 392
t 71 473 103 654
t 481 245 103 563
t 137 383 384 62
t 75 266 399 566
t 75 259 266 14
t 556 159 75 43
t 59 107 67 152
t 59 67 107 380
t 120 421 422 282
t 190 556 75 43
t 67 107 278 53
t 119 287 425 323
t 557 428 655 64
t 265 557 655 64
t 119 287 271 286
t 331 584 161 430
t 119 425 524 323
t 122 425 304 636
t 565 639 174 589
t 216 639 174 565
t 84 549 289 534
t 44 577 408 167
t 44 619 611 167
t 577 167 648 408
t 177 157 320 156
t 177 6 320 157
t 310 81 356 302
t 302 214 356 310
t 356 214 96 310
t 96 356 310 81
t 314 685 208 110
t 8 110 208 308
t 110 311 61 8
t 208 59 152 207
t 110 109 61 311
t 545 7 194 465
t 194 465 7 335
t 194 465 335 230
t 232 212 200 532
t 239 112 39 370
t 41 239 370 112
t 458 232 536 532
t 80 407 485 42
t 126 305 127 438
t 254 305 126 438
t 148 460 179 183
t 290 17 333 313
t 216 155 5 321
t 117 320 6 157
t 486 569 118 274
t 277 549 470 367
t 471 470 367 45
t 84 367 471 470
t 549 367 84 470
t 144 348 191 145
t 233 192 229 496
t 233 192 236 229
t 486 118 125 274
t 296 198 385 648
t 648 509 198 385
t 574 593 69 615
t 615 617 574 593
t 273 593 69 574
t 574 593 617 273
t 232 200 536 532
t 84 289 260 456
t 532 200 536 176
t 232 453 536 200
t 263 411 369 346
t 130 261 613 47
t 263 98 411 346
t 130 613 261 113
t 411 98 293 346
t 507 374 444 526
t 138 634 301 121
t 369 294 593 188
t 263 14 267 294
t 215 397 10 186
t 283 316 82 304
t 304 303 316 18
t 220 16 318 142
t 286 405 16 92
t 300 672 17 142
t 146 227 37 445
t 70 477 228 111
t 291 477 111 228
t 195 292 441 206
t 195 292 45 470
t 471 470 45 292
t 263 98 319 411
t 149 242 631 250
t 125 149 242 631
t 631 483 149 250
t 80 42 485 288
t 345 150 33 526
t 345 150 32 33
t 532 364 200 176
t 232 630 453 212
t 373 583 547 478
t 8 110 308 61
t 110 152 61 109
t 225 254 126 438
t 438 126 225 433
t 530 254 22 225
t 438 254 530 225
t 29 43 75 159
t 109 207 106 63
t 207 63 107 106
t 478 592 583 185
t 153 163 667 33
t 484 165 34 5
t 37 227 146 163
t 37 680 162 163
t 37 146 680 163
t 680 359 164 358
t 360 358 164 359
t 361 165 34 163
t 380 67 107 278
t 380 278 107 363
t 152 53 279 66
t 279 375 152 66
t 169 73 541 256
t 67 73 169 378
t 378 256 73 169
t 679 123 122 464
t 316 679 122 464
t 255 126 304 246
t 255 126 254 305
t 255 126 246 254
t 304 255 18 126
t 305 126 18 255
t 647 65 277 249
t 250 12 242 511
t 12 242 511 473
t 285 393 504 87
t 393 285 334 87
t 334 393 87 674
t 10 328 109 63
t 10 109 62 63
t 226 10 62 63
t 226 328 10 63
t 46 185 27 235
t 488 228 185 437
t 293 192 236 233
t 83 187 186 199
t 293 15 192 98
t 65 187 83 199
t 252 13 322 189
t 97 189 252 371
t 263 188 319 14
t 263 411 319 188
t 263 294 369 188
t 47 189 261 492
t 190 383 137 62
t 190 553 75 398
t 424 331 120 584
t 424 584 120 421
t 325 14 259 29
t 325 29 259 159
t 179 6 147 459
t 42 149 247 248
t 247 128 638 248
t 247 248 638 485
t 247 42 248 485
t 247 149 128 248
t 47 490 270 295
t 472 260 599 232
t 599 260 472 289
t 260 289 599 456
t 536 260 565 456
t 381 566 384 137
t 383 137 384 566
t 578 597 487 418
t 679 123 120 281
t 679 122 123 281
t 281 432 122 123
t 107 63 68 53
t 63 68 53 190
t 107 63 53 106
t 63 53 106 190
t 379 396 564 73
t 259 14 75 29
t 379 73 378 396
t 259 29 75 159
t 226 262 10 222
t 226 262 222 555
t 314 9 208 685
t 34 86 141 561
t 96 356 81 516
t 213 96 81 516
t 290 333 299 635
t 283 393 285 334
t 503 221 419 595
t 520 420 214 623
t 302 520 356 214
t 302 520 214 641
t 520 623 214 641
t 640 95 519 623
t 166 217 637 535
t 535 600 217 537
t 535 168 217 600
t 154 413 521 217
t 450 521 154 413
t 450 217 362 600
t 450 537 217 600
t 194 335 224 467
t 157 463 182 117
t 463 117 168 590
t 175 458 639 216
t 155 174 412 216
t 155 661 412 174
t 536 216 74 456
t 405 142 16 108
t 307 5 682 673
t 467 194 335 230
t 190 398 389 406
t 150 54 33 526
t 296 333 198 297
t 457 333 632 297
t 258 336 201 462
t 324 159 72 541
t 324 325 159 58
t 190 406 553 398
t 640 214 95 623
t 640 641 214 623
t 264 398 553 406
t 218 54 158 150
t 218 633 32 150
t 11 480 204 428
t 480 655 428 235
t 221 303 316 283
t 455 591 176 223
t 591 223 455 193
t 336 6 326 258
t 224 336 462 184
t 193 175 223 455
t 651 239 370 659
t 370 651 547 93
t 370 651 93 239
t 651 659 370 605
t 269 434 118 495
t 118 593 434 294
t 118 434 269 294
t 594 497 675 494
t 146 528 86 227
t 146 514 227 445
t 227 528 86 34
t 361 528 227 34
t 361 528 431 227
t 354 193 230 335
t 28 541 29 58
t 324 541 72 13
t 632 231 17 299
t 299 301 670 231
t 510 300 231 512
t 632 300 17 231
t 340 40 471 630
t 180 284 25 595
t 87 25 92 334
t 202 308 8 629
t 368 375 609 308
t 629 244 202 308
t 239 416 658 662
t 215 658 662 94
t 94 239 658 662
t 416 476 377 662
t 662 377 215 476
t 183 88 140 179
t 301 234 678 313
t 678 19 234 344
t 148 179 88 183
t 594 236 494 675
t 675 236 616 229
t 605 651 646 462
t 546 646 590 605
t 416 475 239 93
t 284 240 385 577
t 125 274 241 114
t 125 118 241 274
t 118 241 274 593
t 51 192 236 293
t 244 609 280 66
t 308 609 244 66
t 166 463 168 515
t 166 168 217 535
t 166 217 168 117
t 166 168 535 515
t 499 18 102 24
t 499 18 24 105
t 246 126 304 636
t 24 255 304 246
t 546 651 659 239
t 677 486 247 660
t 677 247 486 571
t 308 353 469 368
t 196 353 249 90
t 594 113 494 236
t 591 193 354 335
t 591 193 668 354
t 467 335 591 354
t 154 413 217 116
t 205 355 70 337
t 203 355 337 309
t 657 9 355 203
t 203 355 309 9
t 251 68 64 388
t 251 64 89 388
t 303 213 400 419
t 303 505 419 400
t 215 397 186 83
t 151 37 360 91
t 151 446 360 37
t 369 273 411 188
t 91 164 37 360
t 148 164 36 178
t 233 293 346 594
t 346 293 273 594
t 411 293 273 346
t 681 15 626 669
t 371 669 15 681
t 334 92 16 220
t 595 284 25 220
t 462 336 201 590
t 462 336 590 184
t 165 211 55 361
t 644 165 682 5
t 55 423 37 165
t 614 407 50 284
t 570 674 614 180
t 243 242 325 259
t 473 159 71 12
t 654 473 159 71
t 654 259 242 683
t 683 243 259 242
t 180 50 284 614
t 394 204 207 203
t 314 208 9 197
t 196 427 208 197
t 78 31 112 39
t 61 66 556 106
t 66 53 556 106
t 61 152 66 106
t 289 84 260 470
t 152 106 53 66
t 372 384 262 62
t 556 75 137 190
t 287 286 119 16
t 389 265 63 64
t 389 265 30 63
t 389 265 64 386
t 25 92 220 296
t 405 108 16 92
t 25 220 219 296
t 25 385 296 219
t 211 329 193 175
t 590 515 365 168
t 590 463 515 168
t 397 61 202 372
t 119 271 523 421
t 60 65 468 272
t 468 272 249 401
t 401 60 468 272
t 239 416 662 475
t 416 222 377 476
t 476 377 215 222
t 94 239 662 475
t 149 483 248 250
t 492 276 44 613
t 532 212 200 364
t 204 64 363 207
t 278 53 68 169
t 278 107 68 53
t 363 278 107 68
t 251 68 278 363
t 152 53 67 279
t 67 376 152 279
t 376 279 67 392
t 680 164 37 162
t 680 37 164 359
t 164 360 359 37
t 592 583 373 478
t 592 370 373 583
t 423 165 163 37
t 423 227 37 163
t 373 602 366 370
t 373 602 606 366
t 444 507 34 374
t 34 374 173 444
t 140 48 144 529
t 293 98 192 233
t 233 98 192 496
t 226 262 555 383
t 102 213 131 303
t 652 623 624 519
t 519 624 640 623
t 308 208 368 375
t 427 375 368 208
t 205 441 657 474
t 591 176 364 455
t 125 149 631 486
t 577 240 648 167
t 185 592 78 291
t 40 79 292 471
t 205 292 472 40
t 118 294 241 593
t 639 257 350 454
t 432 123 281 414
t 432 281 424 414
t 47 295 189 492
t 119 432 281 424
t 551 668 676 532
t 668 364 676 532
t 364 606 668 676
t 551 668 477 676
t 416 377 658 662
t 662 658 215 377
t 429 628 571 49
t 571 49 628 614
t 674 49 571 614
t 621 400 622 213
t 621 622 516 213
t 205 355 337 203
t 517 213 102 499
t 517 213 499 105
t 213 18 102 499
t 213 18 499 105
t 442 436 559 317
t 384 566 306 383
t 650 647 347 607
t 240 50 440 284
t 5 644 171 307
t 644 5 682 307
t 422 300 142 282
t 645 300 17 142
t 308 66 61 152
t 375 308 152 66
t 332 66 61 308
t 309 207 109 11
t 228 111 11 309
t 204 309 11 207
t 310 313 678 19
t 397 311 10 186
t 312 526 150 345
t 312 526 54 150
t 99 313 95 19
t 9 207 208 685
t 9 207 59 208
t 195 314 665 9
t 18 316 464 57
t 318 17 120 466
t 672 318 17 142
t 142 318 17 120
t 219 318 17 672
t 170 321 5 155
t 322 15 28 681
t 371 681 15 322
t 371 322 15 293
t 243 241 14 325
t 326 7 164 153
t 91 164 7 37
t 327 126 246 636
t 636 327 126 433
t 27 328 11 78
t 329 153 165 7
t 82 16 287 679
t 155 413 412 625
t 578 597 418 635
t 87 285 334 92
t 591 335 223 193
t 648 619 508 408
t 198 333 457 297
t 198 333 509 457
t 648 457 508 297
t 408 619 508 597
t 648 457 509 408
t 340 630 551 70
t 472 40 471 340
t 594 261 342 113
t 594 342 494 113
t 594 494 342 618
t 613 343 492 261
t 487 343 577 492
t 492 407 76 52
t 344 19 99 540
t 315 351 19 317
t 465 55 100 7
t 151 135 100 545
t 37 100 7 545
t 156 157 320 166
t 117 166 320 157
t 346 273 69 497
t 550 347 65 607
t 607 647 347 65
t 160 447 539 349
t 160 349 539 637
t 539 158 349 447
t 154 521 158 349
t 217 637 448 349
t 217 521 154 349
t 258 181 201 336
t 336 201 182 181
t 639 350 174 454
t 351 540 19 344
t 522 351 85 344
t 351 540 302 19
t 221 303 18 316
t 227 34 86 163
t 175 176 458 216
t 176 175 223 216
t 175 458 176 455
t 223 175 176 455
t 614 570 50 485
t 357 95 640 99
t 357 578 418 635
t 290 635 357 95
t 83 186 94 199
t 94 41 199 186
t 215 186 94 83
t 215 658 94 186
t 94 41 186 658
t 324 71 72 159
t 238 324 71 72
t 491 158 154 572
t 170 33 321 491
t 170 572 321 155
t 572 491 321 154
t 21 430 138 525
t 153 162 35 667
t 153 163 162 667
t 657 441 206 474
t 657 206 9 209
t 292 9 657 206
t 657 474 206 209
t 292 657 441 206
t 380 363 89 251
t 376 375 152 279
t 376 129 375 279
t 152 207 107 106
t 152 107 67 53
t 369 411 273 346
t 152 107 53 106
t 558 392 376 139
t 558 139 379 392
t 379 392 527 558
t 195 665 451 45
t 678 317 124 127
t 127 435 317 124
t 510 299 512 231
t 242 259 473 325
t 654 242 259 473
t 242 325 473 12
t 270 276 490 47
t 110 207 152 109
t 621 96 213 516
t 224 326 7 91
t 258 326 224 91
t 196 353 8 308
t 469 560 244 368
t 425 122 679 119
t 82 122 679 425
t 369 273 69 346
t 477 630 111 70
t 369 188 593 273
t 369 273 593 69
t 189 261 130 47
t 189 130 261 113
t 189 113 261 293
t 40 630 111 79
t 592 477 212 111
t 380 251 278 363
t 278 378 251 380
t 380 402 378 251
t 392 391 279 72
t 204 337 228 309
t 204 228 11 309
t 390 280 103 560
t 395 71 280 103
t 390 280 71 103
t 330 496 115 567
t 195 196 451 314
t 195 196 277 451
t 264 319 263 601
t 252 410 371 256
t 252 256 371 322
t 252 371 410 97
t 398 137 566 75
t 88 358 529 36
t 88 36 529 140
t 191 36 144 529
t 191 36 529 358
t 529 140 36 144
t 355 79 111 309
t 315 302 310 19
t 337 355 111 309
t 301 234 313 290
t 301 313 17 290
t 234 99 19 313
t 355 79 309 9
t 119 286 271 405
t 286 405 119 16
t 205 657 40 355
t 40 79 657 292
t 205 657 292 40
t 685 207 109 309
t 685 309 109 56
t 685 109 110 56
t 685 207 110 109
t 40 79 355 657
t 221 503 419 303
t 395 399 381 556
t 399 75 381 556
t 159 75 259 399
t 395 556 159 399
t 168 166 117 463
t 463 166 117 157
t 234 290 99 313
t 315 310 302 643
t 194 224 7 91
t 572 321 155 154
t 194 7 224 335
t 503 393 334 595
t 595 674 503 393
t 285 287 16 286
t 285 287 286 506
t 197 208 376 427
t 376 375 208 152
t 317 344 19 678
t 119 426 122 432
t 119 426 432 424
t 308 196 368 208
t 196 427 368 208
t 252 256 77 410
t 252 13 77 256
t 270 252 13 77
t 105 18 24 305
t 24 255 254 305
t 305 255 18 24
t 139 67 380 378
t 380 378 402 396
t 332 66 395 556
t 332 381 556 395
t 202 332 61 308
t 308 244 202 332
t 473 242 103 654
t 195 277 470 45
t 470 277 367 45
t 438 127 126 382
t 664 666 382 126
t 442 127 382 435
t 664 382 432 435
t 296 198 648 297
t 648 198 457 297
t 648 198 509 457
t 546 239 94 275
t 640 641 624 387
t 651 239 275 93
t 83 397 186 187
t 52 533 295 26
t 80 52 295 26
t 391 392 253 72
t 380 394 207 203
t 380 394 363 207
t 380 394 89 363
t 435 436 317 124
t 442 317 435 436
t 482 32 136 348
t 482 136 443 348
t 345 32 482 348
t 170 321 33 484
t 170 5 321 484
t 220 108 142 296
t 92 108 220 296
t 256 77 580 396
t 169 256 626 404
t 580 404 256 169
t 378 256 580 396
t 104 330 15 115
t 400 505 419 579
t 401 272 249 469
t 469 629 401 272
t 402 404 580 169
t 402 378 580 396
t 471 472 470 292
t 148 178 91 164
t 360 148 91 164
t 119 405 271 421
t 415 544 502 543
t 502 543 618 415
t 502 543 575 618
t 434 369 593 69
t 263 369 434 69
t 410 404 371 256
t 19 678 127 317
t 410 77 404 256
t 315 19 127 317
t 67 73 72 169
t 412 456 74 216
t 74 412 216 116
t 67 53 169 72
t 412 456 449 74
t 449 456 362 74
t 412 413 74 449
t 413 362 450 217
t 413 362 217 116
t 413 450 362 449
t 281 123 120 414
t 414 123 435 432
t 398 137 75 190
t 253 72 324 238
t 391 253 238 72
t 497 233 346 594
t 346 594 273 497
t 203 309 204 207
t 196 208 314 197
t 196 314 195 197
t 243 325 242 125
t 39 31 112 416
t 112 31 658 416
t 73 253 684 417
t 417 684 73 564
t 66 395 556 159
t 397 187 311 186
t 252 322 371 189
t 370 547 651 605
t 605 547 651 462
t 250 511 242 481
t 511 242 481 103
t 340 630 260 232
t 630 453 471 260
t 250 248 511 481
t 481 511 103 245
t 629 469 353 272
t 301 299 17 231
t 272 353 249 469
t 629 308 353 469
t 621 622 574 516
t 617 622 574 621
t 617 574 420 621
t 621 574 420 516
t 594 513 618 415
t 594 513 494 618
t 457 509 635 333
t 513 502 618 415
t 513 502 575 618
t 513 575 494 618
t 423 361 55 431
t 55 361 423 165
t 361 165 163 423
t 361 227 423 163
t 361 227 431 423
t 408 487 613 597
t 131 213 517 400
t 102 213 517 131
t 105 213 81 517
t 218 312 54 150
t 427 208 376 375
t 379 73 392 378
t 89 428 557 64
t 480 428 11 235
t 655 428 498 64
t 385 509 219 284
t 284 220 219 25
t 25 284 385 219
t 546 651 646 605
t 305 254 588 438
t 431 514 445 227
t 423 431 552 445
t 431 227 445 423
t 243 266 14 269
t 397 215 10 262
t 222 262 10 215
t 210 206 9 197
t 98 15 192 496
t 73 77 564 684
t 115 15 98 496
t 97 15 330 496
t 115 330 15 496
t 192 15 97 496
t 434 593 495 69
t 40 79 111 355
t 345 150 312 482
t 569 495 118 593
t 118 495 434 593
t 488 228 437 479
t 228 479 480 437
t 240 440 577 284
t 593 495 615 569
t 205 472 441 474
t 292 205 472 441
t 292 472 470 441
t 324 13 253 26
t 238 324 253 26
t 405 282 142 108
t 640 623 624 641
t 164 7 37 153
t 165 153 37 7
t 345 32 150 482
t 18 126 464 122
t 316 464 122 18
t 304 316 122 18
t 304 18 122 126
t 451 65 277 45
t 451 133 65 45
t 451 90 65 133
t 451 90 277 65
t 332 62 556 381
t 372 62 332 381
t 536 84 453 260
t 232 536 453 260
t 232 453 200 212
t 362 367 453 84
t 373 592 548 606
t 592 478 373 548
t 676 548 610 592
t 297 457 508 510
t 606 548 676 592
t 592 478 548 610
t 201 461 182 181
t 91 326 7 164
t 678 127 124 123
t 464 678 123 127
t 464 57 123 678
t 466 124 123 678
t 466 678 123 57
t 57 123 679 464
t 466 414 121 120
t 466 121 414 124
t 679 466 120 123
t 466 57 123 679
t 177 136 35 48
t 156 136 35 177
t 53 159 556 43
t 190 53 556 43
t 139 210 376 558
t 210 558 139 671
t 379 671 139 558
t 44 76 611 533
t 44 276 611 613
t 44 533 611 276
t 22 254 246 327
t 254 126 246 327
t 327 254 126 225
t 225 254 22 327
t 303 503 283 221
t 283 503 334 221
t 283 503 393 334
t 102 18 304 24
t 304 24 18 255
t 83 237 199 94
t 94 659 199 41
t 303 503 419 505
t 344 317 85 338
t 644 34 5 143
t 644 143 5 171
t 171 172 143 5
t 143 173 34 5
t 336 326 224 258
t 570 50 180 614
t 354 230 668 604
t 548 668 604 354
t 591 354 668 548
t 565 589 456 599
t 565 599 458 589
t 565 639 589 458
t 276 533 47 492
t 492 533 295 52
t 47 533 295 492
t 492 533 44 276
t 565 260 599 456
t 232 565 260 599
t 458 565 232 599
t 163 34 86 33
t 86 33 507 345
t 578 597 613 487
t 86 33 34 507
t 667 86 345 33
t 592 488 185 478
t 478 488 185 298
t 478 488 298 479
t 345 507 86 141
t 163 86 667 33
t 633 4 32 491
t 150 158 491 54
t 150 633 32 491
t 68 406 553 190
t 406 68 104 403
t 190 68 406 389
t 406 389 68 403
t 546 605 365 659
t 515 237 365 538
t 494 616 624 575
t 334 92 220 25
t 68 553 406 104
t 27 11 498 235
t 226 576 27 498
t 498 428 11 64
t 265 655 498 64
t 265 235 576 498
t 24 255 246 254
t 101 490 501 489
t 295 490 501 26
t 536 362 453 84
t 536 362 84 456
t 592 477 111 291
t 390 103 563 560
t 592 488 477 291
t 592 488 291 185
t 684 253 101 417
t 417 489 684 564
t 684 77 564 489
t 253 13 684 101
t 298 437 185 235
t 185 437 11 235
t 437 480 11 235
t 525 331 121 573
t 524 425 119 426
t 523 119 421 424
t 585 327 636 433
t 585 433 636 122
t 507 86 141 34
t 146 528 227 514
t 431 528 514 227
t 605 366 462 184
t 583 592 78 185
t 373 370 547 583
t 430 121 634 138
t 430 525 331 121
t 430 121 138 525
t 323 119 287 271
t 323 119 271 523
t 323 523 524 119
t 518 445 656 37
t 518 100 445 37
t 518 37 446 151
t 151 518 37 100
t 561 173 444 34
t 143 528 34 561
t 143 561 34 173
t 218 633 136 32
t 218 150 482 312
t 217 448 521 349
t 113 261 343 613
t 613 487 44 492
t 41 239 112 658
t 70 228 337 111
t 325 149 242 125
t 373 592 602 370
t 373 592 606 602
t 146 227 86 163
t 146 86 680 163
t 278 169 68 251
t 402 404 169 251
t 278 169 251 378
t 378 402 169 251
t 110 208 152 207
t 379 392 564 527
t 221 213 303 419
t 208 207 110 685
t 226 10 328 582
t 582 46 78 27
t 582 78 46 31
t 254 530 588 438
t 551 676 212 532
t 551 455 668 532
t 407 485 76 52
t 533 490 295 26
t 492 76 533 52
t 537 688 598 535
t 537 600 688 535
t 521 158 349 539
t 125 114 241 325
t 302 214 540 641
t 640 522 540 641
t 640 641 540 214
t 640 522 99 540
t 640 99 95 214
t 640 540 99 214
t 175 171 350 639
t 175 216 639 350
t 216 350 174 639
t 349 637 160 166
t 166 349 637 217
t 29 43 541 28
t 12 325 159 324
t 29 43 159 541
t 26 501 13 101
t 26 490 501 101
t 288 80 26 52
t 370 547 605 366
t 462 201 646 590
t 415 574 544 543
t 383 62 262 384
t 383 555 384 262
t 263 267 434 294
t 269 434 267 294
t 546 237 365 515
t 545 135 100 465
t 545 100 7 465
t 226 582 328 27
t 582 78 328 27
t 226 498 328 63
t 27 498 11 328
t 226 27 328 498
t 46 185 78 27
t 46 298 185 235
t 676 610 548 668
t 614 247 571 612
t 614 247 612 570
t 37 55 100 552
t 37 423 55 552
t 423 431 55 552
t 541 322 28 256
t 541 58 28 322
t 28 29 553 319
t 28 58 29 319
t 325 29 159 58
t 29 553 43 28
t 28 601 553 104
t 29 553 75 43
t 210 139 59 671
t 380 671 59 139
t 23 442 341 587
t 559 436 586 338
t 430 121 422 634
t 645 634 422 121
t 639 171 350 257
t 539 349 448 637
t 448 521 349 539
t 34 86 561 528
t 537 637 448 217
t 537 448 535 598
t 404 653 330 104
t 7 568 465 55
t 568 465 335 7
t 646 339 603 546
t 339 590 463 546
t 339 463 336 182
t 317 351 19 344
t 85 344 351 317
t 355 70 111 40
t 337 70 111 355
t 125 114 325 149
t 621 579 622 400
t 54 491 170 572
t 498 226 576 30
t 265 576 30 498
t 124 573 435 436
t 573 414 124 435
t 213 516 81 517
t 213 400 622 517
t 213 622 516 517
t 344 19 234 99
t 576 235 46 27
t 576 235 27 498
t 302 214 310 19
t 256 77 404 580
t 586 338 124 581
t 112 31 582 658
t 78 31 582 112
t 583 31 78 39
t 46 78 583 31
t 31 222 377 416
t 31 222 582 377
t 98 233 293 346
t 487 343 492 613
t 108 142 16 220
t 386 557 265 64
t 601 319 263 98
t 66 609 280 390
t 469 368 244 308
t 368 609 560 244
t 546 659 94 239
t 94 659 41 239
t 486 42 660 274
t 169 541 28 256
t 68 553 28 43
t 68 28 553 104
t 169 43 28 541
t 119 424 523 620
t 620 119 524 523
t 180 595 674 614
t 251 404 169 68
t 68 626 104 404
t 68 169 626 404
t 104 68 404 653
t 404 68 251 653
t 625 450 413 449
t 155 625 412 661
t 625 413 412 449
t 661 625 412 449
t 661 412 456 449
t 104 406 115 601
t 354 193 668 230
t 28 15 104 626
t 681 15 28 626
t 281 120 424 414
t 553 319 264 601
t 266 493 566 268
t 13 270 684 501
t 684 270 13 77
t 501 270 489 490
t 342 627 652 113
t 578 113 652 627
t 578 652 519 627
t 342 652 627 618
t 652 519 627 623
t 652 618 623 627
t 378 580 256 169
t 402 580 378 169
t 684 101 489 417
t 362 534 84 456
t 124 573 436 586
t 532 455 668 364
t 505 503 419 49
t 339 463 590 336
t 49 595 503 419
t 49 419 409 595
t 201 339 590 336
t 336 463 590 117
t 550 199 237 607
t 538 607 550 237
t 538 237 365 607
t 486 660 628 274
t 486 677 628 660
t 237 199 365 607
t 486 274 628 569
t 569 486 429 628
t 571 628 486 677
t 296 333 219 198
t 198 509 333 219
t 385 240 648 577
t 648 577 509 385
t 296 219 385 198
t 198 509 219 385
t 164 178 326 6
t 38 629 8 272
t 202 8 38 629
t 164 178 91 326
t 538 515 168 365
t 91 178 258 326
t 326 178 258 6
t 340 630 232 551
t 551 212 630 232
t 545 7 91 194
t 340 260 472 232
t 145 529 144 48
t 144 145 191 529
t 317 436 559 338
t 442 559 23 317
t 23 442 317 341
t 225 126 327 433
t 195 292 470 441
t 31 377 658 416
t 31 377 582 658
t 582 377 10 658
t 658 10 215 377
t 13 324 541 322
t 324 58 541 322
t 646 590 339 546
t 201 339 182 461
t 201 339 336 182
t 416 476 662 475
t 44 408 619 167
t 408 167 648 619
t 510 231 632 299
t 510 300 632 231
t 297 300 632 510
t 344 540 99 522
t 351 522 540 344
t 351 641 302 540
t 120 331 414 121
t 414 120 424 331
t 331 422 121 120
t 360 531 358 134
t 238 80 26 288
t 238 324 26 80
t 90 249 277 65
t 674 595 503 49
t 595 49 674 614
t 593 495 69 615
t 103 473 71 245
t 473 242 511 103
t 511 473 103 245
t 407 440 76 50
t 407 440 492 76
t 407 50 76 485
t 633 136 160 447
t 158 218 633 447
t 218 447 136 633
t 138 670 301 634
t 430 634 512 138
t 430 634 422 512
t 300 512 422 634
t 231 301 670 634
t 231 300 634 512
t 271 287 506 286
t 323 287 506 271
t 481 248 511 245
t 248 238 12 245
t 511 248 12 245
t 226 582 46 31
t 226 582 31 222
t 537 448 637 535
t 263 369 411 188
t 480 557 428 655
t 122 425 636 585
t 221 316 16 283
t 283 334 16 221
t 374 507 34 170
t 14 319 264 553
t 244 609 560 280
t 280 609 560 390
t 303 316 283 304
t 205 657 355 203
t 203 209 205 657
t 222 555 262 476
t 136 0 482 443
t 613 408 619 44
t 619 408 613 597
t 247 638 571 612
t 247 638 612 570
t 308 196 353 368
t 196 8 353 90
t 389 30 398 190
t 398 30 383 190
t 172 170 173 5
t 173 170 34 5
t 594 497 233 675
t 594 236 675 233
t 594 293 236 233
t 680 36 164 162
t 643 310 464 127
t 643 310 18 464
t 643 315 310 127
t 268 264 553 14
t 264 553 398 268
t 324 58 159 541
t 58 29 159 541
t 674 25 334 595
t 674 180 25 595
t 674 25 87 334
t 350 257 174 454
t 357 95 519 640
t 23 317 85 341
t 630 212 79 471
t 477 212 111 630
t 630 212 111 79
t 533 642 611 276
t 643 18 81 105
t 643 310 302 81
t 643 18 310 81
t 583 39 370 547
t 39 78 583 370
t 39 416 239 93
t 416 112 39 239
t 361 644 165 211
t 644 361 171 307
t 361 644 211 307
t 361 644 34 165
t 361 34 644 143
t 422 300 645 142
t 422 142 645 120
t 422 121 120 645
t 410 371 404 97
t 233 236 675 229
t 97 669 404 330
t 371 669 404 97
t 332 66 280 395
t 319 98 293 411
t 290 95 357 99
t 189 51 293 97
t 594 497 513 663
t 497 273 544 663
t 663 544 497 502
t 497 594 273 663
t 497 502 513 663
t 44 577 167 76
t 492 577 44 76
t 577 240 167 76
t 440 577 492 76
t 440 577 76 240
t 680 352 162 667
t 162 352 35 667
t 379 671 380 139
t 392 73 67 378
t 451 314 133 665
t 195 314 451 665
t 61 152 106 109
t 152 207 106 109
t 420 520 356 516
t 420 356 96 516
t 394 204 363 207
t 394 204 89 363
t 11 63 207 109
t 11 207 63 64
t 484 163 33 34
t 328 11 109 63
t 484 165 163 34
t 6 35 153 36
t 153 36 35 162
t 6 153 164 36
t 153 36 162 164
t 498 63 11 328
t 498 11 63 64
t 381 399 566 75
t 467 335 354 230
t 68 43 28 169
t 53 68 169 43
t 190 68 53 43
t 380 59 671 203
t 172 173 143 5
t 172 143 173 452
t 71 654 103 395
t 395 654 159 71
t 159 259 654 399
t 594 113 236 293
t 153 37 162 163
t 153 164 162 37
t 153 37 163 165
t 686 153 33 321
t 686 320 35 153
t 686 153 35 33
t 610 478 488 592
t 610 488 477 592
t 107 68 63 64
t 207 107 63 64
t 363 68 107 64
t 363 107 207 64
t 53 159 72 66
t 556 159 53 66
t 106 190 53 556
t 657 79 9 292
t 111 70 630 40
t 340 40 630 70
t 260 472 289 470
t 656 146 37 445
t 585 433 122 426
t 97 189 371 293
t 371 322 293 189
t 659 239 370 41
t 660 42 485 407
t 660 486 247 42
t 660 42 247 485
t 221 303 213 18
t 194 258 462 224
t 521 413 450 217
t 412 174 456 216
t 661 456 412 174
t 177 320 35 156
t 156 4 320 35
t 136 35 32 4
t 53 541 159 43
t 53 169 541 43
t 553 190 75 43
t 68 190 553 43
t 78 582 328 112
t 46 78 185 583
t 156 35 136 4
t 156 4 136 160
t 467 230 354 604
t 548 354 604 467
t 494 497 675 575
t 494 236 616 675
t 494 652 616 236
t 622 617 574 615
t 617 593 615 569
t 532 455 176 458
t 438 664 382 126
t 442 382 664 435
t 438 664 126 433
t 457 509 597 635
t 178 459 6 179
t 450 537 448 217
t 450 448 521 217
t 450 448 537 649
t 195 665 45 292
t 372 397 10 262
t 372 10 61 62
t 372 262 10 62
t 351 522 641 540
t 674 612 571 596
t 586 124 121 301
t 586 138 301 121
t 586 525 138 121
t 520 356 214 420
t 664 432 382 666
t 122 433 666 432
t 122 666 123 432
t 664 432 666 433
t 382 432 123 666
t 680 86 352 667
t 308 110 208 152
t 308 110 152 61
t 453 367 471 84
t 68 28 104 626
t 68 169 28 626
t 169 256 28 626
t 525 573 121 586
t 121 573 124 586
t 14 259 266 243
t 243 259 325 14
t 399 243 266 259
t 59 671 203 209
t 203 9 207 59
t 203 209 9 59
t 380 207 59 203
t 67 169 278 378
t 379 73 564 392
t 653 68 251 388
t 626 669 104 404
t 256 669 626 404
t 371 404 669 256
t 104 404 669 330
t 629 308 8 353
t 469 244 629 308
t 299 670 512 231
t 138 512 670 634
t 231 670 512 634
t 457 333 299 632
t 632 299 457 510
t 333 17 299 632
t 293 15 97 192
t 97 293 371 15
t 267 264 268 14
t 267 266 14 268
t 12 238 71 245
t 209 210 9 59
t 210 671 59 209
t 226 62 10 262
t 429 486 571 628
t 429 628 49 409
t 375 308 208 152
t 348 667 352 345
t 352 348 35 667
t 352 36 680 162
t 352 680 36 358
t 352 36 35 144
t 352 36 191 358
t 352 36 162 35
t 672 300 297 296
t 300 296 672 142
t 296 220 672 142
t 219 220 672 296
t 296 672 333 297
t 296 672 219 333
t 673 307 171 175
t 307 673 211 175
t 211 673 329 175
t 175 171 673 350
t 216 175 329 673
t 175 216 350 673
t 38 60 272 65
t 38 629 272 60
t 422 331 121 430
t 331 584 430 422
t 120 331 422 584
t 50 440 76 240
t 112 416 658 239
t 650 367 647 607
t 46 185 298 583
t 226 576 46 27
t 226 46 582 27
t 583 592 370 78
t 276 47 613 492
t 130 613 276 47
t 252 189 47 295
t 270 490 501 295
t 39 112 78 370
t 160 447 349 633
t 349 158 633 447
t 551 532 212 232
t 551 532 232 458
t 551 455 532 458
t 676 364 212 532
t 342 343 627 113
t 578 113 627 343
t 652 618 624 623
t 486 274 125 114
t 486 114 42 274
t 486 114 125 149
t 486 149 42 114
t 61 62 106 556
t 556 190 62 106
t 34 170 173 374
t 653 330 104 567
t 653 403 567 104
t 330 115 104 567
t 567 403 115 104
t 250 248 12 511
t 606 676 212 592
t 606 676 548 668
t 606 591 364 668
t 594 663 513 415
t 614 677 247 660
t 614 247 677 571
t 677 614 628 660
t 571 628 677 614
t 614 660 485 407
t 614 660 247 485
t 614 247 570 485
t 364 606 676 212
t 535 515 168 538
t 332 66 244 280
t 170 491 321 572
t 400 213 621 419
t 473 259 159 325
t 654 473 259 159
t 395 654 399 159
t 357 418 95 635
t 165 682 329 211
t 644 682 165 211
t 537 649 598 688
t 537 600 649 688
t 680 164 36 358
t 247 486 128 149
t 42 486 247 149
t 486 128 149 631
t 247 638 486 571
t 505 429 419 579
t 579 429 617 569
t 579 429 419 617
t 550 65 199 607
t 550 65 83 199
t 320 6 35 153
t 177 36 35 6
t 177 6 35 320
t 151 100 37 545
t 151 37 91 545
t 170 484 33 34
t 686 32 33 35
t 491 33 321 686
t 491 686 32 33
t 338 234 678 581
t 678 124 317 338
t 338 581 678 124
t 338 678 234 344
t 317 344 678 338
t 491 686 321 4
t 679 281 120 119
t 491 4 321 154
t 679 119 287 425
t 316 122 679 82
t 301 121 466 124
t 301 678 466 313
t 156 166 320 4
t 305 464 126 127
t 491 4 32 686
t 305 643 464 127
t 301 124 466 678
t 313 678 466 57
t 310 678 464 127
t 310 57 464 678
t 316 57 679 464
t 318 466 120 679
t 466 57 679 318
t 536 84 260 456
t 232 536 260 565
t 458 536 232 565
t 633 136 32 4
t 650 647 608 347
t 687 347 608 550
t 536 216 565 458
t 565 216 639 458
t 650 687 649 600
t 650 687 598 649
t 650 607 687 600
t 65 45 367 277
t 647 367 277 65
t 160 633 349 4
t 682 165 329 5
t 682 5 329 673
t 170 5 484 34
t 644 5 34 165
t 673 171 5 350
t 164 6 36 178
t 177 36 6 179
t 177 6 157 147
t 291 488 477 228
t 291 488 228 185
t 340 471 260 630
t 472 292 471 40
t 37 7 91 545
t 55 165 37 7
t 679 122 281 119
t 119 432 122 281
t 314 9 195 197
t 196 8 314 208
t 208 59 9 197
t 109 62 63 106
t 122 126 464 666
t 397 61 311 8
t 382 127 126 464
t 382 666 464 126
t 466 123 414 120
t 10 61 397 372
t 466 414 123 124
t 397 38 8 187
t 224 335 591 467
t 224 467 591 462
t 352 86 345 667
t 202 8 397 38
t 256 681 626 669
t 371 669 681 256
t 322 681 28 256
t 371 256 681 322
t 256 681 28 626
t 202 397 8 61
t 494 575 675 616
t 538 168 600 607
t 203 9 309 207
t 220 318 672 142
t 219 318 672 220
t 258 224 194 91
t 211 329 7 193
t 223 193 7 329
t 210 197 9 59
t 66 72 53 279
t 391 66 279 72
t 72 391 66 71
t 129 391 375 279
t 169 73 72 541
t 169 53 541 72
t 279 72 53 67
t 392 279 67 72
t 73 392 67 72
t 609 66 391 390
t 582 222 10 377
t 226 10 582 222
t 226 62 262 383
t 428 204 11 64
t 204 64 207 11
t 325 12 242 149
t 238 12 71 324
t 473 325 159 12
t 252 256 322 13
t 253 13 72 73
t 253 72 13 324
t 77 13 73 256
t 253 13 73 684
t 684 77 13 73
t 263 14 319 264
t 268 553 75 14
t 269 267 14 294
t 371 15 669 97
t 104 669 15 330
t 601 15 319 98
t 548 668 610 604
t 649 448 537 598
t 193 329 223 175
t 223 175 329 216
t 258 336 462 224
t 10 328 311 109
t 110 314 311 8
t 110 109 311 56
t 307 682 211 673
t 644 682 211 307
t 211 682 329 673
t 142 16 318 120
t 182 463 336 117
t 316 16 283 82
t 316 679 16 82
t 316 122 82 304
t 361 143 644 171
t 218 158 633 150
t 158 4 633 491
t 150 158 633 491
t 633 160 136 4
t 300 634 422 645
t 231 300 645 634
t 231 300 17 645
t 550 468 65 347
t 347 647 468 65
t 65 647 468 249
t 65 249 468 272
t 494 113 652 236
t 494 342 652 113
t 494 652 342 618
t 494 575 624 618
t 590 546 515 463
t 546 365 590 515
t 546 590 365 605
t 594 497 494 513
t 429 419 49 505
t 405 120 119 16
t 405 282 120 142
t 405 120 16 142
t 654 259 683 399
t 399 243 259 683
t 507 54 374 526
t 374 507 170 54
t 54 491 572 158
t 210 671 554 558
t 94 41 658 239
t 47 490 295 533
t 47 270 252 295
t 315 341 317 439
t 442 439 317 341
t 614 612 571 674
t 614 612 674 570
t 101 501 684 489
t 684 270 489 501
t 489 270 684 77
t 422 142 120 282
t 645 142 17 120
t 645 121 120 17
t 325 319 29 58
t 318 313 466 57
t 231 301 634 121
t 301 299 290 17
t 301 231 17 121
t 301 313 466 17
t 301 581 678 234
t 28 553 601 319
t 110 56 311 314
t 674 596 503 393
t 310 57 678 313
t 328 56 311 109
t 309 11 109 56
t 328 56 109 11
t 28 58 319 322
t 316 318 679 57
t 685 56 110 314
t 462 590 646 605
t 462 590 605 184
t 304 18 102 303
t 500 254 246 22
t 163 680 162 667
t 163 86 680 667
t 578 343 487 613
t 305 18 126 464
t 650 347 608 687
t 305 643 18 464
t 305 315 643 127
t 650 607 347 687
t 650 598 687 608
t 10 61 62 109
t 10 311 61 109
t 397 61 10 311
t 494 616 652 624
t 494 624 652 618
t 264 601 406 553
t 651 605 546 659
t 651 603 275 546
t 651 239 546 275
t 535 537 217 637
t 456 565 174 589
t 7 193 55 211
t 7 211 55 165
t 165 329 7 211
t 151 3 100 135
t 298 488 185 437
t 298 488 437 479
t 234 313 19 678
t 438 127 382 442
t 438 382 664 442
t 315 351 302 19
t 85 315 341 317
t 203 209 657 9
t 315 19 310 127
t 315 85 351 317
t 235 428 498 655
t 265 235 498 655
t 290 333 635 95
t 290 313 95 99
t 290 313 333 95
t 413 154 155 116
t 412 155 216 116
t 412 413 155 116
t 116 154 155 321
t 216 155 321 116
t 252 51 189 97
t 83 38 65 60
t 83 38 187 65
t 397 38 187 83
t 629 60 401 272
t 348 32 667 345
t 113 343 578 613
t 667 345 32 33
t 121 331 414 573
t 130 276 270 47
t 252 130 270 47
t 667 348 35 32
t 24 254 246 500
t 359 146 680 37
t 657 79 355 9
t 667 35 33 32
t 243 125 241 325
t 125 243 241 118
t 492 52 295 80
t 492 52 80 407
t 407 52 80 485
t 288 80 52 485
t 359 146 37 656
t 350 172 174 257
t 171 257 172 350
t 171 452 172 257
t 403 562 386 388
t 3 656 446 518
t 518 656 446 37
t 21 525 331 430
t 331 161 21 430
t 511 12 473 245
t 390 71 245 103
t 390 245 563 103
t 360 358 148 164
t 37 446 359 656
t 631 128 149 483
t 149 128 248 483
t 297 300 672 632
t 333 672 632 297
t 350 172 155 174
t 155 174 216 350
t 507 33 34 170
t 54 33 170 491
t 503 334 221 595
t 458 536 216 176
t 144 177 36 35
t 196 308 8 208
t 380 207 107 59
t 363 204 89 64
t 197 210 376 59
t 197 59 376 208
t 202 308 61 8
t 308 375 609 66
t 308 244 332 66
t 376 208 59 152
t 279 391 375 66
t 139 376 59 67
t 139 392 376 67
t 67 376 59 152
t 372 62 61 332
t 372 381 384 62
t 380 363 107 207
t 556 137 62 190
t 63 226 498 30
t 190 383 62 63
t 363 68 64 251
t 363 64 89 251
t 265 498 63 64
t 265 498 30 63
t 389 64 63 68
t 389 64 68 386
t 375 66 391 609
t 391 390 66 71
t 391 245 390 71
t 395 71 66 280
t 67 378 278 380
t 378 73 256 396
t 63 68 190 389
t 403 388 386 68
t 104 68 653 403
t 389 386 68 403
t 553 75 398 268
t 391 71 72 238
t 391 71 238 245
t 392 72 73 253
t 399 266 75 259
t 421 282 120 405
t 421 120 119 405
t 586 581 124 301
t 119 281 120 424
t 119 424 620 426
t 426 119 524 620
t 122 433 126 666
t 122 464 123 666
t 304 126 122 636
t 123 435 127 124
t 414 123 124 435
t 382 127 464 123
t 664 666 126 433
t 382 666 123 464
t 382 127 123 435
t 382 123 432 435
t 317 436 338 124
t 315 317 127 439
t 315 127 305 439
t 435 127 317 442
t 317 559 23 338
t 143 528 561 1
t 143 1 561 173
t 143 1 173 132
t 148 2 88 358
t 148 183 88 2
t 151 3 518 100
t 116 154 321 4
t 117 4 320 166
t 349 158 4 633
t 154 349 158 4
t 154 116 217 4
t 154 450 413 625
t 217 349 154 4
t 166 4 217 117
t 166 4 349 217
t 216 673 329 5
t 171 143 172 452
t 171 350 172 5
t 155 154 413 625
t 155 350 216 5
t 639 589 454 174
t 673 216 350 5
t 178 148 179 36
t 178 148 460 179
t 178 179 6 36
t 178 459 179 460
t 181 459 6 178
t 181 6 459 182
t 181 461 182 459
t 157 117 182 6
t 193 568 335 7
t 194 467 224 462
t 224 591 184 462
t 397 8 311 187
t 195 9 292 206
t 195 9 665 292
t 205 474 657 209
t 210 209 206 474
t 210 209 9 206
t 209 554 474 210
t 215 10 658 186
t 377 10 215 222
t 222 476 262 215
t 185 228 11 437
t 228 480 11 437
t 243 269 241 118
t 149 114 325 12
t 250 248 481 483
t 149 248 12 250
t 628 274 409 569
t 149 12 42 114
t 26 80 324 13
t 26 295 80 13
t 252 189 295 13
t 270 295 501 13
t 267 268 493 266
t 268 266 14 75
t 266 267 14 269
t 266 267 269 493
t 267 493 495 269
t 267 269 495 434
t 369 294 434 593
t 263 14 294 188
t 319 98 15 293
t 286 504 92 285
t 286 92 16 285
t 283 334 285 16
t 285 286 504 506
t 672 17 219 333
t 297 632 457 510
t 672 300 17 632
t 290 17 299 333
t 231 645 121 634
t 231 645 17 121
t 302 214 19 540
t 640 641 387 522
t 150 491 33 54
t 150 491 32 33
t 348 48 35 136
t 348 35 32 136
t 348 48 136 443
t 361 528 34 143
t 361 227 163 34
t 423 227 445 37
t 358 148 2 531
t 164 358 148 36
t 360 358 531 148
t 360 134 358 359
t 360 446 134 359
t 446 359 360 37
t 362 449 450 534
t 449 534 362 456
t 532 455 364 176
t 462 366 591 184
t 462 591 366 542
t 462 467 591 542
t 534 367 549 650
t 366 547 462 542
t 367 549 84 534
t 551 676 477 212
t 39 239 370 93
t 210 671 209 554
t 139 378 379 392
t 139 67 59 380
t 386 388 64 68
t 386 388 557 64
t 384 306 555 383
t 562 388 557 386
t 390 66 71 280
t 398 383 566 137
t 403 388 68 653
t 388 653 403 567
t 388 562 567 403
t 268 566 75 398
t 392 417 73 564
t 566 75 266 268
t 273 415 574 544
t 273 497 544 69
t 663 273 544 415
t 429 409 49 419
t 569 628 429 409
t 594 261 113 293
t 415 544 663 502
t 180 50 240 284
t 578 627 519 418
t 51 97 192 293
t 418 597 487 509
t 543 574 420 415
t 543 420 574 516
t 240 25 284 385
t 96 310 18 81
t 420 516 543 520
t 421 119 120 424
t 426 425 119 122
t 120 584 422 421
t 424 523 584 421
t 121 414 124 573
t 636 433 126 122
t 426 433 122 432
t 425 122 426 585
t 425 426 524 585
t 436 338 124 586
t 442 438 127 439
t 442 439 127 317
t 442 439 341 587
t 305 127 438 439
t 305 438 588 439
t 587 439 438 442
t 587 439 588 438
t 23 317 338 85
t 216 565 174 456
t 117 182 6 336
t 336 181 182 6
t 335 7 223 193
t 335 230 465 568
t 272 90 249 353
t 292 205 441 657
t 185 291 78 11
t 291 228 11 185
t 291 228 111 11
t 488 228 479 477
t 42 149 248 12
t 243 269 14 241
t 118 269 241 294
t 334 285 16 92
t 333 17 632 672
t 457 333 635 299
t 99 19 95 214
t 623 575 624 520
t 99 540 19 214
t 450 362 534 600
t 450 600 649 537
t 450 534 649 600
t 650 600 649 534
t 688 649 598 687
t 688 535 538 598
t 688 600 538 535
t 591 542 548 606
t 591 542 467 548
t 591 467 354 548
t 542 606 591 366
t 606 591 668 548
t 538 600 687 607
t 538 168 535 600
t 538 365 168 607
t 534 362 367 600
t 650 367 607 600
t 687 538 608 598
t 650 600 534 367
t 688 600 687 538
t 600 687 649 688
t 687 538 598 688
t 458 532 536 176
t 646 461 603 339
t 651 546 646 603
t 547 366 606 542
t 547 606 548 542
t 687 607 347 550
t 650 549 647 367
t 362 367 84 534
t 607 538 550 687
t 347 608 550 468
t 538 687 608 550
t 93 239 275 475
t 547 373 548 606
t 547 373 366 370
t 547 373 606 366
t 676 477 212 592
t 676 610 477 592
t 676 477 610 668
t 347 647 608 468
t 260 471 472 470
t 373 478 547 548
t 610 478 479 488
t 610 479 477 488
t 533 490 642 276
t 247 638 570 485
t 569 274 409 617
t 569 593 274 617
t 574 617 415 273
t 615 617 569 579
t 663 594 273 415
t 49 409 628 614
t 487 418 577 343
t 44 577 492 487
t 429 409 617 569
t 663 502 513 415
t 497 502 575 513
t 342 627 418 618
t 497 575 494 513
t 595 409 49 614
t 674 596 571 503
t 457 597 509 408
t 648 408 508 457
t 429 409 419 617
t 574 617 420 415
t 543 623 575 618
t 543 623 415 420
t 543 623 618 415
t 627 519 418 623
t 627 618 623 418
t 624 618 575 623
t 25 240 284 180
t 180 595 614 284
t 577 509 418 487
t 648 509 577 408
t 385 577 509 284
t 408 509 487 597
t 579 617 419 621
t 213 96 18 81
t 520 420 623 543
t 520 623 575 543
