v 1.2 -0.1 -0.1
v 1.2 -0.1 0.1
v 1.2 0.1 -0.1
v 1.2 0.1 0.1
v 1.8 -0.1 -0.1
v 1.8 -0.1 0.1
v 1.8 0.1 -0.1
v 1.8 0.1 0.1
v 1.8 -0.0457010917020734 0.0503348446992298
v 1.8 -0.0664434368671801 0.063149062666943
v 1.8 -0.0141265603686019 0.000669689398459624
v 1.2 -0.0317924908784558 -0.061442008534744
v 1.77351656259496 0.1 -0.0641223651613436
v 1.2 -0.0490369496347951 0.0067236025489346
v 1.74567764336463 0.017080909651794 -0.1
v 1.43162764918713 -0.1 0.0385158106013258
v 1.42973179230839 0.0342365225272983 -0.1
v 1.8 -0.0184994199426225 0.0630880169491376
v 1.8 -0.1 0.063149062666943
v 1.2 -0.0651310944662913 0.0346737479190757
v 1.62894756610396 0.1 0.0745694078471129
v 1.2 -0.00773296958276056 -0.0651310944662913
v 1.8 0.0779453124340045 0.0721943746505923
v 1.8 0.00614969371254588 0.0663008272818185
v 1.2 -0.0799273442333529 -0.00265172119780794
v 1.2 -0.0784164431894271 -0.0657738896199972
v 1.8 -0.0664434368671801 0.1
v 1.8 -0.0437190599027251 -0.0289228101356635
v 1.8 -0.0314384638169368 0.0199083251254984
v 1.21634487971839 -0.0739812488353078 -0.1
v 1.2 -0.0825465418192077 0.0822705522635574
v 1.23029398979236 -0.0739812488353078 0.1
v 1.23124001855291 -0.1 0.0803883439641642
v 1.2 0.0739812488353078 -0.0739812488353078
v 1.21634487971839 0.1 -0.0739812488353078
v 1.2 0.0764399358114126 0.0714227669743178
v 1.21634487971839 0.1 0.0739812488353078
v 1.22942898730775 0.0774744884829857 0.1
v 1.2 -0.1 -0.0671131262656397
v 1.27597321871429 0.00829156197588852 -0.1
v 1.76970601020764 0.0739812488353078 -0.1
v 1.29398778127684 -0.1 0.040159628571147
v 1.2 -0.0595708446782632 -0.0291685286303669
v 1.65653666093532 0.1 -0.1
v 1.2 -0.0598546884667058 0.0585153096697866
v 1.2 -0.0302621889325827 0.0443887493011847
v 1.2 -0.0463481302628806 0.0848539592744161
v 1.2 -0.0276600163135696 0.0700116675593793
v 1.30688553290427 0.1 -0.1
v 1.33861565175222 0.1 0.1
v 1.21682508990001 -0.0427565779631968 0.1
v 1.62418672138384 0.1 0.1
v 1.71899868773282 -0.0273443048391956 -0.1
v 1.70624577251172 0.1 0.0739812488353078
v 1.2 -0.0147962497670616 -0.000669689398459566
v 1.2 -0.000669689398459566 -0.0302621889325827
v 1.67451838934476 0.1 0.0492117936038247
v 1.6569008229318 -0.0317173054580143 -0.1
v 1.2 -0.00262092551322847 0.0395700765615056
v 1.2 -0.00400197270727554 0.0685351348246552
v 1.21916695132289 -0.0133211652682296 0.1
v 1.57951985380462 0.1 0.0516780489847938
v 1.2 0.0289228101356636 -0.0881078092039098
v 1.2 0.030022898789001 -0.0598084718933658
v 1.2 0.0267290246109072 -0.00300104272651205
v 1.2 0.0253993173552831 0.0302989209981062
v 1.45234439195514 0.1 0.0491540186551986
v 1.2 0.0144723505798986 0.0875128071481435
v 1.2 0.0227555160606502 0.0623528957687025
v 1.2 0.0313333346988051 0.0804445996344036
v 1.40603144660186 -0.1 0.0740011086964455
v 1.35732607143322 0.0395004041118879 -0.1
v 1.2 0.0462885819682972 -0.0328581427360249
v 1.35733331114376 -0.1 0.0394555053150808
v 1.33974200879703 -0.1 0.0748862451589344
v 1.2 0.0669301593077192 0.0471931208229969
v 1.2 0.062400978437252 0.0237954072027146
v 1.2 0.0530723799176613 0.0672696756346942
v 1.2 0.0561826284609893 0.0854627949924841
v 1.21634487971839 0.0443887493011847 0.1
v 1.26454147774821 -0.0542850406308205 0.1
v 1.2 0.0881078092039098 -0.0443887493011847
v 1.2 0.0739812488353078 -0.000669689398459566
v 1.2 0.0905279227692869 -0.0164347550839828
v 1.21770913340891 0.1 -0.0455835895413228
v 1.21889398164646 0.1 -0.013759455025677
v 1.21634487971839 0.1 0.0443887493011847
v 1.23029398979236 -0.1 -0.0609718732529617
v 1.22551255836421 -0.1 0.0313228501339553
v 1.23089099719469 -0.1 0.0542139186287393
v 1.21685354235487 -0.0477577395399488 -0.1
v 1.23562964287698 -0.0630607549544681 -0.1
v 1.23029398979236 -0.0278056253494077 0.1
v 1.23029398979236 0.0313793737188386 0.1
v 1.23029398979236 0.1 -0.0278056253494077
v 1.22969473608638 0.0530148919227888 -0.1
v 1.2340974306443 0.1 0.027320836534829
v 1.2410468809313 0.1 0.0549254938558082
v 1.24876663942916 -0.1 -0.0827781658113114
v 1.24431350763553 -0.1 -0.0397515996684689
v 1.24101932431532 -0.1 -0.0145964071766114
v 1.8 0.0712394783376682 -0.0619151187535201
v 1.8 0.0662482792525472 -0.0218595299513625
v 1.8 0.0200590078796632 -0.0564318470315557
v 1.28274966159582 -0.1 0.0199114554293066
v 1.40648297186379 0.0222258432924245 -0.1
v 1.41178419849312 -0.1 0.0230878117429501
v 1.34668113238977 0.0208586046043695 -0.1
v 1.34671522895733 -0.1 0.020881840816284
v 1.25961608743691 -0.0827411841645563 -0.1
v 1.25719814685265 -0.1 -0.0610521705280131
v 1.26202410864032 -0.1 -0.00178687418471543
v 1.26264028313027 -0.1 0.0345304100923091
v 1.23101205432016 0.1 0.1
v 1.26202410864032 -0.1 0.0573981248835308
v 1.24448258919342 -0.0407939955208419 -0.1
v 1.26097077023889 -0.0592287007423921 -0.1
v 1.26322994396484 -0.0288848786054933 0.1
v 1.24673420684812 0.0189483028789941 -0.1
v 1.2522999958619 -0.00200269254632417 0.1
v 1.25917933063944 0.0537187378715677 0.1
v 1.26015847628972 0.0267695653026424 0.1
v 1.24424309986634 0.0739812488353078 -0.1
v 1.25892742711624 0.0517048273435382 -0.1
v 1.25928464458025 0.0811666443072853 0.1
v 1.25960752295453 0.1 -0.0561190634589201
v 1.26202410864032 0.1 -0.0278056253494077
v 1.25349065956297 0.1 -0.00111910613534897
v 1.26266547620257 0.1 0.0288883041263806
v 1.25755924830913 0.1 0.0780803516218217
v 1.27543288689767 -0.1 -0.082175439458002
v 1.27560004657909 -0.1 -0.0307624300405194
v 1.27597321871429 -0.1 0.0739812488353078
v 1.22212154993317 -0.1 0.00508124838495263
v 1.34791505846821 0.0804859366264808 0.1
v 1.8 -0.0707266766943463 0.0353767941066075
v 1.29375422748828 -0.1 -0.0609718732529617
v 1.27742524108943 -0.0777097066122205 0.1
v 1.2941138859775 -0.1 0.0583865416985339
v 1.27466706072141 -0.0283126419501023 -0.1
v 1.29375422748828 -0.0609718732529617 -0.1
v 1.29375422748828 -0.0443887493011847 0.1
v 1.8 -0.0661438021588126 -0.0255740840534821
v 1.29375422748828 -0.0147962497670616 0.1
v 1.24424309986634 -0.0147962497670615 -0.1
v 1.29375422748828 0.0147962497670616 0.1
v 1.8 -0.1 -0.00329437420023713
v 1.2 -0.0997692785110784 -0.00513725163902318
v 1.2 -0.0302621889325827 -0.0302621889325827
v 1.28291020445834 0.0821089871550013 0.1
v 1.2798051174143 0.1 0.0739812488353078
v 1.29049298568883 0.0633609938703402 0.1
v 1.29375422748828 0.1 -0.0573981248835308
v 1.29220536874985 0.1 -0.0153261059662257
v 1.29375422748828 0.1 0.0147962497670616
v 1.29375575359643 0.1 0.036567602262111
v 1.30758855503785 -0.1 -0.0821584476118746
v 1.30797182877498 -0.1 -0.0341186978319603
v 1.30440174721757 -0.1 -0.00182498223413409
v 1.30770333756225 -0.1 0.0739812488353078
v 1.32548434633623 -0.1 -0.0609718732529617
v 1.8 0.0302621889325827 0.0302621889325827
v 1.32548434633623 -0.1 0.0443887493011847
v 1.30744000253091 -0.033798343499112 -0.1
v 1.32548434633623 -0.0609718732529617 -0.1
v 1.59780705578583 0.1 0.0713892244479506
v 1.32548434633623 -0.0573981248835308 0.1
v 1.30617776816342 -0.000931567751615556 -0.1
v 1.32548434633623 -0.0278056253494077 0.1
v 1.32241556793896 3.40035604327396e-05 0.1
v 1.32548434633623 0.0443887493011847 -0.1
v 1.3239497078524 0.0300587448394146 0.1
v 1.30836390398784 0.0720419111280492 -0.1
v 1.32548434633623 0.0609718732529617 0.1
v 1.32890490824692 0.1 -0.0602222821784981
v 1.32548434633623 0.1 -0.0278056253494077
v 1.32548434633623 0.1 0.00178687418471546
v 1.32548434633623 0.1 0.0313793737188386
v 1.3265996874538 0.1 0.0653394869824252
v 1.2 -0.0598546884667058 -0.0591849990682462
v 1.33966489359302 -0.1 -0.0823589818303357
v 1.8 0.0593264298996073 0.00723790923296483
v 1.34080980884223 -0.1 -0.031433970500871
v 1.33798881353593 -0.1 -0.00167508296978922
v 1.33204999904423 0.0721943746505923 -0.1
v 1.35180298708182 -0.1 -0.0606710841699702
v 1.35721446518419 -0.1 0.0573981248835308
v 1.33998026654051 -0.0309743679720799 -0.1
v 1.35270106755075 -0.060859059699116 -0.1
v 1.35946335346712 -0.0475872060205751 0.1
v 1.3378370107842 -0.00140416107352603 -0.1
v 1.36079218614899 -0.0164930308992126 0.1
v 1.35737271280411 0.0118049221011827 0.1
v 1.35653023857195 0.0476498122596399 0.1
v 1.35632038242847 0.05970645628807 -0.1
v 1.35721446518419 0.1 -0.0147962497670616
v 1.35721446518419 0.1 -0.0278056253494077
v 1.35548259923705 0.1 0.0112639137334177
v 1.35265679274869 0.1 0.0364302369023281
v 1.37117304158271 -0.1 -0.0823047542021241
v 1.37185424857823 -0.1 -0.0278768031241939
v 1.37116357525817 -0.1 0.00178687418471546
v 1.36990524217838 -0.1 0.0739775989315664
v 1.8 0.0565984475998433 0.0723582044975031
v 1.8 0.1 -0.0721943746505923
v 1.2 0.0721943746505923 -0.1
v 1.38127869197407 -0.1 -0.0571381934816421
v 1.8 0.0721943746505923 -0.0443887493011847
v 1.8 0.1 0.0721943746505923
v 1.38894458403215 -0.1 0.0443887493011847
v 1.37091564407378 -0.0275662303072265 -0.1
v 1.38894458403215 -0.0609718732529617 -0.1
v 1.39447987593974 -0.043963798650579 0.1
v 1.38516232621499 -0.0643147552724651 0.1
v 1.37116357525817 0.00178687418471546 -0.1
v 1.38850996195974 0.00274691493196199 0.1
v 1.38894458403215 0.0443887493011847 -0.1
v 1.38800418758927 0.0274255919447449 0.1
v 1.37116357525817 0.0739812488353078 -0.1
v 1.37274215898265 0.1 0.0586173655200889
v 1.3874123677476 0.0582243889462604 0.1
v 1.38686443666165 0.1 -0.064360289485967
v 1.38894458403215 0.1 -0.0278056253494077
v 1.38719411345799 0.1 0.00442945059586256
v 1.38894458403215 0.1 0.0313793737188386
v 1.3914947667264 0.1 0.0801163308327772
v 1.40271193194457 -0.1 -0.0819152114444595
v 1.76081550582065 0.0295924995341231 -0.1
v 1.40439487040933 -0.1 -0.0311667588281963
v 1.4031461440541 -0.1 -0.00261308467529799
v 1.2 -0.0373254691168837 -0.0154659391655211
v 1.41355244598931 -0.1 -0.0601725564817234
v 1.22256486076993 -0.000137615374675466 -0.1
v 1.2263532254678 -0.0238835908816457 -0.1
v 1.77787845006683 0.1 0.0591849990682462
v 1.40365274055423 -0.0310307399771017 -0.1
v 1.78052017569289 0.1 0.0356691270084702
v 1.41617001501779 -0.061010525059254 -0.1
v 1.22142927566601 0.026012130578347 -0.1
v 1.76270868390589 -0.00443263945436369 -0.1
v 1.42067470288011 -0.0573981248835308 0.1
v 1.40232107787921 -0.00341131095083981 -0.1
v 1.40617896927951 -0.0787065759102298 0.1
v 1.34134940576021 -0.0786990624417654 0.1
v 1.42437497486226 -0.0282610034068281 0.1
v 1.42067470288011 0.00178687418471546 0.1
v 1.42067470288011 0.0443887493011847 0.1
v 1.42263471422777 0.0577125335260838 -0.1
v 1.22636235096217 0.1 -0.1
v 1.41785452407579 0.0672393977418365 0.1
v 1.42430752722462 0.1 -0.0607511010404948
v 1.42491554430775 0.1 -0.0273883590353833
v 1.42067470288011 0.1 0.00178687418471546
v 1.42246566340797 0.1 0.0442871627823685
v 1.42067470288011 0.1 0.0739812488353078
v 1.43440502563089 -0.1 -0.0820380983332898
v 1.43469452980689 -0.1 -0.0271295783005911
v 1.43485668183792 -0.1 0.0046715068904859
v 1.43462381295408 -0.1 0.0739812488353078
v 1.44360944735765 -0.1 -0.0564539320197865
v 1.45688486973249 -0.1 0.0825546872350359
v 1.43445123405837 -0.0275376537435041 -0.1
v 1.45240482172806 -0.0609718732529617 -0.1
v 1.45240482172806 -0.0443887493011847 0.1
v 1.45133863880071 -0.0626678861999899 0.1
v 1.43488143961315 0.00480660648364244 -0.1
v 1.45624212881928 -0.0241586645838987 0.1
v 1.45004100948611 7.72760928143476e-05 0.1
v 1.44649930503056 0.0287974729556041 0.1
v 1.43710807620089 0.0773699895387095 -0.1
v 1.43180619539439 0.1 -0.085100783296665
v 1.45363070995833 0.0558308973389046 -0.1
v 1.45093926102261 0.0604766910369853 0.1
v 1.45289667472345 0.1 -0.0819798740428404
v 1.45436510717645 0.1 -0.0428246570348901
v 1.45240482172806 0.1 0.00178687418471546
v 1.45027460302866 0.1 0.0266258268618565
v 1.45240482172806 0.1 0.0739812488353078
v 1.46591954183153 -0.1 -0.081558045572842
v 1.46654667521077 -0.1 -0.0301467770191283
v 1.46635393180204 -0.1 0.00178687418471546
v 1.46443796134493 -0.1 0.0292295564179791
v 1.46341825504674 -0.0829042839224934 0.1
v 1.47608623303326 -0.1 -0.0593931602327677
v 1.47647223246934 -0.1 0.0560032021753502
v 1.46671000082741 -0.0302901100952045 -0.1
v 1.4793735886137 -0.0604503755926566 -0.1
v 1.48413494057602 -0.0573981248835308 0.1
v 1.46635393180204 0.00178687418471546 -0.1
v 1.48537675574935 -0.00935451778806703 0.1
v 1.48413494057602 -0.0278056253494077 0.1
v 1.46471372752048 0.0288813821255431 -0.1
v 1.48413494057602 0.0147962497670616 0.1
v 1.48413494057602 0.0443887493011847 0.1
v 1.47018583050205 0.1 -0.0739812488353078
v 1.48067639708473 0.0555381344114141 -0.1
v 1.48168528005183 0.0673191235570171 0.1
v 1.48413494057602 0.1 -0.0443887493011847
v 1.48413494057602 0.1 -0.0278056253494077
v 1.48413494057602 0.1 0.0147962497670616
v 1.48366419974277 0.1 0.0479012020971547
v 1.48413494057602 0.1 0.0739812488353078
v 1.497704349267 -0.1 -0.0818445876529995
v 1.49746939060999 -0.1 -0.0267622223261303
v 1.49744976225498 -0.1 0.00241398796817613
v 1.49711446030881 -0.1 0.0298506985716424
v 1.49401338815684 -0.1 0.0793382705119585
v 1.50656872060034 -0.1 -0.0561403481320839
v 1.51586505942398 -0.1 0.0573981248835308
v 1.51566514922875 -0.1 0.0831615865061387
v 1.49747700554135 -0.0267878160036966 -0.1
v 1.51586505942398 -0.0609718732529617 -0.1
v 1.51910767949556 -0.0549333029709147 0.1
v 1.49808405065 0.00178687418471546 -0.1
v 1.51648998214133 -0.0288854372864808 0.1
v 1.49794520848506 0.0301388151953919 -0.1
v 1.51586505942398 0.00178687418471546 0.1
v 1.51271166137902 0.0286359345462547 0.1
v 1.49707146615734 0.1 -0.077180491026086
v 1.50887764652544 0.0636889526312211 -0.1
v 1.51586505942398 0.0609718732529617 0.1
v 1.51361301173088 0.1 -0.0547363428490227
v 1.51420949576039 0.1 -0.0288906306898654
v 1.51437444164513 0.1 -0.00135303459735935
v 1.51425411995948 0.1 0.025410865559576
v 1.51586505942398 0.1 0.0739812488353078
v 1.52932215800464 -0.1 -0.0815012608197079
v 1.52986707313365 -0.1 -0.0300599737277505
v 1.52858388401633 -0.1 0.000399143035816868
v 1.53942077779417 -0.1 -0.0593241514753509
v 1.54251890933806 -0.1 0.0486825771655465
v 1.54711257702464 -0.1 0.0759372303795737
v 1.53013818299729 -0.0300755814599511 -0.1
v 1.54281875330263 -0.0603926481174184 -0.1
v 1.54481082014973 -0.0507365032072785 0.1
v 1.53066513140083 0.00334516855126388 -0.1
v 1.54640446438924 -0.0195859123916331 0.1
v 1.54759517827194 0.0147962497670616 0.1
v 1.54759517827194 0.0443887493011847 -0.1
v 1.54657003460991 0.0377381076003634 0.1
v 1.53802512170373 0.0750672177383045 -0.1
v 1.53360725281572 0.1 -0.0719418792644337
v 1.54759517827194 0.0609718732529617 0.1
v 1.54759517827194 0.1 -0.0443887493011847
v 1.54732314309537 0.1 -0.0173579916731911
v 1.54759517827194 0.1 0.0147962497670616
v 1.54696745270725 0.1 0.0475616031355164
v 1.54290213101313 0.1 0.0754059531330562
v 1.56114931290027 -0.1 -0.0818316919460649
v 1.5612423471067 -0.1 -0.0269454135355765
v 1.56154428834591 -0.1 0.00178687418471546
v 1.57031751912327 -0.1 -0.0562684297299265
v 1.57932529711989 -0.1 0.0278056253494077
v 1.56548670751476 -0.0772277216444558 0.1
v 1.57932529711989 -0.1 0.0573981248835308
v 1.5857010807518 -0.1 0.0806156180234628
v 1.56094391500002 -0.0267644689694338 -0.1
v 1.57932529711989 -0.0609718732529617 -0.1
v 1.57932529711989 -0.0573981248835308 0.1
v 1.56301788323003 -0.000312145764380115 -0.1
v 1.5778329609095 -0.0302700669540126 0.1
v 1.57932529711989 0.00178687418471546 0.1
v 1.57932529711989 0.0278056253494077 -0.1
v 1.5759547819759 0.0280737036074281 0.1
v 1.57932529711989 0.0573981248835308 -0.1
v 1.56877208520416 0.1 0.0750012812753397
v 1.57932529711989 0.0609718732529617 0.1
v 1.57932529711989 0.1 -0.0573981248835308
v 1.57932529711989 0.1 -0.0278056253494077
v 1.57932529711989 0.1 0.00178687418471546
v 1.57723847438583 0.1 0.0268870810287525
v 1.59291440400451 -0.1 -0.0817069494879645
v 1.59149376087529 -0.1 -0.0308601970491923
v 1.59635125739062 -0.1 -0.000649390548672441
v 1.59205112614034 -0.0795939564806506 0.1
v 1.61105541596785 -0.1 -0.0609718732529617
v 1.61252875626187 -0.1 0.0834162197144918
v 1.5915571904604 -0.0290133435063383 -0.1
v 1.61105541596785 -0.0609718732529617 -0.1
v 1.60948794913918 -0.0527261173877925 0.1
v 1.61175668812724 -0.0091705768870546 0.1
v 1.61105541596785 -0.0278056253494077 0.1
v 1.61105541596785 -0.00178687418471543 -0.1
v 1.61239739704237 0.0137880959683516 0.1
v 1.61105541596785 0.0278056253494077 -0.1
v 1.61196656845406 0.0381495275015562 0.1
v 1.61420266983907 0.054844362204256 -0.1
v 1.60861466503139 0.066285257031738 0.1
v 1.61105541596785 0.1 -0.0443887493011847
v 1.61141618309533 0.1 -0.0670342068046614
v 1.61155839328179 0.1 -0.0157975889510483
v 1.61149815072323 0.1 0.0115456346204177
v 1.61105541596785 0.1 0.0443887493011847
v 1.62487992003665 -0.1 -0.0822832315805693
v 1.62375753301791 -0.1 -0.0344523928334126
v 1.6281059238212 -0.1 -0.00340161934964092
v 1.62173916977508 -0.1 0.0278771499355236
v 1.62400563813292 -0.1 0.0612805421152064
v 1.62155931827884 -0.0809318452599799 0.1
v 1.64278553481581 -0.1 -0.0609718732529617
v 1.63926033079136 -0.1 0.0825048598716147
v 1.62469750134353 -0.0339539937919001 -0.1
v 1.64444795800609 -0.0646517858176466 -0.1
v 1.64278553481581 -0.0573981248835308 0.1
v 1.64906963389308 -0.0141754274070061 0.1
v 1.64278553481581 -0.0278056253494077 0.1
v 1.64220891701378 -0.00184420449453114 -0.1
v 1.64297400143 0.030157269861621 -0.1
v 1.64278553481581 0.0313793737188386 0.1
v 1.62500452604183 0.0739812488353078 -0.1
v 1.64817867238927 0.0545119386074038 -0.1
v 1.63804575618146 0.0654245375998468 0.1
v 1.64827902493096 0.1 -0.0431911406371998
v 1.63887571300203 0.1 -0.0626466230553533
v 1.64816667065519 0.1 -0.0136610004645825
v 1.64278553481581 0.1 0.0147962497670616
v 1.64617241948843 0.1 0.0532936749978318
v 1.65659114568041 -0.1 -0.0819295030394987
v 1.8 -0.0439095043392371 0.0762843634247388
v 1.65562762679056 -0.1 -0.0330321892996392
v 1.29505349132881 0.0351892295877266 -0.1
v 1.65673464488978 -0.1 0.00178687418471546
v 1.65592808427022 -0.1 0.0305886549911966
v 1.52283961446097 0.0378840615100116 -0.1
v 1.65909451750647 -0.1 0.0605478985438997
v 1.67451565366377 -0.1 -0.0609718732529617
v 1.66056654358979 -0.0739812488353078 0.1
v 1.67088721572949 -0.1 0.082616208656301
v 1.67137368987817 -0.0587441385309213 -0.1
v 1.67451565366377 -0.0573981248835308 0.1
v 1.6774283126964 -0.0288856068100841 0.1
v 1.67451565366377 0.0147962497670616 -0.1
v 1.67314985522542 -0.0063324101773453 -0.1
v 1.67466479799902 0.000744794363884124 0.1
v 1.43653976230408 -0.0804859366264808 -0.1
v 1.67694176439192 0.0492845787346105 -0.1
v 1.56123192185932 -0.0801931387034217 -0.1
v 1.30886711227827 -0.0821261386271944 -0.1
v 1.67575177078133 0.0304889395425666 0.1
v 1.65600221037956 0.0763258406099112 -0.1
v 1.5 -0.0804859366264808 -0.1
v 1.37307952460817 -0.0804859366264808 -0.1
v 1.62692047539183 -0.0804859366264808 -0.1
v 1.40480964345613 -0.0804859366264808 -0.1
v 1.68870727862018 -0.078234356517063 -0.1
v 1.59519035654387 -0.0804859366264808 -0.1
v 1.46826988115204 -0.0804859366264808 -0.1
v 1.34134940576021 -0.0804859366264808 -0.1
v 1.53173011884796 -0.0804859366264808 -0.1
v 1.67451565366377 0.0609718732529617 0.1
v 1.66848749170086 0.1 -0.0634354792585841
v 1.67451565366377 0.1 -0.0278056253494077
v 1.67542897577886 0.1 -0.000306275901956643
v 1.67451565366377 0.1 0.0313793737188386
v 1.67472064272521 0.1 0.0775076149988792
v 1.68856142012325 -0.1 -0.0822338363269328
v 1.68882565456692 -0.1 -0.0307635464243988
v 1.68855304053095 -0.1 -0.00119206662851075
v 1.68846476373774 -0.1 0.0313793737188386
v 1.69270240474275 -0.1 0.0609889781734286
v 1.53139428888383 -0.1 0.0279912175063598
v 1.70008117067125 -0.1 -0.0601996885908162
v 1.58431478018789 0.0023337394721947 -0.1
v 1.69146110983603 -0.0716899326199352 0.1
v 1.70870464708573 -0.1 0.0816131565308087
v 1.68846476373774 -0.0278056253494077 -0.1
v 1.71173459088291 -0.0586184513682766 -0.1
v 1.70624577251172 -0.0443887493011847 0.1
v 1.2235869272598 -0.1 -0.0807441296646359
v 1.70624577251172 -0.0147962497670616 0.1
v 1.70590105942986 -0.00230633090676914 -0.1
v 1.70449060696779 0.0109967036464804 0.1
v 1.70628831144445 0.0303477808767325 -0.1
v 1.70624577251172 0.0443887493011847 0.1
v 1.70506167965296 0.0674009583151672 0.1
v 1.70624577251172 0.1 -0.0443887493011847
v 1.71140188782984 0.1 -0.0156316194692405
v 1.70908646822956 0.1 0.00810574526604964
v 1.70390206461774 0.1 0.0539798113025156
v 1.70624577251172 0.1 0.0313793737188386
v 1.72171216376585 -0.1 -0.0817161087378637
v 1.7201948825857 -0.1 -0.0278056253494077
v 1.72050262233935 -0.1 0.0299650910139323
v 1.71632829145791 -0.0798542881058047 0.1
v 1.73692744603572 -0.0804209865933808 -0.1
v 1.73516257062305 -0.1 -0.0565878272354713
v 1.73887982119664 -0.1 -0.00117272577309488
v 1.74162822572706 -0.0818617651682635 0.1
v 1.73797589135968 -0.1 0.0573981248835308
v 1.74144420972073 -0.1 0.0819764896771052
v 1.73797589135968 -0.0609718732529617 -0.1
v 1.73238868588371 -0.055788951755177 0.1
v 1.73797589135968 -0.0278056253494077 0.1
v 1.73797589135968 -0.00178687418471543 -0.1
v 1.73633499160338 -0.00283223830669485 0.1
v 1.7374768563111 0.045765779628241 -0.1
v 1.73991863504789 0.0234568643559163 0.1
v 1.71690415102289 0.0696765996153771 -0.1
v 1.73727742594123 0.0597789889568921 0.1
v 1.73797589135968 0.1 -0.0573981248835308
v 1.74183296297896 0.1 -0.00157403233668246
v 1.73797589135968 0.1 0.0313793737188386
v 1.73124135635855 0.1 0.0688676974559671
v 1.75010713620938 -0.1 -0.0799836860544929
v 1.76970601020764 -0.1 -0.0313793737188386
v 1.7764036490086 -0.1 -0.00246254170741575
v 1.76970601020764 -0.1 0.0278056253494077
v 1.76970601020764 -0.1 0.0573981248835308
v 1.75302782365454 -0.0304624454733131 -0.1
v 1.76970601020764 -0.0609718732529617 -0.1
v 1.76484203165443 -0.0580992884022169 0.1
v 1.76970601020764 -0.0278056253494077 0.1
v 1.76970601020764 0.00178687418471546 0.1
v 1.76970601020764 0.0313793737188386 0.1
v 1.75575690013366 0.1 -0.0313793737188386
v 1.75575690013366 0.1 0.0147962497670616
v 1.75816352435325 0.1 0.0456413125285497
v 1.7597871836886 0.1 0.06988915113025
v 1.77219885577733 0.0638519961777151 0.1
v 1.8 -0.0585153096697866 -0.0585153096697866
v 1.8 -0.0592664728355062 0.00373150297318831
v 1.8 -0.0792576548348933 -0.0752935912361966
v 1.28486372310129 0.0656896868594193 -0.1
v 1.23972766022409 0.1 -0.066954935853348
v 1.8 -0.0289228101356635 -0.0585153096697866
v 1.2201688368399 -0.1 -0.0203377126714443
v 1.22057753453566 0.1 0.00872902261956406
v 1.22273991027135 0.00849295654612812 0.1
v 1.8 0.00277537481159057 -0.0733364251432429
v 1.71746112857771 0.1 -0.0786990624417654
v 1.58776445876657 0.0780534502942627 -0.1
v 1.8 0.000669689398459624 -0.0289228101356635
v 1.8 0.000669689398459624 0.0302621889325827
v 1.78365512028161 0.0147962497670616 -0.1
v 1.8 0.0288078849445026 -0.00330156946454865
v 1.8 0.0293678669398009 0.0600374776417167
v 1.8 0.0372252915763814 -0.074183642719937
v 1.8 0.0443887493011847 -0.0443887493011847
v 1.8 0.0600835879344483 0.0444875923444695
v 1.8 0.0853436810382987 -0.0268564814285451
v 1.78365512028161 0.1 -0.0147962497670616
v 1.8 0.0822405541852479 -0.00174344016783093
v 1.8 0.0804297979791014 0.0256042874205788
v 1.2 0.0762852013232966 0.1
v 1.77011149965961 -0.1 -0.1
v 1.76970601020764 -0.1 0.1
v 1.2 -0.1 -0.0342262525312794
v 1.2 -0.1 0.0249587465369668
v 1.2 -0.1 0.0545512460710899
v 1.2 -0.0638187520654026 0.1
v 1.2 -0.0558906248680091 -0.1
v 1.2 -0.0316353413568058 0.1
v 1.2 -0.0147962497670616 -0.1
v 1.2 -0.00463375299715632 0.1
v 1.2 0.0147962497670616 -0.1
v 1.2 0.0249587465369668 0.1
v 1.2 0.0443887493011847 -0.1
v 1.2 0.0545512460710899 0.1
v 1.2 0.1 -0.0638187520654026
v 1.2 0.1 -0.0304486458536166
v 1.2 0.1 0.00104452741658093
v 1.2 0.1 0.0249587465369668
v 1.2 0.1 0.0545512460710899
v 1.23959339650834 -0.1 -0.1
v 1.23959339650834 -0.1 0.1
v 1.26202410864032 -0.1 -0.1
v 1.25272470192433 0.1 -0.1
v 1.26202410864032 0.1 0.1
v 1.2713235153563 -0.1 0.1
v 1.29375422748828 -0.1 -0.1
v 1.27515541405631 0.1 -0.1
v 1.27856557190818 0.1 0.1
v 1.30305363420426 -0.1 0.1
v 1.32548434633623 -0.1 -0.1
v 1.32548434633623 -0.1 0.1
v 1.30688553290427 0.1 0.1
v 1.35721446518419 -0.1 -0.1
v 1.33861565175222 0.1 -0.1
v 1.36651387190018 -0.1 0.1
v 1.38894458403215 -0.1 -0.1
v 1.38894458403215 -0.1 0.1
v 1.37034577060018 0.1 0.1
v 1.37846951140513 0.1 -0.1
v 1.42067470288011 -0.1 -0.1
v 1.40207588944814 0.1 0.1
v 1.41137529616412 0.1 -0.1
v 1.42997410959609 -0.1 0.1
v 1.45240482172806 -0.1 -0.1
v 1.4338060082961 0.1 0.1
v 1.44310541501208 0.1 -0.1
v 1.47100363516003 -0.1 0.1
v 1.48413494057602 -0.1 -0.1
v 1.46553612714405 0.1 0.1
v 1.47483553386004 0.1 -0.1
v 1.49343434729201 -0.1 0.1
v 1.51586505942398 -0.1 -0.1
v 1.49726624599201 0.1 0.1
v 1.50656565270799 0.1 -0.1
v 1.53186652511141 -0.1 0.1
v 1.54759517827194 -0.1 -0.1
v 1.52899636483997 0.1 0.1
v 1.53829577155595 0.1 -0.1
v 1.56391196187192 -0.1 0.1
v 1.57932529711989 -0.1 -0.1
v 1.56072648368793 0.1 -0.1
v 1.56072648368793 0.1 0.1
v 1.59751957452541 -0.1 0.1
v 1.61105541596785 -0.1 -0.1
v 1.59245660253588 0.1 0.1
v 1.60175600925187 0.1 -0.1
v 1.62754703166974 -0.1 0.1
v 1.64278553481581 -0.1 -0.1
v 1.62418672138384 0.1 -0.1
v 1.65566703172346 -0.1 0.1
v 1.67451565366377 -0.1 -0.1
v 1.67451565366377 -0.1 0.1
v 1.6559168402318 0.1 0.1
v 1.69311446709573 -0.1 0.1
v 1.70624577251172 -0.1 -0.1
v 1.69094125658145 0.1 -0.1
v 1.68764695907976 0.1 0.1
v 1.71554517922771 -0.1 0.1
v 1.73773715671412 -0.1 -0.1
v 1.73797589135968 -0.1 0.1
v 1.71937707792771 0.1 0.1
v 1.7286764846437 0.1 -0.1
v 1.75110719677567 0.1 0.1
v 1.76062346955541 0.1 -0.1
v 1.8 -0.1 -0.0624793732684834
v 1.8 -0.1 -0.0328868737343603
v 1.8 -0.1 0.026298125333886
v 1.47534497187045 -0.1 0.0763823385088299
v 1.8 -0.0443887493011847 -0.1
v 1.8 -0.0328868737343603 0.1
v 1.8 -0.0147962497670616 -0.1
v 1.8 -0.00329437420023713 0.1
v 1.8 0.0147962497670616 -0.1
v 1.8 0.026298125333886 0.1
v 1.8 0.0558906248680091 -0.1
v 1.8 0.0558906248680091 0.1
v 1.8 0.1 -0.0443887493011847
v 1.8 0.1 -0.0147962497670616
v 1.8 0.1 0.0147962497670616
v 1.8 0.1 0.0443887493011847
v 1.69200927354673 0.1 -0.0704965496856707
v 1.8 0.0222912546657618 -0.0367301773999551
v 1.3763523993506 -0.1 0.0223766612657325
v 1.31830712144764 0.0205673329879694 -0.1
v 1.31659384194924 -0.1 0.0230878117429501
v 1.38005407964516 0.0230878117429501 -0.1
v 1.22393859969949 -0.1 -0.0390187972757626
f 1 39 26
f 1 26 551
f 1 551 30
f 30 564 1
f 469 39 1
f 1 564 469
f 549 2 31
f 2 550 31
f 2 32 550
f 565 32 2
f 2 549 33
f 33 565 2
f 3 206 34
f 559 3 34
f 3 35 249
f 3 559 35
f 249 206 3
f 36 544 4
f 4 563 36
f 114 37 4
f 37 563 4
f 114 4 38
f 38 4 544
f 5 545 510
f 633 5 510
f 629 5 522
f 522 5 633
f 629 545 5
f 19 27 6
f 546 19 6
f 27 546 6
f 205 7 13
f 628 13 7
f 7 41 628
f 41 7 639
f 7 205 639
f 8 23 209
f 8 640 23
f 209 518 8
f 518 627 8
f 627 519 8
f 640 8 519
f 10 136 9
f 419 10 9
f 419 9 18
f 18 9 533
f 29 9 136
f 9 29 533
f 19 10 27
f 136 10 19
f 10 419 27
f 521 28 11
f 11 28 532
f 521 11 29
f 533 29 11
f 11 532 535
f 533 11 535
f 56 22 12
f 22 553 12
f 149 12 43
f 12 180 43
f 56 12 149
f 180 12 551
f 12 553 551
f 641 205 13
f 13 500 515
f 628 500 13
f 641 13 515
f 25 20 14
f 46 14 20
f 25 14 43
f 43 14 231
f 14 46 55
f 231 14 55
f 496 228 15
f 228 534 15
f 15 240 494
f 534 240 15
f 473 15 494
f 496 15 473
f 16 71 210
f 71 16 259
f 107 16 210
f 258 16 107
f 16 258 282
f 285 259 16
f 16 282 285
f 17 106 217
f 17 266 106
f 248 17 217
f 272 17 248
f 266 17 292
f 292 17 272
f 24 18 533
f 636 18 24
f 634 419 18
f 636 634 18
f 631 136 19
f 546 508 19
f 19 508 631
f 25 548 20
f 45 46 20
f 45 20 549
f 549 20 548
f 52 21 609
f 52 617 21
f 21 393 166
f 21 166 609
f 21 417 393
f 21 455 417
f 617 455 21
f 64 22 56
f 64 63 22
f 63 555 22
f 555 553 22
f 204 539 23
f 640 204 23
f 209 23 644
f 23 539 644
f 24 533 536
f 638 24 536
f 636 24 638
f 25 43 547
f 148 25 547
f 548 25 148
f 547 26 39
f 26 43 180
f 547 43 26
f 26 180 551
f 419 634 27
f 546 27 511
f 511 27 634
f 143 520 28
f 521 143 28
f 28 520 525
f 28 525 532
f 29 136 521
f 30 91 92
f 91 30 551
f 92 110 30
f 564 30 110
f 45 31 47
f 549 31 45
f 550 47 31
f 93 51 32
f 550 32 51
f 93 32 81
f 32 138 81
f 32 569 138
f 32 565 569
f 115 33 90
f 90 33 549
f 115 133 33
f 33 133 565
f 34 63 64
f 34 557 63
f 73 34 64
f 73 82 34
f 559 34 82
f 557 34 206
f 524 35 85
f 35 559 85
f 249 35 567
f 567 35 524
f 76 78 36
f 76 36 563
f 36 78 79
f 544 36 79
f 87 37 98
f 563 37 87
f 114 98 37
f 38 80 121
f 80 38 558
f 568 114 38
f 121 125 38
f 125 568 38
f 38 544 558
f 88 39 469
f 88 547 39
f 124 40 119
f 119 40 145
f 124 421 40
f 40 140 145
f 168 140 40
f 421 168 40
f 41 228 496
f 41 639 228
f 498 41 496
f 41 498 628
f 105 42 113
f 105 649 42
f 139 113 42
f 139 42 163
f 649 163 42
f 149 43 231
f 44 414 451
f 613 414 44
f 613 44 440
f 440 44 620
f 451 620 44
f 45 48 46
f 47 48 45
f 48 59 46
f 59 55 46
f 552 48 47
f 47 550 552
f 48 60 59
f 554 60 48
f 554 48 552
f 49 153 175
f 571 153 49
f 173 571 49
f 49 578 173
f 578 49 175
f 174 135 50
f 135 582 50
f 174 50 576
f 220 179 50
f 50 179 576
f 582 220 50
f 61 51 93
f 61 552 51
f 552 550 51
f 52 388 412
f 388 52 609
f 617 52 412
f 53 467 466
f 471 53 466
f 467 53 509
f 494 53 471
f 509 53 494
f 479 455 54
f 455 621 54
f 479 54 503
f 54 625 503
f 54 621 625
f 56 55 65
f 56 149 55
f 66 55 59
f 65 55 66
f 149 231 55
f 73 64 56
f 65 73 56
f 57 454 417
f 455 57 417
f 479 454 57
f 57 455 479
f 402 58 403
f 58 402 407
f 58 429 403
f 433 58 407
f 429 58 466
f 433 466 58
f 60 69 59
f 69 66 59
f 68 69 60
f 60 554 68
f 120 61 93
f 528 61 120
f 61 528 554
f 61 554 552
f 62 366 166
f 62 166 393
f 366 62 347
f 62 371 347
f 393 371 62
f 557 555 63
f 66 77 65
f 65 83 73
f 77 83 65
f 69 78 66
f 66 76 77
f 78 76 66
f 67 277 254
f 278 67 254
f 301 277 67
f 67 278 301
f 69 68 70
f 556 70 68
f 554 556 68
f 78 69 70
f 78 70 79
f 558 79 70
f 70 556 558
f 71 203 210
f 203 71 581
f 259 587 71
f 587 581 71
f 72 108 171
f 650 108 72
f 195 72 171
f 195 217 72
f 217 650 72
f 82 73 84
f 73 83 84
f 109 74 163
f 109 647 74
f 187 163 74
f 187 74 210
f 647 210 74
f 160 163 75
f 160 75 575
f 187 75 163
f 75 187 203
f 203 579 75
f 579 575 75
f 77 76 562
f 76 563 562
f 83 77 561
f 77 562 561
f 558 544 79
f 94 121 80
f 556 94 80
f 558 556 80
f 118 93 81
f 118 81 142
f 81 138 142
f 84 560 82
f 560 559 82
f 84 83 561
f 560 84 561
f 85 86 95
f 85 560 86
f 524 85 95
f 559 560 85
f 128 95 86
f 86 527 128
f 527 86 561
f 560 561 86
f 98 97 87
f 97 562 87
f 563 87 562
f 99 111 88
f 469 99 88
f 111 100 88
f 100 651 88
f 651 547 88
f 90 89 113
f 549 89 90
f 112 113 89
f 134 112 89
f 548 134 89
f 89 549 548
f 113 115 90
f 92 91 116
f 91 234 116
f 91 553 234
f 553 91 551
f 117 110 92
f 116 117 92
f 120 93 118
f 122 94 120
f 94 528 120
f 121 94 122
f 94 556 528
f 126 95 127
f 126 524 95
f 95 128 127
f 119 96 124
f 119 239 96
f 123 124 96
f 123 96 206
f 96 557 206
f 239 557 96
f 97 98 129
f 128 97 129
f 527 97 128
f 562 97 527
f 130 98 114
f 151 129 98
f 98 130 151
f 99 131 111
f 566 131 99
f 99 469 564
f 564 566 99
f 132 101 100
f 101 526 100
f 132 100 111
f 526 651 100
f 112 101 132
f 134 101 112
f 134 526 101
f 205 102 639
f 205 641 102
f 102 208 538
f 102 641 208
f 102 538 537
f 639 102 537
f 535 103 182
f 182 103 542
f 538 208 103
f 208 540 103
f 535 538 103
f 103 540 542
f 529 104 532
f 529 537 104
f 646 532 104
f 538 104 537
f 538 646 104
f 113 112 105
f 105 112 159
f 159 649 105
f 106 650 217
f 106 266 242
f 106 242 650
f 647 107 210
f 107 230 258
f 230 107 647
f 171 108 648
f 108 215 191
f 648 108 191
f 650 215 108
f 163 649 109
f 109 184 202
f 649 184 109
f 202 647 109
f 141 110 117
f 141 570 110
f 564 110 566
f 110 570 566
f 131 137 111
f 137 132 111
f 132 159 112
f 113 139 115
f 114 568 130
f 139 133 115
f 117 116 140
f 145 140 116
f 116 234 145
f 140 141 117
f 144 120 118
f 118 142 144
f 145 233 119
f 239 119 233
f 122 120 146
f 146 120 144
f 121 122 146
f 125 121 150
f 152 121 146
f 150 121 152
f 123 571 124
f 123 206 249
f 123 249 567
f 123 567 571
f 523 421 124
f 571 523 124
f 150 572 125
f 572 568 125
f 127 153 126
f 571 126 153
f 567 524 126
f 126 571 567
f 154 127 128
f 153 127 154
f 129 155 128
f 154 128 155
f 129 151 156
f 155 129 156
f 130 572 151
f 568 572 130
f 131 157 137
f 570 157 131
f 570 131 566
f 158 132 137
f 158 159 132
f 160 133 139
f 160 573 133
f 565 133 569
f 573 569 133
f 134 148 526
f 548 148 134
f 135 174 194
f 582 135 194
f 136 631 521
f 157 161 137
f 161 158 137
f 573 142 138
f 569 573 138
f 160 139 163
f 141 140 164
f 168 164 140
f 164 165 141
f 165 438 141
f 141 438 570
f 169 144 142
f 169 142 167
f 167 142 573
f 521 147 143
f 143 147 630
f 143 630 520
f 170 146 144
f 170 144 169
f 145 234 233
f 152 146 172
f 172 146 170
f 630 147 506
f 506 147 631
f 147 521 631
f 148 547 526
f 150 152 576
f 572 150 576
f 156 151 179
f 151 576 179
f 572 576 151
f 174 152 172
f 576 152 174
f 153 154 176
f 153 176 175
f 154 155 177
f 154 177 176
f 155 156 178
f 155 178 177
f 156 179 178
f 181 161 157
f 574 181 157
f 574 157 570
f 159 158 183
f 158 161 183
f 183 184 159
f 649 159 184
f 573 160 575
f 181 186 161
f 186 183 161
f 162 535 182
f 539 162 182
f 162 533 535
f 533 162 536
f 539 536 162
f 165 164 188
f 168 188 164
f 188 189 165
f 189 448 165
f 165 574 438
f 165 448 574
f 366 609 166
f 169 167 190
f 167 244 190
f 244 167 575
f 167 573 575
f 191 188 168
f 648 191 168
f 648 168 421
f 170 169 192
f 169 190 192
f 172 170 193
f 193 170 192
f 171 173 185
f 173 171 421
f 185 195 171
f 171 648 421
f 174 172 194
f 194 172 193
f 185 173 578
f 173 421 523
f 571 173 523
f 176 197 175
f 222 175 197
f 578 175 222
f 177 196 176
f 176 196 197
f 178 198 177
f 196 177 198
f 199 178 179
f 198 178 199
f 199 179 220
f 181 200 186
f 577 200 181
f 574 577 181
f 539 182 543
f 543 182 542
f 184 183 201
f 183 186 207
f 207 201 183
f 201 202 184
f 185 578 195
f 200 207 186
f 210 203 187
f 189 188 212
f 191 211 188
f 211 212 188
f 212 442 189
f 189 442 577
f 189 577 448
f 213 192 190
f 213 190 214
f 190 579 214
f 190 244 579
f 215 211 191
f 216 193 192
f 216 192 213
f 218 194 193
f 218 193 216
f 221 194 218
f 582 194 221
f 195 219 217
f 195 578 219
f 197 196 223
f 196 198 224
f 196 224 223
f 223 222 197
f 198 199 225
f 198 225 224
f 199 220 225
f 227 207 200
f 580 227 200
f 577 580 200
f 202 201 229
f 229 201 207
f 229 230 202
f 647 202 230
f 579 203 581
f 204 536 539
f 638 536 204
f 638 204 640
f 227 232 207
f 232 229 207
f 641 540 208
f 235 518 209
f 644 235 209
f 211 236 212
f 215 236 211
f 236 238 212
f 238 444 212
f 212 580 442
f 212 444 580
f 213 214 241
f 216 213 245
f 245 213 241
f 214 243 241
f 243 214 581
f 214 579 581
f 242 236 215
f 650 242 215
f 218 216 246
f 246 216 245
f 217 219 586
f 586 248 217
f 221 218 247
f 247 218 246
f 578 583 219
f 583 586 219
f 225 220 254
f 220 226 254
f 582 226 220
f 250 221 247
f 585 221 250
f 221 585 582
f 222 223 251
f 586 222 251
f 222 583 578
f 222 586 583
f 223 224 252
f 252 251 223
f 225 253 224
f 253 252 224
f 253 225 254
f 226 255 254
f 255 226 585
f 585 226 582
f 227 256 232
f 584 256 227
f 580 584 227
f 228 639 534
f 230 229 257
f 260 229 232
f 260 257 229
f 257 258 230
f 256 260 232
f 234 553 233
f 555 239 233
f 555 233 553
f 235 237 517
f 235 644 237
f 518 235 517
f 238 236 263
f 242 262 236
f 262 263 236
f 517 237 516
f 237 643 516
f 237 644 643
f 263 435 238
f 238 435 584
f 238 584 444
f 239 555 557
f 240 509 494
f 240 635 509
f 635 240 534
f 243 587 241
f 245 241 264
f 264 241 265
f 587 265 241
f 266 262 242
f 581 587 243
f 575 579 244
f 268 246 245
f 245 264 267
f 268 245 267
f 269 247 246
f 269 246 268
f 247 273 250
f 273 247 269
f 270 272 248
f 248 586 270
f 589 250 273
f 585 250 589
f 275 251 252
f 271 251 274
f 586 251 271
f 274 251 275
f 253 276 252
f 252 276 275
f 253 254 277
f 253 277 276
f 255 278 254
f 278 255 589
f 255 585 589
f 279 260 256
f 588 279 256
f 584 588 256
f 280 258 257
f 257 260 280
f 280 281 258
f 282 258 281
f 261 259 285
f 587 259 261
f 279 284 260
f 284 280 260
f 285 632 261
f 587 261 591
f 261 632 591
f 262 286 263
f 266 286 262
f 286 287 263
f 287 447 263
f 263 588 435
f 263 447 588
f 264 265 288
f 264 291 267
f 291 264 288
f 265 283 288
f 265 587 283
f 289 286 266
f 292 289 266
f 268 267 290
f 290 267 291
f 269 268 293
f 293 268 290
f 273 269 294
f 294 269 293
f 272 270 594
f 586 590 270
f 590 594 270
f 590 271 274
f 586 271 590
f 296 292 272
f 594 296 272
f 297 273 294
f 593 273 297
f 589 273 593
f 275 295 274
f 295 594 274
f 594 590 274
f 276 299 275
f 295 275 298
f 299 298 275
f 277 300 276
f 299 276 300
f 300 277 301
f 278 302 301
f 302 278 593
f 278 589 593
f 279 303 284
f 592 303 279
f 588 592 279
f 304 281 280
f 308 280 284
f 308 304 280
f 282 281 305
f 304 305 281
f 285 282 306
f 305 306 282
f 283 595 288
f 587 591 283
f 283 591 595
f 303 308 284
f 306 309 285
f 309 307 285
f 285 307 632
f 287 286 312
f 289 311 286
f 311 312 286
f 312 441 287
f 287 441 592
f 287 592 447
f 288 315 291
f 315 288 313
f 288 595 313
f 292 314 289
f 314 311 289
f 290 291 315
f 317 293 290
f 317 290 315
f 296 316 292
f 316 314 292
f 318 294 293
f 318 293 317
f 294 321 297
f 321 294 318
f 298 319 295
f 594 295 319
f 320 316 296
f 296 594 320
f 597 297 321
f 593 297 597
f 323 298 299
f 319 298 322
f 323 322 298
f 299 300 324
f 299 324 323
f 300 301 325
f 300 325 324
f 302 326 301
f 326 325 301
f 326 302 597
f 302 593 597
f 327 308 303
f 596 327 303
f 592 596 303
f 305 304 328
f 304 308 328
f 306 305 329
f 328 329 305
f 309 306 461
f 329 461 306
f 310 307 309
f 595 307 310
f 595 591 307
f 632 307 591
f 327 330 308
f 330 328 308
f 332 310 309
f 331 332 309
f 309 461 331
f 310 332 599
f 599 595 310
f 311 333 312
f 314 333 311
f 333 334 312
f 334 449 312
f 312 596 441
f 312 449 596
f 315 313 335
f 335 313 599
f 313 595 599
f 316 336 314
f 336 333 314
f 317 315 337
f 315 335 337
f 320 424 316
f 424 336 316
f 318 317 338
f 338 317 337
f 321 318 340
f 340 318 338
f 322 342 319
f 598 319 342
f 598 594 319
f 341 339 320
f 320 339 424
f 598 341 320
f 594 598 320
f 343 321 340
f 601 321 343
f 597 321 601
f 323 344 322
f 342 322 344
f 324 345 323
f 344 323 345
f 325 346 324
f 345 324 346
f 347 325 326
f 346 325 347
f 326 348 347
f 348 326 601
f 326 597 601
f 327 349 330
f 600 349 327
f 596 600 327
f 329 328 350
f 352 328 330
f 352 350 328
f 350 351 329
f 351 461 329
f 349 352 330
f 331 355 332
f 353 355 331
f 353 331 461
f 355 356 332
f 603 332 356
f 599 332 603
f 334 333 358
f 336 357 333
f 357 358 333
f 358 437 334
f 334 437 600
f 334 600 449
f 361 337 335
f 335 354 359
f 354 335 599
f 361 335 359
f 339 360 336
f 339 336 424
f 360 357 336
f 362 338 337
f 362 337 361
f 364 340 338
f 364 338 362
f 365 339 341
f 363 360 339
f 363 339 365
f 340 367 343
f 367 340 364
f 341 605 365
f 341 598 602
f 341 602 605
f 344 368 342
f 368 605 342
f 602 598 342
f 602 342 605
f 606 343 367
f 601 343 606
f 344 345 369
f 344 369 368
f 345 346 370
f 345 370 369
f 346 347 371
f 346 371 370
f 348 366 347
f 366 348 606
f 348 601 606
f 349 372 352
f 604 372 349
f 600 604 349
f 351 350 373
f 350 352 373
f 374 353 351
f 351 353 461
f 373 374 351
f 372 376 352
f 376 373 352
f 355 353 397
f 374 397 353
f 359 354 375
f 354 603 375
f 599 603 354
f 398 356 355
f 397 398 355
f 377 356 398
f 356 377 607
f 607 603 356
f 357 378 358
f 360 378 357
f 378 379 358
f 379 446 358
f 358 604 437
f 358 446 604
f 361 359 380
f 359 375 380
f 363 463 360
f 463 378 360
f 362 361 381
f 361 380 382
f 381 361 382
f 364 362 384
f 384 362 381
f 365 385 363
f 385 383 363
f 363 383 463
f 367 364 386
f 386 364 384
f 387 385 365
f 531 387 365
f 605 531 365
f 366 606 609
f 388 367 386
f 609 367 388
f 606 367 609
f 369 389 368
f 368 389 390
f 610 368 390
f 605 368 610
f 370 391 369
f 389 369 391
f 370 371 392
f 391 370 392
f 392 371 393
f 372 394 376
f 608 394 372
f 604 608 372
f 374 373 395
f 395 373 376
f 395 396 374
f 396 397 374
f 380 375 399
f 399 375 607
f 375 603 607
f 394 400 376
f 400 395 376
f 377 398 401
f 611 377 401
f 607 377 611
f 379 378 402
f 383 402 378
f 383 378 463
f 402 403 379
f 403 443 379
f 379 443 608
f 379 608 446
f 380 406 382
f 404 380 399
f 406 380 404
f 381 382 406
f 405 384 381
f 405 381 406
f 385 407 383
f 407 402 383
f 409 386 384
f 409 384 405
f 408 385 387
f 408 407 385
f 386 412 388
f 386 409 412
f 411 408 387
f 410 411 387
f 387 610 410
f 531 610 387
f 390 389 414
f 389 391 413
f 389 413 414
f 613 390 414
f 390 613 610
f 391 392 415
f 391 415 413
f 392 393 416
f 392 416 415
f 416 393 417
f 394 418 400
f 612 418 394
f 608 612 394
f 396 395 420
f 420 395 400
f 397 396 422
f 420 422 396
f 423 398 397
f 422 423 397
f 425 401 398
f 423 425 398
f 404 399 427
f 399 614 427
f 607 611 399
f 399 611 614
f 418 426 400
f 426 420 400
f 401 425 428
f 614 401 428
f 614 611 401
f 429 615 403
f 403 612 443
f 403 615 612
f 404 431 406
f 404 427 430
f 431 404 430
f 405 406 431
f 409 405 434
f 434 405 431
f 408 432 407
f 432 433 407
f 411 436 408
f 408 436 432
f 412 409 439
f 439 409 434
f 411 410 440
f 613 440 410
f 610 613 410
f 411 440 436
f 450 412 439
f 617 412 450
f 414 413 451
f 413 415 452
f 452 451 413
f 415 416 453
f 453 452 415
f 416 417 454
f 454 453 416
f 456 426 418
f 615 456 418
f 612 615 418
f 422 420 457
f 457 420 426
f 423 422 458
f 457 458 422
f 425 423 459
f 458 459 423
f 425 460 428
f 459 460 425
f 456 462 426
f 462 457 426
f 430 427 464
f 616 464 427
f 614 616 427
f 428 460 465
f 428 465 618
f 616 614 428
f 616 428 618
f 467 445 429
f 429 445 615
f 466 467 429
f 431 430 468
f 430 464 468
f 434 431 470
f 431 468 470
f 432 471 433
f 436 473 432
f 471 432 473
f 471 466 433
f 439 434 472
f 472 434 470
f 435 588 584
f 436 440 620
f 473 436 498
f 436 620 498
f 437 604 600
f 438 574 570
f 450 439 474
f 474 439 472
f 441 596 592
f 442 580 577
f 443 612 608
f 444 584 580
f 467 619 445
f 445 619 615
f 446 608 604
f 447 592 588
f 448 577 574
f 449 600 596
f 475 450 474
f 621 450 475
f 450 621 617
f 452 476 451
f 645 451 476
f 620 451 645
f 453 477 452
f 476 452 477
f 454 478 453
f 477 453 478
f 478 454 480
f 454 479 480
f 621 455 617
f 456 481 462
f 619 481 456
f 615 619 456
f 458 457 482
f 486 457 462
f 486 482 457
f 458 483 459
f 482 487 458
f 487 483 458
f 460 459 483
f 489 465 460
f 483 489 460
f 481 486 462
f 468 464 484
f 464 618 484
f 464 616 618
f 465 489 490
f 622 465 490
f 618 465 622
f 491 485 467
f 467 485 619
f 491 467 509
f 493 470 468
f 468 484 492
f 493 468 492
f 495 472 470
f 495 470 493
f 473 494 471
f 497 474 472
f 497 472 495
f 473 498 496
f 474 499 475
f 499 474 497
f 625 475 499
f 621 475 625
f 476 477 515
f 476 515 500
f 530 476 500
f 476 530 645
f 478 501 477
f 501 515 477
f 502 478 480
f 502 501 478
f 480 479 502
f 503 502 479
f 504 486 481
f 623 504 481
f 619 623 481
f 482 486 505
f 487 482 505
f 483 487 507
f 489 483 507
f 484 488 492
f 484 622 488
f 618 622 484
f 510 485 491
f 485 510 545
f 485 545 623
f 623 619 485
f 504 629 486
f 629 505 486
f 505 506 487
f 506 507 487
f 492 488 511
f 546 511 488
f 624 546 488
f 622 624 488
f 508 490 489
f 507 508 489
f 508 546 490
f 546 624 490
f 622 490 624
f 509 510 491
f 493 492 511
f 495 493 512
f 512 493 511
f 497 495 513
f 513 495 512
f 499 497 514
f 514 497 513
f 620 626 498
f 498 626 628
f 519 499 514
f 627 499 519
f 627 625 499
f 626 530 500
f 500 628 626
f 502 516 501
f 501 541 515
f 541 501 516
f 503 517 502
f 516 502 517
f 517 503 518
f 518 503 627
f 627 503 625
f 545 504 623
f 545 629 504
f 630 506 505
f 505 629 630
f 506 631 507
f 507 631 508
f 509 633 510
f 635 633 509
f 634 512 511
f 513 512 636
f 512 634 636
f 514 513 638
f 513 636 638
f 519 514 640
f 514 638 640
f 515 541 641
f 643 541 516
f 520 629 522
f 520 522 633
f 520 633 525
f 520 630 629
f 525 529 532
f 525 635 529
f 633 635 525
f 526 547 651
f 562 527 561
f 528 556 554
f 529 637 537
f 529 635 637
f 530 626 620
f 645 530 620
f 605 610 531
f 535 532 646
f 637 635 534
f 534 639 637
f 535 646 538
f 637 639 537
f 543 644 539
f 540 642 542
f 540 641 642
f 641 541 642
f 643 642 541
f 542 643 543
f 642 643 542
f 643 644 543
