v 0.2 -0.1 -0.1
v 0.2 -0.1 0.1
v 0.2 0.1 -0.1
v 0.2 0.1 0.1
v 0.8 -0.1 -0.1
v 0.8 -0.1 0.1
v 0.8 0.1 -0.1
v 0.8 0.1 0.1
v 0.768987945679841 -0.0656896868594193 -0.1
v 0.2 -0.0779453124340045 -0.0671131262656397
v 0.768987945679841 -0.00829156197588849 -0.1
v 0.233826392851015 0.0742473354548298 -0.1
v 0.2 -0.0651310944662914 -0.0470404704989926
v 0.2 -0.012531833206067 -0.00118050133357021
v 0.8 -0.0282883893701718 -0.0695457520450418
v 0.8 -0.0605106502853362 -0.033675616073034
v 0.2 -0.00773296958276056 -0.0651310944662914
v 0.8 0.0790721228568464 0.0753602017678916
v 0.8 -0.075917790965527 -0.0779228411553426
v 0.642824597164013 -0.0702709855064859 0.1
v 0.605341035416671 -0.1 0.0780068050769619
v 0.2 -0.1 -0.0671131262656397
v 0.22944175553019 0.1 -0.0613578226932738
v 0.8 -0.0721943746505923 -0.0161085921679504
v 0.769701702494188 -0.033922311209382 -0.1
v 0.2 -0.0813342539487107 0.0802610306469971
v 0.22503179743097 -0.0765199398283598 0.1
v 0.226549842204466 -0.1 0.0805147120125531
v 0.2 0.0739812488353078 -0.0739812488353078
v 0.307703337562252 0.0313793737188386 -0.1
v 0.30804017186267 -4.35544810032801e-05 -0.1
v 0.2 0.0739812488353078 0.0739812488353078
v 0.308643948989619 -0.1 0.0623348904814612
v 0.216218068066865 0.0748500522417993 0.1
v 0.216344879718385 0.1 0.0739812488353078
v 0.769706010207639 0.0739812488353078 -0.1
v 0.2 -0.0598546884667058 -0.0302621889325827
v 0.2 -0.0598546884667058 0.0585153096697866
v 0.592456602535884 0.1 0.1
v 0.2 -0.0302621889325827 -0.0598546884667058
v 0.2 -0.0433906037534996 0.00161839559788532
v 0.2 -0.0322826106154711 0.0406091567030008
v 0.611040361098229 0.1 0.0488583497357826
v 0.2 -0.0474378798486443 0.0839833402763399
v 0.2 -0.0292042248408788 0.071151002088575
v 0.216220200864343 -0.0457880503225641 0.1
v 0.2 -0.000669689398459569 -0.0302621889325827
v 0.2 -0.000669689398459569 0.0443887493011847
v 0.2 -0.0156181249442211 0.0876017684638899
v 0.2 -0.00457995776808233 0.0695362466373128
v 0.2 0.0286794056160434 -0.0624150995462339
v 0.2 0.0258393307341167 -0.00195718974212637
v 0.2 0.0321480495834954 0.0356966855169195
v 0.2 0.0136121937242895 0.0873437427840924
v 0.2 0.0241818722006145 0.0650223715648466
v 0.2 0.0310719062618644 0.0818009966697019
v 0.2 0.0443887493011847 -0.0302621889325827
v 0.8 0.0225292193498221 -0.0218595299513625
v 0.2 -0.0179051786893784 0.0187456331733448
v 0.2 0.0670222087859989 0.0476754330947142
v 0.2 0.0626564365779378 0.0228065933564899
v 0.768987945679841 -0.1 -0.1
v 0.2 0.0443887493011847 0.0881078092039098
v 0.2 0.0527134465331883 0.0676417634032569
v 0.220724533544551 0.0495517194175662 0.1
v 0.2 0.0706576681982765 -0.032760697760211
v 0.2 0.0849376126245265 -0.0507236888736796
v 0.2 0.0618615192194921 -0.00629820737724814
v 0.2 0.0886066339932509 -0.0148544521916845
v 0.2 0.0881078092039098 0.0147962497670616
v 0.2 0.0824493181100465 0.000166728638681349
v 0.2 0.0852313559246094 0.0355881790897394
v 0.216344879718385 0.1 0.0443887493011847
v 0.229402706301969 -0.1 -0.0615485962969238
v 0.230293989792361 -0.1 0.0573981248835308
v 0.230293989792361 -0.0609718732529617 -0.1
v 0.239426592020543 -0.0387546547700643 0.1
v 0.228779110834256 -0.0110271117248619 0.1
v 0.225342957486197 0.0233524029051876 0.1
v 0.227192240361994 0.1 -0.0131537562479592
v 0.227813251450036 0.1 0.029073991007612
v 0.238559253133801 0.1 0.0559898474894624
v 0.248781746098344 -0.1 -0.0828242085961043
v 0.242118411268138 -0.1 -0.0411102330553718
v 0.240585188671147 -0.1 -0.0117815413435387
v 0.244243099866337 -0.1 0.0313793737188386
v 0.2 -0.0721943746505923 0.0121445285692536
v 0.8 0.0361320808765526 0.0713320192287193
v 0.2 -0.0521217188839452 0.0289228101356635
v 0.262024108640319 -0.0869906244176539 -0.1
v 0.256666696988211 -0.1 -0.0625726686583126
v 0.271178099234759 0.1 -0.0745908636174461
v 0.242875328020022 -0.0601123486976628 0.1
v 0.244194693811223 -0.0442091948548925 -0.1
v 0.260694309045976 -0.0620708858672583 -0.1
v 0.262024108640319 -0.0443887493011847 0.1
v 0.241646328891476 -0.0122685504528159 -0.1
v 0.262024108640319 -0.0313793737188386 -0.1
v 0.260650061789122 -0.00534624858562553 0.1
v 0.262417481190796 -0.0267058680455511 0.1
v 0.25111172860058 0.015163842903401 0.1
v 0.237952551020871 0.043216949699617 -0.1
v 0.713220327548712 -0.0147962497670615 -0.1
v 0.262024108640319 0.0443887493011847 0.1
v 0.222121549933168 -0.1 0.00508124838495263
v 0.269411853322851 0.0634757096048823 -0.1
v 0.253579058971013 0.1 0.00724010178086857
v 0.257518322522066 0.1 -0.0430629661304587
v 0.8 -0.1 -0.00329437420023717
v 0.262024108640319 0.1 0.0313793737188386
v 0.262024108640319 0.1 0.0609718732529617
v 0.265393407380085 0.1 0.0846690062463739
v 0.275827828310907 -0.1 -0.0833276496936681
v 0.274250341102973 -0.1 -0.0334461085970159
v 0.275068170857433 -0.1 -0.00131945340091782
v 0.275973218714294 -0.1 0.0313793737188386
v 0.276461916635299 -0.1 0.0561495785603345
v 0.269516421242941 -0.0783994413485329 0.1
v 0.293754227488276 -0.1 -0.0609718732529617
v 0.2 -0.1 -0.00463375299715632
v 0.290864718534299 -0.1 0.0816762978329734
v 0.244243099866337 0.0147962497670616 -0.1
v 0.29136470252944 -0.0576799978347339 -0.1
v 0.2 -0.0327131388939206 -0.0349541513970569
v 0.293391244545922 -0.0593340713321089 0.1
v 0.27912026662682 -0.00068093570066843 -0.1
v 0.293754227488276 -0.0278056253494077 0.1
v 0.275973218714294 0.0313793737188386 -0.1
v 0.288365026259323 0.00395581061596484 0.1
v 0.777878450066832 0.1 -0.0804859366264808
v 0.293754227488276 0.0313793737188386 0.1
v 0.8 0.0750309747297688 -0.049827808908612
v 0.292291877842792 0.0604496758274347 0.1
v 0.293754227488276 0.1 -0.0573981248835308
v 0.286786178364335 0.1 -0.0274753360160331
v 0.288325625513569 0.1 0.00383828254673461
v 0.292465931482766 0.1 0.0321725118949547
v 0.290794380318205 0.1 0.0777532461958197
v 0.307844459075982 -0.1 -0.0822285571183178
v 0.305110346097125 -0.1 -0.0307745929755742
v 0.307703337562252 -0.1 0.00178687418471546
v 0.307703337562252 -0.1 0.0313793737188386
v 0.30212608966424 -0.0814290471698566 0.1
v 0.325484346336234 -0.1 -0.0609718732529617
v 0.323575993354405 -0.1 0.0823478090899422
v 0.304493557752873 -0.0284205282161406 -0.1
v 0.325484346336234 -0.0609718732529617 -0.1
v 0.8 -0.0829330117610684 0.0764561968599991
v 0.323106075127767 -0.0488999902331233 0.1
v 0.8 0.0585649862567703 0.00454334019367877
v 0.324233030880816 -0.018434364103383 0.1
v 0.325750592957223 0.0124360477487217 0.1
v 0.307703337562252 0.0609718732529617 -0.1
v 0.325484346336234 0.0443887493011847 0.1
v 0.8 0.0501396870845969 -0.0721943746505923
v 0.307934433713903 0.1 0.0542340222593617
v 0.319833891174789 0.1 -0.0460643973183242
v 0.322086998300349 0.1 -0.0152553610089961
v 0.325484346336234 0.1 0.0147962497670616
v 0.33101127359995 0.1 0.0346307737707114
v 0.323390748676457 0.1 0.07642195792497
v 0.339424345909881 -0.1 -0.0821410991596245
v 0.336714307963947 -0.1 -0.0331721522559326
v 0.339433456410209 -0.1 0.00178687418471546
v 0.339433456410209 -0.1 0.0313793737188386
v 0.339433456410209 -0.1 0.0609718732529617
v 0.333382577176533 -0.0809391104318468 0.1
v 0.357214465184191 -0.1 -0.0609718732529617
v 0.353410417389857 -0.1 0.0821693885837964
v 0.338729878310839 -0.0336481233118693 -0.1
v 0.357214465184191 -0.0609718732529617 -0.1
v 0.352749551859591 -0.0585490409331125 0.1
v 0.339433456410209 0.00178687418471546 -0.1
v 0.354829724035189 -0.027998639024794 0.1
v 0.339433456410209 0.0313793737188386 -0.1
v 0.8 0.0578726566673574 0.0721943746505923
v 0.364766985683222 0.0155949084031359 0.1
v 0.358556166453102 -0.00362034917710959 0.1
v 0.8 -0.0721943746505923 -0.1
v 0.339433456410209 0.0609718732529617 -0.1
v 0.2 0.0721943746505923 -0.1
v 0.8 0.1 0.0721943746505923
v 0.341867060889301 0.1 0.0576734713933858
v 0.356358290766977 0.0651984369005526 0.1
v 0.357214465184191 0.1 -0.0573981248835308
v 0.353480816104904 0.1 -0.027040430190856
v 0.358400267169992 0.1 -0.00324780858681192
v 0.357214465184191 0.1 0.0313793737188386
v 0.352328792002086 0.1 0.0760005222445357
v 0.371177442767112 -0.1 -0.0821002747478799
v 0.369038686815601 -0.1 -0.0323055598228927
v 0.370597517263451 -0.1 0.000424375884165114
v 0.370748775765129 -0.1 0.0307165227638295
v 0.373691344047038 -0.1 0.0602337518188563
v 0.365277097499761 -0.0809247286743614 0.1
v 0.388944584032149 -0.1 -0.0609718732529617
v 0.385351119234245 -0.1 0.0821018436449447
v 0.369850458697562 -0.0311114453907865 -0.1
v 0.387338698814984 -0.0594106316169158 -0.1
v 0.388944584032149 -0.0443887493011847 0.1
v 0.370672447558887 0.000799970560040227 -0.1
v 0.2 0.014126560368602 0.0218595299513626
v 0.388944584032149 -0.0278056253494077 0.1
v 0.370792571440985 0.0308348691796105 -0.1
v 0.390893242701596 0.00512899639487507 0.1
v 0.371163575258167 0.0609718732529617 -0.1
v 0.388944584032149 0.0313793737188386 0.1
v 0.222121549933168 1.38777878078145e-17 -0.1
v 0.221305460559398 -0.0338218294420764 -0.1
v 0.374748924377438 0.1 0.0565203269064029
v 0.777938282978186 0.1 0.0622124839336436
v 0.222121549933168 0.0295924995341231 -0.1
v 0.388944584032149 0.0609718732529617 0.1
v 0.563460237695915 0.1 0.0656896868594193
v 0.386885645873507 0.1 -0.0494523099904473
v 0.388944584032149 0.1 -0.0147962497670616
v 0.390487934961642 0.1 0.00476792915226928
v 0.388944584032149 0.1 0.0313793737188386
v 0.387764123694264 0.1 0.0805438649465508
v 0.2 -0.0225292193498221 -0.0154659391655211
v 0.4030238359649 -0.1 -0.0822047974409568
v 0.8 0.0230438548015193 -0.062172530956462
v 0.2 0.0591849990682462 -0.0521217188839452
v 0.400052637978756 -0.1 -0.0306127567778942
v 0.402893694106124 -0.1 0.00178687418471546
v 0.402893694106124 -0.1 0.0313793737188386
v 0.405753635449322 -0.1 0.060361423586554
v 0.396914453378371 -0.0807452458492895 0.1
v 0.420674702880106 -0.1 -0.0609718732529617
v 0.417466603362701 -0.1 0.0822308413695093
v 0.400120450367064 -0.030231998843982 -0.1
v 0.420674702880106 -0.0609718732529617 -0.1
v 0.423178102814702 -0.0597771425698349 0.1
v 0.402893694106124 0.00178687418471546 -0.1
v 0.443514317341073 -0.1 0.0739812488353078
v 0.256978701510819 -0.1 0.0745584625949476
v 0.420674702880106 -0.0278056253494077 0.1
v 0.72596922835477 0.0445608768133633 -0.1
v 0.402512920447597 0.0309460529688513 -0.1
v 0.60216491158086 -0.1 0.0443887493011847
v 0.422707620807423 0.0202887679358019 0.1
v 0.418981022454863 -0.00204109010645183 0.1
v 0.402893694106124 0.0609718732529617 -0.1
v 0.420674702880106 0.0443887493011847 0.1
v 0.403818738179542 0.1 0.0590796315205426
v 0.418329538255187 0.0673535805481965 0.1
v 0.420674702880106 0.1 -0.0573981248835308
v 0.422801146722532 0.1 -0.0299245754993663
v 0.422470318172165 0.1 0.0206384777296878
v 0.42067460945884 0.1 -0.00243852992185349
v 0.420674702880106 0.1 0.0739812488353078
v 0.434601918451539 -0.1 -0.082136715773812
v 0.432467470566108 -0.1 -0.0319766011683502
v 0.434623812954082 -0.1 0.00178687418471546
v 0.434623812954082 -0.1 0.0313793737188386
v 0.452404821728064 -0.1 -0.0609718732529617
v 0.432477335486327 -0.0318743197356847 -0.1
v 0.452404821728064 -0.0609718732529617 -0.1
v 0.453278855554515 -0.0432267880049936 0.1
v 0.459345478296743 -0.0656472470850976 0.1
v 0.434047365285009 0.000546310129253227 -0.1
v 0.455984223991619 -0.0237659686735046 0.1
v 0.434440928459867 0.0318173614346563 -0.1
v 0.451752254348308 0.00134642685964569 0.1
v 0.437637779664618 0.0632278885306543 -0.1
v 0.449690887458021 0.027387222518039 0.1
v 0.438455711654088 0.1 0.0573981248835308
v 0.452404821728064 0.0609718732529617 0.1
v 0.454785709612175 0.1 -0.0618905365215601
v 0.453658831283342 0.1 -0.0237116347760239
v 0.449912796540542 0.1 0.000271014532593233
v 0.449046908179715 0.1 0.0284616295694942
v 0.450559117789803 0.1 0.0765702651532575
v 0.466477783839285 -0.1 -0.082198222462835
v 0.463473595612474 -0.1 -0.0305783319709313
v 0.467283814078113 -0.1 0.00504301524394202
v 0.466983103696355 -0.1 0.0373190287765053
v 0.46537085018104 -0.1 0.0739079135531992
v 0.484134940576021 -0.1 -0.0609718732529617
v 0.463550940218855 -0.0305109797922948 -0.1
v 0.484134940576021 -0.0609718732529617 -0.1
v 0.481083366725837 -0.0570509573241641 0.1
v 0.467580164581746 0.00373741211515319 -0.1
v 0.484134940576021 -0.0147962497670616 0.1
v 0.484134940576021 -0.0278056253494077 0.1
v 0.486075435497646 0.0176852615822864 0.1
v 0.46593345726566 0.0329364787356602 -0.1
v 0.48834416054541 0.0405080294666416 0.1
v 0.470185830502046 0.1 -0.0739812488353078
v 0.484134940576021 0.0573981248835308 -0.1
v 0.482321270101477 0.0658998119432102 0.1
v 0.484134940576021 0.1 -0.0573981248835308
v 0.486151840837146 0.1 -0.00773729418365769
v 0.484134940576021 0.1 -0.0278056253494077
v 0.480647662654394 0.1 0.0193004740128518
v 0.484134940576021 0.1 0.0443887493011847
v 0.480268091006526 0.1 0.0741584190353716
v 0.498060457292766 -0.1 -0.0821360831532567
v 0.495214621761088 -0.1 -0.033125132202166
v 0.499953255674538 -0.1 -0.00171050328820727
v 0.498257396518927 -0.1 0.0297835717641825
v 0.498084050649997 -0.1 0.0739812488353078
v 0.515998353602499 -0.1 -0.0628059458210357
v 0.50218595343174 -0.0714058800218434 0.1
v 0.517987721391389 -0.1 0.0596405746728464
v 0.517729282843771 -0.1 0.0816359852611513
v 0.495052876231096 -0.0328056133213352 -0.1
v 0.515679905528673 -0.0625959678582666 -0.1
v 0.515082965202375 -0.0539218984569391 0.1
v 0.499601409273716 -0.00127014399861471 -0.1
v 0.515865059423979 -0.0278056253494077 0.1
v 0.498158314822992 0.0282188938991035 -0.1
v 0.516536490522817 -0.00154532882588336 0.1
v 0.516847381550534 0.0236606393057204 0.1
v 0.517302679921191 0.0559650971470821 -0.1
v 0.505585512117522 0.1 0.064086550477331
v 0.510620033137305 0.0654108804249285 0.1
v 0.514090516567487 0.1 -0.0609738291618759
v 0.515274803330433 0.1 -0.0281370127670131
v 0.514783735002916 0.1 -0.000321460716101923
v 0.514683807362309 0.1 0.0243813238665187
v 0.529819511322386 -0.1 -0.082399250437368
v 0.527644230856534 -0.1 -0.0325759196745315
v 0.529223180016272 -0.1 0.00185135021059649
v 0.547595178271936 -0.1 -0.0609718732529617
v 0.543561416013596 -0.1 0.049729177805818
v 0.544432623453353 -0.1 0.0255092676486766
v 0.545581214696486 -0.1 0.075165369980658
v 0.527285335879909 -0.0316237157297554 -0.1
v 0.544770671722739 -0.059387130449462 -0.1
v 0.546167544633074 -0.0624537893620584 0.1
v 0.528748713961073 0.00255776845849771 -0.1
v 0.547595178271936 -0.0147962497670616 0.1
v 0.547595178271936 0.0147962497670616 0.1
v 0.545654076144013 0.0434874778006376 -0.1
v 0.529614414075722 0.0799069805882871 -0.1
v 0.535965584414798 0.1 0.0601307013753404
v 0.547595178271936 0.0609718732529617 0.1
v 0.547595178271936 0.1 -0.0443887493011847
v 0.547595178271936 0.1 -0.0147962497670616
v 0.547595178271936 0.1 0.0147962497670616
v 0.546766626731448 0.1 0.0354560492020702
v 0.561687580551042 -0.1 -0.0821835660430159
v 0.558656894922295 -0.1 -0.0305811787301462
v 0.563469766118806 -0.1 -0.000752567042914251
v 0.579325297119894 -0.1 -0.0609718732529617
v 0.579325297119894 -0.1 0.0278056253494077
v 0.569501611190358 -0.0796318527788121 0.1
v 0.580362487210099 -0.1 0.058615952225624
v 0.579325297119894 -0.1 0.0869906244176539
v 0.557824672378002 -0.0299261993799573 -0.1
v 0.579325297119894 -0.0609718732529617 -0.1
v 0.57805577740103 -0.0548305904683546 0.1
v 0.562475577299355 1.78055162591423e-05 -0.1
v 0.578002199520551 -0.0275970941188184 0.1
v 0.572863998014331 -0.000686243350466825 0.1
v 0.577053762684522 0.0273453191825323 -0.1
v 0.576717437519995 0.0566262598011278 0.1
v 0.577684472047045 0.0266823637009872 0.1
v 0.565376187045918 0.1 -0.0739812488353078
v 0.578831578266406 0.0623933116367384 -0.1
v 0.579325297119894 0.1 -0.0278056253494077
v 0.57445476929949 0.1 -0.000554875288949569
v 0.583747398908868 0.1 0.0502169308106694
v 0.579325297119894 0.1 0.0313793737188386
v 0.593282160670025 -0.1 -0.0821276829485642
v 0.591206911681768 -0.1 -0.0320196536482435
v 0.595194577377154 -0.1 -7.66676493124674e-06
v 0.611055415967851 -0.1 -0.0609718732529617
v 0.595082136595415 -0.0732888221821872 0.1
v 0.590637875170733 -0.0312379836800468 -0.1
v 0.608305760727203 -0.0593337029202473 -0.1
v 0.611055415967851 -0.0443887493011847 0.1
v 0.593239080835595 -0.00157987673876667 -0.1
v 0.611055415967851 -0.0147962497670616 0.1
v 0.611055415967851 0.0147962497670616 0.1
v 0.611055415967851 0.0443887493011847 -0.1
v 0.611055415967851 0.0278056253494077 -0.1
v 0.2 -0.0799273442333529 0.0417370281033767
v 0.601579294106041 0.1 0.0721715506238072
v 0.781410360159477 -0.0781294446415704 0.1
v 0.611055415967851 0.0609718732529617 0.1
v 0.607862982185626 0.1 -0.0515493271483586
v 0.610389470042831 0.1 -0.0181108787400701
v 0.611055415967851 0.1 0.0147962497670616
v 0.625159506048768 -0.1 -0.0821863210881815
v 0.622220460553469 -0.1 -0.0306205599902604
v 0.627130271232567 -0.1 -0.00161126029470278
v 0.621090692606646 -0.1 0.0284612681273795
v 0.623926429689277 -0.1 0.0606873080033777
v 0.642785534815809 -0.1 -0.0609718732529617
v 0.522839614460967 0.0378840615100116 -0.1
v 0.522447909057908 -0.1 0.0365625047128656
v 0.621367760926896 -0.0300168062148477 -0.1
v 0.642785534815809 -0.0609718732529617 -0.1
v 0.646913299904569 -0.0490993981106125 0.1
v 0.626335522747002 -0.00394315733327746 -0.1
v 0.644505715023254 -0.0245373243424398 0.1
v 0.641704242013695 0.00115034635463354 0.1
v 0.604489763259856 -0.1 0.1
v 0.642785534815809 0.0278056253494077 -0.1
v 0.341349405760212 -0.0804859366264808 -0.1
v 0.642748120486115 0.024892513775964 0.1
v 0.277889168064297 -0.0804859366264808 -0.1
v 0.531730118847958 -0.0804859366264808 -0.1
v 0.624990108647382 -0.080016335422715 -0.1
v 0.43512663785307 -0.0803123359403071 -0.1
v 0.642785534815809 0.0573981248835308 -0.1
v 0.403077954608112 -0.0801342128998282 -0.1
v 0.371936034187823 -0.0789306272187168 -0.1
v 0.308499564136368 -0.0816778253015595 -0.1
v 0.561505506460831 -0.0800169758203791 -0.1
v 0.593452837121486 -0.0800964672919471 -0.1
v 0.468269881152042 -0.0804859366264808 -0.1
v 0.657911838355461 -0.0816755293729198 -0.1
v 0.628836424741833 0.1 0.0573981248835308
v 0.640505084745389 0.0675795922338279 0.1
v 0.642785534815809 0.1 -0.0573981248835308
v 0.642785534815809 0.1 -0.0278056253494077
v 0.641273046353275 0.1 -0.00151581539270702
v 0.642785534815809 0.1 0.0313793737188386
v 0.645781284264513 0.1 0.0818215780816982
v 0.656793059687096 -0.1 -0.0821095047576156
v 0.654677953076641 -0.1 -0.0320346954583753
v 0.656734644889785 -0.1 0.00178687418471546
v 0.656279413192208 -0.1 0.0305528155873232
v 0.656734644889785 -0.1 0.0609718732529617
v 0.713220327548712 1.38777878078145e-17 -0.1
v 0.674515653663766 -0.1 -0.0609718732529617
v 0.215146994896181 -0.1 -0.0804859366264808
v 0.775553598387836 0.1 0.1
v 0.654267486420409 -0.0312644275485075 -0.1
v 0.674515653663766 -0.0609718732529617 -0.1
v 0.670966527721238 -0.0604406006993188 0.1
v 0.658252208427106 -0.00248371798014725 -0.1
v 0.675213748455646 -0.00940881371771501 0.1
v 0.675738433541325 -0.0332117590274415 0.1
v 0.674515653663766 0.0147962497670616 0.1
v 0.674515653663766 0.0278056253494077 -0.1
v 0.67345405928079 0.0338879409877942 0.1
v 0.667386301138858 0.0809306911337457 -0.1
v 0.65950385139749 0.1 0.0580060926617907
v 0.674515653663766 0.0609718732529617 0.1
v 0.674515653663766 0.1 -0.0443887493011847
v 0.674515653663766 0.1 -0.0147962497670616
v 0.674515653663766 0.1 0.0147962497670616
v 0.674515653663766 0.1 0.0739812488353078
v 0.690557457136201 -0.1 -0.0820668412722173
v 0.685605394205084 -0.1 -0.0305507076798614
v 0.691954288831073 -0.1 0.00143906413941915
v 0.688464763737742 -0.1 0.0313793737188386
v 0.690395729027695 -0.1 0.0647690307844676
v 0.699802398159447 -0.0823726859477357 -0.1
v 0.700674829360891 -0.1 -0.0596044801699528
v 0.692296662437748 -0.0739812488353078 0.1
v 0.71424196420249 -0.1 0.0803692285251488
v 0.692825556930531 -0.0291704845990582 -0.1
v 0.704899630466468 -0.0599465119140795 -0.1
v 0.70423592547218 -0.0503588992419896 0.1
v 0.68982879464238 0.000960913311220904 -0.1
v 0.704829129413673 -0.0254453463543488 0.1
v 0.704745858754758 -0.00172706304076625 0.1
v 0.706245772511724 0.0278056253494077 -0.1
v 0.706245772511724 0.0313793737188386 0.1
v 0.692296662437748 0.1 -0.0869906244176539
v 0.692296662437748 0.0869906244176539 -0.1
v 0.707226620703805 0.058606122842271 -0.1
v 0.689980145785877 0.1 0.0573727466365253
v 0.703913273030493 0.0673606238900571 0.1
v 0.706245772511724 0.1 -0.0573981248835308
v 0.705193024542658 0.1 -0.0294103212942188
v 0.701309494497198 0.1 -0.000160982018286543
v 0.706245772511724 0.1 0.0313793737188386
v 0.706027149641568 0.1 0.0810034622392034
v 0.717976510591549 -0.1 -0.0324395581252524
v 0.721409146857184 -0.1 0.0295229414132677
v 0.720454810330335 -0.0798354444669765 -0.1
v 0.737975891359681 -0.1 -0.0609718732529617
v 0.737975891359681 -0.1 -0.00178687418471543
v 0.732463542151676 -0.0814636998017532 0.1
v 0.737975891359681 -0.1 0.0573981248835308
v 0.739152806893837 -0.0619959540680504 -0.1
v 0.732927801479118 -0.0562692673036143 0.1
v 0.734739211333496 -0.0310189237343962 -0.1
v 0.734879617560759 -0.033686407790839 0.1
v 0.7369594643454 0.000481978488399398 -0.1
v 0.740036584173263 0.010502888876526 0.1
v 0.737975891359681 0.0313793737188386 0.1
v 0.730252941001434 0.0850411559712613 -0.1
v 0.740994792350565 0.061245012904638 -0.1
v 0.726284542765268 0.1 0.0562210120352113
v 0.737975891359681 0.0609718732529617 0.1
v 0.733416649341359 0.1 -0.0612665227417111
v 0.737093292053597 0.1 -0.0160134992072244
v 0.737975891359681 0.1 0.0147962497670616
v 0.731517701259774 0.1 0.0798500263975806
v 0.751925001433657 -0.1 0.0869906244176539
v 0.769706010207639 -0.1 -0.0609718732529617
v 0.769706010207639 -0.1 -0.0313793737188386
v 0.769706010207639 -0.1 -0.00178687418471543
v 0.769706010207639 -0.1 0.0278056253494077
v 0.767975541288365 -0.1 0.0639633149544242
v 0.8 -0.0652425403902814 0.0361695752931099
v 0.765725495316323 -0.0561235241981105 0.1
v 0.767873739724245 -0.0265211937404236 0.1
v 0.752735416913965 0.0315923713383709 -0.1
v 0.769706010207639 0.00178687418471546 0.1
v 0.769706010207639 0.0313793737188386 0.1
v 0.754533254873891 0.1 -0.0800229384491959
v 0.761269100465579 0.1 -0.0565746384089217
v 0.2 -0.0541037506832936 -0.0634839073661728
v 0.755756900133663 0.1 0.0739812488353078
v 0.77094052274704 0.0630103582545815 0.1
v 0.765244052386082 0.1 -0.0286899194489573
v 0.769065992706605 0.1 -0.000303701226281233
v 0.769706010207639 0.1 0.0313793737188386
v 0.8 -0.0544794004709776 -0.0551206509169899
v 0.8 -0.0585153096697867 0.0147962497670616
v 0.8 -0.0585153096697867 0.0598546884667058
v 0.8 -0.0443887493011847 0.000669689398459584
v 0.8 -0.0291452875435451 -0.0295040272025151
v 0.8 -0.0289228101356635 0.0302621889325827
v 0.8 -0.0261891389268328 0.0612292711562118
v 0.8 0.0022309900741922 -0.0740475445419907
v 0.8 0.003287089965869 -0.0463139574817165
v 0.8 -0.00343689778519388 -0.000781207622680034
v 0.8 0.000669689398459584 0.0302621889325827
v 0.8 0.000669689398459584 0.0598546884667058
v 0.8 0.0303911608589745 -0.0823732055636021
v 0.8 0.0296165482677115 0.00445558084025555
v 0.8 0.0302621889325827 0.0443887493011847
v 0.783655120281615 0.0443887493011847 -0.1
v 0.8 0.0447339906580856 -0.0466130905585846
v 0.8 0.0598546884667058 -0.0289228101356635
v 0.8 0.0598546884667058 0.0443887493011847
v 0.769706010207639 -0.1 0.1
v 0.2 -0.1 -0.0342262525312794
v 0.2 -0.1 0.0249587465369668
v 0.2 -0.1 0.0545512460710899
v 0.2 -0.0619659188234771 0.1
v 0.2 -0.0558906248680091 -0.1
v 0.2 -0.03012132373821 0.1
v 0.2 -0.0147962497670616 -0.1
v 0.2 0.000662994806473582 0.1
v 0.2 0.0147962497670616 -0.1
v 0.2 0.0249587465369668 0.1
v 0.2 0.0443887493011847 -0.1
v 0.2 0.0545512460710899 0.1
v 0.2 0.1 -0.0638187520654026
v 0.2 0.1 -0.0342262525312794
v 0.2 0.1 -0.00463375299715632
v 0.2 0.1 0.0249587465369668
v 0.2 0.1 0.0545512460710899
v 0.239593396508345 -0.1 -0.1
v 0.239593396508345 -0.1 0.1
v 0.265564800961415 -0.1 -0.1
v 0.243425295208351 0.1 -0.1
v 0.243425295208351 0.1 0.1
v 0.276588034742633 -0.1 0.1
v 0.293754227488276 -0.1 -0.1
v 0.275155414056309 0.1 0.1
v 0.284454820772292 0.1 -0.1
v 0.309643312847081 -0.1 0.1
v 0.325484346336234 -0.1 -0.1
v 0.306885532904266 0.1 0.1
v 0.31618493962025 0.1 -0.1
v 0.341316256527473 -0.1 0.1
v 0.357214465184191 -0.1 -0.1
v 0.338615651752224 0.1 0.1
v 0.347915058468207 0.1 -0.1
v 0.372957509874551 -0.1 0.1
v 0.384184949741551 -0.0999658519469038 -0.1
v 0.370345770600181 0.1 0.1
v 0.379645177316165 0.1 -0.1
v 0.404499031424768 -0.1 0.1
v 0.413990451933442 -0.0999682840641096 -0.1
v 0.402075889448139 0.1 0.1
v 0.411375296164122 0.1 -0.1
v 0.42997410959609 -0.1 0.1
v 0.44593887805137 -0.0999472560831956 -0.1
v 0.433806008296096 0.1 0.1
v 0.44310541501208 0.1 -0.1
v 0.461704228444048 -0.1 0.1
v 0.478094765307873 -0.1 -0.1
v 0.215491246594884 0.1 0.00933779033531575
v 0.465536127144054 0.1 0.1
v 0.474835533860037 0.1 -0.1
v 0.496559549199186 -0.1 0.0999339688277455
v 0.51071498202868 -0.1 -0.1
v 0.497266245992011 0.1 -0.1
v 0.497266245992011 0.1 0.1
v 0.530850935170908 -0.1 0.1
v 0.544036750594413 -0.1 -0.1
v 0.528996364839969 0.1 -0.1
v 0.528996364839969 0.1 0.1
v 0.55689458498792 -0.1 0.1
v 0.572680995155536 -0.0999342765092334 -0.1
v 0.579325297119894 -0.1 0.1
v 0.560726483687926 0.1 -0.1
v 0.560726483687926 0.1 0.1
v 0.604618887991355 -0.0997585922536071 -0.1
v 0.595291340775235 0.1 -0.1
v 0.629654229399819 -0.1 0.1
v 0.636530501741536 -0.1 -0.1
v 0.624186721383841 0.1 0.1
v 0.633486128099825 0.1 -0.1
v 0.661384348247777 -0.1 0.1
v 0.674515653663766 -0.1 -0.1
v 0.655916840231799 0.1 0.1
v 0.665216246947783 0.1 -0.1
v 0.692760388155675 -0.1 -0.1
v 0.706245772511724 -0.1 0.1
v 0.687646959079756 0.1 0.1
v 0.687739930785454 0.1 -0.1
v 0.715545179227708 -0.1 -0.1
v 0.737975891359681 -0.1 -0.1
v 0.737975891359681 -0.1 0.1
v 0.719377077927714 0.1 0.1
v 0.716827568399973 0.1 -0.1
v 0.619236745576744 -0.0725736822857362 0.1
v 0.538110086055332 0.1 -0.0731820195648943
v 0.751107196775671 0.1 0.1
v 0.753652451462837 0.1 -0.1
v 0.8 -0.1 -0.0624793732684834
v 0.8 -0.1 -0.0328868737343603
v 0.8 -0.1 0.026298125333886
v 0.8 -0.1 0.0558906248680091
v 0.8 -0.0624793732684834 0.1
v 0.8 -0.0443887493011847 -0.1
v 0.8 -0.0328868737343603 0.1
v 0.8 -0.0147962497670616 -0.1
v 0.8 -0.00329437420023717 0.1
v 0.8 0.0147962497670616 -0.1
v 0.8 0.026298125333886 0.1
v 0.8 0.0558906248680091 -0.1
v 0.8 0.0558906248680091 0.1
v 0.8 0.1 -0.0624793732684834
v 0.8 0.1 -0.0147962497670616
v 0.8 0.1 0.0147962497670616
v 0.8 0.1 0.0443887493011847
v 0.60216491158086 -0.1 0.0591849990682462
v 0.8 0.000669689398459584 -0.0218595299513625
v 0.222121549933168 -0.1 0.0281690601279027
v 0.21481075214497 -0.1 0.0426424331090106
v 0.219803171737945 -0.0157026926004365 -0.1
f 1 22 10
f 1 10 541
f 22 1 430
f 541 76 1
f 76 554 1
f 554 430 1
f 539 2 26
f 2 540 26
f 2 27 540
f 2 555 27
f 2 539 28
f 555 2 28
f 181 3 12
f 12 3 557
f 3 549 23
f 557 3 23
f 29 3 181
f 549 3 29
f 4 32 548
f 4 553 32
f 34 4 548
f 34 558 4
f 35 553 4
f 558 35 4
f 19 5 179
f 624 5 19
f 5 62 179
f 624 62 5
f 627 148 6
f 148 628 6
f 536 6 381
f 381 6 628
f 536 502 6
f 6 502 627
f 623 7 36
f 635 36 7
f 7 623 130
f 7 130 637
f 635 7 155
f 7 637 155
f 8 18 182
f 8 636 18
f 8 182 431
f 636 8 431
f 9 482 25
f 629 9 25
f 62 9 179
f 482 9 62
f 179 9 629
f 10 13 511
f 10 537 13
f 22 537 10
f 541 10 511
f 25 484 11
f 631 25 11
f 11 484 486
f 506 11 486
f 506 633 11
f 631 11 633
f 106 102 12
f 547 12 102
f 106 12 557
f 547 181 12
f 13 37 40
f 537 37 13
f 511 13 40
f 41 59 14
f 41 14 220
f 14 52 47
f 220 14 47
f 14 202 52
f 14 59 202
f 517 15 521
f 517 629 15
f 521 15 525
f 525 15 524
f 15 631 524
f 15 629 631
f 16 520 24
f 16 24 625
f 16 517 521
f 517 16 624
f 521 520 16
f 16 625 624
f 47 17 40
f 17 543 40
f 51 17 47
f 51 545 17
f 545 543 17
f 18 176 535
f 18 636 176
f 182 18 640
f 640 18 535
f 19 179 629
f 624 19 517
f 19 629 517
f 373 20 396
f 373 620 20
f 396 20 434
f 20 607 434
f 20 603 607
f 620 603 20
f 349 21 350
f 21 349 641
f 21 400 350
f 603 21 390
f 21 641 390
f 21 603 400
f 74 22 430
f 74 537 22
f 108 92 23
f 92 557 23
f 108 23 550
f 23 549 550
f 625 24 109
f 109 24 626
f 24 520 518
f 24 518 626
f 482 484 25
f 631 629 25
f 38 26 44
f 539 26 38
f 540 44 26
f 46 27 93
f 540 27 46
f 27 118 93
f 118 27 555
f 28 75 236
f 75 28 539
f 28 236 555
f 223 29 51
f 547 51 29
f 66 67 29
f 66 29 223
f 29 67 549
f 29 181 547
f 30 31 126
f 30 173 31
f 106 30 128
f 153 30 106
f 128 30 126
f 153 175 30
f 175 173 30
f 31 146 126
f 173 146 31
f 60 64 32
f 60 32 553
f 32 64 63
f 63 548 32
f 33 121 117
f 142 33 117
f 121 33 145
f 33 142 166
f 145 33 166
f 65 34 548
f 558 34 65
f 73 35 82
f 553 35 73
f 558 82 35
f 489 36 490
f 36 489 623
f 36 506 490
f 36 532 506
f 532 36 635
f 124 40 37
f 87 41 37
f 41 124 37
f 87 37 120
f 537 120 37
f 38 45 42
f 42 89 38
f 44 45 38
f 379 38 89
f 379 539 38
f 214 39 380
f 600 39 214
f 39 358 382
f 600 358 39
f 39 605 380
f 605 39 382
f 47 40 124
f 541 511 40
f 543 541 40
f 59 41 42
f 42 41 89
f 87 89 41
f 41 220 124
f 45 48 42
f 48 59 42
f 364 380 43
f 385 364 43
f 43 380 416
f 385 43 421
f 421 43 416
f 45 44 542
f 44 540 542
f 45 50 48
f 49 50 45
f 49 45 542
f 78 46 77
f 77 46 93
f 46 78 542
f 542 540 46
f 57 51 47
f 52 57 47
f 220 47 124
f 50 55 48
f 55 53 48
f 48 53 202
f 59 48 202
f 544 50 49
f 544 49 542
f 54 55 50
f 50 544 54
f 57 223 51
f 547 545 51
f 53 61 52
f 202 53 52
f 52 68 57
f 61 68 52
f 55 64 53
f 53 60 61
f 64 60 53
f 55 54 56
f 546 56 54
f 54 544 546
f 64 55 56
f 63 64 56
f 56 546 63
f 68 66 57
f 66 223 57
f 525 533 58
f 525 58 642
f 530 526 58
f 642 58 526
f 534 530 58
f 533 534 58
f 61 60 72
f 60 553 72
f 68 61 71
f 61 70 71
f 70 61 72
f 482 62 616
f 498 616 62
f 498 62 624
f 63 546 548
f 79 104 65
f 546 79 65
f 558 65 104
f 548 546 65
f 66 550 67
f 68 69 66
f 66 69 550
f 67 550 549
f 69 68 71
f 71 551 69
f 550 69 551
f 71 70 551
f 72 552 70
f 551 70 552
f 552 72 553
f 81 73 82
f 81 552 73
f 552 553 73
f 83 91 74
f 430 83 74
f 91 84 74
f 84 537 74
f 86 236 75
f 75 643 86
f 539 644 75
f 75 644 643
f 95 90 76
f 554 76 90
f 94 95 76
f 76 209 94
f 76 541 209
f 78 77 100
f 77 93 96
f 100 77 96
f 79 78 101
f 78 79 544
f 99 78 100
f 101 78 99
f 78 544 542
f 79 101 104
f 79 546 544
f 107 108 80
f 585 107 80
f 550 80 108
f 550 551 80
f 80 551 585
f 110 81 82
f 107 81 110
f 81 107 585
f 552 81 585
f 110 82 111
f 82 558 111
f 113 91 83
f 556 113 83
f 554 83 430
f 554 556 83
f 114 85 84
f 85 537 84
f 114 84 91
f 85 86 105
f 86 85 115
f 120 85 105
f 114 115 85
f 120 537 85
f 105 86 643
f 115 116 86
f 117 86 116
f 86 117 236
f 379 89 87
f 538 87 120
f 538 379 87
f 535 176 88
f 176 636 88
f 88 528 531
f 634 528 88
f 535 88 531
f 634 88 636
f 95 404 90
f 404 560 90
f 554 90 556
f 90 560 556
f 113 119 91
f 119 114 91
f 92 108 134
f 562 92 134
f 92 562 557
f 93 118 96
f 95 94 98
f 97 98 94
f 94 209 97
f 98 123 95
f 123 404 95
f 96 127 100
f 125 96 118
f 127 96 125
f 126 98 97
f 122 126 97
f 122 97 208
f 208 97 645
f 209 645 97
f 123 98 146
f 146 98 126
f 99 100 127
f 101 99 129
f 129 99 127
f 104 101 129
f 106 128 102
f 128 122 102
f 102 122 212
f 547 102 212
f 428 103 460
f 486 103 428
f 460 103 457
f 103 484 457
f 486 484 103
f 131 104 129
f 133 104 131
f 561 104 133
f 104 561 558
f 538 120 105
f 105 643 538
f 562 153 106
f 557 562 106
f 108 107 135
f 110 136 107
f 135 107 136
f 135 134 108
f 625 109 500
f 109 626 500
f 110 111 137
f 136 110 137
f 112 138 111
f 112 111 558
f 137 111 156
f 111 138 156
f 112 561 138
f 558 561 112
f 113 139 119
f 560 139 113
f 560 113 556
f 115 114 140
f 140 114 119
f 116 115 141
f 140 141 115
f 117 116 142
f 141 142 116
f 117 121 236
f 118 143 125
f 559 143 118
f 559 118 555
f 139 144 119
f 144 140 119
f 563 121 145
f 236 121 559
f 559 121 563
f 128 126 122
f 122 208 212
f 146 147 123
f 147 411 123
f 123 560 404
f 123 411 560
f 127 125 149
f 125 143 149
f 129 127 151
f 127 149 151
f 131 129 152
f 129 151 152
f 130 509 510
f 623 509 130
f 130 510 637
f 133 131 154
f 131 152 154
f 155 132 533
f 155 637 132
f 533 132 534
f 132 638 534
f 637 638 132
f 565 133 154
f 133 565 561
f 135 157 134
f 566 134 157
f 562 134 566
f 136 158 135
f 157 135 158
f 137 159 136
f 158 136 159
f 160 137 156
f 159 137 160
f 138 161 156
f 161 138 565
f 565 138 561
f 139 162 144
f 564 162 139
f 564 139 560
f 141 140 163
f 140 144 163
f 142 141 164
f 163 164 141
f 164 165 142
f 166 142 165
f 143 167 149
f 143 563 167
f 559 563 143
f 162 168 144
f 168 163 144
f 145 166 169
f 567 145 169
f 563 145 567
f 147 146 170
f 173 170 146
f 170 171 147
f 171 402 147
f 147 402 564
f 147 564 411
f 148 627 519
f 628 148 519
f 174 151 149
f 172 149 167
f 174 149 172
f 530 150 531
f 150 530 534
f 150 535 531
f 150 534 638
f 535 150 639
f 639 150 638
f 178 152 151
f 178 151 174
f 177 154 152
f 177 152 178
f 180 175 153
f 566 180 153
f 562 566 153
f 184 154 177
f 569 154 184
f 565 154 569
f 155 222 529
f 533 222 155
f 635 155 529
f 156 183 160
f 156 161 183
f 157 158 186
f 157 186 185
f 570 157 185
f 566 157 570
f 158 159 187
f 158 187 186
f 188 159 160
f 188 187 159
f 183 188 160
f 161 189 183
f 189 161 569
f 161 565 569
f 190 168 162
f 568 190 162
f 564 568 162
f 164 163 191
f 163 168 191
f 165 164 192
f 191 192 164
f 166 165 193
f 192 193 165
f 169 166 194
f 193 194 166
f 172 167 195
f 167 567 195
f 563 567 167
f 190 196 168
f 196 191 168
f 169 194 197
f 571 169 197
f 567 169 571
f 171 170 198
f 198 170 173
f 198 199 171
f 199 410 171
f 171 568 402
f 171 410 568
f 174 172 200
f 172 195 200
f 175 201 173
f 201 198 173
f 178 174 203
f 174 200 203
f 180 204 175
f 204 201 175
f 177 178 205
f 184 177 207
f 207 177 205
f 205 178 203
f 206 204 180
f 570 206 180
f 566 570 180
f 182 211 431
f 640 211 182
f 188 183 210
f 183 189 210
f 213 184 207
f 573 184 213
f 569 184 573
f 186 215 185
f 574 185 215
f 185 574 570
f 187 216 186
f 215 186 216
f 187 188 217
f 216 187 217
f 188 210 218
f 218 217 188
f 189 219 210
f 219 189 573
f 189 569 573
f 190 221 196
f 572 221 190
f 568 572 190
f 192 191 224
f 224 191 196
f 193 192 225
f 224 225 192
f 194 193 226
f 225 226 193
f 227 197 194
f 226 227 194
f 200 195 228
f 195 571 228
f 567 571 195
f 221 229 196
f 229 224 196
f 197 227 230
f 575 197 230
f 571 197 575
f 199 198 231
f 201 231 198
f 231 232 199
f 232 409 199
f 199 409 572
f 199 572 410
f 200 237 203
f 233 200 228
f 237 200 233
f 204 234 201
f 234 231 201
f 203 242 205
f 242 203 237
f 206 239 204
f 239 234 204
f 207 205 241
f 241 205 242
f 243 239 206
f 574 243 206
f 570 574 206
f 213 207 244
f 244 207 241
f 212 208 545
f 545 208 543
f 208 645 543
f 541 543 209
f 209 543 645
f 210 245 218
f 210 219 245
f 211 512 431
f 512 211 516
f 640 516 211
f 547 212 545
f 246 213 244
f 577 213 246
f 573 213 577
f 337 214 342
f 337 595 214
f 342 214 364
f 380 364 214
f 595 600 214
f 215 216 248
f 215 248 247
f 578 215 247
f 215 578 574
f 250 216 217
f 250 248 216
f 218 249 217
f 217 249 250
f 245 249 218
f 219 251 245
f 251 219 577
f 219 573 577
f 221 252 229
f 576 252 221
f 572 576 221
f 524 222 525
f 222 524 529
f 222 533 525
f 225 224 253
f 253 224 229
f 226 225 254
f 253 254 225
f 227 226 255
f 254 255 226
f 235 230 227
f 255 235 227
f 228 579 233
f 571 575 228
f 228 575 579
f 252 256 229
f 256 253 229
f 230 235 579
f 579 575 230
f 232 231 257
f 234 257 231
f 257 258 232
f 258 407 232
f 232 407 576
f 232 576 409
f 237 233 259
f 259 233 260
f 583 260 233
f 579 583 233
f 239 261 234
f 261 257 234
f 235 255 277
f 277 278 235
f 235 278 579
f 236 559 555
f 264 242 237
f 237 259 262
f 264 237 262
f 467 238 463
f 238 506 463
f 490 238 467
f 490 506 238
f 243 263 239
f 263 261 239
f 349 347 240
f 240 347 389
f 240 641 349
f 389 390 240
f 240 390 641
f 241 242 264
f 266 244 241
f 266 241 264
f 265 263 243
f 578 265 243
f 574 578 243
f 244 268 246
f 268 244 266
f 249 245 267
f 245 251 267
f 581 246 268
f 577 246 581
f 269 247 248
f 582 247 269
f 578 247 582
f 250 271 248
f 269 248 270
f 248 271 270
f 250 249 271
f 249 267 272
f 249 272 271
f 251 273 267
f 273 251 581
f 251 577 581
f 252 274 256
f 580 274 252
f 576 580 252
f 275 254 253
f 275 253 256
f 255 254 276
f 275 276 254
f 276 277 255
f 274 279 256
f 279 275 256
f 258 257 280
f 261 280 257
f 280 281 258
f 281 414 258
f 258 580 407
f 258 414 580
f 259 260 282
f 259 285 262
f 285 259 282
f 588 282 260
f 583 588 260
f 263 283 261
f 283 280 261
f 264 262 284
f 284 262 285
f 265 287 263
f 287 283 263
f 266 264 286
f 286 264 284
f 290 287 265
f 582 290 265
f 578 582 265
f 268 266 288
f 288 266 286
f 267 296 272
f 267 273 296
f 291 268 288
f 586 268 291
f 581 268 586
f 294 269 270
f 289 269 292
f 582 269 289
f 294 292 269
f 271 293 270
f 270 293 294
f 272 295 271
f 271 295 293
f 272 296 295
f 273 297 296
f 297 273 586
f 273 581 586
f 274 298 279
f 584 298 274
f 580 584 274
f 299 276 275
f 299 275 279
f 277 276 301
f 299 300 276
f 301 276 300
f 277 302 278
f 302 277 301
f 302 588 278
f 278 583 579
f 588 583 278
f 298 303 279
f 303 299 279
f 281 280 307
f 283 307 280
f 307 308 281
f 308 589 281
f 281 584 414
f 281 589 584
f 285 282 309
f 282 304 309
f 282 588 304
f 287 312 283
f 310 307 283
f 312 310 283
f 284 285 311
f 286 284 313
f 313 284 311
f 311 285 309
f 288 286 314
f 314 286 313
f 290 312 287
f 291 288 317
f 317 288 314
f 292 590 289
f 587 582 289
f 590 587 289
f 315 312 290
f 315 290 336
f 590 336 290
f 582 587 290
f 587 590 290
f 591 291 317
f 586 291 591
f 292 294 318
f 590 292 318
f 294 293 319
f 293 295 320
f 320 319 293
f 319 318 294
f 295 296 321
f 321 320 295
f 296 297 316
f 296 316 321
f 316 297 591
f 297 586 591
f 298 322 303
f 589 322 298
f 584 589 298
f 300 299 323
f 323 299 303
f 301 300 324
f 323 324 300
f 301 305 302
f 305 301 393
f 324 393 301
f 306 302 305
f 588 302 306
f 322 325 303
f 325 323 303
f 309 304 592
f 588 592 304
f 328 306 305
f 326 328 305
f 305 393 326
f 306 328 592
f 592 588 306
f 308 307 329
f 310 329 307
f 329 330 308
f 330 405 308
f 308 405 589
f 311 309 331
f 331 309 592
f 312 332 310
f 332 329 310
f 313 311 333
f 311 331 333
f 315 392 312
f 392 332 312
f 314 313 334
f 334 313 333
f 317 314 334
f 336 335 315
f 315 335 392
f 321 316 337
f 595 337 316
f 316 591 595
f 338 317 334
f 595 317 338
f 591 317 595
f 319 339 318
f 621 318 339
f 318 594 590
f 594 318 621
f 320 340 319
f 339 319 340
f 321 341 320
f 340 320 341
f 321 337 342
f 341 321 342
f 322 343 325
f 593 343 322
f 589 593 322
f 324 323 344
f 344 323 325
f 345 327 324
f 324 327 393
f 344 345 324
f 343 346 325
f 346 344 325
f 347 326 327
f 326 393 327
f 326 349 328
f 347 349 326
f 345 347 327
f 328 349 350
f 596 328 350
f 328 596 592
f 330 329 351
f 332 351 329
f 351 352 330
f 352 412 330
f 330 593 405
f 330 412 593
f 355 333 331
f 331 348 353
f 331 596 348
f 355 331 353
f 596 331 592
f 335 354 332
f 335 332 392
f 354 351 332
f 356 334 333
f 356 333 355
f 338 334 358
f 356 359 334
f 358 334 359
f 336 599 335
f 357 354 335
f 357 335 361
f 335 599 361
f 336 590 594
f 336 594 599
f 600 338 358
f 595 338 600
f 339 340 362
f 339 362 360
f 339 360 621
f 340 341 363
f 340 363 362
f 365 341 342
f 365 363 341
f 342 364 365
f 343 366 346
f 597 366 343
f 593 597 343
f 345 344 367
f 367 344 346
f 368 347 345
f 367 368 345
f 366 369 346
f 369 367 346
f 368 389 347
f 353 348 370
f 348 598 370
f 348 596 598
f 400 598 350
f 598 596 350
f 352 351 371
f 354 371 351
f 371 372 352
f 372 413 352
f 352 597 412
f 352 413 597
f 355 353 373
f 353 370 373
f 374 354 357
f 374 371 354
f 356 355 375
f 355 373 375
f 376 359 356
f 376 356 375
f 357 361 377
f 357 378 374
f 377 378 357
f 358 359 376
f 382 358 376
f 362 383 360
f 602 360 383
f 602 599 360
f 360 599 621
f 361 602 377
f 599 602 361
f 363 384 362
f 383 362 384
f 365 385 363
f 384 363 385
f 365 364 385
f 366 386 369
f 601 386 366
f 597 601 366
f 368 367 387
f 387 367 369
f 387 388 368
f 388 389 368
f 386 391 369
f 391 387 369
f 373 370 620
f 598 400 370
f 400 603 370
f 620 370 603
f 372 371 394
f 374 394 371
f 394 395 372
f 395 406 372
f 372 406 601
f 372 601 413
f 398 375 373
f 398 373 396
f 378 397 374
f 397 394 374
f 399 376 375
f 399 375 398
f 382 376 417
f 403 376 399
f 417 376 403
f 377 401 378
f 401 377 408
f 606 408 377
f 377 602 606
f 378 401 397
f 538 539 379
f 380 605 416
f 536 381 504
f 504 381 628
f 605 382 417
f 383 384 419
f 383 419 418
f 606 383 418
f 383 606 602
f 384 385 420
f 384 420 419
f 421 420 385
f 386 423 391
f 604 423 386
f 601 604 386
f 388 387 424
f 424 387 391
f 389 388 425
f 424 425 388
f 426 390 389
f 425 426 389
f 426 427 390
f 427 603 390
f 423 429 391
f 429 424 391
f 395 394 432
f 397 432 394
f 395 604 406
f 433 415 395
f 395 415 604
f 432 433 395
f 396 437 398
f 437 396 434
f 401 435 397
f 435 432 397
f 399 398 436
f 436 398 437
f 403 399 438
f 438 399 436
f 401 408 439
f 435 401 439
f 402 568 564
f 417 403 440
f 440 403 438
f 405 593 589
f 406 604 601
f 407 580 576
f 408 441 439
f 408 606 441
f 409 576 572
f 410 572 568
f 411 564 560
f 412 597 593
f 413 601 597
f 414 584 580
f 433 608 415
f 415 608 604
f 421 416 442
f 416 422 442
f 605 422 416
f 440 443 417
f 609 417 443
f 417 609 605
f 419 444 418
f 610 418 444
f 418 610 606
f 420 445 419
f 444 419 445
f 421 446 420
f 445 420 446
f 421 442 446
f 422 447 442
f 447 422 609
f 609 422 605
f 423 448 429
f 608 448 423
f 604 608 423
f 425 424 449
f 449 424 429
f 426 425 450
f 449 450 425
f 427 426 451
f 450 451 426
f 451 452 427
f 427 452 607
f 603 427 607
f 463 428 460
f 463 486 428
f 448 454 429
f 454 449 429
f 431 512 622
f 431 622 513
f 513 636 431
f 433 432 457
f 435 457 432
f 458 453 433
f 433 453 608
f 457 458 433
f 437 434 459
f 434 455 459
f 434 607 455
f 460 435 439
f 460 457 435
f 436 437 461
f 462 438 436
f 462 436 461
f 437 459 461
f 438 464 440
f 464 438 462
f 439 441 466
f 439 463 460
f 463 439 467
f 466 467 439
f 469 443 440
f 469 440 464
f 466 441 614
f 606 610 441
f 441 610 614
f 442 468 446
f 442 447 468
f 613 443 469
f 609 443 613
f 444 445 471
f 465 444 470
f 444 465 610
f 444 471 470
f 445 446 472
f 445 472 471
f 468 473 446
f 473 472 446
f 447 474 468
f 474 447 613
f 447 609 613
f 448 615 454
f 608 611 448
f 611 615 448
f 450 449 475
f 475 449 454
f 450 476 451
f 475 479 450
f 479 476 450
f 452 451 476
f 452 481 456
f 452 456 607
f 476 481 452
f 458 477 453
f 615 453 477
f 611 608 453
f 615 611 453
f 478 475 454
f 615 478 454
f 459 455 480
f 455 612 480
f 607 612 455
f 497 456 481
f 456 497 617
f 607 456 612
f 617 612 456
f 458 457 482
f 484 482 457
f 482 477 458
f 459 485 461
f 483 459 480
f 485 459 483
f 462 461 487
f 487 461 485
f 464 462 487
f 506 486 463
f 469 464 488
f 488 464 487
f 470 619 465
f 614 610 465
f 619 614 465
f 467 466 489
f 489 466 619
f 466 614 619
f 489 490 467
f 473 468 491
f 468 474 491
f 492 469 488
f 618 469 492
f 613 469 618
f 471 493 470
f 619 470 493
f 472 494 471
f 493 471 494
f 473 495 472
f 494 472 495
f 473 491 495
f 474 496 491
f 496 474 618
f 474 613 618
f 499 475 478
f 479 475 499
f 476 479 501
f 481 476 501
f 482 616 477
f 477 616 615
f 498 499 478
f 616 498 478
f 615 616 478
f 499 500 479
f 500 501 479
f 483 480 504
f 480 536 504
f 617 536 480
f 612 617 480
f 502 497 481
f 501 502 481
f 485 483 504
f 487 485 505
f 505 485 504
f 487 508 488
f 507 487 505
f 508 487 507
f 492 488 508
f 623 489 619
f 491 516 495
f 491 496 512
f 516 491 512
f 513 492 508
f 622 492 513
f 618 492 622
f 493 494 514
f 509 493 510
f 493 509 619
f 493 514 510
f 494 495 515
f 494 515 514
f 516 515 495
f 512 496 622
f 496 618 622
f 502 536 497
f 536 617 497
f 624 499 498
f 625 500 499
f 499 624 625
f 500 626 501
f 501 627 502
f 501 626 627
f 518 522 503
f 626 518 503
f 519 503 522
f 627 503 519
f 626 503 627
f 628 505 504
f 507 505 632
f 505 628 630
f 632 505 630
f 532 633 506
f 508 507 634
f 507 632 634
f 513 508 636
f 508 634 636
f 623 619 509
f 514 637 510
f 515 638 514
f 637 514 638
f 516 639 515
f 639 638 515
f 516 640 639
f 520 522 518
f 523 519 522
f 630 519 523
f 628 519 630
f 520 521 526
f 522 520 526
f 521 525 642
f 521 642 526
f 523 522 527
f 527 522 526
f 528 523 527
f 632 523 528
f 632 630 523
f 524 633 529
f 524 631 633
f 527 526 530
f 527 531 528
f 527 530 531
f 632 528 634
f 633 635 529
f 635 633 532
f 639 640 535
f 539 538 644
f 644 538 643
f 551 552 585
f 621 599 594
