v 0 -0.2 -0.2
v 0 -0.2 0.2
v 0 0.2 -0.2
v 0 0.2 0.2
v 0.2 -0.1 -0.1
v 0.2 -0.1 0.1
v 0.2 0.1 -0.1
v 0.2 0.1 0.1
v 0.8 -0.1 -0.1
v 0.8 -0.1 0.1
v 0.8 0.1 -0.1
v 0.8 0.1 0.1
v 1.2 -0.1 -0.1
v 1.2 -0.1 0.1
v 1.2 0.1 -0.1
v 1.2 0.1 0.1
v 1.8 -0.1 -0.1
v 1.8 -0.1 0.1
v 1.8 0.1 -0.1
v 1.8 0.1 0.1
v 2 -0.2 -0.2
v 2 -0.2 0.2
v 2 0.2 -0.2
v 2 0.2 0.2
v 1.82746 0.2 -0.2
v 1.64524 -0.2 -0.0411937
v 1.26374 -0.2 0.0715819
v 0.771462 0.146304 0.04618
v 1.13791 0.055234 0.0529262
v 1.14167 0.0510959 -0.0450144
v 0.918153 0.2 0.00331545
v 0.721058 0.2 -0.0526514
v 0.088691 -0.0965007 -0.101232
v 0.100541 -0.0967689 -0.00489055
v 0.0869559 -0.0960171 0.108951
v 0.117548 -0.0130919 -0.102303
v 0.0886666 0.0851294 -0.103108
v 0.0850245 0.0997774 0.099335
v 1.70866 0.0166399 -0.00300485
v 0.752638 -0.0687878 -0.2
v 0.632042 0.2 -0.0402439
v 0.38589 0.000693696 -0.00857934
v 0.649108 0.1 -0.1
v 1.35089 -0.1 -0.1
v 0.481376 -0.00732198 0.0155291
v 1.47671 -0.145078 0.144931
v 0.695431 0.0267432 0.00267996
v 0.710467 -0.0498933 0.00868618
v 0.654557 -0.1 0.0165793
v 0.744467 0.2 0.0209738
v 1.34719 -0.0986829 0.150098
v 0.0713067 -0.00970904 -0.2
v 1.53804 -0.0466933 -0.148712
v 1.48975 -0.2 -0.0349922
v 1.3274 0.0480039 0.2
v 1.3633 -0.2 0.0457281
v 1.01744 -0.00233933 -0.00491161
v 0.0984808 -0.2 -0.0214783
v 0.163834 0.0753269 0.2
v 0.8 0.0175501 -0.0137339
v 1.8 0 0
v 1.2 0.00424 -0.00431533
v 0.888162 -0.10744 0.111582
v 0.701925 -0.12249 -0.2
v 0.889018 -0.0107467 -0.11256
v 0.907552 0.0908228 -0.107481
v 0.910817 0.103693 0.0159148
v 0.912913 0.110773 0.121951
v 0.66295 -0.1 -0.1
v 0.999834 -0.0933178 -0.0949435
v 0.993844 -0.084966 0.0756969
v 1.02209 0.091689 0.0911255
v 0.371097 -0.1 0.0333333
v 1.3851 0.2 -0.061712
v 0.657253 -0.00525254 0.2
v 1.09533 -0.1152 -0.110129
v 1.08936 -0.10843 0.00903002
v 1.09877 -0.114226 0.11766
v 1.08623 0.0856377 -0.101442
v 1.45106 -0.2 0.0627746
v 1.14746 -0.0825986 0.2
v 0.695006 0.1 0.0237907
v 1.30753 -0.1 0.018997
v 1.70892 0.2 -0.0752797
v 1.84133 -0.0349033 -0.2
v 0.667678 -0.00530383 -0.2
v 0.509491 -0.150736 0.0532653
v 1.86819 0.2 0.2
v 0 -0.0345334 0.073773
v 1.66763 -0.2 -0.139738
v 0.0559699 0.143231 -0.147623
v 0.917409 0.0766881 0.2
v 0.748047 -0.151451 -0.080483
v 0.172467 0.2 0.0254809
v 1.73752 -0.2 -0.0824904
v 0.572071 0.2 -0.0910526
v 0.625196 0.0886314 -0.2
v 1.6866 0.014658 0.1
v 1.67551 0.1 -0.019361
v 1.23172 0.0639636 0.2
v 1.23916 0.2 0.0652272
v 1.74429 0.0745191 0.2
v 0.109606 0.14376 0.2
v 1.20442 -0.2 0.122685
v 1.75463 0.124673 -0.2
v 1.10511 -0.130974 -0.2
v 1.38294 -0.0149941 -0.0082344
v 1.10982 0.130131 0.115345
v 1.75463 0.2 -0.125981
v 0.939144 0.0215188 -0.0377975
v 0.94425 -0.000974661 0.0698575
v 1.77981 -0.2 -0.00758458
v 1.50366 -0.00209522 0.00901372
v 1.6165 -0.0140027 0.0124163
v 1.29702 0.0293853 0.0305822
v 1.27397 0.0276128 -0.0444996
v 1.26918 -0.0420859 -0.0252209
v 0.860143 0.0306147 -0.00523112
v 0.853079 -0.0504932 -0.0282931
v 0.690722 0.0413732 0.1
v 0.694492 0.1 -0.0442776
v 0.298467 0.0304383 0.0298309
v 0.29248 0.0413753 -0.0419492
v 0.282996 -0.0425124 0.038743
v 0.313531 -0.0359826 -0.0323408
v 1.41343 0.0212514 0.2
v 1.30071 -0.0333333 -0.1
v 1.15373 0.2 0.125366
v 0.280786 -0.1 -0.0160291
v 0.28477 -0.0243531 -0.1
v 1.33356 0.0697375 -0.2
v 1.92065 -0.112793 -0.109299
v 1.89315 -0.11783 0.00134169
v 1.91383 -0.0914106 0.112752
v 0.472974 -0.0518765 -0.055306
v 1.91351 0.00303349 -0.119833
v 1.91121 0.00436179 -0.00403517
v 1.93065 0.0127133 0.103643
v 1.30174 -0.0269559 -0.2
v 1.92445 0.101529 -0.108182
v 1.90024 0.112663 0.0154625
v 1.7543 -0.0629619 -0.0402598
v 1.69477 -0.0454491 -0.0217858
v 1.35395 -0.145846 -0.169636
v 0.994797 0.10133 -0.113015
v 1.3553 -0.06007 0.2
v 0.995227 -0.2 0.0232714
v 1.68669 0.112799 -0.2
v 0.0854569 -0.2 0.2
v 0.732647 -0.1 -0.0368344
v 1.74596 0.0570857 0.0480123
v 0 0.2 0.0161204
v 0.115439 0.2 0.2
v 0.105898 -0.0871063 -0.2
v 1.91426 -0.116609 0.2
v 0.948003 -0.140311 0.13947
v 0.0767868 0.0991384 -0.2
v 0 -0.117267 0.0875404
v 0.0556997 0.0213173 -0.144135
v 1.80837 -0.153003 0.0143115
v 0.0967902 -0.101308 0.2
v 0 -0.0179205 -0.2
v 0 0.0351191 0.124839
v 0.221982 0.120255 -0.2
v 0.0888691 0.2 -0.109887
v 1.29927 -0.0897732 -0.148364
v 0.0795727 -0.152012 -0.0666558
v 0.0859014 0.2 0.12462
v 0.930401 -0.0732999 -0.00335708
v 0.2 0.00913011 0.00939056
v 0.259203 -0.2 -0.044754
v 0.259097 -0.2 0.0472448
v 0.198601 -0.0509619 -0.2
v 0.25663 0.033066 -0.2
v 0.198601 -0.2 -0.100641
v 1.10541 -0.0266323 -0.0859881
v 0.213341 -0.118851 -0.2
v 2 -0.2 0.117921
v 0.0908208 0.0365842 -0.0133768
v 0.0857601 -0.00532985 0.0681911
v 0.114346 0.116559 -0.0106654
v 0.14529 -0.000664585 0.114157
v 0.30042 -0.0486536 -0.2
v 1.50681 -0.2 0.131222
v 0.412463 -0.0184656 -0.1
v 1.06459 -0.00165807 0.102025
v 0.146065 -0.2 0.0520252
v 0.204492 -0.120107 0.2
v 0.213104 -0.2 0.137488
v 0.0947268 -0.2 0.140407
v 0.323666 -0.2 0.115584
v 0.290929 -0.0505044 0.2
v 0.396543 -0.0111712 0.1
v 0.145921 0.039242 -0.2
v 0.173879 0.2 -0.101191
v 0.139513 0.132254 -0.2
v 0.532856 -0.022251 -0.0465133
v 0.579579 0.0473495 0.0395071
v 0.251268 0.2 -0.13584
v 1.57037 -0.2 -0.0634411
v 0.294888 0.118607 -0.2
v 0.0809837 0.2 -0.2
v 0.3925 0.1 -0.0217411
v 0.706589 0.150876 0.0889225
v 0.716859 0.035207 -0.1
v 0.714123 -0.0371478 -0.1
v 1.30071 0.1 -0.05
v 1.29715 -0.0287021 0.1
v 1.00343 0.120147 -0.0229647
v 0 0.0327333 -0.126227
v 1.29222 0.130756 0.2
v 0.298903 0.0533401 0.2
v 0.297027 0.2 0.0509619
v 0.750437 -0.2 0.0509619
v 0.795508 -0.2 -0.0443347
v 0.82927 -0.2 0.0632236
v 1.65404 -0.152074 0.0986945
v 0.598607 -0.00370952 -0.1
v 0.300757 0.2 -0.12484
v 0.472927 -0.0404146 0.1
v 0.855273 -0.0587043 -0.2
v 0.820395 -0.0614673 0.2
v 0.809468 0.0512808 0.2
v 0.695855 -0.100986 0.2
v 0.750437 -0.2 0.100641
v 0.870839 -0.0127756 0.0888422
v 0.867596 -0.125012 0.00592972
v 0.79965 -0.150321 0.2
v 0.839723 -0.2 0.138683
v 0.199657 0.0078635 0.2
v 0.552777 -0.00584758 0.1
v 0.602772 -0.0194663 0.0182518
v 1.68869 0.1 -0.1
v 1.68869 0.1 0.1
v 0.750437 0.100641 -0.2
v 0.311313 -0.1 0.1
v 0.311313 -0.1 -0.1
v 0.0900027 -0.2 -0.129618
v 1.70107 -0.1 0.05
v 1.71503 -0.1 -0.0292035
v 1.68707 -0.0156805 -0.1
v 0.79965 0.2 -0.150321
v 0.315454 0.0256175 0.1
v 0.29893 0.1 0.05
v 2 0.125081 -0.124427
v 0.843207 0.2 -0.0524265
v 0.0448511 -0.000385984 0.144336
v 0.71587 0.101763 0.2
v 1.34273 0.2 0.2
v 0.339782 0.2 0.2
v 1.81445 -0.137169 0.145895
v 0.505086 -0.0899197 0.2
v 1.30893 0.2 0.132892
v 1.81657 0.0395328 0.2
v 0.786612 0.2 0.09653
v 1.39087 0.118234 0.2
v 0.538003 0.0044802 -0.2
v 1.19951 -0.2 -0.0438877
v 0.61994 0.150669 -0.120835
v 1.54435 -0.2 0.0355487
v 1.28684 0.0471238 -0.1
v 1.20548 -0.0567958 -0.2
v 1.21683 0.0441696 -0.2
v 0.935579 -0.129459 -0.2
v 1.14711 -0.2 -0.12563
v 1.91264 0.125482 -0.2
v 1.42085 -0.145843 -0.140546
v 1.28397 -0.2 -0.124007
v 0.722395 -0.2 -0.124051
v 1.2532 -0.140275 -0.2
v 0.306022 0.0500194 -0.1
v 0.975559 0.0493462 0.2
v 1.24956 -0.0509619 0.2
v 1.14674 -0.2 0.0586554
v 1.92716 0.2 -0.125981
v 1.87341 0.137511 -0.141018
v 0.240285 -0.199404 0.2
v 1.13731 -0.0206199 0.135638
v 0.27242 0.2 -0.0496794
v 1.1507 0.0220065 -0.141702
v 0.519486 -0.144543 0.139823
v 1.40143 -1.38778e-17 0.1
v 0.854529 0.120781 -0.2
v 1.25142 0.2 -0.0525781
v 0.752249 -0.0295755 -0.0306717
v 1.16711 0.2 -0.0522287
v 0.892827 0.2 0.0871821
v 1.14924 0.150654 -0.2
v 1.22699 0.2 -0.138814
v 1.13535 0.2 -0.133557
v 1.25815 0.127245 -0.2
v 1.27403 -0.125481 0.2
v 1.91081 -0.2 -0.138531
v 0.748393 -0.143686 -0.149685
v 1.39452 0.1 -0.00108603
v 1.3805 0.0181111 -0.1
v 0.550646 0.2 -0.2
v 1.38711 -0.15 0.2
v 0.668906 -0.2 -0.0451244
v 0.993687 -0.00154948 0.113538
v 1.00155 -0.129881 0.00551595
v 1.93403 -0.0602653 -0.0429441
v 1.85433 -0.2 -1.38778e-17
v 1.73774 -0.0506455 -0.2
v 1.57634 -0.1 -0.0150492
v 1.76282 -0.136965 -0.2
v 1.8014 -0.2 -0.150321
v 1.85207 -0.109413 -0.2
v 1.28917 -0.2 -0.0438877
v 0.517627 -0.2 0.107824
v 1.7564 -0.0312177 0.2
v 0.699287 0.1 0.1
v 0.699287 -0.1 0.1
v 1.30071 0.1 0.1
v 1.30071 0.1 -0.1
v 1.3007 -0.1 0.1
v 1.70262 -0.2 0.0428368
v 1.69525 -0.2 0.126299
v 0.699112 0.2 0.100321
v 1.7609 -0.110546 0.2
v 1.79014 -0.2 0.0926639
v 1.85433 -0.0519615 0.2
v 1.75219 0.2 0.0509619
v 1.71447 0.0403896 -0.2
v 1.85042 0.0513584 -0.2
v 1.88036 0.2 -0.059348
v 1.02045 -0.124038 -0.2
v 0.967411 0.2 -0.2
v 0.195173 -0.0539184 0.2
v 0.889872 -0.117079 -0.112217
v 0.8 0 0.1
v 1.8 0.1 0
v 0.8 0 -0.1
v 0 -0.2 -0.1
v 1.8 0 0.1
v 0.8 -0.1 0
v 1.84658 0.2 0.0433196
v 1.8 -0.00631971 -0.1
v 1.90796 0.124475 0.108786
v 1.8 -0.1 0
v 1.2 0.1 0
v 0.2 0 -0.1
v 0.2 -0.1 0
v 1.2 0 0.1
v 1.9341 -0.141592 -0.2
v 1.2 -0.1 0
v 1.2 0 -0.1
v 0.2 0.1 0
v 2 0.1 -0.2
v 0.8 0.1 0
v 0.2 0 0.1
v 1.15535 0.134323 0.2
v 2 -0.113463 0.0928915
v 0.952331 -0.0400142 -0.2
v 1.70418 -0.0995921 0.1
v 1.70107 -0.1 -0.1
v 0.29893 0.1 0.1
v 0.29893 0.1 -0.1
v 0.732871 0.0127405 0.2
v 1.9078 0.0964687 0.2
v 0.384775 0.14014 -0.2
v 0.611452 -0.0604238 0.2
v 1.92143 0.2 0.0980952
v 1.46952 0.0467726 0.1
v 1.48791 -0.0239363 0.1
v 1.82381 0.13202 0.2
v 0 -0.0937704 -0.031458
v 1.32861 0.2 0.0302545
v 0 -0.0554708 -0.12624
v 0.247006 -0.146997 -0.143435
v 0.269225 -0.142803 0.143769
v 1.79225 0.2 0.119597
v 0 -1.38778e-17 -0.0524539
v 0.808831 -0.2 -0.121427
v 0.394807 0.157023 0.147169
v 1.67086 0.2 0.00744336
v 1.67716 0.00785239 0.2
v 0 0.119778 -0.073212
v 0 0.113807 0.0447932
v 0.0722472 0.2 0.000185337
v 0.0998837 -0.031816 0.2
v 0.430881 -0.1 -0.0333333
v 0.924814 0.031881 0.143237
v 0.465196 0.0333333 0.1
v 0.498217 0.0333333 -0.1
v 0.491323 0.1 0.00783058
v 0.539989 -0.1 -0.0163449
v 0.893888 -0.2 -0.116015
v 1.33296 0.15119 -0.0518604
v 0.577974 0.1 -0.0227556
v 1.20999 0.0288636 0.152867
v 0.887576 0.0426974 -0.2
v 0.0712775 -0.2 0.0755202
v 0.951073 -0.2 -0.0502851
v 0.9322 -0.2 0.0661832
v 0.742473 0.151642 -0.133744
v 1.02497 -0.0633771 0.145811
v 0.982008 -0.137075 0.2
v 0.951117 -0.0519615 0.2
v 0.978258 0.0527599 -0.2
v 1.94846 0.0732564 -0.0211003
v 0.941047 0.2 -0.137554
v 0.960752 0.137403 -0.2
v 1.61497 -0.2 0.0464366
v 0.957495 0.2 0.135955
v 1.6445 0.2 0.2
v 0.99554 0.138939 0.2
v 0.983985 0.2 0.0468977
v 1.05518 -0.2 -0.144948
v 1.06773 -0.2 -0.044537
v 1.03637 -0.2 0.0998873
v 1.66413 -0.12516 -0.2
v 0.875384 -0.000499815 0.2
v 1.05737 -0.050145 -0.2
v 1.05186 -0.0857487 0.2
v 0.792581 0.0160292 -0.2
v 1.04519 0.2 -0.0878071
v 1.05352 0.121109 -0.2
v 1.09009 0.0389555 -0.2
v 1.62398 0.080785 -0.2
v 0.743536 -0.2 -0.2
v 1.03077 -0.00678322 0.2
v 1.06129 0.2 0.121267
v 1.1082 0.0464162 0.2
v 1.85273 -0.2 -0.0802706
v 1.09266 0.2 0.0132487
v 1.42889 -0.1 -0.0241462
v 1.48964 -0.0151317 -0.1
v 1.5647 -0.146017 0.155998
v 1.17496 0.000499815 0.2
v 0.330039 -0.151756 0.0391134
v 0.329295 -0.150122 -0.031591
v 2 -0.0506538 0.026227
v 1.30071 0.1 0.025
v 1.48899 0.1 0.0254618
v 0.678215 0.2 -0.115746
v 1.12219 -0.2 0.130331
v 1.57156 0.00285282 0.1
v 1.58421 0.0175345 -0.1
v 1.58901 0.1 0.00413337
v 1.92174 -0.2 -0.0357506
v 1.89583 -0.2 0.0714715
v 0.0935919 0.0404114 0.151293
v 2 -0.122209 -0.0304248
v 1.92541 -0.0485478 -0.2
v 2 -0.0526503 -0.13222
v 0.874088 -0.2 0.000807868
v 0.849647 0.125481 0.2
v 1.50702 0.00243645 -0.2
v 1.94196 -0.2 0.139365
v 0.0593666 0.0218065 0.2
v 2 -0.0175401 -0.0528756
v 2 0.049073 -0.132525
v 1.29848 0.2 -0.125481
v 2 0.0409145 0.0395016
v 2 0.0523766 0.1341
v 0.723589 0.2 0.153065
v 2 0.140547 -0.050677
v 1.94095 0.2 0.0150958
v 1.48113 -0.1 0.0389824
v 0.676895 -0.2 0.129305
v 2 0.131558 0.0498031
v 0 -0.0873403 -0.2
v 0 -0.2 0.101308
v 0 0.101308 0.2
v 0 0.2 0.10166
v 0.161967 -0.2 -0.2
v 0.329093 -0.2 -0.2
v 0.377589 -0.2 0.00115593
v 0.374711 -0.2 -0.0792042
v 0.725145 -0.150371 -0.0140131
v 0.170914 -0.2 0.2
v 0.510599 -0.1 0.1
v 0.329093 -0.2 0.2
v 0.400093 0.00802475 0.2
v 0.411249 -0.2 0.0831338
v 1.66973 -0.148841 0.2
v 0.405014 -0.0867846 0.2
v 0.198138 0.2 -0.2
v 0.161967 0.2 -0.2
v 0.329093 0.2 -0.2
v 0.384042 0.2 -0.00217215
v 0.375224 0.0597973 -0.2
v 1.86593 0.0622764 -0.0457488
v 0.230877 0.2 0.2
v 1.86725 -0.0433746 0.0557973
v 0.374982 0.2 0.0989344
v 0.652607 -0.2 -0.2
v 0.834466 -0.2 -0.2
v 0.609169 -0.2 0.0879883
v 0.603707 -0.2 0.2
v 0.598573 -0.1 0.1
v 0.766796 -0.2 0.2
v 1.15129 -0.079016 -0.143056
v 0.643067 0.2 -0.2
v 0.766796 0.2 -0.2
v 0.598573 0.0666667 0.2
v 0.598573 0.2 0.1
v 0.652607 0.2 0.2
v 0.766796 0.2 0.2
v 1.16553 -0.2 -0.2
v 1.29849 -0.2 -0.2
v 1.38816 -0.2 -0.0660987
v 0 -0.136225 -0.130712
v 1.52591 -0.0767593 0.152293
v 0.649409 0.144819 0.147506
v 1.40143 -0.0666667 -0.2
v 0.145155 -0.0730224 0.0549851
v 1.20047 -0.2 0.2
v 1.29849 -0.2 0.2
v 0.154768 -0.135653 -0.0487455
v 1.42266 -0.1 0.1
v 1.209 0.2 -0.2
v 1.45263 0.138534 0.145848
v 1.34739 0.2 -0.2
v 1.2332 0.2 0.2
v 0.848754 0.148245 0.0564384
v 1.40143 0.2 0.0666667
v 1.74119 0.2 -0.2
v 1.91164 0.2 -0.2
v 1.24597 -0.156575 0.137725
v 0.680064 -0.2 0.0550713
v 1.4789 0.2 0.0500236
v 1.60577 -0.0703534 -0.2
v 1.73638 -0.2 -0.2
v 1.58491 0.00500397 -0.2
v 1.84637 -0.2 -0.2
v 0.0549031 -0.135719 0.0443189
v 1.60718 -0.2 0.2
v 1.60214 -0.1 0.1
v 1.73177 -0.2 0.2
v 0.629541 -0.2 0.0169553
v 1.83803 -0.2 0.2
v 1.18803 -0.140446 -0.15833
v 0 0.0161204 0.2
v 0.44049 0.015287 -0.2
v 1.62261 0.2 -0.0642512
v 1.4555 0.147034 0.089134
v 1.65492 0.2 -0.2
v 0.0471341 0.15267 0.153441
v 1.59892 0.0662989 0.2
v 1.62165 0.2 0.0635579
v 0.281682 -0.2 -0.131299
v 1.73638 0.2 0.2
v 2 -0.2 -0.101308
v 2 -0.101308 -0.2
v 2 -0.101308 0.2
v 0 -0.2 -1.38778e-17
v 1.01629 -0.2 0.2
v 0 -0.0690668 0.2
v 0 0.0654666 -0.2
v 2 0.199605 -0.11578
v 0 0.2 -0.0826268
v 1.37431 -0.2 0.126306
v 0.4707 -0.2 -0.0253138
v 0.400635 -0.111007 -0.2
v 0.422625 -0.1 0.1
v 0.472156 -0.1 -0.2
v 0.24553 -0.2 -0.2
v 1.74036 0.144424 0.141795
v 1.12766 -0.0282321 0.0345732
v 0.447588 0.2 0.0586937
v 1.54109 0.2 0.017284
v 1.44969 0.2 -0.00639923
v 0.169438 0.2 0.125883
v 0.497691 0.118134 -0.2
v 0.525466 0.2 0.0108867
v 0.49438 0.2 0.124534
v 0.564258 -0.2 -1.38778e-17
v 0.560948 0.139071 0.2
v 0.583894 -0.103107 -0.2
v 0.532533 -1.38778e-17 0.2
v 0.0879206 0.0904504 0.2
v 1.11302 0.126472 -0.0194102
v 0.849514 -0.2 0.2
v 0.872588 0.2 -0.2
v 1.00847 0.0133135 -0.125628
v 0.899643 0.2 0.2
v 0.932232 -0.2 0.2
v 2 0.117921 0.2
v 1 -0.2 -0.2
v 0 -0.128157 0.148815
v 1 0.2 0.2
v 0.405147 -0.142794 0.145757
v 1.09428 -0.2 -0.2
v 1.10036 -0.2 0.2
v 1.07241 0.2 -0.2
v 1.08511 0.2 0.2
v 0.265333 0.129464 0.2
v 1.43574 0.0666667 -0.2
v 1.49391 -0.2 -0.116583
v 1.50381 -0.103082 -0.2
v 0.189809 -0.2 -0.0104978
v 2 -0.0290476 0.111582
v 1.50178 0.2 -0.0666667
v 1.50178 0.2 0.1
v 0.822074 0.2 0.0356391
v 1.55131 -0.1 0.1
v 1.5361 -1.38778e-17 0.2
v 1.54 0.0961881 -0.2
v 1.08351 -0.0218562 0.2
v 1.87877 0.0246731 0.2
v 0.760606 0.149984 -0.043216
v 0.648843 0.2 0.0374198
v 2 -0.2 0.0358411
v 2 0.00519172 -0.2
v 2 -1.38778e-17 0.2
v 2 0.2 0.042898
v 2 0.2 -0.0532718
v 0.39786 -0.2 0.2
v 0.39786 0.1 -0.1
v 0.39786 0.1 0.1
v 0.598573 0.1 0.1
v 1.38001 0.1 -0.1
v 1.40143 0.1 0.1
v 1.60108 -0.2 -0.199609
v 1.60214 -0.1 -0.1
v 1.5945 -0.117945 0.2
v 0.447391 -0.2 -0.2
v 0.447391 -0.2 0.2
v 0.447391 -0.1 -0.1
v 1.17319 0.2 0.0294872
v 0.448686 0.2 -0.2
v 0.433704 0.2 0.2
v 0.498217 0.1 -0.1
v 0.498217 0.1 0.1
v 0.547747 -0.2 -0.2
v 0.522982 -0.1 -0.1
v 0.978428 -0.2 -0.116743
v 0.551864 0.2 0.2
v 1.45711 -0.2 0.2
v 1.50049 -0.2 -0.2
v 1.47598 -0.0948412 0.2
v 1.49158 -0.1 -0.1
v 1.45225 0.2 -0.2
v 1.45225 0.2 0.2
v 1.50178 0.1 -0.1
v 1.5062 0.1 0.0991142
v 1.55131 -0.2 0.2
v 2 -0.125346 -0.10701
v 1.55261 0.2 -0.2
v 1.58648 0.1 -0.1
v 1.55261 0.2 0.2
v 1.58822 0.1 0.1
v 0.324329 -0.2 -0.00663604
v 1.11445 0.0587499 0.117069
v 1.52882 0.0435969 0.14839
v 1.46302 -0.0339938 -0.149355
v 0.813459 -0.12484 -0.2
v 0.589583 -0.0521001 0.148731
v 1.32269 -0.115911 -0.2
v 1.74607 -0.148599 0.137016
v 0.154518 -0.145746 -0.132813
v 1.87573 -0.151956 0.144729
v 1.67716 -0.083654 0.2
v 1.92716 0.0246731 -0.2
v 0.307837 -0.130666 -0.2
v 0.330049 -0.130522 0.2
v 1.42394 -0.2 -0.2
v 1.67068 0.134136 0.2
v 1.67068 0.2 0.134136
v 1.37473 -0.2 0.2
v 1.79326 0.2 -0.0361122
v 0.147745 -0.0571727 0.154161
v 1.85352 -0.144667 0.0790689
v 0.399519 0.2 -0.115433
v 0.596292 -0.2 -0.0968644
v 1.59593 -0.2 0.125779
v 0.434908 -0.2 -0.119921
v 0.513599 -0.2 -0.101476
v 0.502514 0.2 -0.112673
v 1.50178 0.100357 0.2
v 1.06328 0.115194 0.2
v 1.12462 -0.050154 -0.2
v 0.854393 0.2 0.144292
v 0 0.120567 0.123814
v 0.713278 0.1 -0.1
v 0.573663 0.1 -0.1
v 1.42634 -0.1 -0.1
v 0.335612 -0.2 0.0475652
v 0.688639 0.146009 -0.2
v 1.43546 0.144259 0.0417199
v 2 0.0750807 -0.0488537
v 0.742639 -0.1 0.0550658
v 1.94464 0.03974 -0.0724093
v 0.0620808 -0.0332386 -0.0213049
v 0.433626 0.123634 0.2
v 1.15795 0.0738639 0.155782
v 1.83775 -0.123997 0.2
v 0.889639 -0.134838 0.2
v 1.75012 -0.146246 0.0645537
v 0.243233 -0.069046 0.157741
v 1.59941 -0.2 -0.12244
v 1.39548 0.2 0.142222
v 1.45202 -0.0932428 -0.153757
v 0.44306 0.1533 -0.0503163
v 1.85975 0.0447195 0.0932426
v 1.86209 -0.0480781 -0.0745487
v 0 0.0506538 -0.0018001
v 1.16657 0.0409822 0.114615
v 0.196797 -0.0356798 0.144965
v 1.1538 0.00217857 -0.2
v 1.1697 -0.146374 0.148156
v 0.2 -0.0488651 -0.0462253
t 197 119 46 81
t 230 472 219 44
t 283 453 388 314
t 418 576 175 78
t 254 11 516 447
t 387 628 263 329
t 237 166 32 503
t 84 697 307 444
t 290 260 314 14
t 43 165 266 267
t 293 8 92 373
t 695 481 385 566
t 496 649 119 74
t 493 12 75 264
t 72 431 381 468
t 155 70 396 410
t 251 472 649 280
t 94 111 16 239
t 4 341 35 703
t 428 617 528 476
t 4 32 703 35
t 556 583 235 475
t 5 169 181 350
t 6 347 180 169
t 321 601 137 696
t 8 335 226 118
t 573 621 425 107
t 597 529 504 428
t 155 396 398 397
t 12 75 345 175
t 273 13 103 26
t 13 343 560 277
t 13 76 77 560
t 13 277 560 77
t 103 520 13 702
t 203 11 27 254
t 645 15 107 687
t 29 14 78 573
t 14 340 573 29
t 16 339 132 697
t 28 340 621 15
t 66 401 30 208
t 407 30 208 66
t 16 697 132 131
t 17 485 133 132
t 337 16 697 339
t 120 602 10 676
t 18 139 483 135
t 19 696 331 140
t 296 258 96 494
t 647 633 427 678
t 647 295 678 427
t 427 106 295 426
t 427 633 426 678
t 38 238 113 142
t 98 38 113 240
t 45 183 630 79
t 630 638 45 632
t 632 504 428 45
t 428 597 45 504
t 570 217 85 256
t 376 437 598 540
t 376 97 437 540
t 211 588 249 356
t 193 51 35 158
t 368 158 35 51
t 368 161 51 462
t 648 373 8 293
t 591 692 523 52
t 525 523 52 591
t 448 52 591 525
t 349 602 10 120
t 503 0 237 333
t 153 0 237 503
t 153 237 32 503
t 426 633 53 502
t 207 54 125 313
t 145 54 125 207
t 125 54 255 313
t 169 685 35 33
t 69 413 175 75
t 69 175 76 75
t 64 65 117 109
t 223 312 74 358
t 649 312 491 230
t 62 225 110 168
t 223 312 490 361
t 670 258 389 677
t 389 217 384 677
t 110 66 71 56
t 109 208 65 66
t 366 33 527 547
t 527 547 463 157
t 366 527 157 547
t 12 43 116 345
t 257 43 267 12
t 345 43 116 82
t 82 43 308 257
t 345 43 257 12
t 82 43 257 345
t 332 284 205 8
t 312 9 683 330
t 389 231 217 46
t 203 27 11 81
t 149 8 205 284
t 556 72 381 475
t 44 192 72 556
t 231 47 217 46
t 8 149 205 68
t 72 431 430 128
t 92 8 68 149
t 150 97 19 233
t 66 245 30 401
t 401 245 65 66
t 318 203 497 603
t 272 50 207 145
t 632 50 281 511
t 297 509 50 553
t 692 411 89 615
t 411 615 524 89
t 363 281 364 125
t 363 437 646 364
t 598 364 646 437
t 598 504 364 437
t 90 36 156 195
t 164 90 36 377
t 164 195 36 90
t 214 8 92 335
t 68 268 293 92
t 64 65 576 399
t 64 69 353 576
t 470 214 92 335
t 470 214 298 92
t 214 268 298 92
t 323 147 419 232
t 599 641 438 419
t 68 92 293 8
t 213 298 521 48
t 315 520 13 26
t 0 466 153 237
t 111 302 159 320
t 1 189 463 581
t 2 377 550 90
t 111 320 159 316
t 2 90 156 201
t 3 464 675 539
t 70 56 299 185
t 3 102 464 539
t 3 539 465 167
t 56 76 175 560
t 308 43 267 257
t 4 174 170 510
t 308 43 502 267
t 4 172 182 176
t 4 369 176 182
t 4 236 129 703
t 5 188 186 171
t 5 328 187 691
t 5 188 171 370
t 6 198 194 278
t 6 200 173 163
t 33 57 527 547
t 527 33 186 57
t 7 211 588 58
t 37 572 102 464
t 102 58 37 7
t 17 334 485 339
t 18 60 483 331
t 14 340 29 346
t 28 343 340 15
t 39 293 8 68
t 9 213 215 224
t 332 335 284 8
t 96 384 256 217
t 96 565 256 384
t 384 96 677 217
t 565 96 677 384
t 68 217 627 386
t 666 68 627 386
t 375 439 98 233
t 213 470 298 48
t 11 247 222 499
t 12 261 165 269
t 640 636 634 599
t 13 272 291 315
t 134 44 196 384
t 134 196 627 384
t 134 386 44 381
t 134 620 386 381
t 14 285 283 288
t 134 620 627 386
t 169 507 342 5
t 169 181 507 5
t 169 179 33 507
t 169 181 179 507
t 649 230 491 472
t 169 507 33 342
t 16 339 141 239
t 337 339 141 16
t 339 238 141 239
t 337 60 141 339
t 221 358 222 330
t 247 358 119 330
t 38 142 113 240
t 38 142 240 60
t 240 142 113 304
t 239 142 240 304
t 60 142 240 141
t 283 388 73 367
t 141 142 240 239
t 649 230 119 312
t 223 312 361 74
t 266 506 658 143
t 16 307 305 303
t 506 658 143 650
t 266 143 658 267
t 650 658 143 501
t 143 658 267 501
t 145 272 54 207
t 399 144 402 65
t 576 78 417 144
t 576 399 65 144
t 294 73 563 594
t 474 686 611 211
t 511 79 45 553
t 686 611 383 474
t 305 89 524 94
t 386 48 568 298
t 666 568 298 386
t 394 410 146 300
t 410 409 146 300
t 197 612 230 119
t 18 60 240 337
t 82 511 426 106
t 20 344 526 292
t 20 344 292 544
t 20 544 545 344
t 160 148 189 471
t 325 18 662 108
t 21 449 532 154
t 84 16 303 307
t 92 8 149 335
t 697 16 307 131
t 683 48 47 149
t 84 135 444 324
t 470 683 149 48
t 470 92 149 335
t 205 39 8 68
t 86 475 554 309
t 568 86 309 489
t 331 19 150 334
t 472 86 491 280
t 280 86 491 489
t 331 150 38 60
t 331 98 150 233
t 331 334 150 60
t 35 368 372 158
t 589 514 130 613
t 589 295 613 130
t 37 442 572 464
t 91 222 447 67
t 91 67 577 406
t 2 90 550 156
t 36 195 193 156
t 416 401 402 144
t 416 401 144 208
t 34 157 463 581
t 527 157 463 34
t 193 51 158 156
t 368 161 158 51
t 158 368 372 209
t 372 36 158 209
t 156 193 36 158
t 278 198 357 6
t 389 670 566 95
t 40 95 389 566
t 44 72 192 41
t 381 124 72 41
t 64 220 391 353
t 540 643 97 437
t 641 439 98 536
t 99 15 687 351
t 6 200 163 478
t 621 15 100 127
t 193 6 163 195
t 62 228 394 155
t 616 355 239 25
t 396 398 397 414
t 616 411 355 692
t 53 426 459 304
t 665 360 610 218
t 665 360 218 480
t 104 18 232 323
t 77 80 277 414
t 77 414 585 80
t 28 15 621 107
t 107 422 127 425
t 621 107 15 127
t 654 529 617 437
t 63 570 487 68
t 85 63 68 570
t 77 273 436 410
t 75 493 105 673
t 500 264 105 584
t 108 18 83 232
t 78 287 418 417
t 78 279 287 14
t 144 401 402 65
t 56 78 175 576
t 208 78 56 144
t 62 110 70 168
t 62 70 110 398
t 70 110 299 56
t 132 440 441 302
t 577 447 674 67
t 286 577 674 67
t 131 307 444 344
t 131 307 292 306
t 131 444 545 344
t 352 604 177 449
t 135 444 324 655
t 583 657 190 609
t 235 657 190 583
t 86 554 568 309
t 381 44 72 556
t 381 72 44 41
t 45 597 428 183
t 45 638 630 183
t 597 428 183 667
t 193 173 341 172
t 193 6 341 173
t 13 343 82 345
t 14 346 115 340
t 13 207 82 343
t 14 340 115 206
t 114 294 281 106
t 12 346 116 126
t 115 116 106 114
t 115 114 106 206
t 206 295 106 115
t 82 114 106 116
t 82 207 106 114
t 126 115 106 295
t 331 83 375 322
t 322 331 233 375
t 43 126 106 295
t 375 233 98 331
t 98 375 331 83
t 335 330 226 118
t 477 219 251 556
t 8 118 226 329
t 118 332 64 8
t 226 62 168 225
t 118 117 64 332
t 120 389 42 46
t 258 120 40 389
t 42 258 389 120
t 564 7 212 484
t 212 356 484 7
t 82 426 502 43
t 212 484 356 249
t 439 113 97 437
t 334 17 238 339
t 18 331 38 60
t 17 354 334 238
t 97 238 113 38
t 16 141 240 239
t 337 141 240 16
t 134 44 386 196
t 134 386 627 196
t 438 240 113 304
t 121 41 202 611
t 124 123 41 121
t 124 121 41 122
t 611 121 41 192
t 122 610 202 41
t 231 386 44 196
t 72 123 192 41
t 389 197 231 46
t 197 119 231 46
t 184 381 41 124
t 44 197 231 389
t 139 325 140 457
t 274 325 139 457
t 44 385 197 389
t 310 354 334 17
t 123 703 169 124
t 235 171 5 342
t 164 479 195 201
t 122 124 169 703
t 270 341 6 173
t 461 579 23 338
t 23 461 338 362
t 338 579 23 359
t 23 338 359 87
t 506 589 130 295
t 64 399 576 353
t 158 368 209 161
t 252 515 210 248
t 252 248 210 255
t 506 130 138 295
t 316 216 403 667
t 667 529 216 403
t 294 613 73 594
t 594 613 636 294
t 283 388 367 433
t 283 367 100 433
t 433 367 100 313
t 86 475 309 280
t 145 50 281 632
t 145 125 632 281
t 251 219 472 556
t 48 568 489 386
t 491 489 386 48
t 86 386 491 489
t 568 386 86 489
t 527 392 463 547
t 154 653 321 133
t 283 288 314 14
t 388 613 206 314
t 234 415 10 204
t 303 337 84 324
t 324 323 337 18
t 239 16 339 159
t 306 424 16 94
t 320 690 17 159
t 162 246 37 464
t 74 496 247 119
t 311 496 119 247
t 213 312 460 224
t 213 312 48 521
t 491 489 48 312
t 283 433 100 340
t 165 261 650 269
t 138 165 261 650
t 650 501 165 269
t 82 43 502 308
t 207 281 106 114
t 207 281 511 106
t 366 166 33 547
t 366 166 32 33
t 251 230 649 472
t 8 118 329 64
t 118 168 64 117
t 244 274 139 457
t 457 139 244 452
t 551 274 22 244
t 457 274 551 244
t 29 56 78 175
t 11 66 225 117
t 11 225 66 67
t 117 225 109 66
t 225 66 110 109
t 497 612 603 203
t 169 179 685 33
t 507 181 34 5
t 37 246 162 179
t 37 698 178 179
t 37 162 698 179
t 698 378 180 377
t 379 377 180 378
t 380 181 34 179
t 398 70 110 299
t 398 299 110 382
t 168 56 300 69
t 300 393 168 69
t 185 77 560 277
t 70 77 185 396
t 396 277 77 185
t 594 613 73 634
t 634 636 594 613
t 613 514 73 634
t 636 634 589 613
t 613 634 589 514
t 331 150 98 38
t 18 331 98 38
t 98 38 240 18
t 697 136 135 483
t 337 697 135 483
t 275 139 324 265
t 275 139 274 325
t 275 139 265 274
t 324 275 18 139
t 325 139 18 275
t 666 68 298 268
t 269 12 261 533
t 12 261 533 493
t 305 411 524 89
t 411 305 355 89
t 355 411 89 692
t 10 349 117 66
t 10 117 65 66
t 245 10 65 66
t 245 349 10 66
t 49 203 27 254
t 313 252 210 255
t 505 247 203 456
t 204 120 42 46
t 85 205 204 217
t 313 15 210 100
t 47 205 217 46
t 205 47 217 68
t 68 205 85 217
t 204 46 217 205
t 272 13 343 207
t 99 207 272 390
t 283 206 340 14
t 283 433 340 206
t 283 388 206 314
t 294 206 613 295
t 207 511 82 106
t 207 281 114 313
t 50 207 281 511
t 208 401 144 65
t 208 573 78 416
t 389 196 384 217
t 389 196 44 384
t 443 352 132 604
t 443 604 132 440
t 346 14 279 29
t 346 29 279 175
t 195 6 163 478
t 50 509 291 315
t 280 475 309 619
t 556 280 583 475
t 399 417 402 144
t 416 144 402 417
t 598 617 504 437
t 490 280 619 251
t 619 280 490 309
t 697 136 132 301
t 697 135 136 301
t 301 451 135 136
t 397 414 585 77
t 397 77 396 414
t 245 282 10 241
t 245 282 241 575
t 279 14 78 29
t 279 29 78 175
t 335 9 226 330
t 34 88 157 581
t 98 375 83 536
t 232 98 83 536
t 310 319 654 354
t 303 355 411 305
t 541 439 233 643
t 322 233 541 375
t 541 643 233 660
t 322 233 660 541
t 659 540 643 97
t 555 184 236 620
t 182 656 555 236
t 170 431 542 236
t 469 542 170 431
t 469 555 236 620
t 469 236 381 620
t 270 6 341 122
t 212 243 486 356
t 173 129 182 184
t 173 270 482 200
t 482 184 610 270
t 191 235 477 657
t 171 190 430 235
t 171 679 430 190
t 556 235 72 475
t 235 123 342 5
t 486 212 356 249
t 424 159 16 111
t 328 5 700 691
t 383 230 625 571
t 208 416 407 425
t 230 312 491 231
t 166 57 33 547
t 316 354 216 317
t 476 354 651 317
t 278 218 481 357
t 345 175 76 560
t 345 346 175 61
t 208 425 573 416
t 285 416 573 425
t 659 97 643 233
t 659 660 233 643
t 97 643 233 439
t 72 192 235 556
t 184 620 381 236
t 237 57 174 166
t 237 652 32 166
t 11 499 222 447
t 499 674 447 254
t 438 240 304 616
t 240 323 337 303
t 123 192 41 121
t 350 5 123 235
t 122 121 41 202
t 347 357 122 6
t 123 192 121 242
t 474 611 192 242
t 611 242 474 211
t 611 242 121 192
t 243 121 202 611
t 122 243 121 202
t 357 6 347 278
t 357 610 202 122
t 357 243 122 202
t 243 357 481 202
t 235 192 123 242
t 211 191 242 474
t 72 235 192 123
t 383 44 230 219
t 614 517 693 513
t 162 549 88 246
t 162 534 246 464
t 246 549 88 34
t 290 453 130 514
t 380 549 246 34
t 380 549 450 246
t 130 514 453 613
t 130 613 453 314
t 130 453 290 314
t 374 211 249 356
t 345 560 76 13
t 28 560 29 61
t 651 250 17 319
t 319 321 688 250
t 530 320 250 532
t 651 320 17 250
t 490 491 280 649
t 199 616 304 25
t 89 94 355 25
t 220 329 8 648
t 387 393 628 329
t 648 263 220 329
t 258 435 676 680
t 234 680 96 676
t 96 258 676 680
t 435 495 395 680
t 680 395 234 495
t 321 253 696 334
t 614 693 255 513
t 693 248 255 635
t 201 90 156 195
t 164 195 90 201
t 695 481 670 665
t 565 665 610 624
t 435 494 258 95
t 304 259 403 597
t 126 260 115 295
t 138 295 260 126
t 138 130 260 295
t 130 295 613 260
t 206 295 115 260
t 206 260 613 295
t 54 210 255 313
t 263 628 326 69
t 329 628 263 69
t 518 18 104 24
t 518 18 24 108
t 265 139 324 655
t 24 275 324 265
t 694 506 266 678
t 694 266 506 591
t 329 373 488 387
t 214 373 268 92
t 614 125 513 255
t 611 211 374 356
t 611 211 686 374
t 486 356 611 374
t 236 184 129 124
t 184 381 124 236
t 170 431 236 128
t 223 9 358 221
t 611 243 121 242
t 221 358 330 9
t 128 72 123 235
t 271 71 67 406
t 271 67 91 406
t 323 419 240 232
t 240 419 438 232
t 240 419 525 438
t 624 695 385 670
t 624 670 385 389
t 233 98 97 439
t 98 97 113 38
t 98 113 97 439
t 150 97 98 38
t 150 98 97 233
t 234 415 204 85
t 234 96 85 204
t 167 37 379 93
t 167 465 379 37
t 93 180 37 379
t 164 180 36 194
t 407 30 416 208
t 699 15 645 687
t 390 687 15 699
t 294 313 281 614
t 206 433 114 294
t 388 294 433 206
t 252 313 367 614
t 367 294 614 313
t 433 294 367 313
t 355 94 16 239
t 616 304 25 239
t 481 218 610 357
t 481 357 610 202
t 181 229 58 380
t 663 181 700 5
t 58 442 37 181
t 262 261 346 279
t 493 175 75 12
t 673 493 175 75
t 673 279 261 701
t 701 262 279 261
t 412 222 225 221
t 633 426 53 304
t 335 226 9 215
t 214 446 226 215
t 590 692 633 199
t 81 31 120 40
t 199 53 304 633
t 309 86 280 489
t 64 69 576 109
t 69 56 576 109
t 64 168 69 109
t 168 109 56 69
t 391 402 282 65
t 307 306 131 16
t 312 330 47 46
t 330 284 47 46
t 330 284 46 59
t 407 286 30 66
t 25 94 239 316
t 424 111 16 94
t 25 239 238 316
t 25 403 316 238
t 229 350 211 191
t 197 230 231 119
t 230 312 231 119
t 44 230 231 197
t 610 184 535 384
t 610 184 482 535
t 415 64 220 391
t 131 292 544 440
t 63 68 487 293
t 487 293 268 420
t 420 63 487 293
t 258 435 680 494
t 435 241 395 495
t 96 258 680 494
t 495 395 234 241
t 165 501 267 269
t 511 297 45 632
t 230 386 44 231
t 230 472 44 386
t 230 491 472 386
t 491 386 230 231
t 222 67 382 225
t 299 56 71 185
t 299 110 71 56
t 382 299 110 71
t 271 71 299 382
t 612 603 566 497
t 612 389 566 603
t 168 56 70 300
t 70 394 168 300
t 394 300 70 410
t 698 180 37 178
t 698 37 180 378
t 180 379 378 37
t 442 181 179 37
t 442 246 37 179
t 463 527 34 392
t 34 392 189 463
t 156 51 158 550
t 313 100 210 252
t 252 100 210 515
t 104 232 147 323
t 245 282 575 401
t 329 226 387 393
t 446 393 387 226
t 611 192 383 474
t 138 165 650 506
t 597 183 259 667
t 203 612 81 311
t 81 612 119 311
t 130 260 613 314
t 206 314 613 260
t 511 315 207 82
t 50 315 207 511
t 657 276 370 473
t 115 61 116 114
t 451 136 301 432
t 451 301 443 432
t 131 451 301 443
t 435 395 676 680
t 680 676 234 395
t 381 431 72 128
t 381 128 72 124
t 236 381 124 128
t 430 475 468 72
t 431 381 236 128
t 641 640 536 232
t 538 232 104 518
t 538 232 518 108
t 232 18 104 518
t 232 18 518 108
t 461 455 579 338
t 448 647 591 52
t 591 633 52 647
t 692 633 52 591
t 402 586 327 401
t 669 626 570 666
t 259 53 459 304
t 5 663 187 328
t 663 5 700 328
t 441 320 159 302
t 664 320 17 159
t 329 69 64 168
t 393 329 168 69
t 353 69 64 329
t 330 225 117 11
t 247 119 11 330
t 222 330 11 225
t 331 334 696 19
t 150 19 97 334
t 415 332 10 204
t 333 547 166 366
t 333 547 57 166
t 101 97 19 334
t 9 225 226 330
t 9 225 62 226
t 9 335 683 330
t 213 335 683 9
t 337 483 135 18
t 18 337 483 60
t 339 17 132 485
t 690 339 17 159
t 159 339 17 132
t 238 339 17 690
t 340 343 313 15
t 340 343 114 313
t 186 342 5 171
t 343 15 28 699
t 390 699 15 343
t 390 343 15 313
t 346 14 115 260
t 262 260 14 346
t 347 7 180 169
t 93 180 7 37
t 347 7 169 121
t 348 139 265 655
t 655 348 139 452
t 349 11 117 66
t 516 66 11 349
t 27 349 11 81
t 350 169 181 7
t 350 121 169 7
t 84 16 307 697
t 171 431 430 644
t 385 389 44 384
t 385 389 384 624
t 598 654 617 437
t 89 305 355 94
t 240 355 239 616
t 335 8 149 284
t 611 356 242 211
t 243 356 242 611
t 47 335 149 284
t 610 270 122 357
t 169 123 124 121
t 169 121 124 122
t 667 638 528 428
t 216 354 529 476
t 216 354 476 317
t 428 638 528 617
t 667 476 528 317
t 667 476 529 428
t 361 649 571 74
t 361 312 490 649
t 433 313 114 294
t 340 313 114 433
t 614 281 363 125
t 614 363 513 125
t 281 112 294 363
t 294 112 434 363
t 614 363 637 513
t 434 637 614 363
t 459 112 364 597
t 459 112 281 364
t 504 364 597 511
t 632 281 364 511
t 511 426 79 55
t 365 19 101 559
t 336 371 19 338
t 599 636 641 640
t 484 58 102 7
t 641 419 640 232
t 641 599 640 419
t 167 152 102 564
t 37 102 7 564
t 531 298 568 48
t 636 594 641 640
t 172 173 341 182
t 129 182 341 173
t 367 294 73 517
t 627 666 570 68
t 176 466 558 369
t 176 369 558 656
t 558 174 369 466
t 170 542 174 369
t 236 656 467 369
t 236 542 170 369
t 278 218 357 198
t 357 218 200 198
t 233 150 331 19
t 657 370 190 473
t 371 559 19 365
t 543 371 87 365
t 371 559 322 19
t 240 323 18 337
t 246 34 88 179
t 633 590 53 502
t 38 238 142 60
t 60 238 141 339
t 97 238 38 60
t 60 238 142 141
t 97 334 238 60
t 334 339 238 60
t 310 376 97 654
t 376 97 659 101
t 376 654 598 437
t 345 75 76 175
t 510 174 170 592
t 186 33 342 510
t 186 592 342 171
t 592 510 342 170
t 257 345 75 76
t 191 235 192 477
t 192 191 242 235
t 21 449 154 546
t 191 474 477 192
t 242 191 192 474
t 169 178 35 685
t 169 179 178 685
t 223 460 224 492
t 223 224 9 227
t 398 382 91 271
t 394 393 168 300
t 312 9 223 224
t 223 492 224 227
t 394 146 393 300
t 312 223 460 224
t 168 225 110 109
t 168 110 70 56
t 168 110 56 109
t 388 294 367 433
t 578 410 394 155
t 149 48 47 68
t 213 683 470 48
t 578 155 397 410
t 397 410 548 578
t 530 319 532 250
t 696 338 137 140
t 140 454 338 137
t 44 383 230 385
t 385 383 230 625
t 44 385 230 197
t 118 225 168 117
t 261 279 493 346
t 673 261 279 493
t 261 346 493 12
t 291 50 297 509
t 641 98 232 536
t 214 373 8 329
t 488 580 263 387
t 444 135 697 131
t 243 347 7 93
t 84 135 697 444
t 278 347 243 93
t 388 294 73 367
t 388 613 294 206
t 388 294 613 73
t 207 50 281 145
t 207 125 145 281
t 207 313 125 281
t 398 271 299 382
t 299 396 271 398
t 398 421 396 271
t 410 409 300 76
t 222 358 247 330
t 222 247 11 330
t 351 515 127 587
t 408 326 105 580
t 413 75 326 105
t 408 326 75 105
t 213 214 470 335
t 213 214 298 470
t 285 340 283 621
t 272 429 390 277
t 272 277 390 343
t 272 390 429 99
t 576 417 399 144
t 418 417 399 576
t 416 144 417 78
t 90 377 550 36
t 90 36 550 156
t 209 36 158 550
t 209 36 550 377
t 550 156 36 158
t 336 322 331 19
t 358 312 119 330
t 321 253 334 310
t 321 334 17 310
t 253 101 19 334
t 358 312 330 9
t 131 306 292 424
t 346 115 116 126
t 115 346 116 61
t 306 424 131 16
t 343 114 116 61
t 343 207 82 114
t 343 207 114 313
t 340 61 115 114
t 340 114 115 206
t 340 433 114 206
t 173 184 182 482
t 330 117 118 59
t 330 225 118 117
t 482 184 270 173
t 343 114 82 116
t 413 418 399 576
t 418 78 417 576
t 345 343 82 116
t 175 78 279 418
t 413 576 175 418
t 253 310 101 334
t 212 243 7 93
t 212 243 356 7
t 336 331 322 662
t 592 342 171 170
t 303 411 355 616
t 692 615 523 411
t 305 307 16 306
t 305 307 306 526
t 312 47 231 46
t 215 226 394 446
t 394 393 226 168
t 141 238 142 239
t 150 97 38 60
t 38 60 240 18
t 18 240 98 232
t 386 217 627 196
t 334 354 97 238
t 131 445 135 451
t 131 445 451 443
t 386 231 217 196
t 329 214 387 226
t 214 446 387 226
t 108 18 24 325
t 24 275 274 325
t 272 277 80 429
t 272 13 80 277
t 291 272 13 80
t 325 275 18 24
t 155 70 398 396
t 398 396 421 414
t 353 69 413 576
t 353 399 576 413
t 220 353 64 329
t 329 263 220 353
t 493 261 105 673
t 457 140 139 400
t 682 684 400 139
t 461 140 400 454
t 682 400 451 454
t 316 216 667 317
t 667 216 529 476
t 667 216 476 317
t 304 427 633 426
t 112 427 304 426
t 427 304 633 616
t 438 427 304 112
t 438 427 616 304
t 74 649 119 312
t 612 496 230 119
t 659 660 642 405
t 670 258 296 95
t 85 415 204 205
t 55 553 315 26
t 82 55 315 26
t 409 410 273 76
t 398 412 225 221
t 398 412 382 225
t 398 412 91 382
t 454 455 338 137
t 461 338 454 455
t 503 32 153 368
t 503 153 462 368
t 366 32 503 368
t 186 342 33 507
t 186 5 342 507
t 239 111 159 316
t 94 111 239 316
t 277 80 600 414
t 185 277 645 423
t 600 423 277 185
t 396 277 600 414
t 113 437 529 97
t 107 351 15 127
t 654 529 97 354
t 654 97 529 437
t 238 529 97 113
t 354 529 97 238
t 419 599 525 438
t 420 293 268 488
t 488 648 420 293
t 421 423 600 185
t 421 396 600 414
t 131 424 292 440
t 164 194 93 180
t 379 164 93 180
t 453 388 613 73
t 283 388 453 73
t 429 423 390 277
t 429 80 423 277
t 521 298 531 48
t 521 312 48 489
t 182 184 535 482
t 430 475 72 235
t 72 430 235 128
t 468 475 381 72
t 430 431 72 468
t 521 312 489 460
t 431 381 469 236
t 431 469 381 468
t 301 136 132 432
t 432 136 454 451
t 522 562 637 434
t 522 562 595 637
t 416 144 78 208
t 434 563 522 562
t 230 496 571 649
t 496 74 571 649
t 19 696 140 338
t 221 330 222 225
t 336 19 140 338
t 636 427 112 106
t 214 226 335 215
t 636 295 427 106
t 112 427 426 106
t 214 335 213 215
t 262 346 261 138
t 70 77 76 185
t 70 56 185 76
t 40 31 120 435
t 120 31 676 435
t 77 273 702 436
t 436 702 77 585
t 489 531 568 48
t 332 284 204 205
t 521 531 489 48
t 415 205 332 204
t 272 343 390 207
t 273 76 345 257
t 409 273 257 76
t 517 252 367 614
t 367 294 517 614
t 69 413 576 175
t 385 624 384 202
t 202 695 385 624
t 202 481 385 695
t 490 280 251 649
t 649 472 491 280
t 321 319 17 250
t 269 533 261 500
t 533 261 500 105
t 269 267 533 500
t 500 533 105 264
t 476 529 654 354
t 648 488 373 293
t 293 373 268 488
t 648 329 373 488
t 442 380 58 450
t 58 380 442 181
t 380 181 179 442
t 380 246 442 179
t 380 246 450 442
t 614 537 637 434
t 614 637 537 513
t 537 522 637 434
t 537 522 595 637
t 537 637 595 513
t 428 504 632 617
t 44 472 381 386
t 347 243 122 357
t 350 235 123 242
t 147 538 419 232
t 104 232 538 147
t 237 333 57 166
t 108 232 83 538
t 446 226 394 393
t 91 447 577 67
t 499 447 11 254
t 674 447 516 67
t 240 438 113 98
t 232 641 438 98
t 240 438 98 232
t 98 641 438 439
t 438 113 98 439
t 397 77 410 396
t 304 238 113 529
t 142 238 113 304
t 403 529 238 304
t 239 238 142 304
t 304 239 238 25
t 25 304 403 238
t 427 426 295 678
t 325 274 608 457
t 450 534 464 246
t 442 450 572 464
t 450 246 464 442
t 262 287 14 290
t 678 426 295 43
t 565 670 665 624
t 665 695 624 670
t 415 234 10 282
t 610 184 41 122
t 241 282 10 234
t 129 270 122 184
t 610 184 122 270
t 184 41 122 124
t 228 224 9 215
t 184 124 122 129
t 77 80 585 702
t 100 15 210 515
t 127 15 100 515
t 99 15 351 515
t 127 351 15 515
t 210 15 99 515
t 491 231 312 48
t 68 48 47 217
t 453 613 514 73
t 312 330 46 119
t 349 120 46 81
t 366 166 333 503
t 505 247 456 498
t 247 498 499 456
t 259 459 597 304
t 459 112 597 304
t 223 490 460 492
t 312 223 490 460
t 312 490 489 460
t 345 13 273 26
t 257 345 273 26
t 424 302 159 111
t 643 541 642 660
t 671 540 643 642
t 540 643 642 659
t 643 595 642 541
t 180 7 37 169
t 643 660 642 659
t 181 169 37 7
t 366 32 166 503
t 566 625 612 567
t 612 497 566 567
t 625 612 567 569
t 612 497 567 569
t 470 68 298 48
t 470 149 68 48
t 470 92 68 149
t 470 92 298 68
t 556 86 472 280
t 251 556 472 280
t 251 230 472 219
t 381 386 472 86
t 317 476 528 530
t 218 480 200 198
t 93 347 7 180
t 330 335 47 284
t 330 335 284 59
t 696 140 137 136
t 483 696 136 140
t 483 60 136 696
t 485 137 136 696
t 485 696 136 60
t 60 136 697 483
t 485 432 133 132
t 485 133 432 137
t 697 485 132 136
t 485 60 136 697
t 323 525 523 240
t 240 523 438 525
t 10 120 204 349
t 10 59 204 332
t 349 120 204 46
t 349 59 46 204
t 155 228 394 578
t 228 578 155 689
t 397 689 155 578
t 45 79 630 553
t 45 297 630 632
t 45 553 630 297
t 22 274 265 348
t 274 139 265 348
t 348 274 139 244
t 244 274 22 348
t 104 18 324 24
t 324 24 18 275
t 85 96 217 204
t 96 204 42 217
t 85 96 256 217
t 96 42 677 217
t 696 19 253 365
t 338 365 19 696
t 359 696 253 365
t 338 365 696 359
t 42 389 217 46
t 204 42 217 46
t 66 71 56 208
t 66 71 208 407
t 365 338 87 359
t 663 34 5 160
t 663 160 5 187
t 187 188 160 5
t 160 189 34 5
t 357 347 243 278
t 590 53 199 633
t 583 609 475 619
t 583 619 477 609
t 583 657 609 477
t 583 280 619 475
t 297 553 50 511
t 251 583 280 619
t 511 553 315 55
t 50 553 315 511
t 511 553 45 297
t 477 583 251 619
t 179 34 88 33
t 88 33 527 366
t 88 33 34 527
t 598 617 632 504
t 685 88 366 33
t 366 527 88 157
t 612 505 203 497
t 497 505 203 318
t 497 505 318 498
t 179 88 685 33
t 419 525 323 240
t 692 616 523 52
t 616 633 52 692
t 652 4 32 510
t 166 174 510 57
t 166 652 32 510
t 71 425 573 208
t 425 71 107 422
t 208 71 425 407
t 425 407 71 422
t 565 677 624 384
t 535 256 384 557
t 281 294 614 363
t 614 294 434 363
t 511 459 364 597
t 511 459 281 364
t 426 459 106 511
t 511 459 106 281
t 513 595 635 642
t 355 94 239 25
t 71 573 425 107
t 27 11 516 254
t 245 596 27 516
t 516 447 11 67
t 286 674 516 67
t 286 254 596 516
t 24 275 265 274
t 103 509 520 508
t 315 509 520 26
t 556 381 472 86
t 556 381 86 475
t 408 105 584 580
t 702 273 103 436
t 436 508 702 585
t 702 80 585 508
t 273 13 702 103
t 318 456 203 254
t 203 456 11 254
t 456 499 11 254
t 546 352 133 593
t 545 444 131 445
t 544 131 440 443
t 605 348 655 452
t 605 452 655 135
t 527 88 157 34
t 612 496 119 311
t 612 505 496 311
t 612 505 311 203
t 162 549 246 534
t 450 549 534 246
t 695 481 566 670
t 603 612 81 203
t 449 133 653 154
t 449 546 352 133
t 449 133 154 546
t 344 131 307 292
t 344 131 292 544
t 344 544 545 131
t 539 464 675 37
t 539 102 464 37
t 539 37 465 167
t 167 539 37 102
t 581 189 463 34
t 160 549 34 581
t 160 581 34 189
t 237 652 153 32
t 237 166 503 333
t 236 467 542 369
t 125 632 281 364
t 632 504 45 511
t 42 258 120 676
t 74 247 358 119
t 346 165 261 138
t 162 246 88 179
t 162 88 698 179
t 397 410 585 548
t 119 312 231 46
t 245 10 349 602
t 602 49 81 27
t 602 81 49 31
t 274 551 608 457
t 571 474 686 383
t 364 112 363 437
t 511 79 553 55
t 374 249 686 623
t 611 374 686 567
t 686 374 623 567
t 385 612 197 389
t 566 612 385 389
t 566 612 625 385
t 385 612 230 197
t 385 625 230 612
t 542 174 369 558
t 346 260 115 126
t 138 126 260 346
t 322 559 660 233
t 659 543 559 660
t 659 660 559 233
t 659 543 101 559
t 659 97 233 101
t 659 559 101 233
t 191 187 370 657
t 191 370 235 657
t 235 370 190 657
t 369 656 176 182
t 182 656 236 369
t 299 185 71 271
t 421 423 185 271
t 299 185 271 396
t 396 421 185 271
t 29 56 560 28
t 118 226 168 225
t 226 225 118 330
t 12 346 175 345
t 29 56 175 560
t 26 520 13 103
t 308 82 26 55
t 202 624 384 610
t 670 695 385 566
t 202 384 41 610
t 426 502 79 55
t 553 509 315 26
t 438 113 112 304
t 434 594 563 562
t 401 65 282 402
t 401 575 402 282
t 565 256 384 535
t 564 152 102 484
t 564 102 7 484
t 245 602 349 27
t 602 81 349 27
t 245 516 349 66
t 27 516 11 349
t 245 27 349 516
t 49 203 81 27
t 49 318 203 254
t 17 133 485 321
t 321 133 485 137
t 321 696 485 334
t 321 137 485 696
t 321 334 485 17
t 625 686 569 567
t 633 266 591 631
t 633 266 631 590
t 217 48 47 231
t 217 48 231 386
t 703 123 169 342
t 128 235 123 342
t 703 341 169 122
t 129 341 122 270
t 481 665 610 218
t 283 453 314 288
t 290 453 288 314
t 37 58 102 572
t 37 442 58 572
t 442 450 58 572
t 560 343 28 277
t 560 61 28 343
t 28 29 573 340
t 28 61 29 340
t 346 29 175 61
t 29 573 56 28
t 28 621 573 107
t 29 573 78 56
t 228 155 62 689
t 398 689 62 155
t 23 461 362 607
t 579 455 606 359
t 449 133 441 653
t 664 653 441 133
t 657 187 370 276
t 558 369 467 656
t 467 542 369 558
t 34 88 581 549
t 555 656 467 236
t 438 112 439 636
t 423 672 351 107
t 7 588 484 58
t 588 484 356 7
t 665 360 622 565
t 360 565 610 482
t 338 371 19 365
t 87 365 371 338
t 358 74 119 312
t 138 126 346 165
t 57 510 186 592
t 416 30 401 208
t 516 245 596 30
t 286 596 30 516
t 137 593 454 455
t 593 432 137 454
t 232 538 536 83
t 365 19 253 101
t 596 254 49 27
t 596 254 27 516
t 322 19 233 331
t 277 80 423 600
t 606 359 137 601
t 120 31 602 676
t 81 31 602 120
t 603 31 81 40
t 49 81 603 31
t 31 241 395 435
t 31 241 602 395
t 100 367 252 313
t 504 632 364 511
t 111 159 16 239
t 404 577 286 67
t 621 340 283 100
t 69 628 326 408
t 488 387 263 329
t 387 628 580 263
t 193 153 35 51
t 234 96 204 676
t 96 676 42 204
t 96 677 42 258
t 506 295 43 678
t 426 106 295 43
t 185 560 28 277
t 71 573 28 56
t 71 28 573 107
t 185 56 28 560
t 131 443 544 639
t 639 131 545 544
t 199 692 633 616
t 410 300 70 76
t 77 410 70 76
t 410 76 77 273
t 271 423 185 71
t 71 645 107 423
t 71 185 645 423
t 107 71 423 672
t 423 71 271 672
t 644 469 431 468
t 171 644 430 679
t 644 431 430 468
t 679 644 430 468
t 679 430 475 468
t 107 425 127 621
t 374 211 686 249
t 28 15 107 645
t 699 15 28 645
t 565 670 677 258
t 565 258 96 296
t 565 677 96 258
t 670 258 565 296
t 301 132 443 432
t 573 340 285 621
t 287 512 586 289
t 13 291 702 520
t 702 291 13 80
t 520 291 508 509
t 363 646 671 125
t 598 125 671 646
t 598 671 540 646
t 363 646 637 671
t 671 646 643 540
t 671 637 643 646
t 396 600 277 185
t 421 600 396 185
t 702 103 508 436
t 381 554 86 475
t 137 593 455 606
t 218 610 357 200
t 360 482 610 200
t 218 360 610 200
t 200 610 357 270
t 200 482 610 270
t 589 613 295 636
t 589 295 427 636
t 294 636 295 613
t 219 474 571 383
t 570 217 256 627
t 52 616 523 438
t 52 438 427 616
t 557 627 570 256
t 557 256 384 627
t 256 217 384 627
t 525 523 438 52
t 506 694 647 678
t 506 295 678 647
t 506 295 647 589
t 591 694 647 506
t 589 506 448 647
t 316 354 238 216
t 216 529 354 238
t 403 259 667 597
t 667 403 597 529
t 407 286 66 67
t 407 286 67 404
t 407 67 66 71
t 407 67 71 404
t 180 194 347 6
t 180 194 93 347
t 93 194 278 347
t 347 194 278 6
t 564 7 93 212
t 316 238 403 216
t 216 529 238 403
t 161 550 158 51
t 39 648 8 293
t 220 8 39 648
t 158 161 209 550
t 557 384 535 184
t 361 649 251 571
t 571 251 230 649
t 361 649 490 251
t 511 55 315 82
t 511 55 82 426
t 338 455 579 359
t 244 139 348 452
t 213 312 521 460
t 345 346 116 12
t 345 61 116 346
t 45 428 638 183
t 428 638 183 667
t 13 345 560 343
t 345 61 560 343
t 10 349 204 59
t 10 349 59 117
t 132 352 432 133
t 432 132 443 352
t 352 441 133 132
t 379 552 377 151
t 665 565 610 360
t 218 360 200 480
t 31 395 676 435
t 435 495 680 494
t 31 395 602 676
t 602 395 10 676
t 676 10 234 395
t 530 250 651 319
t 530 320 651 250
t 317 320 651 530
t 365 559 101 543
t 371 543 559 365
t 371 660 322 559
t 257 82 26 308
t 257 345 26 82
t 92 268 298 68
t 105 493 75 264
t 493 261 533 105
t 533 493 105 264
t 426 459 79 53
t 426 459 511 79
t 426 53 79 502
t 350 242 121 7
t 350 242 123 121
t 500 267 533 264
t 267 257 12 264
t 533 267 12 264
t 283 388 433 206
t 499 577 447 674
t 652 153 176 466
t 174 237 652 466
t 237 466 153 652
t 154 688 321 653
t 449 653 532 154
t 449 653 441 532
t 320 532 441 653
t 250 321 688 653
t 250 320 653 532
t 292 307 526 306
t 344 307 526 292
t 14 340 285 573
t 245 602 49 31
t 245 602 31 241
t 263 628 580 326
t 326 628 580 408
t 219 472 556 44
t 192 44 219 556
t 135 444 655 605
t 44 472 556 381
t 392 527 34 186
t 523 240 438 616
t 323 523 303 240
t 303 355 240 616
t 323 337 303 324
t 153 0 503 462
t 347 7 121 243
t 347 121 122 243
t 632 428 638 45
t 638 428 632 617
t 241 575 282 495
t 144 78 56 576
t 109 144 56 576
t 576 144 65 109
t 206 114 106 294
t 294 295 106 206
t 188 186 189 5
t 189 186 34 5
t 266 658 591 631
t 266 658 631 590
t 329 214 373 387
t 214 8 373 92
t 614 517 252 693
t 614 252 255 693
t 614 252 313 255
t 335 683 47 149
t 470 335 149 683
t 213 335 470 683
t 698 36 180 178
t 662 331 483 140
t 662 331 18 483
t 662 336 331 140
t 289 285 573 14
t 285 573 416 289
t 345 61 175 560
t 61 29 175 560
t 692 355 616 25
t 692 616 199 25
t 692 89 355 25
t 370 276 190 473
t 184 134 627 384
t 217 384 627 196
t 376 97 540 659
t 23 338 87 362
t 429 390 423 99
t 99 687 423 351
t 390 687 423 99
t 703 236 129 124
t 236 128 124 703
t 614 517 537 681
t 517 614 294 681
t 553 661 630 297
t 662 18 83 108
t 662 331 322 83
t 662 18 331 83
t 517 294 563 681
t 517 522 537 681
t 40 435 258 95
t 681 563 517 522
t 435 120 40 258
t 603 40 389 566
t 40 81 603 389
t 380 663 181 229
t 663 380 187 328
t 380 663 229 328
t 380 663 34 181
t 380 34 663 160
t 441 320 664 159
t 441 159 664 132
t 441 133 132 664
t 252 248 255 693
t 45 597 183 79
t 511 597 45 79
t 597 79 259 183
t 459 597 511 79
t 459 597 79 259
t 340 433 100 313
t 310 97 376 101
t 207 99 54 313
t 397 689 398 155
t 410 77 70 396
t 439 541 375 536
t 439 375 98 536
t 412 222 382 225
t 412 222 91 382
t 26 509 520 103
t 698 372 178 685
t 178 372 35 685
t 353 69 326 413
t 523 411 303 616
t 523 303 240 616
t 64 168 109 117
t 168 225 109 117
t 184 44 134 384
t 184 41 44 384
t 184 134 44 381
t 184 44 41 381
t 507 179 33 34
t 507 181 179 34
t 6 35 169 36
t 169 36 35 178
t 6 169 180 36
t 169 36 178 180
t 188 189 160 5
t 188 160 189 471
t 486 356 374 249
t 71 56 28 185
t 75 673 105 413
t 413 673 175 75
t 175 279 673 418
t 614 125 255 313
t 169 37 178 179
t 169 180 178 37
t 169 37 179 181
t 703 169 33 342
t 703 341 35 169
t 703 169 35 33
t 569 612 497 505
t 569 612 505 496
t 110 71 66 67
t 225 110 66 67
t 382 71 110 67
t 382 110 225 67
t 56 175 76 69
t 576 175 56 69
t 109 208 56 144
t 496 230 119 649
t 361 312 649 74
t 280 490 309 489
t 675 162 37 464
t 605 452 135 445
t 99 207 390 313
t 390 343 313 207
t 120 204 42 676
t 677 258 389 42
t 389 217 677 42
t 678 43 502 426
t 678 506 266 43
t 678 43 266 502
t 240 323 232 18
t 212 278 481 243
t 542 431 469 236
t 430 190 475 235
t 679 475 430 190
t 193 341 35 172
t 172 4 341 35
t 153 35 32 4
t 172 153 35 193
t 573 208 78 56
t 71 208 573 56
t 59 46 204 284
t 81 602 349 120
t 330 59 46 11
t 119 330 46 11
t 349 11 46 59
t 349 81 46 11
t 81 119 46 11
t 47 149 205 284
t 149 47 205 68
t 312 231 47 48
t 49 81 203 603
t 683 335 47 330
t 47 683 312 48
t 172 35 153 4
t 172 4 153 176
t 389 612 197 81
t 486 249 374 623
t 611 486 374 567
t 513 517 693 595
t 513 693 255 635
t 513 255 671 635
t 640 594 634 636
t 219 477 474 192
t 457 682 400 139
t 461 400 682 454
t 457 682 139 452
t 476 529 617 654
t 194 478 6 195
t 469 555 467 236
t 469 467 542 236
t 469 467 555 668
t 213 683 48 312
t 491 386 231 48
t 68 48 217 386
t 391 415 10 282
t 391 10 64 65
t 391 282 10 65
t 371 543 660 559
t 692 631 591 615
t 606 137 133 321
t 606 154 321 133
t 606 546 154 133
t 541 375 233 439
t 682 451 400 684
t 135 452 684 451
t 135 684 136 451
t 682 451 684 452
t 400 451 136 684
t 698 88 372 685
t 329 118 226 168
t 329 118 168 64
t 472 386 491 86
t 71 28 107 645
t 71 185 28 645
t 185 277 28 645
t 546 593 133 606
t 133 593 137 606
t 240 239 304 616
t 350 121 123 169
t 347 169 122 121
t 14 279 287 262
t 262 279 346 14
t 418 262 287 279
t 62 689 221 227
t 221 9 225 62
t 221 227 9 62
t 398 225 62 221
t 398 62 689 221
t 70 185 299 396
t 397 77 585 410
t 672 71 271 406
t 645 687 107 423
t 277 687 645 423
t 390 423 687 277
t 107 423 687 351
t 648 329 8 373
t 488 263 648 329
t 319 688 532 250
t 154 532 688 653
t 250 688 532 653
t 476 354 319 651
t 651 319 476 530
t 354 17 319 651
t 313 15 99 210
t 99 313 390 15
t 288 285 289 14
t 288 287 14 289
t 12 257 75 264
t 227 228 9 62
t 228 689 62 227
t 245 65 10 282
t 448 506 591 647
t 448 647 52 427
t 393 329 226 168
t 368 685 372 366
t 372 368 35 685
t 372 36 698 178
t 372 698 36 377
t 372 36 35 158
t 372 36 209 377
t 372 36 178 35
t 690 320 317 316
t 320 316 690 159
t 316 239 690 159
t 238 239 690 316
t 316 690 354 317
t 316 690 238 354
t 691 328 187 191
t 328 691 229 191
t 229 691 350 191
t 191 187 691 370
t 235 191 350 691
t 191 691 235 370
t 39 63 293 68
t 39 648 293 63
t 441 352 133 449
t 352 604 449 441
t 132 352 441 604
t 53 459 79 259
t 120 435 676 258
t 669 666 627 386
t 49 203 318 603
t 245 596 49 27
t 245 49 602 27
t 603 612 389 81
t 297 50 632 511
t 145 50 632 297
t 272 315 207 50
t 291 315 509 520
t 40 120 81 389
t 120 389 46 81
t 81 612 197 119
t 389 197 46 81
t 176 466 369 652
t 369 174 652 466
t 571 251 219 230
t 571 477 219 251
t 571 477 474 219
t 571 230 219 383
t 363 364 646 125
t 598 125 646 364
t 671 642 643 637
t 506 295 138 126
t 506 295 126 43
t 506 126 138 165
t 506 126 165 43
t 64 65 109 576
t 144 208 65 109
t 34 186 189 392
t 672 351 107 587
t 672 422 587 107
t 351 127 107 587
t 587 422 127 107
t 269 267 12 533
t 385 384 44 202
t 385 611 202 44
t 383 385 44 611
t 625 383 686 611
t 636 294 112 434
t 434 439 437 112
t 529 113 597 437
t 614 681 537 434
t 633 694 266 678
t 633 266 694 591
t 694 633 647 678
t 591 633 647 694
t 633 678 502 426
t 633 678 266 502
t 633 266 590 502
t 610 695 624 665
t 610 695 202 624
t 555 557 535 184
t 353 69 263 326
t 186 510 342 592
t 419 641 438 232
t 493 279 175 346
t 673 493 279 175
t 413 673 418 175
t 376 97 654 437
t 4 341 703 129
t 122 124 703 129
t 129 341 703 122
t 4 128 703 342
t 123 128 703 124
t 128 123 703 342
t 181 700 350 229
t 663 700 181 229
t 698 180 36 377
t 266 506 143 165
t 43 506 266 165
t 506 143 165 650
t 266 658 506 591
t 599 448 636 589
t 599 448 438 636
t 525 438 599 448
t 570 68 217 627
t 570 68 85 217
t 43 426 106 82
t 43 106 116 82
t 59 284 204 332
t 341 6 35 169
t 193 36 35 6
t 193 6 35 341
t 167 102 37 564
t 167 37 93 564
t 186 507 33 34
t 703 32 33 35
t 510 33 342 703
t 510 703 32 33
t 359 253 696 601
t 696 137 338 359
t 359 601 696 137
t 697 301 132 131
t 697 131 307 444
t 337 135 697 84
t 325 483 139 140
t 325 662 483 140
t 334 696 485 60
t 331 696 483 140
t 331 60 483 696
t 337 60 697 483
t 339 485 132 697
t 485 60 697 339
t 97 643 439 437
t 556 86 280 475
t 251 556 280 583
t 477 556 251 583
t 669 570 627 666
t 556 235 583 477
t 583 235 657 477
t 641 640 594 536
t 232 419 640 538
t 232 640 536 538
t 669 557 620 627
t 557 620 555 668
t 669 668 557 618
t 68 48 386 298
t 666 386 298 68
t 311 505 496 247
t 311 505 247 203
t 490 312 491 649
t 697 135 301 131
t 131 451 135 301
t 117 65 66 109
t 135 139 483 684
t 400 140 139 483
t 400 684 483 139
t 485 136 432 132
t 485 432 136 137
t 110 66 56 109
t 66 56 109 208
t 243 611 486 356
t 243 486 611 481
t 182 555 184 236
t 182 184 129 236
t 182 184 555 535
t 372 88 366 685
t 277 699 645 687
t 390 687 699 277
t 343 699 28 277
t 390 277 699 343
t 277 699 28 645
t 513 595 693 635
t 557 184 620 627
t 239 339 690 159
t 238 339 690 239
t 278 243 212 93
t 229 350 7 211
t 242 211 7 350
t 510 703 342 4
t 69 76 56 300
t 510 4 342 170
t 409 69 300 76
t 76 409 69 75
t 146 409 393 300
t 172 182 341 4
t 510 4 32 703
t 185 77 76 560
t 652 153 32 4
t 185 56 560 76
t 300 76 56 70
t 176 652 369 4
t 628 69 409 408
t 700 181 350 5
t 700 5 350 691
t 186 5 507 34
t 663 5 34 181
t 691 187 5 370
t 169 5 123 350
t 342 123 169 5
t 180 6 36 194
t 193 36 6 195
t 193 6 173 163
t 169 347 122 6
t 341 6 169 122
t 37 7 93 564
t 58 181 37 7
t 335 9 213 215
t 214 8 335 226
t 226 62 9 215
t 415 64 332 8
t 10 64 415 391
t 415 39 8 205
t 220 8 415 39
t 220 415 8 64
t 221 9 330 225
t 228 215 9 62
t 602 241 10 395
t 245 10 602 241
t 245 65 282 401
t 567 686 629 623
t 668 467 555 618
t 211 350 242 191
t 242 191 350 235
t 278 357 481 243
t 447 222 11 67
t 10 59 332 117
t 222 67 225 11
t 118 335 332 8
t 118 117 332 59
t 516 11 66 67
t 328 700 229 691
t 346 12 261 165
t 663 700 229 328
t 229 700 350 691
t 257 12 75 345
t 493 346 175 12
t 380 160 663 187
t 237 174 652 166
t 174 4 652 510
t 166 174 652 510
t 652 176 153 4
t 320 653 441 664
t 250 320 664 653
t 250 320 17 664
t 570 666 487 68
t 68 666 487 268
t 68 268 487 293
t 513 125 671 255
t 513 363 671 125
t 513 363 637 671
t 513 637 595 642
t 389 384 624 677
t 43 12 116 126
t 272 277 343 13
t 610 565 535 482
t 565 384 610 535
t 565 610 384 624
t 231 196 389 217
t 273 13 76 77
t 614 537 517 513
t 273 76 13 345
t 80 13 77 277
t 448 438 52 525
t 273 13 77 702
t 673 279 701 418
t 418 262 279 701
t 57 510 592 174
t 702 80 13 77
t 527 57 392 547
t 392 527 186 57
t 228 689 574 578
t 491 490 489 312
t 266 267 658 502
t 266 43 267 502
t 266 165 143 267
t 96 42 676 258
t 50 509 315 553
t 50 291 272 315
t 336 362 338 458
t 461 458 338 362
t 283 14 340 285
t 633 631 591 692
t 633 631 692 590
t 567 686 569 629
t 103 520 702 508
t 702 291 508 520
t 508 291 702 80
t 114 313 281 294
t 434 643 437 439
t 289 573 78 14
t 28 573 621 340
t 569 497 567 629
t 346 340 29 61
t 346 61 115 340
t 339 334 485 60
t 28 61 340 343
t 340 61 114 343
t 290 288 14 314
t 47 284 205 46
t 204 46 205 284
t 616 692 523 411
t 330 11 117 59
t 349 59 117 11
t 332 59 284 335
t 118 59 332 335
t 345 343 116 61
t 330 59 118 335
t 337 339 697 60
t 337 60 240 141
t 331 60 696 334
t 150 334 97 60
t 390 15 687 99
t 481 202 610 695
t 481 610 665 695
t 107 687 15 351
t 621 15 340 100
t 179 698 178 685
t 179 88 698 685
t 598 632 364 504
t 669 570 557 627
t 669 626 557 570
t 669 618 557 626
t 10 64 65 117
t 10 332 64 117
t 415 64 10 332
t 513 642 635 671
t 513 637 642 671
t 285 621 425 573
t 670 624 565 677
t 670 622 296 565
t 159 16 339 132
t 337 16 303 84
t 337 697 16 84
t 337 135 84 324
t 475 583 190 609
t 7 211 58 229
t 7 229 58 181
t 181 350 7 229
t 167 3 102 152
t 424 132 131 16
t 318 505 203 456
t 424 302 132 159
t 424 132 16 159
t 318 505 456 498
t 457 140 400 461
t 457 400 682 461
t 221 227 223 9
t 254 447 516 674
t 286 254 516 674
t 310 654 97 354
t 310 97 101 334
t 310 354 97 334
t 184 129 270 173
t 270 129 341 173
t 431 170 171 128
t 430 171 235 128
t 430 431 171 128
t 128 170 171 342
t 235 171 342 128
t 272 99 54 207
t 85 39 68 63
t 85 39 205 68
t 415 39 205 85
t 648 63 420 293
t 441 159 132 302
t 664 159 17 132
t 125 632 364 598
t 664 133 132 17
t 133 352 432 593
t 250 321 653 133
t 145 50 297 291
t 321 319 310 17
t 321 250 17 133
t 272 50 145 291
t 321 601 696 253
t 24 274 265 519
t 358 223 312 9
t 262 138 260 346
t 138 262 260 130
t 426 55 82 502
t 308 82 55 502
t 116 115 106 126
t 43 116 106 126
t 370 188 190 276
t 187 276 188 370
t 187 471 188 276
t 422 582 404 406
t 3 675 465 539
t 539 675 465 37
t 324 337 135 18
t 324 18 104 323
t 519 274 265 22
t 324 18 135 139
t 21 546 352 449
t 352 177 21 449
t 533 12 493 264
t 408 75 264 105
t 408 264 584 105
t 325 18 139 483
t 325 662 18 483
t 325 336 662 140
t 650 143 165 501
t 165 143 267 501
t 317 320 690 651
t 354 690 651 317
t 370 188 171 190
t 171 190 235 370
t 253 334 19 696
t 336 371 322 19
t 87 336 362 338
t 336 19 331 140
t 336 87 371 338
t 477 556 235 192
t 72 124 123 41
t 72 128 123 124
t 368 32 685 366
t 685 366 32 33
t 685 368 35 32
t 378 162 698 37
t 685 35 33 32
t 378 162 37 675
t 379 377 164 180
t 37 465 378 675
t 527 33 34 186
t 57 33 186 510
t 158 193 36 35
t 44 384 41 202
t 44 611 202 41
t 312 683 47 330
t 214 329 8 226
t 398 225 110 62
t 382 222 91 67
t 215 228 394 62
t 215 62 394 226
t 220 329 64 8
t 329 393 628 69
t 329 263 353 69
t 394 226 62 168
t 300 409 393 69
t 155 394 62 70
t 155 410 394 70
t 70 394 62 168
t 391 65 64 399
t 391 64 353 399
t 391 399 402 65
t 398 382 110 225
t 66 245 516 30
t 208 401 65 66
t 382 71 67 271
t 382 67 91 271
t 286 516 66 67
t 286 516 30 66
t 393 69 409 628
t 409 408 69 75
t 409 264 408 75
t 413 75 69 326
t 70 396 299 398
t 396 77 277 414
t 422 406 404 71
t 107 71 672 422
t 407 404 71 422
t 573 78 416 289
t 409 75 76 257
t 409 75 257 264
t 418 287 78 279
t 281 112 106 294
t 426 112 106 459
t 281 112 363 364
t 426 112 459 304
t 304 113 112 597
t 440 302 132 424
t 440 132 131 424
t 606 601 137 321
t 131 301 132 443
t 131 443 639 445
t 445 131 545 639
t 135 452 139 684
t 135 483 136 684
t 324 139 135 655
t 136 454 140 137
t 432 136 137 454
t 400 140 483 136
t 682 684 139 452
t 400 684 136 483
t 400 140 136 454
t 400 136 451 454
t 338 455 359 137
t 336 338 140 458
t 336 140 325 458
t 454 140 338 461
t 160 549 581 1
t 160 1 581 189
t 160 1 189 148
t 164 2 90 377
t 164 201 90 2
t 167 3 539 102
t 128 170 342 4
t 129 4 341 182
t 369 174 4 652
t 170 369 174 4
t 170 128 236 4
t 170 469 431 644
t 236 369 170 4
t 182 236 129 4
t 182 369 236 4
t 235 691 350 5
t 187 160 188 471
t 187 370 188 5
t 171 170 431 644
t 171 370 235 5
t 657 609 473 190
t 691 5 235 370
t 194 164 195 36
t 194 164 479 195
t 194 195 6 36
t 194 478 195 479
t 198 478 6 194
t 198 6 478 200
t 198 480 200 478
t 173 6 270 200
t 270 200 6 357
t 211 588 356 7
t 212 486 243 481
t 243 611 202 481
t 415 8 332 205
t 213 9 312 224
t 213 9 683 312
t 228 227 224 492
t 228 227 9 224
t 227 574 492 228
t 234 676 204 10
t 395 10 234 241
t 241 495 282 234
t 203 311 81 11
t 203 247 11 456
t 247 499 11 456
t 262 290 260 130
t 165 126 346 12
t 269 267 500 501
t 165 267 12 269
t 647 295 427 589
t 165 126 12 43
t 26 82 345 13
t 26 315 82 13
t 315 13 207 82
t 272 13 207 315
t 291 13 315 520
t 288 289 512 287
t 289 287 14 78
t 287 288 14 290
t 287 288 290 512
t 288 512 514 290
t 288 290 514 453
t 262 290 14 260
t 130 260 314 290
t 283 314 206 14
t 388 453 613 314
t 340 313 100 15
t 240 337 16 303
t 306 524 94 305
t 306 94 16 305
t 303 16 355 305
t 303 16 240 355
t 305 306 524 526
t 690 17 238 354
t 317 651 476 530
t 690 320 17 651
t 310 319 354 17
t 250 664 133 653
t 250 664 17 133
t 322 19 559 233
t 659 660 405 543
t 166 510 33 57
t 166 510 32 33
t 368 51 35 153
t 368 35 32 153
t 368 51 153 462
t 380 549 34 160
t 380 246 179 34
t 442 246 464 37
t 377 164 2 552
t 180 377 164 36
t 379 377 552 164
t 379 151 377 378
t 379 465 151 378
t 465 378 379 37
t 381 554 468 469
t 468 554 381 475
t 219 474 383 192
t 611 561 567 625
t 611 561 486 567
t 374 486 623 567
t 561 625 611 385
t 670 566 385 389
t 481 385 611 202
t 481 611 561 486
t 481 611 385 561
t 554 386 568 669
t 557 620 184 555
t 557 384 184 627
t 192 44 383 219
t 383 625 686 571
t 385 481 561 566
t 566 567 561 625
t 566 561 385 625
t 386 554 568 86
t 571 686 496 625
t 571 496 230 625
t 389 670 95 258
t 231 196 44 389
t 40 258 389 95
t 228 689 227 574
t 155 396 397 410
t 155 70 62 398
t 404 406 67 71
t 404 406 577 67
t 402 327 575 401
t 582 406 577 404
t 408 69 75 326
t 416 401 586 402
t 416 586 417 402
t 422 406 71 672
t 406 672 422 587
t 406 582 587 422
t 289 417 78 416
t 289 586 417 416
t 410 436 77 585
t 417 78 287 289
t 417 287 586 289
t 681 614 294 434
t 294 563 434 594
t 294 517 563 73
t 681 294 563 434
t 52 633 427 647
t 364 112 437 597
t 459 112 106 281
t 448 427 52 438
t 589 647 448 427
t 614 281 125 313
t 448 427 636 589
t 681 522 537 434
t 517 522 595 537
t 434 563 681 522
t 199 53 259 304
t 616 633 427 52
t 598 646 540 437
t 54 99 210 313
t 437 617 504 529
t 448 427 438 636
t 562 637 643 595
t 562 643 434 439
t 562 643 637 434
t 562 594 439 434
t 562 439 594 536
t 259 25 304 403
t 597 113 112 437
t 529 304 597 113
t 599 636 438 641
t 541 595 562 643
t 541 562 439 643
t 98 331 18 83
t 439 536 562 541
t 440 131 132 443
t 445 444 131 135
t 132 604 441 440
t 443 544 604 440
t 133 432 137 593
t 655 452 139 135
t 445 452 135 451
t 444 135 445 605
t 444 445 545 605
t 455 359 137 606
t 461 457 140 458
t 461 458 140 338
t 461 458 362 607
t 325 140 457 458
t 325 457 608 458
t 607 458 457 461
t 607 458 608 457
t 236 128 703 4
t 235 583 190 475
t 357 198 200 6
t 357 270 122 6
t 356 7 242 211
t 356 484 588 249
t 243 7 121 242
t 243 7 242 356
t 293 92 268 373
t 120 204 676 10
t 311 247 11 203
t 311 247 119 11
t 505 496 247 498
t 81 311 119 11
t 43 165 267 12
t 206 260 115 14
t 206 14 314 260
t 355 305 16 94
t 240 16 239 355
t 476 354 654 319
t 354 17 651 690
t 101 97 233 19
t 101 559 19 233
t 469 620 381 554
t 469 668 620 554
t 469 668 555 620
t 669 554 620 668
t 555 618 557 668
t 41 610 384 184
t 625 567 611 686
t 383 44 192 611
t 44 611 41 192
t 383 385 611 625
t 669 554 386 620
t 669 620 557 668
t 554 381 386 620
t 669 386 627 620
t 184 620 134 381
t 184 620 627 134
t 477 192 219 556
t 665 480 622 360
t 670 665 622 565
t 669 666 386 568
t 381 386 86 554
t 95 258 296 494
t 670 677 389 624
t 625 230 612 496
t 625 612 569 496
t 625 686 496 569
t 570 666 626 487
t 280 491 490 489
t 569 497 629 498
t 569 505 497 498
t 569 505 498 496
t 553 509 661 297
t 266 658 590 502
t 634 599 636 589
t 594 636 434 294
t 636 106 112 294
t 294 295 636 106
t 45 597 511 504
t 504 437 597 364
t 363 112 434 437
t 363 437 637 646
t 517 537 595 513
t 434 637 363 437
t 692 615 591 523
t 476 617 529 428
t 667 428 528 476
t 594 636 439 434
t 438 112 113 439
t 112 434 439 636
t 438 112 636 427
t 646 437 643 540
t 642 595 643 637
t 646 637 643 437
t 437 439 113 112
t 434 437 643 637
t 25 259 304 199
t 199 633 304 616
t 667 529 597 428
t 403 304 597 529
t 597 529 437 504
t 428 529 504 617
t 636 439 641 594
t 438 641 636 439
t 232 98 18 83
t 641 594 439 536
