v 0 -0.04 -0.04
v 0 -0.04 0.04
v 0 0.04 -0.04
v 0 0.04 0.04
v 0.05 -0.02 -0.02
v 0.05 -0.02 0.02
v 0.05 0.02 -0.02
v 0.05 0.02 0.02
v 0.35 -0.02 -0.02
v 0.35 -0.02 0.02
v 0.35 0.02 -0.02
v 0.35 0.02 0.02
v 0.45 -0.02 -0.02
v 0.45 -0.02 0.02
v 0.45 0.02 -0.02
v 0.45 0.02 0.02
v 0.75 -0.02 -0.02
v 0.75 -0.02 0.02
v 0.75 0.02 -0.02
v 0.75 0.02 0.02
v 0.8 -0.04 -0.04
v 0.8 -0.04 0.04
v 0.8 0.04 -0.04
v 0.8 0.04 0.04
v 0.34800429197204 0.04 0.0051044013857492
v 0.538267185638084 -0.04 -0.00628017380349602
v 0.0275644540204739 -0.04 -0.00602922993612952
v 0.327698500464839 0.04 -0.04
v 0.327698500464839 0.04 0.04
v 0.377692836674394 -0.04 0.0153234742125116
v 0.647012771425362 -0.04 -0.00160979699511053
v 0.762309301046383 0.04 0.00812157111790324
v 0.618150931107414 -0.04 -0.00686133708634633
v 0.57566358222465 -0.04 -0.00648904937478544
v 0.532767031630349 -0.00258092127398268 0.04
v 0 -0.00602971330264291 -0.00650083401389492
v 0.0433816597844361 0.04 0.0111408359414935
v 0.0650020314747169 -0.04 0.0114288291508711
v 0.0292137465104328 0.00525007501423477 0.04
v 0.0692778804102904 0.000668830671653975 -0.04
v 0.0874313881673616 0.0119157091758188 0.04
v 0.0658138600912462 -0.0173140251111665 0.04
v 0.3447614526971 -0.04 0.00594627940964492
v 0.401342452437799 -0.04 -0.0060944675222517
v 0.353299385121143 -0.0133772663138155 -0.04
v 0.0423075149350766 -0.04 0.04
v 0.0423075149350766 0.04 -0.04
v 0.359057575325352 0.0173866811795936 -0.04
v 0.397534396185134 -0.0120150387266978 -0.04
v 0.477268951040217 0.04 0.04
v 0.341114997277756 -0.04 -0.0203673589844358
v 0.306866359403638 -0.0135595635250213 -0.04
v 0.334443088146356 0.00446423891047137 0.04
v 0.398964309466697 -0.00259417997260411 0.04
v 0.460194310102182 -0.018567143247533 -0.04
v 0.0497245890995181 -0.04 -0.022826355723603
v 0.0286697494884378 0.0247661855292541 0.04
v 0.330304906535651 0.04 -0.0200686819938252
v 0.4 0.02 -0.04
v 0.4 0.04 -0.02
v 0.028175119955328 -0.0122749188290551 -0.04
v 0.435227468784015 -0.04 -0.00538141382913375
v 0.430751841966013 -0.0106411034357241 -0.04
v 0.457340693455403 0.0153445549182456 -0.04
v 0.48191118170598 0.00761946163795166 0.04
v 0 0.04 0
v 0.465948703307664 -0.04 0.0101054184914332
v 0 0 0.04
v 0 -0.04 0
v 0 0 -0.04
v 0.8 0.04 0
v 0.8 -0.00205978452306069 0.0398588073854491
v 0.8 0 -0.04
v 0.433826932760472 0.04 -0.0118747208623518
v 0.8 -0.04 0
v 0.47840978044748 0.04 -0.00322254943512515
v 0.766012868967562 0.04 -0.0207691513628482
v 0.710023932094199 -0.04 -0.0205033241753344
v 0.738887374806663 -0.04 0.0160976753965265
v 0.759570975178188 -0.0073621805684271 -0.04
v 0.371458091278309 0.00806781051205444 0.04
v 0.762574152315234 -0.04 0.04
v 0.686678096419744 0.00018765697681734 0.02
v 0.8 0.0058870792406134 0.00686565930583005
v 0.765162160239459 -0.00843765953537256 0.04
v 0.731254230194835 0.00235775290184771 0.04
v 0.365153921463353 0.04 -0.01506279603297
v 0.729092727903316 0.04 -0.00917987096726927
v 0.0237182294956029 0.04 -0.0140053705103178
v 0.766571051516854 -0.04 -0.0129378929425251
v 0.773819920074216 0.0176415803184173 -0.04
v 0.139165352676239 -0.02 0.00294029793636039
v 0.8 0.0244689053879311 -0.0155310946120689
v 0.159782898316301 -0.02 0.02
v 0.177120487662954 -0.02 0.0027927100739658
v 0.179800990123276 -0.02 0.02
v 0.189760485080173 -0.02 0.02
v 0.198943353381205 -0.0025659226229995 0.02
v 0.209778576887148 -0.02 0.02
v 0.229796668694123 -0.02 0.02
v 0.234168814222681 -0.00224803266871069 0.02
v 0.249814760501098 -0.02 0.02
v 0.266437094698525 -0.02 0.0016508193688473
v 0.27989144915815 -0.02 0.02
v 0.540126642648824 -0.02 0.02
v 0.584250233220719 -0.02 0.00228440332531514
v 0.580162826262774 -0.02 0.02
v 0.620199009876724 -0.02 0.02
v 0.650176596640596 -0.02 0.02
v 0.664360032890114 -0.02 0.00260589122106275
v 0.666175393528883 -0.02 0.02
v 0.680253285297649 -0.02 0.02
v 0.105352820531498 -0.04 -0.04
v 0.314945724579075 -0.02 -0.02
v 0.485054275420925 0.02 0.02
v 0.0847007127370744 -0.02 0.02
v 0.119059538193228 -0.04 0.04
v 0.715126642648824 -0.02 -0.02
v 0.0848733573511755 0.02 0.02
v 0.0854288225410146 -0.04 0.04
v 0.205680819743613 -0.04 -0.00286207334423583
v 0.0846150298701532 0.04 -0.04
v 0.0567435969668765 0.04 0.04
v 0.0846150298701532 0.04 0.04
v 0.119828730742058 -0.025820773131679 -0.04
v 0.119059538193228 0.04 0.04
v 0.175554988225668 -0.04 -0.00398863394912299
v 0.315119264849136 -0.02 0.02
v 0.280582190642287 -0.04 0.04
v 0.286269970731962 0.04 0.0226805130314738
v 0.315260940419403 0.0209047861805053 -0.04
v 0.280582190642287 0.04 -0.04
v 0.315205392226711 -0.04 -0.04
v 0.280582190642287 -0.04 -0.04
v 0.276028230509826 0.0128756029166094 -0.04
v 0.374814810287391 -0.04 -0.04
v 0.325140295236825 -0.04 0.04
v 0.374632201462398 0.04 -0.04
v 0.374814810287391 0.04 0.04
v 0.510733507332102 -0.0398327555023243 -0.04
v 0.435120092722722 -0.04 -0.04
v 0.480398941787792 -0.04 -0.04
v 0.484880735150864 -0.02 0.02
v 0.519417809357713 -0.04 0.04
v 0.454989898742949 -0.04 0.04
v 0.486305333514068 -0.04 0.04
v 0.496686538203317 -0.00640281997911735 -0.04
v 0.519417809357713 0.04 -0.04
v 0.42894337639358 0.04 -0.0399678240744975
v 0.454989898742949 0.04 -0.04
v 0.443323651641547 0.04 0.04
v 0.519417809357713 0.04 0.04
v 0.696516091673236 0.04 -0.00186877056207775
v 0.417560046361361 0.04 0.01
v 0.715299287262926 -0.02 0.02
v 0.715470230903386 0.02 -0.04
v 0.680940461806772 0.04 -0.04
v 0.70857446044918 -0.04 -0.04
v 0.70966496928264 -0.0177176490402456 -0.04
v 0.684890266923036 -0.04 -0.04
v 0.676215769166984 -0.021043422327025 -0.04
v 0.735254776150074 -0.04 -0.04
v 0.680940461806772 0.04 0.04
v 0.722973894742487 -0.04 0.04
v 0 0.0184373011361972 0.0129842177063544
v 0.735254776150074 0.04 -0.04
v 0.378801698780452 0.04 0.00631043436878601
v 0.713227081820033 0.04 0.04
v 0.744849224432931 0.0396575238974303 0.04
v 0.115774939323352 0.00717749168929759 0.04
v 0.140138486636766 -0.0260835007777451 0.04
v 0.113097918968145 0.04 0.0013116783594177
v 0.14953643732326 -0.04 -0.00270900530132987
v 0.139764806509326 -0.04 0.04
v 0.162428541341517 -0.000861214772975499 0.04
v 0.162159464825701 -0.0236338176575942 0.04
v 0.159683796423121 -0.04 0.04
v 0.147245677202417 0.04 0.0180072290571393
v 0.120548597942465 -0.04 0.00777669055843916
v 0.444078541132847 0.00199233366784168 0.04
v 0.183755198144803 -0.0196792522248349 -0.04
v 0.169841495166379 0.04 6.93889390390723e-18
v 0.193303585272363 -0.04 0.0194057162538874
v 0.179800990123276 -0.04 0.04
v 0.179800990123276 0.04 0.04
v 0.198602001157951 0.00494248174508811 0.04
v 0.19971998003707 -0.04 0.04
v 0.189313653967627 -0.0159499152265586 0.04
v 0.202616604750651 -0.00672171542105683 -0.04
v 0.183574523446844 0.04 0.0159733553163978
v 0.201281833590823 -0.0271811243612699 -0.04
v 0.0694565259476055 0.04 -0.00912694156952046
v 0.21274785888066 -0.0192680753393707 0.04
v 0.229073702288453 -0.0197839457137571 -0.04
v 0.227860749861103 -0.04 0.00784382795196359
v 0.219837173737226 0.04 0.04
v 0.235798722237325 0.00863463574736066 0.04
v 0.23975616365102 -0.04 0.04
v 0.245951778572256 0.000104302400820266 -0.04
v 0.221436928733267 0.04 0.0246178700984654
v 0.239899204449395 0.04 0.04
v 0.269847689277936 -0.0198971145497449 -0.04
v 0.259873357351176 -0.04 0.04
v 0.259873357351176 0.04 0.04
v 0.27989144915815 -0.02 0.04
v 0.257871996451272 0.04 0.014961454960087
v 0.52699056005776 -0.025950800309173 -0.04
v 0.551096153412945 -0.0212430441738868 -0.04
v 0.540126642648824 -0.04 0.04
v 0.559618684649493 0.00293863884193032 0.04
v 0.55506588508417 -0.02 0.04
v 0.542999345504703 0.04 0.0264229256324995
v 0.560144734455799 0.04 0.04
v 0.58121757290641 0.04 -0.00981716615324927
v 0.577750079490622 0.04 0.024763385035788
v 0.593628807421758 -0.04 -0.00652975888927967
v 0.600773602406304 -0.04 0.0203877925652484
v 0.580162826262774 -0.04 0.04
v 0.604742410662591 -0.000946180878928428 0.04
v 0.595785596791449 -0.00893743986875831 -0.04
v 0.597844765592676 0.04 0.0174212235856694
v 0.600180918069749 0.04 0.04
v 0.609726231975753 0.04 -0.0165534782691246
v 0.620199009876724 -0.04 0.04
v 0.645725336210437 -0.000171959095152781 0.04
v 0.646667120451102 -0.0240852039595707 0.04
v 0.640117999790519 -0.04 0.04
v 0.634197578766636 -0.0100986031900963 -0.04
v 0.629771582912334 0.04 0.0177255652506563
v 0.659360357223879 -0.0262214593925273 0.04
v 0.640217101683699 0.04 0.04
v 0.649736814800671 0.04 -0.0174624253746118
v 0.672094340811312 -0.04 -0.0198255859680863
v 0.690219844108956 -0.0202354232542172 0.04
v 0.680154183404469 -0.04 0.04
v 0.664424101934694 0.04 0.0158831591967653
v 0.0847007127370744 -0.02 -0.02
v 0.100071466030342 -0.010641024978542 0.04
v 0.0847007127370744 0.02 -0.02
v 0.119746714702351 -0.02 -0.02
v 0.119746714702351 0.02 0.02
v 0.302004691562042 -0.00291063434181616 0.04
v 0.28006660974827 0.0399492570016742 0.04
v 0.315119264849136 0.02 -0.02
v 0.27989144915815 -0.02 -0.02
v 0.278912329709742 0.02 0.02
v 0.508877983442942 -0.0214096838859182 0.04
v 0.0330260266641104 0.04 0.04
v 0.506840498698853 -0.02 -0.02
v 0.484880735150864 0.02 -0.02
v 0.52821704566374 -0.0262449865862004 0.04
v 0.520108550841849 0.02 0.02
v 0.703655905739859 0.02 0.02
v 0.715299287262926 0.02 -0.02
v 0.680253285297649 -0.02 -0.02
v 0.683713921537468 0.0121133249495177 -0.04
v 0.139665704616146 -0.04 -0.04
v 0.139196419452717 0.02 0.000144501482348996
v 0.14222205046721 0.0131318052452438 -0.04
v 0.159683796423121 -0.04 -0.04
v 0.159065692230716 -0.04 0.0214542335122415
v 0.159782898316301 6.93889390390723e-18 -0.02
v 0.179701888230095 -0.04 -0.04
v 0.173477477738844 -0.04 0.0258827189278824
v 0.174793496149491 0.015415784339702 -0.04
v 0.175632473980499 0.02 -0.00109145595611632
v 0.19971998003707 -0.04 -0.04
v 0.169841495166379 0.02 0.02
v 0.199819081930251 0.02 0.02
v 0.199819081930251 -0.02 -0.02
v 0.1956360497328 -0.00157128631363231 -0.02
v 0.209778576887148 -0.02 -0.02
v 0.219738071844045 -0.04 -0.04
v 0.212642432233703 0.0164181999703294 -0.04
v 0.21544115619511 0.02 0.00140753330195401
v 0.23975616365102 -0.04 -0.04
v 0.217695161317349 0.02 0.02
v 0.239855265544201 0.02 0.02
v 0.237175857760077 -0.02 -0.02
v 0.239386929995608 0.00147040121309813 -0.02
v 0.259774255457995 -0.04 -0.04
v 0.257763337306092 -0.04 0.0156892359924138
v 0.255008693488699 0.02 -0.00208941137530248
v 0.259873357351176 0.02 0.02
v 0.275907167910319 -0.04 0.0169765589799144
v 0.536940403023727 0.0132118810550541 -0.04
v 0.540126642648824 -0.04 -0.04
v 0.5667925751194 0.0151385362438466 -0.04
v 0.560144734455799 0.02 0.02
v 0.570104229412697 -0.02 -0.02
v 0.580162826262774 -0.04 -0.04
v 0.580162826262774 0.02 0.02
v 0.585900074763229 0.0128422365030934 0.04
v 0.601195074315888 0.0160586608132426 -0.04
v 0.640117999790519 -0.04 -0.04
v 0.640217101683699 0.02 0.02
v 0.640217101683699 -0.02 -0.02
v 0.666137386685255 0.0146210550200471 0.04
v 0.670969517563368 0.02 0.02
v 0.119746714702351 -0.02 0.02
v 0.119746714702351 0.02 -0.02
v 0.119746714702351 0.04 -0.04
v 0.520108550841849 0.02 -0.02
v 0.677149738876855 -0.04 0.0205866453699007
v 0.149724301466223 -0.02 -0.02
v 0.139764806509326 0.02 -0.02
v 0.370020968013412 -0.04 -0.0133443165784539
v 0.159782898316301 0.04 -0.04
v 0.179800990123276 -0.02 -0.02
v 0.169841495166379 0.02 -0.02
v 0.179800990123276 0.02 -0.02
v 0.197129387802335 0.04 -0.04
v 0.209877678780328 0.02 -0.02
v 0.219837173737226 0.02 -0.02
v 0.239855265544201 0.02 -0.02
v 0.219936275630406 0.04 -0.04
v 0.259873357351176 -0.02 -0.02
v 0.259873357351176 0.04 -0.04
v 0.268362134294415 0.02 -0.02
v 0.536506830520525 -0.04 0.027439652393008
v 0.540126642648824 -0.02 -0.02
v 0.554379937187474 -0.04 0.0166535895292027
v 0.550185239498902 0.02 -0.02
v 0.560144734455799 0.04 -0.04
v 0.576324099597923 -0.04 0.0156195573413771
v 0.590122321219672 -0.02 -0.02
v 0.580162826262774 0.02 -0.02
v 0.600180918069749 0.04 -0.04
v 0.620199009876724 -0.02 -0.02
v 0.610239514919827 0.02 -0.02
v 0.630257606726802 0.02 -0.02
v 0.640217101683699 0.04 -0.04
v 0.657975753464346 -0.04 0.0229062191048507
v 0.660235193490674 0.02 -0.02
v 0.0352548453815233 -0.04 0.0199065630636219
v 0.030006084087715 0.0199209276489359 -0.04
v 0.767627388075037 -0.04 -0.04
v 0.764714433270415 0.04 -0.04
v 0.487203854050331 0.04 -0.04
v 0.0781630507392146 -0.04 -0.04
v 0.0919474088396756 -0.04 -0.0164262781094228
v 0.0316333376563874 -0.0213066641977904 0.04
v 0.310632352141353 -0.04 -0.0072394582051862
v 0.301982329491046 0.04 -0.00426483436182684
v 0.696397821791241 -0.04 0.0169870666872694
v 0.406162620405944 0.04 0.04
v 0.404967451505057 -0.04 -0.04
v 0.150544427615127 -0.0249417051417346 -0.04
v 0.161036400979904 -0.04 -0.0223292292093931
v 0.159782898316301 0.02 -0.00536228022449321
v 0.196927649190645 -0.02 -0.00259497919333411
v 0.195791299623563 0.02 0.000663529675808497
v 0.211727104620394 -0.02 0.00152651189845062
v 0.212694507391896 0.00229475199593857 0.02
v 0.238163840077868 -0.04 -0.0184975158751028
v 0.271151443388501 -0.04 -0.00798109773376402
v 0.624482256936794 -0.04 0.0226043530503364
v 0.667527326472867 0.000571856105465059 0.02
v 0.27448825353435 0.04 -0.00272026168207424
v 0.514013800993456 -0.04 0.0042142130090071
v 0.522700367605185 0.04 -0.00529219053689511
v 0.150509626109383 0.04 -0.0188521787578055
v 0.174795156793935 0.00247458793243587 -0.02
v 0.173774728119701 0.04 -0.0225228169162467
v 0.199369719100878 -0.04 -0.0249439269924086
v 0.197349288190376 0.04 -0.0229845839809049
v 0.217956084670759 -0.04 -0.0189577627829067
v 0.216614198112954 0.00147403531272863 -0.02
v 0.239020232180631 0.04 -0.00564559864601034
v 0.600169653639315 2.26204852419623e-05 -0.02
v 0.0229371683672619 0.04 0.0257125930401529
v 0.70320516778929 0.0116777221922792 0.04
v 0.552052565168792 0.04 -0.00973413011030752
v 0.352635244608299 -0.04 0.04
v 0.407625143351248 -0.04 0.04
v 0.0309900105533434 -0.04 -0.04
f 27 69 1
f 376 27 1
f 69 36 1
f 36 70 1
f 70 61 1
f 61 376 1
f 27 2 69
f 27 335 2
f 39 68 2
f 342 39 2
f 335 46 2
f 46 342 2
f 2 68 69
f 89 47 3
f 3 47 336
f 70 66 3
f 66 89 3
f 3 336 70
f 57 4 39
f 39 4 68
f 248 4 57
f 165 4 66
f 4 371 66
f 68 4 165
f 248 371 4
f 5 8 6
f 6 237 5
f 5 7 8
f 7 5 237
f 6 8 116
f 237 6 116
f 8 7 239
f 7 237 239
f 116 8 119
f 8 239 119
f 9 10 12
f 10 9 128
f 11 9 12
f 9 11 244
f 9 114 128
f 114 9 244
f 12 10 128
f 11 12 244
f 12 128 246
f 244 12 246
f 14 13 16
f 13 14 143
f 13 15 16
f 15 13 250
f 13 143 249
f 250 13 249
f 14 16 143
f 16 15 250
f 143 16 115
f 250 115 16
f 19 17 18
f 17 155 18
f 17 19 254
f 155 17 118
f 17 254 118
f 18 20 19
f 18 253 20
f 253 18 155
f 19 20 253
f 253 254 19
f 73 75 21
f 21 80 73
f 75 90 21
f 21 337 80
f 21 90 337
f 72 22 84
f 22 72 85
f 75 22 82
f 22 75 84
f 22 85 82
f 23 77 71
f 71 93 23
f 73 91 23
f 73 23 93
f 77 23 338
f 23 91 338
f 71 32 24
f 32 169 24
f 84 71 24
f 24 72 84
f 72 24 85
f 85 24 169
f 29 25 58
f 29 139 25
f 25 87 58
f 87 25 167
f 25 139 167
f 26 291 34
f 26 34 322
f 287 291 26
f 360 287 26
f 320 26 322
f 320 360 26
f 38 27 56
f 38 335 27
f 56 27 376
f 28 48 131
f 138 48 28
f 132 58 28
f 58 138 28
f 132 28 131
f 29 53 139
f 29 243 53
f 29 58 344
f 130 243 29
f 344 130 29
f 43 307 30
f 43 30 374
f 44 30 307
f 375 30 44
f 375 374 30
f 295 31 33
f 31 357 33
f 31 295 233
f 333 31 233
f 357 31 333
f 77 32 71
f 88 32 77
f 88 168 32
f 168 169 32
f 216 33 217
f 216 291 33
f 357 217 33
f 291 295 33
f 291 216 34
f 34 216 325
f 34 325 322
f 35 152 65
f 35 65 247
f 152 35 210
f 209 211 35
f 209 35 251
f 35 211 210
f 251 35 247
f 36 66 70
f 36 165 66
f 69 68 36
f 68 165 36
f 37 47 89
f 37 192 47
f 66 37 89
f 371 37 66
f 37 123 124
f 123 37 248
f 37 124 192
f 248 37 371
f 38 120 46
f 38 46 335
f 38 56 340
f 38 179 120
f 38 341 179
f 341 38 340
f 123 39 42
f 342 42 39
f 123 57 39
f 47 122 40
f 336 47 40
f 61 336 40
f 40 340 61
f 125 113 40
f 40 113 340
f 125 40 122
f 123 42 41
f 41 42 238
f 123 41 124
f 41 126 124
f 170 126 41
f 170 41 238
f 120 42 46
f 46 42 342
f 238 42 120
f 43 51 307
f 43 343 51
f 43 137 343
f 137 43 374
f 62 44 141
f 62 375 44
f 44 307 136
f 44 136 347
f 44 347 141
f 45 48 49
f 131 48 45
f 49 136 45
f 45 52 131
f 133 52 45
f 136 133 45
f 192 122 47
f 49 48 59
f 48 138 59
f 63 49 59
f 63 141 49
f 347 136 49
f 141 347 49
f 65 50 151
f 65 152 50
f 50 76 151
f 152 76 50
f 133 136 51
f 51 343 133
f 307 51 136
f 52 135 131
f 133 134 52
f 52 134 202
f 202 135 52
f 53 81 139
f 81 53 374
f 53 242 137
f 374 53 137
f 53 243 242
f 54 139 81
f 81 374 54
f 346 139 54
f 180 346 54
f 375 180 54
f 374 375 54
f 55 63 64
f 141 63 55
f 147 55 64
f 55 142 141
f 147 142 55
f 340 56 376
f 123 248 57
f 138 58 87
f 344 58 132
f 149 63 59
f 138 149 59
f 60 74 149
f 154 74 60
f 87 60 138
f 60 87 167
f 138 60 149
f 167 154 60
f 70 336 61
f 340 376 61
f 67 62 142
f 67 145 62
f 142 62 141
f 145 375 62
f 64 63 149
f 147 64 339
f 64 149 150
f 64 150 339
f 65 180 146
f 146 247 65
f 180 65 151
f 67 142 360
f 145 67 146
f 67 360 146
f 71 84 93
f 73 84 75
f 73 80 91
f 73 93 84
f 150 74 76
f 76 74 151
f 150 149 74
f 151 74 154
f 90 75 82
f 76 148 339
f 148 76 361
f 150 76 339
f 76 152 361
f 88 77 166
f 166 77 338
f 79 78 162
f 78 79 164
f 160 158 78
f 162 78 158
f 160 78 233
f 78 164 345
f 233 78 345
f 90 82 79
f 79 82 164
f 79 162 90
f 80 166 91
f 80 159 156
f 80 156 166
f 162 159 80
f 337 162 80
f 82 85 164
f 112 111 83
f 111 358 83
f 155 112 83
f 253 155 83
f 83 299 253
f 83 358 299
f 85 86 164
f 169 86 85
f 86 372 164
f 86 169 168
f 372 86 168
f 153 88 157
f 153 168 88
f 166 157 88
f 90 162 337
f 91 166 338
f 94 92 300
f 305 92 94
f 92 240 300
f 305 240 92
f 96 95 94
f 94 95 305
f 94 268 96
f 94 241 268
f 241 94 300
f 96 97 95
f 351 95 97
f 95 309 305
f 309 95 351
f 98 97 96
f 98 96 269
f 96 268 269
f 99 97 98
f 99 353 97
f 97 353 351
f 99 98 354
f 98 269 354
f 353 99 100
f 100 99 354
f 100 101 102
f 101 100 354
f 100 102 317
f 279 100 317
f 353 100 279
f 101 278 102
f 354 278 101
f 102 104 103
f 317 102 103
f 104 102 246
f 102 284 246
f 278 284 102
f 104 245 103
f 103 245 317
f 128 245 104
f 128 104 246
f 105 289 107
f 107 290 105
f 143 105 249
f 105 143 252
f 321 249 105
f 252 289 105
f 105 290 321
f 107 108 106
f 290 107 106
f 326 106 108
f 326 290 106
f 108 107 292
f 289 292 107
f 109 108 296
f 109 297 108
f 292 296 108
f 297 329 108
f 329 326 108
f 111 110 109
f 109 110 297
f 111 109 358
f 109 296 358
f 111 112 110
f 110 112 255
f 110 255 297
f 155 255 112
f 125 257 113
f 113 257 179
f 179 341 113
f 113 341 340
f 114 245 128
f 319 114 244
f 319 245 114
f 143 115 252
f 250 252 115
f 116 119 241
f 300 237 116
f 300 116 241
f 117 120 179
f 117 238 120
f 117 171 170
f 117 170 238
f 174 171 117
f 179 174 117
f 118 255 155
f 118 254 255
f 239 241 119
f 183 127 121
f 127 365 121
f 195 183 121
f 195 121 367
f 365 367 121
f 125 122 302
f 122 192 172
f 302 122 172
f 124 126 172
f 192 124 172
f 125 348 257
f 259 125 302
f 348 125 259
f 170 185 126
f 172 126 178
f 126 185 178
f 261 173 127
f 173 349 127
f 264 127 183
f 264 261 127
f 349 263 127
f 263 365 127
f 137 205 129
f 129 285 137
f 129 205 203
f 129 203 285
f 206 204 130
f 130 204 243
f 206 130 359
f 130 344 359
f 131 135 132
f 135 318 132
f 318 359 132
f 344 132 359
f 134 133 343
f 202 134 281
f 281 134 356
f 356 134 343
f 202 199 135
f 199 318 135
f 205 137 242
f 137 285 343
f 167 139 154
f 139 346 154
f 140 142 147
f 142 140 360
f 147 207 140
f 140 207 287
f 360 140 287
f 144 247 146
f 146 360 144
f 251 144 209
f 209 144 320
f 144 251 247
f 144 360 320
f 146 180 145
f 180 375 145
f 148 286 147
f 148 147 339
f 286 207 147
f 148 288 286
f 288 148 324
f 324 148 373
f 148 361 373
f 346 151 154
f 151 346 180
f 210 213 152
f 152 213 212
f 212 361 152
f 157 236 153
f 168 153 163
f 236 163 153
f 157 166 156
f 157 156 256
f 156 159 256
f 232 236 157
f 332 232 157
f 256 332 157
f 158 160 159
f 159 162 158
f 160 161 159
f 161 256 159
f 295 161 160
f 295 160 233
f 228 161 295
f 332 161 228
f 161 332 256
f 168 163 372
f 163 236 231
f 298 163 231
f 163 298 372
f 235 164 234
f 372 234 164
f 164 235 345
f 170 171 175
f 185 170 175
f 177 171 174
f 175 171 176
f 177 176 171
f 172 178 362
f 362 302 172
f 179 257 173
f 179 173 261
f 173 257 349
f 177 174 261
f 174 179 261
f 176 184 175
f 184 188 175
f 175 188 185
f 176 177 184
f 184 177 264
f 177 261 264
f 182 178 190
f 362 178 182
f 178 185 190
f 191 181 189
f 265 189 181
f 181 191 267
f 267 263 181
f 348 181 263
f 265 181 348
f 182 190 366
f 362 182 364
f 366 364 182
f 184 183 187
f 184 264 183
f 195 187 183
f 184 187 188
f 185 188 186
f 196 185 186
f 190 185 200
f 200 185 196
f 193 186 188
f 193 197 186
f 197 196 186
f 193 188 187
f 193 187 198
f 198 187 195
f 189 194 191
f 274 194 189
f 265 274 189
f 190 200 366
f 191 194 273
f 191 273 267
f 198 197 193
f 194 274 199
f 194 199 281
f 194 276 273
f 194 281 276
f 282 198 195
f 282 195 356
f 195 355 356
f 355 195 367
f 201 196 197
f 200 196 201
f 198 203 197
f 204 201 197
f 197 203 204
f 198 282 203
f 202 281 199
f 274 316 199
f 318 199 316
f 200 201 206
f 369 200 206
f 366 200 316
f 200 369 316
f 201 204 206
f 203 205 204
f 203 282 285
f 243 204 205
f 242 243 205
f 318 206 359
f 369 206 318
f 208 207 286
f 207 208 287
f 208 286 288
f 287 208 291
f 288 291 208
f 211 209 218
f 218 209 325
f 209 320 322
f 325 209 322
f 211 218 210
f 293 213 210
f 218 293 210
f 212 213 215
f 212 215 373
f 361 212 373
f 213 222 215
f 293 222 213
f 215 221 214
f 215 214 373
f 221 223 214
f 223 328 214
f 324 214 328
f 214 324 373
f 215 222 221
f 325 216 217
f 224 218 217
f 218 325 217
f 217 357 224
f 224 219 218
f 218 219 293
f 222 219 225
f 222 293 219
f 224 226 219
f 219 226 225
f 220 228 291
f 220 294 228
f 220 291 288
f 288 294 220
f 221 222 229
f 223 221 229
f 225 231 222
f 222 231 229
f 229 232 223
f 332 223 232
f 332 328 223
f 227 226 224
f 227 224 357
f 226 230 225
f 225 230 298
f 231 225 298
f 227 230 226
f 227 235 230
f 235 227 333
f 227 357 333
f 228 295 291
f 294 332 228
f 231 236 229
f 232 229 236
f 234 230 235
f 298 230 234
f 233 304 333
f 304 233 345
f 372 298 234
f 304 235 333
f 235 304 345
f 239 237 240
f 240 237 300
f 301 239 240
f 301 241 239
f 301 240 306
f 305 306 240
f 268 241 258
f 258 241 301
f 244 246 319
f 245 319 317
f 246 284 319
f 250 249 303
f 303 249 321
f 303 252 250
f 289 252 323
f 252 303 323
f 254 253 334
f 253 299 334
f 255 254 334
f 334 297 255
f 260 257 348
f 257 260 349
f 350 268 258
f 301 306 258
f 306 350 258
f 259 308 265
f 259 265 348
f 302 308 259
f 348 263 260
f 260 263 349
f 306 305 262
f 305 309 262
f 306 262 310
f 309 363 262
f 363 310 262
f 263 267 365
f 265 312 274
f 308 312 265
f 266 268 350
f 352 268 266
f 266 310 311
f 310 266 350
f 311 352 266
f 267 273 365
f 352 269 268
f 277 269 275
f 275 269 352
f 269 277 354
f 272 271 270
f 270 271 309
f 270 351 272
f 270 309 351
f 368 271 272
f 309 271 363
f 311 271 313
f 271 311 363
f 313 271 368
f 279 280 272
f 272 353 279
f 272 280 368
f 353 272 351
f 273 276 355
f 367 273 355
f 273 367 365
f 312 316 274
f 278 277 275
f 278 275 314
f 275 313 314
f 313 275 352
f 355 276 281
f 277 278 354
f 284 278 283
f 283 278 315
f 315 278 314
f 317 280 279
f 314 280 315
f 280 314 368
f 315 280 317
f 356 355 281
f 282 356 285
f 284 283 319
f 319 283 315
f 343 285 356
f 288 324 294
f 292 289 327
f 289 323 327
f 323 321 290
f 323 290 327
f 326 370 290
f 370 327 290
f 331 296 292
f 330 292 327
f 292 330 331
f 324 328 294
f 328 332 294
f 299 296 334
f 358 296 299
f 331 334 296
f 329 297 331
f 331 297 334
f 362 308 302
f 323 303 321
f 306 310 350
f 312 308 366
f 308 362 364
f 308 364 366
f 311 310 363
f 352 311 313
f 312 366 316
f 368 314 313
f 317 319 315
f 316 369 318
f 326 329 370
f 327 370 330
f 370 329 331
f 330 370 331
