v -1 -1 -1
v -1 -1 1
v -1 1 -1
v -1 1 1
v 0.999999 1 1.000001
v 1 -1 -1
v 1 -1 1
v 1 1 -0.999999
v 0.751401094919515 -1 -0.878502648610197
v -0.806835630219974 0.804778790360679 -1
v 0.0838003649731718 0.00280240222980872 1.0000005014012
v -0.0918198717263558 0.223496075592805 1.00000045409029
v -0.103594676390816 -0.438029611866926 -1
v 0.999999124299453 0.751401094919515 1.00000087570055
v -0.627101441908553 -0.794702572796337 1.00000006214986
v -0.502802189839031 -0.583799974156439 1.00000014454914
v 0.335201459892687 0.421804133170512 1.00000068925159
v -0.00424450444945046 0.0975732566010792 1.000000497878
v -0.875700378063822 -0.30820191381755 1.00000012429945
v -0.359178928246711 0.311859517120496 -1
v 1 -0.814960821200622 -0.764340579477073
v 0.0571499574284483 0.107693904253927 -0.999999917578069
v -0.773573822092174 -0.209594735239952 1.00000011321315
v 1 -0.820898000214299 -0.89261586986948
v 0.765131691870556 -0.803549194733224 -1
v 0.896214164081325 -0.800786441522023 -0.999999952286139
v -0.249644468443592 -0.265503391462031 1.0000003672483
v 1 0.378502737298789 -0.627101409639294
v -0.375700367238462 -0.41900183569125 1.00000022694824
v -0.108416111576558 -0.0923219133202879 -1
v 0.215176697212828 -0.246654430996737 -1
v 0.375731654390826 -0.478113062823185 -1
v 0.671447770051573 1 -0.706921884126806
v 0.731252292730818 0.517042699827383 1.00000075852135
v 0.82564944375143 -1 -0.518965005723439
v -0.73223338769935 -1 0.321865072367664
v 0.999999253484787 0.641229260169103 0.851801986525984
v 0.999999711101956 0.825076715545212 -0.24727971520276
v -0.835201459892687 0.375700565914015 -1
v 0.610406001097477 1 -0.866524802108731
v 0.297397009136295 -1 -0.884279058504339
v 0.99999957428708 0.0136082359473561 0.837818110590249
v 0.886959012058774 -1 -0.831487129523994
v 0.820718941916031 0.411165064157458 1.00000070558253
v 0.167600729946344 0.794702457921151 1.00000058380066
v 0.999999151897808 0.869142204356077 0.827063113639154
v -1 0.583800364973172 1
v -1 0.541438683871337 0.872705543700892
v -1 0.0443095474237203 -0.433889778546787
v -0.251401094919516 0.0866028199284424 1.00000039595023
v -0.335201459892687 0.00280247590536326 1.00000035405003
v -0.00233660108545153 0.287478385015435 1.00000049883195
v -1 -0.506821257300997 0.799654752495432
v -0.832226582084212 -0.894747759827557 -1
v -1 -0.875133545638536 0.88564689984549
v -1 0.897859402739549 -0.888494014470519
v -0.838003649731719 1 -0.838003506874576
v -0.838003649731719 1 0.838004506874576
v 0.837066924685546 1 0.844922628992105
v 1 -5.55111512312578e-17 -0.164798110341639
v 0.822657528905414 -0.883897781166589 1.00000005805111
v 0.838003649731718 1 -0.838003506874576
v -1 -0.896788025028306 -0.766907725377618
v -1 -0.919001824865859 -0.58940449584548
v -1 -0.804357787115416 -0.694047676265151
v -1 -0.919001824865859 -0.421803694470565
v -1 -0.810327426782695 -0.50625294105683
v -1 -0.919001824865859 -0.254202893095649
v -1 -0.810139770859566 -0.337910534384203
v -1 -0.919001824865859 -0.0866020917207343
v -1 -0.809771658839893 -0.169707741202183
v -1 -0.919001824865859 0.0809987096541808
v -1 -0.809175649792773 -0.00234596195641779
v -1 -0.919001824865859 0.248599511029096
v -1 -0.809608971282206 0.164832248109803
v -1 -0.917835379662375 0.437686914563208
v -1 -0.838003649731719 0.33520210274983
v -1 -0.905854931963376 0.567014383936055
v -1 -0.833540971528324 0.653667525962868
v -1 -0.791235957773184 -0.867185540695287
v -1 -0.591336398635199 -0.88303670690118
v -1 -0.670402919785375 -0.757005297220395
v -1 -0.670528562747126 -0.590098660663061
v -1 -0.674496348305359 -0.431708877304272
v 0.999999741369137 0.524854226978853 -0.00759173844881639
v -1 -0.687076641630297 -0.26773508210648
v -1 -0.680441647787649 -0.105727861695533
v -1 -0.682462076069189 0.0731211281729467
v -1 -0.670402919785375 0.248599511029096
v -1 -0.701054340755328 0.394235014401903
v -1 -0.668477357756445 0.566887215503197
v -1 -0.66346417871404 0.747272141564498
v -1 -0.670402919785375 0.919002716528757
v -1 -0.419125899996912 -0.876476966432138
v -1 -0.495597663764587 -0.741168918240361
v -1 -0.502802189839031 -0.58940449584548
v -1 -0.502802189839031 -0.421803694470565
v -1 -0.505054535299386 -0.248513620748981
v -1 -0.483756029624151 -0.0847910164348936
v -1 -0.515788467769778 0.081830637731322
v -1 -0.505736231140223 0.240424267302527
v -1 -0.518006859221599 0.410696092867449
v -1 -0.42180401470489 0.502802904124745
v -1 -0.516597946875616 0.630218225944065
v -1 -0.42180401470489 0.919002716528757
v -1 -0.246553799233785 -0.875552384966744
v -1 -0.328186463516062 -0.73913851115811
v -1 -0.335201459892688 -0.58940449584548
v -1 -0.339702096336632 -0.41251570162002
v -1 -0.335201459892688 -0.0866020917207343
v -1 -0.335201459892688 0.0809987096541808
v -1 -0.327719647117192 0.242755332705809
v -1 -0.335201459892688 0.416200312404011
v -1 -0.335201459892688 0.583801113778926
v 0.00931904242877291 -0.526759698247497 -1
v -0.167600729946344 -0.338003612823203 -1
v -1 -0.342340086697108 0.766648166347273
v -1 -0.085559540613806 -0.876386273973035
v -1 -0.16110454906446 -0.741423824990381
v -1 -0.157934477147876 -0.591683620807564
v -1 -0.160017608855454 -0.427266095733843
v -1 -0.155964406517083 -0.245118530874268
v -1 -0.170020918512175 -0.0953778823900049
v -1 -0.167600729946344 0.0809987096541808
v -1 -0.167600729946344 0.248599511029096
v -1 -0.155716939886579 0.436486903761911
v -1 -0.167600729946344 0.583801113778926
v -1 -0.167600729946344 0.751401915153841
v -1 0.0702153440514264 -0.885699028864143
v -1 0.00504430604909145 -0.742257462117023
v -1 -1.66533453693773e-16 -0.58940449584548
v -1 -1.66533453693773e-16 -0.254202893095649
v -1 0.017419682253339 -0.101254254839245
v -1 -1.66533453693773e-16 0.0809987096541808
v -1 0.0097819148975784 0.271653480099081
v -1 -1.66533453693773e-16 0.416200312404011
v -1 0.00905635443742581 0.589392023266706
v -1 -1.66533453693773e-16 0.751401915153841
v 0.424059452052918 -0.620593489225601 -1
v 0.624053066507231 0.411295174494506 1.00000070564759
v -1 0.167600729946344 -0.757005297220395
v -1 0.181886886124695 -0.589076552622637
v -1 0.167600729946344 -0.254202893095649
v 0.497759698647594 0.911447021161406 1.00000074888022
v -1 0.167600729946344 -0.0866020917207343
v -1 0.184660269514838 0.109962979871407
v -1 0.167600729946344 0.248599511029096
v 0.754203284758547 0.835201459892687 1.00000083520167
v 0.999999875091111 0.76722215743761 -0.517403496204941
v -1 0.177347744913694 0.420133899798069
v -1 0.167600729946344 0.583801113778926
v -1 0.1476070868565 0.743051169883117
v 0.898360544888313 0.852220353525885 1.00000092611018
v 1 0.489010053109615 -0.538430737378211
v 1 -0.652802202734783 -0.73907652721476
v -1 0.324044744076878 -0.788860263406305
v -1 0.320586308470775 -0.426776018129108
v -0.883878304496037 0.888888872505693 1.00000005806088
v -0.716057910777308 -1 -0.771576353280738
v -1 0.335201459892687 -0.254202893095649
v -0.378502718844531 -0.0433012589518438 -1
v -0.831374714392333 0.0444815725280265 1.00000008431268
v -1 0.34735046396732 -0.073313294719997
v -1 0.335770181608003 0.0884436711242484
v -1 0.335201459892687 0.248599511029096
v -1 0.344246193499084 0.430705423874499
v -1 0.338531090685938 0.58552301790703
v -1 0.321834728072853 0.740216932879825
v -1 0.502802189839031 -0.757005297220395
v -1 0.502802189839031 -0.58940449584548
v -1 0.502802189839031 -0.421803694470565
v -1 0.494997964127674 -0.102942048886584
v -1 0.504239286105679 0.0574815037045551
v -1 0.509956795772414 0.246506756483444
v -1 0.512451502166318 0.424900856986985
v 1 -0.196542114991785 0.067515455026339
v -1 0.507477056461689 0.595692547107996
v -1 0.502802189839031 0.751401915153841
v -0.125700547459758 0.0866027830906729 1.0000004696258
v -1 0.719923360300454 -0.81078155651306
v -1 0.712487492634941 -0.615256734920683
v -0.887985147079498 -1 0.872124214916328
v -1 0.672127350398368 -0.254151652394393
v -1 0.670402919785375 -0.0866020917207343
v -1 0.673668736009061 0.0827691959493451
v 0.999999378800952 0.835606345918529 0.406792668062533
v -1 0.670402919785375 0.248599511029096
v -1 0.670402919785375 0.416200312404011
v -1 0.692519565456858 0.583350106694055
v -1 0.632442141548395 0.748724631326698
v -0.842053322323073 -1 -0.22533572915964
v -0.835201459892687 -1 -0.0433007958603672
v -0.835201459892687 0.627101660833531 -1
v -1 0.85362626111783 -0.743828924300951
v -1 0.872794373217282 -0.594108420243448
v -1 0.861599532503804 -0.430284170574367
v -1 0.838003649731718 -0.0866020917207343
v 0.830920411479126 -0.0870676015788946 1.0000004564662
v -1 0.838003649731718 0.0809987096541808
v -1 0.875647393699928 0.220354385939538
v -1 0.864501428318666 0.471626392062633
v 0.854065824112554 1 0.385257730234412
v 0.835201084192211 1 0.546104199985112
v -0.919001824865859 1 -0.502801904124746
v -0.894550528293828 1 -0.156249522195178
v -0.892326021121311 1 0.176504849696033
v -0.835201459892687 0.208099835967672 -1
v -0.892913471896249 1 0.516847599182737
v -0.844386281549018 -1 -0.663675111978111
v 0.838812612998422 0.262109113367023 1.00000063105456
v -0.83341363666263 -1 -0.424690401612245
v -0.84153478074305 -1 0.261491669501837
v -0.838003649731719 -1 0.502802904124745
v -0.907736834458516 -1 0.651804808369288
v -0.838003649731719 -0.757005437689062 -1
v -0.894913649315958 -0.579844941044019 1.0000000525432
v -0.860753874699551 -0.189585025573744 -1
v -1 0.167600729946344 -0.421803694470565
v -0.8299521080762 0.0743560161431707 -1
v -0.919001382024244 0.167600729946344 1.00000004049933
v -0.829229239963411 0.259348034860987 1.00000008538542
v -0.844533191199496 0.432618722166887 1.00000007773344
v 0.167600729946344 0.421804175070697 1.00000060545119
v 0.999999416199635 0.167600729946344 1.00000058380036
v 0.99999966760073 -0.335201459892687 1.00000033239927
v 0.999999865909425 0.0275648509534638 0.240616812876053
v 0.999999705297506 0.167600729946344 0.421804841821874
v -0.504411646134464 -0.0567784995755605 1.0000002477943
v -5.55111512312578e-17 0.589404957742487 1.00000050000025
v -0.88347121003782 1 -0.317152636614942
v -0.88055455437848 1 0.0310306376411927
v -0.883688395648583 1 0.351324314714398
v -0.838003649731719 1 0.67040370549966
v -0.764820591805231 -1 -0.906743411502437
v 0.999999698444482 0.00611558859526484 0.596995949657305
v 0.320338506252023 0.564931588410664 1.00000066016958
v 0.999999454595781 0.519618389834702 0.571190807398439
v 0.999999686490964 0.512498707420917 0.114520120567485
v 0.999999450140932 0.337869110274678 0.761849695433524
v 0.999999705297584 0.335201459892687 0.25420404044692
v -0.335201459892687 1 1.00000033239944
v -0.163944407420611 1 -0.999999581972204
v -5.55111512312578e-17 1 1.00000050000025
v -1 0.687723376140677 -0.438028202999879
v -0.788710473306713 -1 0.780421129113525
v -0.693862723059571 -0.902969142837797 -1
v -0.670402919785375 -1 -0.58940449584548
v -0.629723342438063 -1 -0.428917377078266
v -0.646498452291343 -1 -0.270435792089571
v -0.670402919785375 -1 -0.0866020917207343
v -0.745066412303656 -0.634387822298158 -1
v -0.670402919785375 -0.757005437689062 -1
v -0.749591513362243 -0.618144622409574 1.00000012520431
v 1 0.167600729946344 -0.416199312404011
v -0.778829227503878 -0.490430287671553 -1
v -0.689221800501968 -0.43793291585836 1.00000015538918
v -0.767388934741543 -0.361494819623408 -1
v -0.658108337771087 -0.446578939888993 -1
v -0.6422135489211 -0.247817106829285 -1
v -0.682127070302287 -0.0751497259719502 -1
v -0.673435449312574 -0.0545213762460208 1.00000016328236
v -1 -0.335201459892687 -0.254202893095649
v -0.65115681905944 0.0687000183170057 -1
v -0.670402919785375 0.0866029355041981 1.00000016479862
v -0.670402919785375 0.248598941989 -1
v -0.670402919785375 0.254203665450542 1.00000016479862
v -0.739216359266835 0.590915614771314 1.00000013039189
v -0.670402919785375 0.421804395396886 1.00000016479862
v -0.670402919785375 0.583800401881687 -1
v -0.751400693978075 0.751400693978075 1.00000012429971
v -0.751401094919516 1 -0.670402705499661
v -0.769404716410444 1 -0.47196657780266
v -0.740078472209588 1 -0.320160810359442
v -0.751401094919516 1 -0.167600301374915
v -0.768805590465582 1 0.0151939545170513
v -0.762262499268881 1 0.176731297861441
v -0.751401094919516 1 0.33520210274983
v -0.751401094919516 1 0.502802904124745
v -0.7471485837549 1 0.688552551878598
v -0.751401094919516 1 0.838004506874576
v -0.670402919785375 1 -0.919001716528757
v -0.660211710231366 1 -0.766298852587926
v -0.638250077030893 1 0.748504568753179
v -0.600456713898606 -1 -0.887971544508782
v -0.595551580872694 -1 0.227846945538841
v -0.602763855849804 -1 0.0609808221787973
v -0.566123645508583 -1 0.355580068112473
v -0.61255319743117 -1 0.521127045317414
v -0.61178032592091 -1 0.762115541831985
v -0.58952823651143 -0.886848217444599 -1
v -0.502802189839031 -1 -0.757005297220395
v -0.502802189839031 -1 -0.58940449584548
v -0.496973401927901 -1 -0.098287127928649
v -0.48613485637904 -1 0.0831751843225006
v -0.502802189839031 -1 0.583801113778926
v -0.593748518521442 -0.606400918828956 -1
v -0.506018480703999 -0.768963528485285 -1
v -0.502802189839031 -0.751400693978044 1.00000012429965
v -0.532755512054514 -0.43171960612235 -1
v -0.502802189839031 -0.254203247850031 -1
v -0.510293075137651 -0.258724449968078 1.00000024485358
v -0.523983444237947 -0.0989079801778523 -1
v -0.456549634208462 0.112169205751394 -1
v -0.502802189839031 0.0866028936040125 1.00000024859903
v -0.522985503893564 0.269447111205343 1.00000023850737
v 1 -0.000463413607735386 -0.277246568569953
v 0.335201459892687 0.254203434299093 1.00000062710172
v -0.502802189839031 0.416199671935343 -1
v -0.670402919785375 0.416199671935343 -1
v -1 0.503442509121346 -0.231210959011101
v -1 0.341057964669355 -0.600189743799441
v -0.502802189839031 0.4218043534967 1.00000024859903
v -0.613222352950705 0.771234504073149 -0.999999920993924
v -0.533249143958689 0.571572433943199 1.00000023337554
v -0.585364680674893 1 -0.609860397994054
v -0.583800364973172 1 -0.421803694470565
v -0.57232530109909 1 -0.133896243673089
v -0.581612691786541 1 0.162844630190001
v -0.583800364973172 1 0.416200312404011
v -0.583800364973172 1 0.583801113778926
v -0.559949241698888 0.814691155531033 1.00000022002549
v -0.502802189839031 1 0.757006297220395
v -0.419511393899485 -1 -0.881149373238063
v -0.42180401470489 -1 -0.416199312404011
v -0.42757042305154 -1 -0.263347426523433
v -0.42180401470489 -1 0.254203893095649
v -0.443241866362949 -1 0.82500418534377
v -0.335201459892688 -1 -0.670402705499661
v -0.335201459892688 -1 -0.0866020917207343
v -0.30264070841865 -1 0.0923903160255546
v -0.350001441991497 -1 0.421136304435424
v -0.335201459892688 -1 0.583801113778926
v -0.317182505906495 -0.878721087832714 1.00000006063946
v -0.335201459892688 -1 0.751401915153841
v -0.332129699924127 -0.761824806244555 -1
v -0.339350453355366 -0.708492221185855 1.00000014575389
v -0.335201459892688 -0.589404707742719 -1
v 0.463411801243915 0.407195592066341 1.0000007035978
v -0.335803098350394 -0.430367479353714 -1
v -1 -0.26204103101756 0.853937416314652
v -1 -0.835201459892687 0.737902213544811
v 0.823848125776034 -0.760358366312471 1.00000011982082
v 1 -1 -0.83520135274983
v 0.835201459892687 1 -0.99999908239927
v 1 -0.835201459892687 -0.99999991760073
v 0.835201459892687 -1 -1
v -1 0.835201459892687 -1
v -0.832128711443853 -1 1
v -0.333216427851267 -0.104935772548189 1.00000033339195
v 0.999999806206507 0.773221068415752 -0.385633195623907
v 0.835200959892687 1 1.00000091760094
v -0.350095732388496 0.251650162476764 1.0000003249523
v -0.413365836727695 0.571480632944599 -0.999999920942602
v -0.308637830050884 0.422838318010716 1.00000034568126
v -0.44701258013877 0.714461777274157 1.00000027649385
v -0.335201459892688 0.589405041542858 1.00000033239944
v -0.450387144935791 1 -0.806561027413074
v -1 -0.278307589543797 0.939375678654987
v -0.428395311605648 1 -0.586134333250698
v -0.416199635026828 1 -0.421803694470565
v -0.415654046612923 1 -0.258727612866223
v -0.416199635026828 1 -0.0866020917207343
v -0.421311743600543 1 0.0857209401313787
v -0.416199635026828 1 0.248599511029096
v -0.416199635026828 1 0.416200312404011
v -0.407310731694799 1 0.590889186174277
v -0.323691346194799 0.749795384235481 1.0000003381545
v -0.335201459892688 1 0.838004506874576
v -0.253620213700432 -1 -0.88011913547954
v -0.896311951918524 0.671618115216397 1.00000005184405
v -0.260091443577082 -1 -0.409065654261821
v -0.265910280793706 -1 -0.23522676631327
v -0.259323642148096 -1 0.261422640750878
v -0.294648192889501 -1 0.884549991911043
v -0.1176350505937 -1 -0.616735078902048
v -0.167600729946344 -1 -0.757005297220395
v -0.14396860039422 -1 0.594005622343411
v -0.254203247850031 -0.670402919785375 -1
v -0.164946890868606 -0.770491548008319 -1
v -0.248598544637893 -0.589405105093826 1.00000020529745
v -0.167600729946344 -0.751400693978044 1.00000012429965
v -0.16681210611896 -0.564153663909391 -1
v -0.167600729946344 -0.416199317885665 1.00000029190034
v -0.246141566626879 -0.161568673585534 -1
v -0.277244145426076 0.0678443692656749 -1
v -0.167600729946344 -0.080997941793286 1.00000045950103
v -0.167600729946344 0.167600729946344 -1
v -0.258954556654929 0.588760469998407 -0.999999835097043
v -0.167600729946344 0.41619960978565 -0.99999987570056
v -0.134390531017469 0.386208749697116 1.00000043280495
v -0.270058485542161 0.805147037888619 -0.999999732455724
v -0.188720407717313 0.602637296135012 1.00000040564
v -0.266284147663407 1 -0.813676390926231
v -0.271427381078443 1 -0.597463982934549
v -0.244894658575209 1 -0.420332964764896
v -0.23032112724283 1 -0.2513464708613
v -0.246233664166108 1 -0.0893161946331542
v -0.250281093833386 1 0.0806284825251037
v -0.267924856357523 1 0.249223890683978
v -0.253008651822768 1 0.416973242483837
v -0.248598905080484 1 0.583801113778926
v -0.176069818581274 0.760476382185099 1.0000004119653
v -0.167600729946344 0.919001673924219 -0.999999624299528
v -0.13038088991412 1 -0.898441958881957
v -0.19739442328003 1 0.778986418513989
v -0.0844654519779415 -1 -0.885565230257383
v -0.0979156813701432 -1 -0.4288611835388
v -0.0941626907474211 -1 -0.25271251819203
v -0.0990674221938102 -1 -0.0884436471422301
v -0.0866025548122031 -1 0.0866030917207341
v -0.0895748076349741 -1 0.251648447059827
v -0.0866025548122031 -1 0.421804694470564
v -0.0892948009456516 -1 0.804624405917651
v 0.0540196976469178 -1 -0.620443919900369
v -1.66533453693773e-16 -1 -0.757005297220395
v 0.0314225056442435 -1 0.611419227139263
v -0.084564723730931 -0.870367924265576 1.00000006481604
v 0.0101922931539451 -0.763622832907441 -1
v -1.66533453693773e-16 -0.751400693978044 1.00000012429965
v -0.0245684281975325 -0.585374503393202 1.00000020731275
v -0.887021554019245 -1 -0.828020608531583
v 0.898511554109072 -0.653216968289184 1.00000017339152
v -0.0809978782424336 -0.335201459892688 1.00000033239927
v 0.00780393411375868 -0.419823328386692 1.00000029008834
v -0.014652533128713 -0.172746401806726 1.0000004136268
v -1.66533453693773e-16 -0.254203247850031 -1
v -0.0716947401162367 0.569652974241253 -0.999999751020883
v -1.66533453693773e-16 0.421804227796143 1.00000050000025
v -0.0998745127180141 0.753615246005388 -0.999999673129633
v -0.0631240029956744 1 -0.748692560179857
v -0.0809981751341408 1 -0.58940449584548
v -0.0809981751341408 1 -0.421803694470565
v -0.060778885386308 1 -0.251574993930444
v -0.0809981751341408 1 -0.0866020917207343
v -0.083187287273521 1 0.0811724237859521
v -0.103968893556789 1 0.249725853607436
v -0.0856425727000034 1 0.41732441926126
v -0.0777340632212236 1 0.610199061168837
v 0.0264576270858151 0.751451503868882 1.00000051322907
v -1.66533453693773e-16 0.919001632024065 -0.999999540499184
v 0.0485797094332233 1 -0.88238318433163
v 0.999999826127799 0.410475907206538 -0.0627308008876113
v 0.0187905798627317 1 0.750184713902209
v 0.999999965940567 -0.0760016653704316 0.144120992517225
v 0.0889134247162022 -1 -0.892100735481712
v -0.110613053569325 0.0521985960509146 -1
v 0.0809981751341406 -1 -0.416199312404011
v 0.0724343341723757 -1 -0.256766669933247
v 0.0809981751341406 -1 -0.080997709654181
v 0.0809981751341406 -1 0.0866030917207341
v 0.0865966718944201 -1 0.252420432754362
v 0.0809981751341406 -1 0.421804694470564
v 0.217843137413719 -1 -0.603395066438603
v 0.192260465494379 -1 -0.763601032294734
v 0.167600729946344 -1 0.67040370549966
v 0.167600729946344 -1 0.838004506874576
v 0.0754863613752547 -0.64715622262516 -1
v 0.171589163993779 -0.773359216969494 -1
v 0.167600729946344 -0.670402919785375 1.00000016479854
v 0.201117838730676 -0.127948591633063 1.0000004360257
v 0.0849170899764555 -0.515992040815812 1.00000024200398
v 0.167600729946344 -0.421803977796375 -1
v 0.0968748071263116 -0.262831920386525 1.00000036858404
v 0.169360302965433 -0.402758894444974 1.00000029862055
v 0.0809981282423268 0.25420333165036 -0.99999983239927
v 0.0913568012182774 0.430180417004098 -0.999999739231391
v 0.153685466263346 0.251976509770664 1.00000057684302
v 0.0970418287870877 0.597502111569502 -0.99999965272803
v 0.0697446437404492 0.767249353076885 -0.999999581503002
v 0.143287348084251 0.598235369264096 1.00000057164396
v 0.057054774255169 1 -0.56874937982446
v 0.0602097084337991 1 -0.40826952368985
v 0.0993347841651785 1 -0.239242862641282
v 0.0866025548122029 1 -0.0866020917207343
v 0.0859822573711229 1 0.0870564407036204
v 0.061504886316569 1 0.252377695462897
v 0.0802979032882307 1 0.420233407091849
v 0.0998981190576209 1 0.589291982380509
v 0.172329599737286 0.892212302369048 -0.999999467729049
v 0.167600729946344 1 -0.919001716528757
v 0.167600729946344 1 -0.670402705499661
v 0.167600729946344 1 0.757006297220395
v 0.215914766290138 -1 -0.435752300655999
v 0.225119564469103 -1 -0.264551051873161
v 0.243465136192532 -1 -0.0870333831364202
v 0.248598905080484 -1 0.0866030917207341
v 0.251591662059403 -1 0.250109582671251
v 0.246348372605996 -1 0.439258736347922
v 0.365859680456727 -1 -0.719295938952867
v 0.378269648275875 -1 -0.497745647791848
v 0.409758564000333 -1 -0.268215212152506
v 0.309721256845106 -1 0.635363961236684
v 0.335201459892687 -1 0.838004506874576
v 0.279503900190524 -0.760876171037488 1.00000011956191
v 0.236807985021372 -0.621037543502385 -1
v 0.691118589514534 -0.671500716962729 -0.999999990191064
v 0.333162975756301 -0.757640913334728 -1
v 0.282720990358617 -0.568081410676264 1.00000021595929
v 1 0.103068567701233 -0.126692210683442
v -1 -0.794702372325617 0.500000713091469
v 0.875700547459758 -1 -0.419001503437288
v 1 -0.803726440636389 0.191665360242197
v 0.335201459892687 -0.416199317885665 1.00000029190034
v -0.713704197191476 -1 0.419002503437288
v 0.265334262514929 0.717369297568213 1.00000063266745
v -0.83520103800116 -0.713704397662197 1.00000008239952
v 0.335201459892687 -0.248598629839476 1.00000037570069
v 0.248598879839306 -1.66533453693773e-16 -0.99999987570056
v 0.335352052410977 -0.125147416489832 -0.999999894897682
v 0.323885965814122 -0.0711287879198946 1.00000046443561
v 0.245790619940586 0.231120403725236 -0.999999761544488
v 0.352421015403595 0.0947805062673865 1.00000054739025
v 0.247568617431891 0.414246317771217 -0.999999669092532
v 0.251078408424072 0.586867600278902 -0.999999581026996
v 0.245036103435382 0.77173347224439 -0.999999491615212
v 0.295019879892824 1 -0.847380358386437
v 0.276530017022845 1 -0.436269442453856
v 0.274593516236703 1 -0.258841429916597
v 0.260089775728878 1 -0.0863816845558004
v 0.253999612659233 1 0.0825382774894594
v 0.230262357167105 1 0.2532867455275
v 0.254203284758547 1 0.416200312404011
v 0.25879630226993 1 0.599459113463372
v 0.886420809552411 0.862867307203755 -0.999999125355942
v 0.34392273371827 0.847558400582267 1.0000006719617
v -0.758483180510245 -1 0.113946972768382
v 0.330323562773733 1 -0.724785671047928
v 0.358818231456953 1 -0.600411570305712
v 0.325017658616608 1 0.741954360470208
v -0.0344086698771162 0.367603549111535 -0.99999983340256
v 0.411336553880636 -1 -0.0919505338739177
v 0.416199635026828 -1 0.0866030917207341
v 0.416199635026828 -1 0.254203893095649
v 0.40651141936197 -1 0.416506746411888
v -0.794702150904809 -0.919001824865859 1.00000002024966
v 0.887396639960348 -1 0.879501719344284
v 0.502802189839031 -1 -0.757005297220395
v 0.498054066573573 -1 -0.616747657063383
v 0.515690784661297 -1 -0.397170610807028
v 0.497178703378371 -1 0.642258691823815
v 0.491412789716318 -1 0.856499431580634
v 0.443564451965665 -0.775782483898171 1.00000011210876
v 0.576133387072419 -1 -0.864716311022308
v 0.435298246538761 -1 -0.854230636795091
v 0.2378323998583 -0.886218198319668 -1
v 0.0817484317543322 -0.890115137970583 -1
v -0.87917333491627 -0.56813442538493 -1
v -0.873997708620558 -0.407119033990507 -1
v -0.0742058044615153 -0.889092511781583 -1
v 0.429253087840226 -0.864176254759649 -1
v 0.499215393975791 -0.585724616783836 1.00000020713769
v 0.445680656344513 -0.289275837792629 -0.999999921797591
v 0.586602554812203 1 0.878503566211136
v 0.0838003649731717 0.878502843844415 1.00000054190045
v -0.0838003649731719 0.878502843844415 1.00000045810005
v 0.278232431620167 1 0.879344569875435
v 0.0714978902155832 1 0.890963801944633
v -0.24136842750482 0.885938405888052 1.00000037931598
v -0.4088985683005 0.85273004095163 1.00000029555086
v 0.518234482766502 -0.389294201657728 1.0000003053529
v 0.999999267447359 0.878502915724871 0.586603304812203
v 0.999999435047966 0.251401094919516 0.878503597986446
v -0.0779286701485141 1 0.863029308397238
v 0.99999934274581 0.433600476459072 0.880908620318254
v 0.416362924740135 -0.170390330424942 1.00000041480483
v 0.999999701067781 -0.270143094830367 0.868007897250366
v 0.48855712685487 -0.240504991770042 1.0000003797475
v 0.398048906783886 -0.0231414109522301 -0.999999812546252
v 0.412846455127213 0.0948494367377697 -0.999999746152054
v 0.559055727222457 0.0477690992899561 -0.999999696587587
v 0.503815349598905 -0.106528851816707 -0.999999801356751
v -0.586602554812203 1 0.878503231009508
v 0.999999766937406 -0.412937950996979 0.879063433107851
v 0.502802189839031 -0.080997941793286 1.00000045950103
v 0.41178322707006 0.250052463929643 -0.999999669082154
v 0.518833638260749 0.0712769153988133 1.00000053563846
v 0.412751615667648 0.417405162677952 -0.999999584921611
v 0.502802189839031 0.254203434299093 1.00000062710172
v 0.415717932616977 0.58730603184526 -0.999999498488018
v 0.407606852254507 0.775511518367574 -0.999999408440815
v 0.411461019750114 0.700424501441408 1.00000070573086
v 0.535596507324101 0.572619457729913 1.00000076779864
v 0.411050904353385 1 -0.395485968617779
v 0.42180401470489 1 -0.254202893095649
v 0.412477154898107 1 -0.0966004600464938
v 0.418779376511645 1 0.0643207791591074
v 0.395437654727176 1 0.252254684552895
v 0.42180401470489 1 0.583801113778926
v 0.502802189839031 1 -0.751400915153841
v 0.565919388461109 1 -0.460434858698045
v 0.502802189839031 1 -0.583800113778926
v 0.542930337694833 1 0.212035985118291
v 0.507512924849738 1 0.435164252901973
v 0.502802189839031 1 0.589405495845479
v 0.502802189839031 1 0.757006297220395
v 0.593209889026146 -1 -0.524399682690162
v 0.568235973637027 -1 -0.281419743621394
v 0.585951527300141 -1 -0.106632916276355
v 0.583800364973172 -1 0.0866030917207341
v 0.586258743988936 -1 0.245922953576747
v 0.583800364973172 -1 0.421804694470564
v 0.606515492902991 -1 0.585593914373773
v 0.606110082926959 -1 0.737966074184251
v 0.570938229296293 -0.754941472310947 -1
v 0.670402919785375 -1 -0.421803694470565
v 0.671554006036813 -1 -0.253672943500726
v 0.577442088965401 -0.878968133474746 1.00000006051593
v 0.713514191115255 -1 0.872553646025798
v 0.670402919785375 -0.751400693978044 1.00000012429965
v 0.55706218406637 -0.529093054818825 -0.999999986015435
v 0.670402919785375 -0.421804039946069 -0.99999987570056
v 0.670402919785375 -0.416199317885665 1.00000029190034
v 0.640194780929535 -0.248651212537889 -0.999999804228216
v 0.579095669057302 -0.220672161475516 1.00000038966392
v 0.670402919785375 -0.248598629839476 1.00000037570069
v 0.653391815928731 -0.0811001612816324 -0.999999713854173
v 0.670402919785375 -0.080997941793286 1.00000045950103
v 0.583800192380864 0.254203457350854 -0.999999580998175
v 0.670402919785375 0.0866027462529035 1.00000054330137
v 0.581837797364485 0.412445710794094 -0.999999502858246
v 0.670402919785375 0.254203434299093 1.00000062710172
v 0.596169889802933 0.588514989435432 -0.99999940765756
v 0.576308709413385 0.779189060258294 -0.999999322251115
v 0.589404810391273 0.751401029179476 1.0000007947028
v 0.589404744651234 1 -0.33520110274983
v 0.576389729786347 1 -0.126457031827751
v 0.598656411807771 1 0.056218583403855
v 0.581670496591705 1 0.322242370824757
v 0.686737127397913 1 -0.585481078932221
v 0.673111189711771 1 0.218857075057173
v 0.670402919785375 1 0.421804694470564
v 0.670402919785375 1 0.589405495845479
v 0.670402919785375 1 0.757006297220395
v 0.751401094919516 -1 -0.670402705499661
v 0.751401094919516 -1 -0.33520110274983
v 0.806980285951265 -1 -0.206951438811265
v 0.783318828214131 -1 -0.0366343627352489
v 0.782578807700659 -1 0.131234538592627
v 0.784122179543348 -1 0.294814775986409
v 0.778116634841925 -1 0.461832213827617
v 0.751401094919516 -1 0.67040370549966
v 0.871793258711014 -1 0.599013295325632
v 0.881134578409468 -1 0.752754817048624
v 0.757005835040169 -0.589405105093826 1.00000020529745
v 0.842320797318754 -0.555316232659182 -0.999999856497718
v 0.760674263511799 -0.368350232463763 -0.999999803837984
v 0.891153041882051 -0.327586817629158 -0.999999718216888
v 0.87295531412378 -0.408862311870878 1.00000029556884
v 0.774351998113195 -0.194130710095612 -0.999999709889356
v 0.869154836314991 -0.257700506160553 1.00000037114975
v 0.745832462946155 -0.0159142967187589 -0.999999635040917
v 0.838003649731718 -1.66533453693773e-16 -0.999999580998175
v 0.761983517947868 0.156655922385728 -0.99999954068028
v 0.809405059744832 0.0805007777196332 1.00000054025039
v 0.723339002652964 0.319563418112308 -0.99999947854879
v 0.838003649731718 0.335201459892687 -0.999999413397445
v 0.732164389427306 0.466122652887138 -0.999999400856479
v 0.871814783357628 0.461789141486469 -0.999999333198038
v 0.783247532786292 0.762566038800247 -0.999999227093214
v 0.838003649731718 0.583800046430915 -0.999999289098152
v 0.757005474597578 1 -0.502801904124746
v 0.757005474597578 1 -0.33520110274983
v 0.757005474597578 1 -0.167600301374915
v 0.757005474597578 1 0.0809987096541808
v 0.757005474597578 1 0.33520210274983
v 0.888325872177619 1 -0.479265807387676
v 0.838003649731718 1 -0.583800113778926
v 0.877428482500899 1 0.191037263181397
v 1 -0.842401209109884 -0.590407585647218
v 1 -0.881696456312631 -0.419015759055007
v 1 -0.884025831983484 -0.249120206863038
v 1 -0.881651339055769 -0.0794321337618253
v 1 -0.876270698161196 0.0910146464730532
v 1 -0.898759637237406 0.240220335643266
v 1 -0.815899077788754 0.328106498664421
v 1 -0.919001824865859 0.421804694470564
v 1 -0.814420917287876 0.509873653390022
v 1 -0.892840044813226 0.58702535481807
v 1 -0.907912586332471 0.772838884471394
v 1 -0.751401094919516 0.757006297220395
v 1 -0.583800364973172 -0.919001716528757
v 1 -0.672480084170789 -0.575420342438605
v 1 -0.691060182291035 -0.42452912518068
v 1 -0.689479652539246 -0.254947833275702
v 1 -0.690000754517858 -0.0829099724956388
v 1 -0.670402919785375 0.0866030917207341
v 1 -0.670321821926274 0.238795107779955
v 1 -0.670402919785375 0.421804694470564
v 1 -0.583800364973172 0.33520210274983
v 1 -0.689423756489954 0.588866118177686
v 1 -0.56957580420428 0.537644736511434
v 0.999999907109769 -0.563206873625987 0.748987553900087
v 0.999999916833365 -0.690421281816706 0.856754706218329
v 1 -0.495183537229986 -0.754440643645329
v 1 -0.397150628789006 -0.892914232784912
v 1 -0.507087778709755 -0.579371255671304
v 1 -0.503567230252692 -0.413363004728976
v 1 -0.502802189839031 -0.248598511029096
v 1 -0.502802189839031 -0.080997709654181
v 1 -0.502802189839031 0.0866030917207341
v 1 -0.495229260236631 0.231903523162428
v 1 -0.502802189839031 0.421804694470564
v 1 -0.416199635026828 0.33520210274983
v 0.999999925586269 -0.427122083693432 0.575949831166713
v 1 -0.335201459892688 -0.751400915153841
v 1 -0.248598905080484 -0.919001716528757
v 1 -0.335201459892688 -0.583800113778926
v 1 -0.336695778499045 -0.414866773069609
v 1 -0.335201459892688 -0.248598511029096
v 1 -0.335201459892688 -0.080997709654181
v 1 -0.335201459892688 0.0866030917207341
v 1 -0.321224042531403 0.260512127000079
v 0.99999995956724 -0.355514994157013 0.436380837308285
v 0.999999909964151 -0.23642514026692 0.416497219747769
v 0.999999806766118 -0.353549164371771 0.740017251807744
v 0.897165314163508 -0.185563345550419 -0.999999644199016
v 1 -0.167600729946344 -0.751400915153841
v 1 -0.0809981751341408 -0.919001716528757
v 1 -0.175838631778285 -0.573618999751933
v 1 -0.167489062554116 -0.412897757343999
v 1 -0.167600729946344 -0.248598511029096
v 1 -0.164483946286299 -0.0804241584951394
v 1 -0.167600729946344 0.254203893095649
v 0.999999789097772 -0.167600729946344 0.589405601296638
v 0.999999687286736 -0.153103012319849 0.778529963177286
v 1 0.0294279139317029 -0.7424286652509
v 1 0.0866025548122029 -0.919001716528757
v 1 -0.00178457153520173 -0.572497715497329
v 1 0.00848766857674099 -0.410698090398726
v 1 -0.00848806279758152 0.00181815885443692
v 0.99999989954055 0.102300112638844 0.098619338586756
v 0.999999777020703 0.0234030718528261 0.42255603319637
v 0.891249390393619 0.154898660197562 -0.999999476925975
v 1 0.167600729946344 -0.751400915153841
v 1 0.275983996909474 -0.893886502104426
v 1 0.198659698927499 -0.586666820350144
v 1 0.167600729946344 -0.248598511029096
v 0.999999920647203 0.235452315641661 -0.0767461032969333
v 0.999999789097928 0.167600729946344 0.25420399854673
v 0.999999629620607 0.158313379698639 0.582445985944268
v 0.999999547125481 0.156543035305763 0.749206581420332
v 1 0.42180401470489 -0.838003506874576
v 1 0.337671528711782 -0.409222793521201
v 0.999999916265083 0.439851989183787 -0.272381435584216
v 0.999999789098005 0.335201459892687 0.0866031971717764
v 0.999999621497162 0.335201459892687 0.421804883722064
v 0.999999521788013 0.350588144546735 0.605836504253794
v 1 0.565758822698326 -0.685846185877861
v 0.999999917367871 0.592986476117836 -0.427721420712527
v 0.999999832399431 0.502802189839031 -0.167600301374915
v 0.999999629303234 0.489770233511073 0.251624042394009
v 0.999999537696818 0.502802189839031 0.421804925622254
v 0.999999370095975 0.502802189839031 0.757006612172542
v 1 0.810805665793582 -0.889838088994457
v 0.999999947519528 0.694785994737002 -0.589824204061269
v 0.999999802677388 0.661516853184241 -0.266870798116077
v 0.999999705297739 0.670402919785375 -0.0809975623029876
v 0.999999613054393 0.679148448175766 0.0947436053525297
v 0.999999531553008 0.670378418201404 0.26651640168957
v 0.999999452384151 0.666805025885038 0.428427505797752
v 0.999999369332959 0.682034367747885 0.579300556179346
v 0.999999269751145 0.759289840544225 0.701208749892405
v 0.999999923528059 0.871644535777152 -0.718699718918186
v 0.999999767134914 0.894028756983164 -0.428297638334794
v 0.919001824865859 1 -0.080997709654181
v 0.999999589405772 0.887894679246066 -0.0667052794592219
v 0.901840157465602 1 0.0626507048051728
v 0.999999531587737 0.875583955201108 0.061241508383364
v 0.99999942734055 0.889294297006191 0.256025548394532
v 0.906108339365723 1 0.665217595734933
v -1 -0.838003649731719 -1
v -0.919001382024244 -0.838003649731719 1.00000004049933
v -1 1 0.838004506874576
v 0.838003649731718 -1 1
v 1 -1 0.838004506874576
v 0.999999919002253 1 -0.838003506874576
v -1 -1 -0.670402705499661
v -1 -1 -0.502801904124746
v -1 -1 -0.32761086035189
v -1 -1 -0.167600301374915
v -1 -1 4.99999999903356e-07
v -1 -1 0.167601301374915
v -1 -1 0.33520210274983
v -1 -1 0.492578964410445
v -1 -1 0.724402511935781
v -1 -1 0.595842256063638
v -1 -0.670402919785375 -1
v -1 -0.730006391613712 1
v -1 -0.502802189839031 -1
v -1 -0.502802189839031 1
v -1 -0.335201459892688 -1
v -1 -0.394804931721024 1
v -1 -0.167600729946344 -1
v -1 -0.113601637796069 1
v -1 -1.66533453693773e-16 -1
v -0.999700699896773 0.0463992679096772 1.00000000014965
v -1 0.167600729946344 -1
v -1 0.237745194759233 1
v -1 0.335201459892687 -1
v -1 0.39691461209007 1
v -1 0.502802189839031 -1
v -1 0.670402919785375 -1
v -1 0.777056845791467 1
v -1 1 -0.766117548458288
v -1 1 -0.591295086465282
v -1 1 -0.448803097688625
v -1 1 -0.28120229631371
v -1 1 -0.113601494938795
v -1 1 0.0539993064361205
v -1 1 0.221600107811036
v -1 1 0.411343692260807
v -1 1 0.556801710560866
v -0.730006058280521 -1 -1
v -0.626842516391994 -1 -1
v -0.670402919785375 -1 1
v -0.778400214836682 1 1.00000011079995
v -0.724401724535485 1 -0.999999862200862
v -0.62159951942476 0.999688548104175 1.00000018920033
v -0.502802189839031 -1 -1
v -0.502802189839031 -1 1
v -0.502802189839031 1 -0.999999751401095
v -0.502802189839031 1 1.00000024859903
v -0.335201459892688 -1 -1
v -0.317116822643679 -1 1
v -0.335201459892688 1 -0.99999966760073
v -0.167600729946344 -1 -1
v -0.167600729946344 -1 1
v -0.167600729946344 1 1.00000041619984
v 0.0150768908481854 -1 -1
v -1.66533453693773e-16 -1 1
v -1 -0.254203284758547 1
v 0.999999991793514 -0.857345798022113 0.873758842144427
v -1.66533453693773e-16 1 -0.9999995
v 0.167600729946344 -1 -1
v 0.167600729946344 -1 1
v 0.167600729946344 1 -0.999999416199635
v 0.167600729946344 1 1.00000058380066
v 0.335201459892687 -1 -1
v 0.335201459892687 -1 1
v 0.335201459892687 1 -0.99999933239927
v 0.502802189839031 -1 -1
v 0.502802189839031 -1 1
v 0.40265111734506 1 1.00000070132591
v 0.502802189839031 1 -0.999999248598905
v 0.670402919785375 -1 -1
v 0.670402919785375 -1 1
v -0.862200862267742 1 -0.999999931100431
v 0.670402919785375 1 -0.99999916479854
v 0.670402919785375 1 1.00000083520188
v 0.999999820300592 -0.640601183871198 1.00000017969941
v -1 -1 0.862201255967891
v -1 0.910750031799747 0.922292543878861
v 1 -1 -0.670402705499661
v 1 -1 -0.502801904124746
v -1 0.278400640994653 0.875700957576921
v 1 -1 -0.33520110274983
v -1 0.110799911048309 0.875700957576921
v -1 -0.0434321570710003 0.869294760226988
v 1 -1 -0.167600301374915
v -1 0.409020059227881 0.857821798943317
v 1 -1 4.99999999903356e-07
v 1 -1 0.167601301374915
v -0.867440114327156 -0.435078871283084 1.00000006627998
v 1 -1 0.33520210274983
v 1 -1 0.502802904124745
v 1 -1 0.67040370549966
v 0.999999889200089 -0.778400177903366 1.00000011079991
v 1 -0.670402919785375 -0.99999983520146
v -1 -1 -0.865002947001167
v -0.86500302914026 -1 -1
v 1 -0.556801022522579 -0.999999778400511
v -1 -0.865003195806856 1
v 0.999999751401095 -0.502802189839031 1.00000024859891
v 1 -0.389200320509674 -0.99999969460016
v 1 -0.260467621491133 -0.999999630233811
v 0.999999583800365 -0.167600729946344 1.00000041619964
v 1 -0.0539989164838637 -0.999999526999458
v 0.9999995 -1.66533453693773e-16 1.0000005
v 0.999999328971423 0.618755387420766 0.723302576026574
v 1 0.113601785529042 -0.999999443199107
v 1 0.72000534362559 -0.738044236186034
v 0.471906088242643 0.808612294306505 1.00000073595341
v 0.687852250315744 -0.551539175608993 -0.999999931843463
v -0.134556416788394 -0.223023523401255 -1
v 1 0.281202487541947 -0.999999359398756
v 0.99999933239927 0.335201459892687 1.00000066760073
v 1 0.448803189554852 -0.999999275598405
v 0.999999248598905 0.502802189839031 1.00000075140109
v 1 0.616403891567757 -0.999999191798054
v -0.797504562164648 -1 0.62990460067257
v 0.999900167938599 1 -0.579648708257611
v -0.278993599075186 -0.307721101914346 -1
v 0.999999732411151 1 -0.464821301335219
v 0.999999667601051 1 -0.33520110274983
v 0.999999583800651 1 -0.167600301374915
v 0.438862807763842 1 0.875962051465548
v 0.999999499635362 1 0.000730275823735416
v 0.999999416199849 1 0.167601301374915
v 0.998985471648783 1 0.352529023092938
v 0.999999248599048 1 0.502802904124745
v 0.999999133126903 1 0.733747193519391
v -0.744601239662117 0.703962019145723 -1
v -0.0419001824865859 -0.0390977697817387 1.00000048045112
v 0.207398850295063 0.0538754773704071 1.00000052693774
v 0.0905658390104823 0.155318816026953 1.00000054528319
v -0.378502718844531 -0.210901988898188 -1
v 0.62334673410078 -1 -0.734808286188644
v 0.794702372325617 1 0.713705001360027
v 0.0712850446393243 -0.0624125196887382 -0.999999995563738
v 0.627101660833531 -0.875700565914016 -1
v -1 0.668630630379126 0.87725657421891
v 0.719405595029312 -1 -0.528030505594396
v -0.0499279671701953 -0.627317901563571 -1
v 0.615791582635288 -1 -0.639251953193076
v 0.526216996808918 -0.871532223170045 -1
v 0.713704230061496 0.710901974482425 1.00000081495213
v -0.878502737298789 -1 0.043301795860367
v 0.878502793220632 -0.546103647466428 1.00000022694818
v -0.879848565475943 -1 -0.935216600011128
v 0.999999829204012 -0.5446903828325 0.886282585872368
v -1 0.784468131154331 0.785456795110397
v -0.433200127787583 0.729211287838225 -0.99999985199442
v -0.464827142925945 -0.61991872505404 -1
v -0.891590963675079 1 -0.706302844708955
v 0.999999971929894 0.296441020789689 -0.240300160906166
v -0.226838442347883 0.265008124734662 1.00000038658097
v -0.377101642379273 0.0866028567662274 1.00000032227463
v 0.0151308222387957 -0.406265501340637 -1
v -0.875700346989038 0.764900435940728 1.00000006214986
v -0.841168008904887 -1 -0.54502631213539
v -0.855709835159135 -0.0569934135414645 -1
v -1 -0.797270726354304 -0.09365406967746
v -1 -0.797254839887974 0.0751211813889214
v -1 -0.794702372325617 0.248599511029096
v -1 -0.799478729012748 -0.261230092177671
v -1 -0.794991461635329 -0.602220331625577
v -1 -0.534075863009072 0.908292226769464
v -1 -0.798207623250739 -0.428399821221205
v 0.999999851247705 0.210902029003094 0.0866031660969132
v 0.99999985124755 -0.124299430889555 0.421804768846821
v 0.999999857414217 -0.28666787651861 0.571839798280354
v 0.999999532872914 0.257676432564073 0.676578367637164
v 0.999999789097811 -0.0838003649731719 0.505605200609161
v 0.999999785508176 -0.250310012527176 0.6792940356927
v 0.999999781832627 0.259019431386667 0.177315944168395
v 0.99999953210415 0.424817837018369 0.510974574604093
v -1 0.584958797747459 -0.170083335157182
v 1 -0.586602554812203 -0.164798110341639
v -1 0.24792781089948 -0.343111054831667
v 1 -0.25135745882148 -0.328397275796949
v 1 0.251401094919516 -0.332398911716554
v 0.999999905208948 0.355329386291044 -0.165746603731488
v 1 -0.586602554812203 -0.332398911716554
v 0.667600729946344 -1 -0.586602304812203
v 1 -0.251401094919516 -0.499999713091469
v 1 -0.586602554812203 0.170403492408192
v 1 -0.591584228307635 -0.493539684717265
v -1 0.586602554812203 -0.00280169103327674
v 1 -0.586602554812203 0.00280269103327654
v -1 0.750408052881553 -0.000642656570618794
v -1 0.589588390650825 0.159030970004678
v 1 -0.419001824865859 -0.164798110341639
v 1 -0.419370823560337 -0.327412956260509
v 1 -0.419645142562597 -0.496206694418314
v 1 -0.0823447612352037 -0.490744448864377
v -0.754203284758547 -1 -0.505604095158022
v -0.740081399848732 0.145595990617007 -1
v -0.172170132777107 0.156063871629522 1.00000041391514
v -0.432063686294756 0.180589134113261 1.0000002839683
f 771 54 1
f 54 870 1
f 1 80 771
f 869 80 1
f 869 1 421
f 421 1 919
f 870 919 1
f 55 851 2
f 2 872 55
f 182 348 2
f 851 182 2
f 348 772 2
f 772 872 2
f 56 3 347
f 804 3 56
f 804 57 3
f 57 847 3
f 847 347 3
f 4 58 773
f 4 816 58
f 4 803 158
f 816 4 158
f 852 4 773
f 4 852 803
f 46 5 14
f 14 5 153
f 46 901 5
f 59 351 5
f 901 59 5
f 351 153 5
f 343 6 24
f 24 6 345
f 6 26 345
f 346 26 6
f 43 6 343
f 6 43 346
f 7 61 774
f 867 61 7
f 774 536 7
f 7 536 775
f 7 775 832
f 7 832 867
f 8 344 62
f 776 8 62
f 344 8 524
f 8 889 524
f 8 776 754
f 889 8 754
f 9 346 43
f 9 43 634
f 845 346 9
f 845 9 543
f 543 9 907
f 907 9 634
f 193 802 10
f 902 193 10
f 10 817 313
f 10 313 902
f 10 802 347
f 847 10 347
f 817 10 847
f 18 903 11
f 905 18 11
f 425 463 11
f 903 425 11
f 11 463 460
f 11 460 904
f 905 11 904
f 12 18 52
f 12 179 18
f 390 12 52
f 968 179 12
f 390 926 12
f 926 968 12
f 382 13 115
f 115 13 928
f 339 116 13
f 116 426 13
f 382 339 13
f 13 426 928
f 37 46 14
f 37 14 888
f 14 153 916
f 888 14 916
f 253 15 298
f 15 253 506
f 15 820 298
f 15 506 772
f 535 15 772
f 815 15 535
f 815 820 15
f 16 29 256
f 29 16 380
f 256 253 16
f 16 253 298
f 16 298 336
f 380 16 336
f 236 223 17
f 307 17 223
f 338 236 17
f 338 17 307
f 52 18 905
f 179 903 18
f 23 19 256
f 794 19 23
f 19 863 256
f 792 19 831
f 792 863 19
f 831 19 794
f 303 265 20
f 308 20 265
f 303 20 385
f 20 308 353
f 388 20 353
f 387 385 20
f 389 387 20
f 389 20 388
f 21 343 24
f 21 24 681
f 669 21 155
f 155 21 681
f 21 853 343
f 669 853 21
f 22 446 387
f 465 22 387
f 22 909 446
f 465 511 22
f 22 511 508
f 909 22 508
f 162 23 261
f 162 794 23
f 23 256 301
f 261 23 301
f 24 345 868
f 24 868 681
f 26 346 25
f 25 645 26
f 346 845 25
f 25 604 496
f 25 496 645
f 910 604 25
f 845 910 25
f 345 26 868
f 26 645 868
f 301 29 27
f 27 29 383
f 301 27 349
f 386 349 27
f 423 27 383
f 27 425 386
f 27 423 425
f 28 154 743
f 748 154 28
f 742 28 736
f 28 743 736
f 742 748 28
f 29 301 256
f 29 380 383
f 385 30 384
f 30 884 384
f 446 30 385
f 30 426 884
f 909 426 30
f 909 30 446
f 426 31 462
f 909 31 426
f 31 552 462
f 508 509 31
f 508 31 909
f 509 552 31
f 139 495 32
f 610 139 32
f 32 495 462
f 32 462 552
f 610 32 552
f 40 33 62
f 589 33 40
f 62 33 667
f 589 591 33
f 33 591 629
f 33 629 667
f 34 140 44
f 888 34 44
f 34 582 140
f 34 916 582
f 916 34 888
f 635 35 501
f 501 35 854
f 605 35 635
f 35 605 912
f 853 35 634
f 35 912 634
f 35 853 854
f 36 213 212
f 526 36 212
f 504 213 36
f 287 36 285
f 285 36 526
f 287 504 36
f 762 46 37
f 564 753 37
f 888 564 37
f 879 37 753
f 37 879 762
f 350 38 756
f 350 764 38
f 756 38 757
f 757 38 766
f 894 38 764
f 38 895 766
f 895 38 894
f 193 269 39
f 801 193 39
f 39 265 207
f 39 207 797
f 39 309 265
f 39 269 309
f 799 39 797
f 799 801 39
f 848 40 62
f 844 589 40
f 848 844 40
f 454 445 41
f 445 834 41
f 489 454 41
f 489 41 544
f 544 41 841
f 834 838 41
f 838 841 41
f 562 224 42
f 42 224 878
f 42 725 235
f 741 42 235
f 741 562 42
f 876 725 42
f 42 878 876
f 343 853 43
f 43 853 634
f 44 140 621
f 621 210 44
f 886 44 210
f 886 888 44
f 45 439 470
f 554 439 45
f 505 45 470
f 525 45 505
f 525 837 45
f 837 554 45
f 762 561 46
f 561 901 46
f 47 48 800
f 911 48 47
f 47 222 267
f 222 47 800
f 370 47 267
f 803 47 370
f 803 911 47
f 178 48 190
f 178 860 48
f 911 190 48
f 860 800 48
f 131 121 49
f 49 121 132
f 131 49 142
f 49 132 143
f 142 49 218
f 218 49 143
f 50 51 386
f 50 927 51
f 50 386 179
f 50 179 968
f 352 50 926
f 352 927 50
f 926 50 968
f 51 304 228
f 51 228 349
f 927 304 51
f 386 51 349
f 390 52 428
f 52 467 428
f 52 905 467
f 92 93 53
f 92 53 104
f 937 53 93
f 104 53 117
f 53 105 117
f 105 53 937
f 252 54 215
f 771 215 54
f 252 246 54
f 54 246 813
f 54 813 870
f 55 93 341
f 55 788 93
f 55 341 785
f 55 785 851
f 872 788 55
f 56 180 194
f 56 347 180
f 194 804 56
f 57 271 282
f 271 57 924
f 281 57 282
f 817 57 281
f 57 804 924
f 57 817 847
f 233 58 279
f 233 773 58
f 58 280 279
f 280 58 816
f 59 849 351
f 849 59 633
f 59 908 633
f 770 59 901
f 59 770 908
f 721 306 60
f 306 737 60
f 730 60 499
f 499 60 737
f 721 60 722
f 730 722 60
f 61 342 609
f 867 342 61
f 609 846 61
f 61 846 774
f 344 848 62
f 62 667 891
f 891 776 62
f 63 65 80
f 777 65 63
f 63 80 869
f 869 777 63
f 64 65 777
f 65 64 936
f 778 67 64
f 64 67 936
f 778 64 777
f 80 65 82
f 82 65 83
f 65 936 83
f 66 67 778
f 67 66 938
f 779 69 66
f 66 69 938
f 778 779 66
f 83 67 84
f 936 67 83
f 67 938 84
f 68 69 779
f 69 68 935
f 780 71 68
f 68 71 935
f 779 780 68
f 84 69 86
f 938 69 84
f 69 935 86
f 70 71 780
f 71 70 932
f 781 73 70
f 70 73 932
f 780 781 70
f 86 71 87
f 935 71 86
f 71 932 87
f 72 73 781
f 73 72 933
f 782 75 72
f 72 75 933
f 781 782 72
f 87 73 88
f 932 73 87
f 73 933 88
f 74 75 782
f 75 74 934
f 783 77 74
f 74 77 934
f 782 783 74
f 88 75 89
f 933 75 88
f 75 934 89
f 76 500 77
f 76 77 783
f 76 78 500
f 784 78 76
f 783 784 76
f 89 77 90
f 934 77 89
f 77 500 90
f 500 78 79
f 785 79 78
f 78 784 786
f 786 785 78
f 91 79 92
f 91 500 79
f 79 341 92
f 79 785 341
f 82 81 80
f 80 81 787
f 787 771 80
f 81 82 95
f 95 94 81
f 81 94 789
f 789 787 81
f 82 83 96
f 95 82 96
f 83 84 97
f 96 83 97
f 84 86 98
f 97 84 98
f 238 745 85
f 758 238 85
f 442 85 745
f 750 85 442
f 750 757 85
f 758 85 757
f 86 87 98
f 87 88 100
f 98 87 99
f 99 87 100
f 88 89 101
f 100 88 101
f 89 90 102
f 101 89 102
f 90 91 102
f 90 500 91
f 104 91 92
f 102 91 104
f 93 92 341
f 788 790 93
f 93 790 937
f 94 95 107
f 107 106 94
f 94 106 791
f 789 94 791
f 95 96 108
f 107 95 108
f 96 97 109
f 108 96 109
f 109 97 98
f 98 99 262
f 109 98 262
f 99 100 111
f 110 99 111
f 262 99 110
f 100 101 112
f 111 100 112
f 101 102 112
f 103 102 104
f 102 103 113
f 112 102 113
f 103 104 114
f 113 103 114
f 114 104 117
f 340 117 105
f 358 340 105
f 105 792 358
f 790 792 105
f 937 790 105
f 106 107 119
f 119 118 106
f 118 793 106
f 791 106 793
f 107 108 120
f 119 107 120
f 108 109 121
f 120 108 121
f 109 122 121
f 109 262 122
f 110 111 124
f 123 110 124
f 262 110 123
f 111 112 124
f 112 113 125
f 124 112 125
f 113 114 127
f 125 113 126
f 126 113 127
f 114 117 128
f 127 114 128
f 115 913 382
f 462 457 115
f 115 457 913
f 115 928 462
f 339 892 116
f 116 384 884
f 892 384 116
f 116 884 426
f 117 340 128
f 118 119 130
f 130 129 118
f 118 129 795
f 118 795 793
f 119 120 131
f 130 119 131
f 131 120 121
f 121 122 132
f 122 123 133
f 122 262 123
f 132 122 133
f 123 124 133
f 124 125 134
f 133 124 134
f 125 126 136
f 134 125 135
f 135 125 136
f 126 127 137
f 136 126 137
f 127 128 138
f 137 127 138
f 128 858 138
f 340 794 128
f 128 794 858
f 129 130 141
f 141 797 129
f 797 795 129
f 130 131 142
f 141 130 142
f 132 133 143
f 133 134 145
f 143 133 145
f 134 135 147
f 145 134 146
f 146 134 147
f 135 136 150
f 147 135 150
f 136 137 151
f 150 136 151
f 137 138 152
f 151 137 152
f 138 857 152
f 138 858 857
f 497 495 139
f 139 604 497
f 139 610 604
f 338 578 140
f 582 338 140
f 140 578 621
f 311 141 142
f 156 141 311
f 797 141 156
f 142 218 157
f 311 142 157
f 143 145 160
f 949 143 160
f 949 218 143
f 148 144 624
f 849 144 148
f 144 843 525
f 144 525 882
f 144 882 624
f 849 843 144
f 145 146 164
f 160 145 163
f 163 145 164
f 146 147 165
f 164 146 165
f 147 150 166
f 165 147 166
f 148 153 351
f 148 916 153
f 849 148 351
f 148 624 916
f 149 350 749
f 149 764 350
f 749 755 149
f 149 755 763
f 149 763 891
f 891 764 149
f 150 151 167
f 166 150 167
f 151 152 168
f 167 151 168
f 152 855 168
f 152 857 855
f 749 743 154
f 749 154 748
f 155 682 669
f 155 681 694
f 682 155 694
f 156 311 169
f 799 156 169
f 156 799 797
f 157 160 171
f 157 949 160
f 170 157 171
f 170 311 157
f 157 218 949
f 816 158 270
f 158 929 270
f 158 803 929
f 159 247 209
f 159 209 421
f 284 159 234
f 234 159 421
f 291 247 159
f 159 284 291
f 160 163 172
f 171 160 310
f 310 160 172
f 303 161 302
f 161 906 302
f 161 303 385
f 385 384 161
f 161 384 906
f 221 220 162
f 220 796 162
f 221 162 264
f 264 162 261
f 796 794 162
f 163 164 173
f 172 163 173
f 164 165 174
f 173 164 174
f 165 166 175
f 174 165 175
f 166 167 177
f 175 166 177
f 167 168 178
f 177 167 178
f 168 860 178
f 860 168 855
f 169 170 181
f 169 311 170
f 180 169 181
f 169 180 801
f 169 801 799
f 170 171 181
f 181 171 244
f 171 183 244
f 171 310 183
f 172 173 958
f 947 172 184
f 172 958 184
f 947 310 172
f 173 174 961
f 958 173 185
f 173 961 185
f 174 175 188
f 187 174 188
f 961 174 187
f 175 177 189
f 188 175 189
f 723 176 444
f 444 176 730
f 176 711 722
f 723 711 176
f 730 176 722
f 177 178 190
f 189 177 190
f 179 386 903
f 194 180 181
f 180 347 802
f 180 802 801
f 194 181 195
f 181 244 195
f 245 348 182
f 182 785 245
f 785 182 851
f 183 184 197
f 183 947 184
f 244 183 196
f 196 183 807
f 807 183 197
f 183 310 947
f 184 958 185
f 184 185 960
f 184 960 197
f 185 187 199
f 185 961 187
f 960 185 199
f 561 761 186
f 900 561 186
f 759 186 760
f 759 769 186
f 760 186 761
f 899 186 769
f 900 186 899
f 187 188 201
f 199 187 200
f 187 201 200
f 188 189 201
f 189 190 921
f 189 921 201
f 190 911 921
f 250 192 191
f 192 780 191
f 249 191 211
f 191 779 211
f 250 191 249
f 191 780 779
f 526 192 250
f 526 917 192
f 781 780 192
f 917 781 192
f 269 193 902
f 802 193 801
f 194 195 804
f 195 244 196
f 195 196 805
f 804 195 805
f 805 196 806
f 807 806 196
f 197 199 808
f 197 960 199
f 807 197 808
f 617 615 198
f 198 615 650
f 198 654 617
f 650 876 198
f 198 878 654
f 876 878 198
f 199 200 809
f 808 199 809
f 200 201 810
f 809 200 810
f 201 773 812
f 773 201 921
f 810 201 811
f 811 201 812
f 203 202 631
f 900 202 203
f 202 665 631
f 668 665 202
f 668 202 899
f 900 899 202
f 203 631 632
f 908 203 632
f 770 900 203
f 908 770 203
f 204 230 272
f 204 806 230
f 204 272 271
f 271 924 204
f 805 806 204
f 805 204 924
f 274 230 205
f 230 807 205
f 205 231 274
f 205 808 231
f 807 808 205
f 276 231 206
f 231 809 206
f 206 232 276
f 206 810 232
f 809 810 206
f 797 207 219
f 207 967 219
f 207 265 967
f 278 232 208
f 232 811 208
f 208 233 278
f 208 812 233
f 811 812 208
f 247 930 209
f 421 209 869
f 778 777 209
f 869 209 777
f 930 778 209
f 224 210 654
f 224 886 210
f 210 621 654
f 248 249 211
f 966 248 211
f 211 779 778
f 211 778 930
f 966 211 930
f 213 783 212
f 212 782 526
f 212 783 782
f 213 214 786
f 890 214 213
f 504 288 213
f 288 890 213
f 213 784 783
f 786 784 213
f 785 214 245
f 245 214 890
f 786 214 785
f 251 252 215
f 787 251 215
f 215 771 787
f 256 216 253
f 253 216 506
f 256 863 216
f 216 788 506
f 790 788 216
f 863 790 216
f 217 259 257
f 217 257 548
f 259 217 260
f 931 260 217
f 217 548 791
f 791 793 217
f 795 217 793
f 931 217 795
f 260 219 263
f 219 260 931
f 967 263 219
f 219 795 797
f 795 219 931
f 798 220 221
f 220 798 796
f 222 221 268
f 222 800 221
f 221 264 266
f 221 266 268
f 800 798 221
f 268 267 222
f 236 470 223
f 307 223 467
f 223 428 467
f 428 223 470
f 562 886 224
f 878 224 654
f 566 225 573
f 566 876 225
f 573 225 873
f 648 225 650
f 873 225 648
f 225 876 650
f 226 723 444
f 226 444 731
f 226 732 723
f 731 739 226
f 226 739 732
f 227 732 739
f 227 740 732
f 746 227 739
f 746 740 227
f 261 301 228
f 304 261 228
f 228 301 349
f 392 428 229
f 229 439 392
f 470 229 428
f 470 439 229
f 230 273 272
f 230 274 273
f 806 807 230
f 231 275 274
f 231 276 275
f 808 809 231
f 232 277 276
f 232 278 277
f 810 811 232
f 233 279 278
f 812 773 233
f 814 284 234
f 421 919 234
f 813 814 234
f 813 234 870
f 870 234 919
f 235 725 724
f 235 724 943
f 740 235 732
f 235 943 732
f 235 740 741
f 582 236 338
f 505 470 236
f 505 236 581
f 581 236 582
f 747 237 753
f 237 747 946
f 752 760 237
f 237 946 752
f 237 879 753
f 237 760 761
f 237 761 879
f 238 751 745
f 238 758 751
f 564 562 239
f 562 741 239
f 564 239 753
f 239 741 942
f 753 239 747
f 239 942 747
f 240 746 739
f 240 739 945
f 751 240 745
f 240 945 745
f 751 746 240
f 822 241 368
f 241 828 368
f 558 241 559
f 828 241 558
f 559 241 822
f 403 825 242
f 403 242 833
f 242 825 404
f 833 242 404
f 554 243 555
f 837 243 554
f 243 828 555
f 563 243 557
f 557 243 837
f 563 828 243
f 245 289 815
f 289 245 890
f 245 815 348
f 246 252 290
f 814 246 290
f 813 246 814
f 292 248 247
f 247 248 966
f 291 292 247
f 247 966 930
f 248 324 249
f 248 292 324
f 249 293 250
f 293 249 325
f 324 325 249
f 293 286 250
f 250 286 526
f 252 251 296
f 251 255 258
f 547 255 251
f 258 296 251
f 787 547 251
f 297 290 252
f 296 297 252
f 254 729 736
f 729 254 737
f 743 254 736
f 254 951 737
f 254 743 951
f 257 258 255
f 257 255 548
f 548 255 547
f 258 257 259
f 259 299 258
f 296 258 299
f 259 260 302
f 299 259 300
f 259 302 300
f 263 302 260
f 304 264 261
f 265 303 263
f 265 263 967
f 302 263 303
f 266 264 304
f 309 308 265
f 268 266 305
f 266 304 305
f 267 268 314
f 314 270 267
f 370 267 270
f 268 305 312
f 312 314 268
f 308 309 269
f 353 308 269
f 313 353 269
f 902 313 269
f 321 270 314
f 818 270 321
f 929 370 270
f 270 818 816
f 271 272 315
f 271 315 282
f 272 273 316
f 316 315 272
f 273 274 317
f 317 316 273
f 317 274 275
f 318 275 276
f 317 275 318
f 276 277 318
f 277 278 319
f 319 318 277
f 278 279 320
f 320 319 278
f 279 280 283
f 283 320 279
f 572 283 280
f 818 572 280
f 816 818 280
f 282 357 281
f 821 281 357
f 821 817 281
f 282 315 357
f 320 283 322
f 283 572 322
f 291 284 323
f 819 323 284
f 814 819 284
f 285 286 294
f 286 285 526
f 326 287 285
f 294 326 285
f 293 294 286
f 288 287 331
f 287 288 504
f 331 287 326
f 295 289 288
f 288 289 890
f 295 288 331
f 295 327 289
f 289 327 820
f 289 820 815
f 297 819 290
f 819 814 290
f 328 292 291
f 323 328 291
f 324 292 328
f 293 329 294
f 293 325 372
f 293 372 329
f 326 294 330
f 329 330 294
f 295 334 327
f 331 332 295
f 332 334 295
f 297 296 923
f 299 923 296
f 335 823 297
f 923 335 297
f 819 297 823
f 336 298 333
f 820 333 298
f 300 339 299
f 337 299 339
f 299 337 923
f 302 906 300
f 339 300 892
f 892 300 906
f 969 305 304
f 969 304 927
f 312 305 352
f 352 305 969
f 720 306 721
f 720 729 306
f 737 306 729
f 578 338 307
f 467 512 307
f 578 307 512
f 314 312 356
f 312 352 354
f 312 354 356
f 313 922 353
f 817 821 313
f 821 922 313
f 321 314 355
f 355 314 356
f 316 359 315
f 359 357 315
f 316 317 361
f 359 316 360
f 316 361 360
f 318 363 317
f 362 361 317
f 363 362 317
f 319 364 318
f 364 363 318
f 319 320 365
f 364 319 365
f 322 366 320
f 366 365 320
f 355 559 321
f 559 822 321
f 321 822 818
f 366 322 368
f 322 572 368
f 328 323 369
f 823 369 323
f 323 819 823
f 371 325 324
f 324 328 371
f 372 325 371
f 330 373 326
f 331 326 373
f 334 374 327
f 820 327 374
f 369 376 328
f 371 328 407
f 376 375 328
f 407 328 375
f 330 329 410
f 409 329 372
f 410 329 409
f 373 330 411
f 411 330 410
f 332 331 377
f 331 373 412
f 331 412 377
f 332 377 334
f 336 333 381
f 333 827 381
f 824 333 820
f 333 824 827
f 413 374 334
f 377 413 334
f 335 337 378
f 335 923 337
f 378 379 335
f 379 823 335
f 380 336 381
f 339 382 337
f 382 378 337
f 794 340 358
f 644 342 422
f 422 342 867
f 644 609 342
f 344 524 659
f 848 344 659
f 535 772 348
f 815 535 348
f 749 350 756
f 926 354 352
f 352 969 927
f 922 388 353
f 392 356 354
f 392 354 390
f 390 354 926
f 367 355 356
f 559 355 367
f 367 356 392
f 359 394 357
f 394 393 357
f 825 357 393
f 357 825 821
f 358 792 831
f 358 831 794
f 360 394 359
f 360 361 395
f 394 360 395
f 362 397 361
f 396 395 361
f 397 396 361
f 363 398 362
f 398 397 362
f 364 399 363
f 399 398 363
f 399 364 365
f 365 366 400
f 399 365 400
f 368 401 366
f 401 400 366
f 367 392 402
f 558 367 402
f 367 558 559
f 401 368 405
f 368 828 405
f 572 822 368
f 376 369 406
f 826 406 369
f 823 826 369
f 803 370 929
f 371 408 372
f 407 408 371
f 409 372 408
f 412 373 411
f 413 827 374
f 824 820 374
f 824 374 827
f 415 375 376
f 407 375 447
f 415 414 375
f 447 375 414
f 406 415 376
f 412 416 377
f 413 377 416
f 379 378 382
f 379 382 913
f 418 549 379
f 379 913 418
f 826 379 549
f 826 823 379
f 419 380 381
f 383 380 420
f 380 419 420
f 419 381 417
f 381 827 417
f 383 420 424
f 423 383 424
f 892 906 384
f 387 446 385
f 386 425 903
f 389 530 387
f 530 465 387
f 389 388 427
f 391 429 388
f 391 388 922
f 427 388 429
f 427 530 389
f 392 390 428
f 403 429 391
f 825 403 391
f 825 391 821
f 922 821 391
f 439 402 392
f 394 431 393
f 430 404 393
f 825 393 404
f 431 430 393
f 395 431 394
f 395 396 432
f 431 395 432
f 397 434 396
f 433 432 396
f 434 433 396
f 398 435 397
f 435 434 397
f 398 399 436
f 435 398 436
f 400 436 399
f 400 401 437
f 436 400 437
f 405 438 401
f 438 437 401
f 555 402 439
f 555 558 402
f 403 440 429
f 440 403 833
f 430 441 404
f 833 404 441
f 438 405 443
f 405 563 443
f 405 828 563
f 415 406 445
f 829 445 406
f 826 829 406
f 407 448 408
f 447 448 407
f 409 408 449
f 449 408 448
f 450 410 409
f 450 409 449
f 411 410 451
f 451 410 450
f 412 411 452
f 452 411 451
f 416 412 452
f 413 416 456
f 456 830 413
f 830 827 413
f 454 414 415
f 447 414 483
f 454 453 414
f 483 414 453
f 445 454 415
f 452 455 416
f 456 416 455
f 419 417 830
f 827 830 417
f 457 458 418
f 418 913 457
f 458 546 418
f 549 418 546
f 420 419 459
f 459 419 830
f 424 420 461
f 461 420 459
f 422 918 644
f 867 850 422
f 850 873 422
f 422 873 918
f 463 423 424
f 425 423 463
f 464 424 461
f 463 424 464
f 928 426 462
f 429 469 427
f 427 468 466
f 530 427 466
f 468 427 469
f 440 469 429
f 431 471 430
f 441 430 481
f 471 481 430
f 432 471 431
f 432 433 472
f 471 432 472
f 434 474 433
f 473 472 433
f 474 473 433
f 434 435 475
f 475 474 434
f 436 476 435
f 476 475 435
f 437 476 436
f 437 438 477
f 476 437 477
f 443 478 438
f 478 477 438
f 554 555 439
f 440 479 469
f 479 440 836
f 440 833 836
f 481 480 441
f 836 441 480
f 836 833 441
f 738 442 745
f 738 952 442
f 952 750 442
f 478 443 482
f 443 557 482
f 443 563 557
f 444 730 731
f 829 834 445
f 447 484 448
f 483 484 447
f 449 448 485
f 485 448 484
f 450 449 486
f 486 449 485
f 487 451 450
f 487 450 486
f 452 451 488
f 488 451 487
f 455 452 488
f 453 454 489
f 483 453 490
f 489 490 453
f 456 455 492
f 488 492 455
f 492 493 456
f 456 493 835
f 456 835 830
f 458 457 495
f 495 457 462
f 495 497 458
f 497 545 458
f 458 545 546
f 464 461 459
f 464 459 498
f 498 459 494
f 459 835 494
f 459 830 835
f 460 463 507
f 510 460 507
f 904 460 510
f 507 463 464
f 503 464 498
f 507 464 503
f 466 513 465
f 465 530 466
f 511 465 513
f 468 514 466
f 513 466 514
f 512 467 904
f 467 905 904
f 469 515 468
f 514 468 515
f 479 515 469
f 472 517 471
f 517 481 471
f 472 473 518
f 518 517 472
f 474 519 473
f 519 518 473
f 475 520 474
f 520 519 474
f 476 521 475
f 521 520 475
f 477 521 476
f 477 478 522
f 521 477 522
f 482 523 478
f 523 522 478
f 479 840 515
f 479 836 840
f 481 516 480
f 516 840 480
f 840 836 480
f 516 481 527
f 517 528 481
f 527 481 528
f 523 482 529
f 482 556 529
f 482 837 556
f 557 837 482
f 483 491 484
f 490 491 483
f 485 484 531
f 531 484 491
f 486 485 532
f 532 485 531
f 487 486 533
f 533 486 532
f 534 488 487
f 534 487 533
f 492 488 534
f 489 538 490
f 537 538 489
f 544 537 489
f 491 490 539
f 538 596 490
f 596 539 490
f 531 491 598
f 539 597 491
f 598 491 597
f 493 492 541
f 534 540 492
f 541 492 540
f 839 493 541
f 835 493 839
f 498 494 551
f 551 494 542
f 494 839 542
f 835 839 494
f 604 610 496
f 496 610 883
f 496 883 645
f 497 838 545
f 604 550 497
f 838 497 550
f 503 498 551
f 499 738 730
f 737 738 499
f 636 635 501
f 636 501 856
f 854 856 501
f 673 502 674
f 673 686 502
f 674 502 675
f 502 687 675
f 687 502 686
f 560 507 503
f 503 551 560
f 525 505 581
f 506 788 772
f 510 507 565
f 507 560 567
f 565 507 567
f 509 508 568
f 508 511 575
f 569 568 508
f 575 569 508
f 571 552 509
f 568 571 509
f 512 510 574
f 512 904 510
f 510 565 574
f 513 577 511
f 575 511 577
f 512 574 576
f 578 512 576
f 514 579 513
f 577 513 579
f 515 580 514
f 579 514 580
f 840 580 515
f 527 589 516
f 589 844 516
f 844 840 516
f 517 518 583
f 517 583 528
f 519 585 518
f 583 518 584
f 585 584 518
f 520 586 519
f 586 585 519
f 521 587 520
f 587 586 520
f 522 587 521
f 523 588 522
f 587 522 593
f 522 588 593
f 529 588 523
f 524 889 659
f 525 581 882
f 843 837 525
f 526 782 917
f 527 528 589
f 583 591 528
f 528 591 589
f 529 556 896
f 588 529 595
f 529 896 595
f 532 531 599
f 599 531 598
f 533 532 600
f 600 532 599
f 534 533 601
f 601 533 600
f 602 540 534
f 602 534 601
f 643 536 608
f 536 774 608
f 775 536 643
f 538 537 907
f 537 544 543
f 543 907 537
f 914 596 538
f 538 907 914
f 596 605 539
f 605 597 539
f 541 540 603
f 603 540 602
f 603 608 541
f 842 541 608
f 842 839 541
f 551 542 609
f 609 542 607
f 542 842 607
f 839 842 542
f 544 841 543
f 543 841 845
f 545 834 546
f 834 545 838
f 829 549 546
f 829 546 834
f 789 548 547
f 787 789 547
f 789 791 548
f 826 549 829
f 604 915 550
f 838 550 841
f 915 841 550
f 560 551 612
f 551 609 644
f 612 551 644
f 571 613 552
f 611 610 552
f 611 552 613
f 633 595 553
f 896 553 595
f 553 849 633
f 849 553 843
f 553 896 843
f 828 558 555
f 843 556 837
f 556 843 896
f 614 567 560
f 614 560 612
f 761 561 762
f 561 900 901
f 886 562 564
f 564 888 886
f 574 565 567
f 715 566 573
f 566 715 725
f 876 566 725
f 574 567 614
f 570 568 569
f 571 568 570
f 570 569 618
f 575 618 569
f 570 616 571
f 570 651 616
f 618 653 570
f 653 651 570
f 616 613 571
f 822 572 818
f 573 692 715
f 920 692 573
f 873 920 573
f 576 574 617
f 574 614 617
f 577 620 575
f 618 575 620
f 578 576 621
f 576 617 619
f 621 576 619
f 579 622 577
f 620 577 622
f 580 623 579
f 622 579 623
f 844 623 580
f 840 844 580
f 624 581 582
f 882 581 624
f 624 582 916
f 584 625 583
f 590 591 583
f 625 590 583
f 585 626 584
f 626 625 584
f 586 626 585
f 587 592 586
f 592 627 586
f 586 627 626
f 587 628 592
f 593 628 587
f 593 588 594
f 595 594 588
f 590 629 591
f 590 625 661
f 590 661 629
f 627 592 630
f 592 628 630
f 593 594 632
f 628 593 631
f 593 632 631
f 594 595 633
f 594 633 632
f 605 596 912
f 912 596 954
f 954 596 914
f 598 597 606
f 605 606 597
f 637 599 598
f 636 598 606
f 636 637 598
f 638 600 599
f 637 638 599
f 639 601 600
f 638 639 600
f 640 602 601
f 639 640 601
f 641 603 602
f 640 641 602
f 641 608 603
f 910 915 604
f 635 606 605
f 635 636 606
f 846 609 607
f 842 846 607
f 608 641 643
f 774 846 608
f 846 842 608
f 611 883 610
f 611 613 646
f 646 645 611
f 611 645 883
f 614 612 615
f 615 612 650
f 612 644 648
f 650 612 648
f 616 649 613
f 649 646 613
f 617 614 615
f 651 649 616
f 654 619 617
f 620 655 618
f 655 653 618
f 621 619 654
f 620 622 657
f 657 655 620
f 659 622 623
f 660 657 622
f 660 622 659
f 848 659 623
f 848 623 844
f 625 626 662
f 661 625 662
f 626 627 663
f 662 626 663
f 630 664 627
f 664 663 627
f 630 628 665
f 631 665 628
f 661 667 629
f 664 630 665
f 632 633 908
f 914 907 634
f 912 954 634
f 634 954 914
f 637 636 859
f 856 859 636
f 638 637 861
f 859 861 637
f 639 638 862
f 861 862 638
f 640 639 864
f 862 864 639
f 640 642 641
f 642 640 865
f 864 865 640
f 642 643 641
f 643 642 866
f 865 866 642
f 866 775 643
f 644 918 648
f 647 645 646
f 647 874 645
f 871 868 645
f 874 871 645
f 647 646 649
f 716 647 649
f 716 875 647
f 875 874 647
f 918 873 648
f 652 649 651
f 652 716 649
f 652 651 653
f 733 652 653
f 652 877 716
f 733 880 652
f 880 877 652
f 656 653 655
f 656 733 653
f 656 655 657
f 658 656 657
f 658 887 656
f 656 885 733
f 887 885 656
f 658 657 660
f 660 889 658
f 889 887 658
f 889 660 659
f 662 666 661
f 666 667 661
f 662 663 894
f 666 662 894
f 765 663 664
f 765 895 663
f 895 894 663
f 665 668 664
f 668 767 664
f 765 664 767
f 666 891 667
f 891 666 893
f 894 893 666
f 767 668 898
f 899 898 668
f 683 670 669
f 854 669 670
f 683 669 682
f 669 854 853
f 670 683 671
f 671 856 670
f 670 856 854
f 671 684 672
f 672 859 671
f 684 671 683
f 671 859 856
f 672 685 673
f 673 861 672
f 685 672 684
f 672 861 859
f 674 862 673
f 686 673 685
f 673 862 861
f 675 864 674
f 674 864 862
f 675 677 676
f 864 675 676
f 675 688 677
f 688 675 687
f 677 865 676
f 676 865 864
f 690 678 677
f 865 677 678
f 690 677 688
f 679 678 680
f 866 678 679
f 678 690 680
f 678 866 865
f 832 679 680
f 775 679 832
f 679 775 866
f 680 690 692
f 693 680 692
f 693 832 680
f 694 681 695
f 695 681 874
f 681 868 871
f 681 871 874
f 682 957 683
f 696 682 694
f 682 696 957
f 683 953 684
f 683 697 953
f 697 683 957
f 684 948 685
f 684 698 948
f 698 684 953
f 685 959 686
f 699 685 948
f 685 699 959
f 686 956 687
f 686 700 956
f 700 686 959
f 688 687 689
f 687 701 689
f 701 687 956
f 689 702 688
f 690 688 691
f 688 702 691
f 703 689 701
f 702 689 703
f 692 690 691
f 692 691 704
f 704 691 702
f 692 920 693
f 715 692 704
f 693 867 832
f 850 867 693
f 920 850 693
f 694 695 705
f 696 694 705
f 705 695 706
f 706 695 875
f 695 874 875
f 697 957 696
f 696 964 697
f 705 707 696
f 696 707 964
f 698 953 697
f 697 963 698
f 697 708 963
f 708 697 964
f 699 948 698
f 698 962 699
f 698 709 962
f 709 698 963
f 699 710 700
f 700 959 699
f 710 699 962
f 700 711 701
f 701 956 700
f 711 700 710
f 701 712 703
f 712 701 711
f 702 703 713
f 704 702 713
f 713 703 712
f 941 704 713
f 941 715 704
f 705 706 717
f 707 705 719
f 719 705 717
f 717 706 718
f 718 706 877
f 706 875 877
f 707 955 708
f 708 964 707
f 707 719 955
f 708 950 709
f 709 963 708
f 708 720 950
f 720 708 955
f 709 721 710
f 710 962 709
f 721 709 950
f 710 722 711
f 722 710 721
f 712 711 723
f 713 712 714
f 714 712 723
f 941 713 714
f 723 940 714
f 940 724 714
f 714 724 941
f 725 715 944
f 941 944 715
f 877 875 716
f 717 718 726
f 719 717 728
f 728 717 726
f 726 718 727
f 727 718 880
f 718 877 880
f 720 955 719
f 719 965 720
f 719 728 965
f 721 950 720
f 729 720 965
f 723 732 940
f 725 944 724
f 940 943 724
f 941 724 944
f 726 727 734
f 728 726 736
f 736 726 734
f 734 727 735
f 735 727 885
f 727 880 885
f 728 736 729
f 729 965 728
f 731 730 738
f 939 731 738
f 939 739 731
f 940 732 943
f 885 880 733
f 734 735 742
f 736 734 742
f 742 735 887
f 885 887 735
f 738 737 925
f 737 951 925
f 738 745 939
f 952 738 925
f 939 945 739
f 740 942 741
f 747 740 746
f 740 747 942
f 742 889 748
f 742 887 889
f 744 743 749
f 925 743 744
f 951 743 925
f 749 756 744
f 744 756 750
f 744 750 952
f 952 925 744
f 939 745 945
f 746 946 747
f 752 746 751
f 746 752 946
f 749 748 755
f 755 748 881
f 881 748 889
f 757 750 756
f 751 759 752
f 759 751 758
f 760 752 759
f 754 776 763
f 881 754 763
f 881 889 754
f 755 881 763
f 757 768 758
f 757 766 768
f 758 769 759
f 758 768 769
f 762 879 761
f 776 891 763
f 891 893 764
f 894 764 893
f 767 897 765
f 897 895 765
f 768 766 897
f 895 897 766
f 898 897 767
f 898 769 768
f 897 898 768
f 898 899 769
f 900 770 901
f 772 788 872
f 773 921 852
f 917 782 781
f 792 790 863
f 796 858 794
f 798 857 796
f 796 857 858
f 800 855 798
f 798 855 857
f 860 855 800
f 852 921 803
f 921 911 803
f 804 805 924
f 845 841 910
f 910 841 915
f 873 850 920
