v -2 -1 -1
v -2 -1 1
v -2 1 -1
v -2 1 1
v 2 -1 -1
v 2 -1 1
v 2 1 -1
v 2 1 1
v 1.53601771924306 0.504648653829656 -1
v 2 -0.0545199391020275 -0.788102955083138
v 0.408690110051044 -1 0.226354358959694
v 0.3867488410142 0.234813922332991 -1
v -0.590776045862715 1 -0.278294294869962
v -1.69550334460076 -1 0.700315388404932
v 1.81386475874952 1 0.782942948699618
v -2 0.222217057683902 0.280874298061722
v 2 0.438525874240778 -0.739520572334696
v 1.70145013045705 1 -0.469381961455451
v -2 -0.800394057932924 -0.779584081461542
v 0.456540132250798 -1 0.854937230015726
v 0.429267888087391 -0.843848422384739 1
v 1.2701222440598 -1 0.828232504712658
v 1.82797877417863 0.795004483256335 -1
v 0.472620836690172 0.00929730765931205 1
v 2 -0.782099441436433 -0.395706347381085
v 2 -0.610562781797019 0.453827446092246
v 2 -0.00906218293361105 -0.590437113923133
v 2 -0.546995553919025 -0.423167355911551
v 0.649851179195497 0.634764801663315 -1
v -1.25898999576583 0.302417837693506 -1
v -1.75459348432626 -0.786541926340824 -1
v -2 -0.853890809673121 0.813860326599319
v 1.82223334215494 0.513945961488968 -1
v -1.85210782758261 -0.785173031530152 1
v -1.88077710265498 1 -0.792240256358929
v -2 0.820079342189377 0.875679425905991
v -1.86564177275801 0.802590926857286 1
v -1.88725223827894 1 0.779496462786795
v 0.395267233697229 -0.426479707263184 1
v 0.336506847630115 0.168384128826266 1
v 1.37872808390882 -1 -0.0519338609566358
v 1.84692504825881 -1 -0.747459151567822
v 1.77969756027863 -0.776662438038676 -1
v 2 -0.323242051266827 0.816686829153615
v -1.82223334215494 0.73100301278935 -1
v 1.84526232684593 -1 0.824831707724807
v -1.53601771924306 -0.740300320448662 -1
v 0.214360617039629 -0.462232535228157 -1
v 0.226604174239373 -1 -0.391471474349809
v -0.419546460726066 -0.0815338623156041 1
v -0.44360067525959 1 -0.101800247479645
v 1.80771318508688 1 0.409148419333338
v 1.74034758342618 1 0.598299764447706
v -1.76800885962153 -0.400768782009121 -1
v -0.898409154106779 -1 -0.388359088320238
v -0.891017190846929 -0.400768782009121 -1
v 1.3636380275371 1 0.627123140968815
v 0.927964713627517 1 0.507913628221434
v 1.88616406879407 -0.00973600643861716 1
v 0.469691226597687 0.472768983096856 1
v -2 -0.838383281618691 0.205310442681272
v 0.411890910762951 -1 1
v 1.40274114660703 -0.00571936137845075 1
v 1.28955760142444 -1 0.640499193527106
v -1.42317721278323 -1 0.43544234445673
v -2 -0.727398247742254 -0.566291403137316
v -2 -0.709480101796426 -0.255097257144628
v -0.0315892062619927 -1 0.691488594034785
v -2 -0.695734917336705 0.437872903163828
v -2 -0.687999049200591 0.835866652189697
v -2 -0.683200378154874 0.674925775603291
v 0.709482270895095 0.797945504929908 -1
v 0.73602721411509 -0.713243486256768 1
v -0.985997891530457 -1 0.721576483437654
v -1.16043449390301 1 -0.0129504026608794
v -1.19821030815631 -1 0.22332454922861
v -2 -0.494371051130795 -0.684110552974684
v -2 -0.488701465114868 -0.447569634791349
v -2 -0.561045148181304 0.0102967772720419
v -2 -0.45684601919518 -0.230491660235486
v -2 -0.45684601919518 0.222217057683902
v -0.206440422592135 -0.674049008911108 1
v -2 -0.476541849810061 0.688006718522592
v -1.8597249912759 -0.582453413996989 1
v -2 -0.243002809627659 -0.722001516806222
v -2 -0.232943621701209 -0.0426722451817626
v -2 -0.188586876375295 -0.244230448221604
v -2 -0.249232722898346 0.210034140007906
v -2 -0.249858149542739 0.700506812845241
v -2 -0.113177179479847 -0.45684601919518
v -2 -0.0061585852314161 -0.681088906636037
v -2 -0.0102105024760408 0.229916622464804
v -2 -0.023962706887138 0.0144324678751024
v -2 -0.0101697314229661 0.443808660612215
v -2 -0.124247314554437 0.900473559508498
v -2 -0.0267510300891152 0.720659842045058
v 1.83193958626066 0.834882884609885 1
v -1.83732105038048 0.127725828460746 -1
v -1.6616665553036 -1 0.179845090165834
v 2 -0.236279493827982 -0.719307121385726
v -1.85872123579411 -1 0.854390497222185
v -2 0.222217057683902 -0.683200378154874
v -2 0.113177179479847 -0.230491660235486
v -2 0.204522172516315 0.0146308292962902
v 1.76800885962153 -1 -1
v -2 0.102466825606127 0.901839488564615
v -2 0.222217057683902 0.674925775603291
v -1.76800885962153 -1 -1
v -2 0.339531538439541 -0.45684601919518
v -2 0.448571416643596 -0.683200378154874
v -2 0.339531538439541 -0.113177179479847
v -2 0.448571416643596 0.222217057683902
v -2 0.460217853225935 0.450577122713835
v -2 0.328089034052396 0.901902073007789
v -2 0.468426918648585 0.856617173810032
v -2 0.674925775603291 -0.45684601919518
v -2 0.674925775603291 -0.230491660235486
v -2 0.701741027671892 -0.0126692666791144
v -2 0.717893957166505 0.201573669735842
v -2 0.639471706282561 0.716225172817476
v -1.86723179504301 0.583950226744344 1
v -2 0.813006737536361 -0.721426407675576
v -2 0.89580124970582 -0.341148672322777
v -2 0.911363062475476 -0.120731119312397
v -2 0.912730010028878 0.103669784278849
v -2 0.910008191507026 0.334676526336239
v -2 0.79224025635893 0.674925775603291
v -2 0.878328215767002 0.490947638753923
v -1.85088857132292 1 -0.589620971245443
v -1.88077710265498 1 0.565885897399236
v -1.77232813758815 -1 -0.688360384538394
v -1.78704322823342 -0.208957850554732 1
v -1.82384329458018 0.0302848578973987 1
v -1.80130395653216 0.242467430833653 1
v -1.77232813758815 0.4620060255787 1
v -1.77232813758815 0.688360384538395 1
v 2 -0.860367472246849 0.835253263003439
v -1.7789095934108 1 -0.219027376615389
v -1.80555370906423 1 0.0336184021333723
v -1.79870367365388 1 0.240976944840677
v -1.77232813758815 1 0.4620060255787
v -1.77232813758815 1 0.688360384538395
v -1.67518218178625 -1 -0.553573172145422
v -1.68360208875497 -1 -0.233045786364636
v -1.69256049173254 -1 -0.0227241110161372
v -1.66136770121746 -1 0.488164432008201
v -1.60595375362081 -1 -0.721112951406601
v -1.56475142939824 -1 -0.41376747726789
v 2 -0.392791025985152 0.451593915923055
v -1.6524960789939 -0.645647972025644 1
v -1.53601771924306 -0.792240256358929 1
v -1.70929622339003 -0.582032664636797 -1
v -1.69410945859715 -0.223885093664829 -1
v -1.54019426670783 -0.43244038677895 -1
v -1.6660913404972 -0.35184250742582 1
v 2 0.423939397382842 1
v -1.53601771924306 -0.443411410260076 1
v 2 -0.0287693205365464 1
v -1.66387917252132 0.00929730765931198 -1
v 2 -1 -0.255123679496241
v -2 -1 -0.489752641007519
v -2 -0.261437791224686 0.449862867803691
v -2 -0.472014026030952 0.44845242723891
v -1.53601771924306 -0.217057051300382 1
v -1.66626222817605 0.224258660121263 -1
v -1.66387917252132 0.4620060255787 -1
v -1.55575117001532 0.229672503187005 1
v 2 0.0417923830132634 -0.409300599466778
v -1.62004629574973 0.549260529733369 1
v -1.64446668430989 0.896120128179465 -1
v -1.55848832040007 0.684171280660134 -1
v -1.64446668430989 1 -0.688360384538394
v 2 -1 0.197585038423148
v -2 0.117711168014903 -1
v -2 -1 0.189310435871564
v -1.65763428875369 1 0.833221508804625
v -1.53601771924306 0.688360384538395 1
v -2 0.113177179479847 -0.45684601919518
v -1.50415017700885 0.879217235578418 1
v -1.55504827738284 1 -0.857322548002474
v -1.53601771924306 1 -0.443411410260076
v -1.53601771924306 1 -0.217057051300382
v -1.53601771924306 1 0.235651666619006
v -1.49527897692009 1 0.879886828193734
v -1.40731860841656 -1 -0.550150588736432
v -1.37051583465964 -1 -0.728143767287328
v -1.4475946018764 -1 -0.239569792575912
v -1.42761391223467 -1 -0.00803838952838309
v -1.42756875417623 -1 0.235651666619006
v -1.42756875417623 -1 0.688360384538395
v -1.83070357750949 -1 -0.427757724795593
v -0.632127379391996 -0.829959809315146 1
v -1.39949239059021 -0.709532872042901 1
v -1.29970730089797 -0.688360384538394 -1
v -1.43130658677573 -0.238617202595537 -1
v -1.40780521820131 0.0167435474218838 -1
v -1.41833375999192 -0.0415578186416468 1
v -1.2915998079316 -0.215346961578766 1
v -1.40450039778691 0.228923938195303 -1
v -1.41759552246712 0.466555910808163 -1
v -1.40108037013434 0.368564664367686 1
v -2 -0.660857028249914 0.197244364568995
v 2 0.0422039294716504 0.841600189077437
v -1.40947160303954 0.554644597034011 1
v -1.4081562659648 0.896120128179465 -1
v -1.29970730089797 0.669765769219771 -1
v -1.42967499758427 1 -0.694406913119486
v -1.4081562659648 1 -0.00929730765931176
v -1.40851495879828 1 0.460437093650637
v -1.41221839679774 1 0.708705125298056
v 0.551680489319114 -0.317761686123442 1
v -1.29970730089797 0.688360384538395 1
v 0.537238038119495 1 -0.0269217284652372
v -1.29970730089797 0.896120128179465 1
v -1.27777757196034 1 -0.857514963554492
v 1.47463435089222 0.175796930845307 1
v -1.35393178343139 0.113177179479847 1
v -0.64500052839613 -0.565885897399235 1
v -1.28683515889823 1 -0.224921192049864
v -0.319725085949811 -1 0.500916732474311
v -0.776408923632427 -1 0.294797694513952
v -1.30087222256171 1 0.863061632620652
v 1.57126296767235 0.111264796698435 -1
v -1.21824796046457 -1 -0.554772729974027
v -1.19125833583114 -1 0.00929730765931198
v -1.19125833583114 -1 0.4620060255787
v -1.19125833583114 -1 0.688360384538395
v -1.06339688255289 -1 -0.565885897399235
v -1.06339688255289 -1 -0.688360384538394
v -1.06339688255289 -1 -0.235651666619006
v -1.17692401093983 -0.845638907248472 1
v -1.18038836389885 -0.657677139879826 1
v -1.02534888509713 -0.810502202269987 1
v -1.22315844749458 -0.543820125736508 -1
v -1.06339688255289 -0.565885897399235 -1
v -1.06339688255289 -0.688360384538394 -1
v -1.19125833583114 -0.339531538439541 -1
v -1.07222197048518 -0.471185199342421 1
v -1.19125833583114 0.00929730765931198 -1
v -1.09614518389608 -0.240638894185736 -1
v -1.17184584761972 -0.00929730765931176 1
v -1.06339688255289 0.113177179479847 -1
v -1.14794355029499 0.229908443455321 1
v -1.18043919810645 0.468519971251966 -1
v -1.1792238450685 0.485154335557159 1
v -1.16365611466832 0.844431932442813 -1
v -1.07945230244804 0.675547859336249 -1
v -1.17184584761972 1 -0.688360384538394
v -2 -0.782942948699618 -0.0205906121819611
v 2 0.666747067248705 0.782942948699618
v -1.16509972063823 1 0.451164412450149
v -1.17184584761972 1 0.669765769219771
v 2 -0.782942948699618 -1
v -1.03479657233616 0.69522678052633 1
v 2 1 -0.782942948699618
v -1.09312666535362 0.86056344952423 1
v -1.07846001775439 1 -0.866631938754558
v -2 -0.782942948699618 -1
v -2 0.782942948699618 -1
v -1.05397763331735 1 -0.448516792619333
v 2 1 0.782942948699618
v -1.06339688255289 1 -0.217057051300382
v -1.05685618940332 1 0.222853668066921
v -1.0748036477216 1 0.858667697489946
v -0.898562987656339 -1 -0.135079017959001
v -0.954583299569019 -1 0.176832585869754
v -0.946026293750685 -1 0.478521850993686
v -0.827086464207801 -1 -0.688360384538394
v -0.82829833576473 -0.703176069993156 -1
v -0.831862572735989 -0.678399315987048 1
v -0.995475813554025 -0.223053380054605 1
v -0.831963689833065 -0.429366892560684 1
v -0.912994267648266 -0.156491333544631 -1
v -0.934694933173195 0.016608882635899 1
v 0.278887148533035 -1 0.322197094746388
v -0.954947917486057 0.235651666619006 -1
v -0.944553734307064 0.452701180271452 -1
v -0.9424596195095 0.374371781734227 1
v -0.833557645321918 0.191975958225315 1
v -0.934416650434141 0.561153327829563 1
v -0.827086464207801 0.669765769219771 -1
v -0.87569908133207 1 -0.328934674616435
v -0.942635457271358 1 0.038313753675444
v -0.926047742789999 1 0.435999496873944
v -0.953169417869083 1 0.679796242693218
v -0.791682181798778 0.719234655403352 1
v -0.856410142870287 0.869146040367813 1
v -0.883041400096594 1 -0.667235473806238
v -0.827086464207801 1 -0.113177179479847
v -0.846085320205205 1 0.216125729747297
v -0.84133081676336 1 0.859677587861766
v -0.74340476235387 -1 -0.523110873559066
v -0.718637499140971 -1 -0.339531538439541
v -0.705826710962433 -1 9.75209092828333e-05
v -0.697303504385843 -1 0.464869276955891
v -0.718637499140971 -1 0.688360384538395
v 1.54572396334877 0.391471474349809 1
v -2.77555756156289e-16 1 0.287591602529274
v -0.0204659250020645 0.304714118259837 1
v -1.30941354500369 -0.391471474349809 -1
v 0.932472984599973 0.52926048327335 1
v -0.608564950232809 -0.862584700224028 -1
v -0.590776045862715 -1 -0.688360384538394
v -0.529986426225387 -1 -0.281162070425588
v -0.618818470726309 -1 0.213578218081539
v -0.731417275511768 -0.525272887755345 -1
v -0.590776045862715 -0.688360384538394 -1
v -0.728273829315415 -0.341438634319705 -1
v -0.535101592549404 -0.280184170466823 -1
v -0.699225010929545 -0.235651666619006 1
v -0.710807921077972 -0.0288662074252615 -1
v -0.663126322077096 -0.0183537299376544 1
v -0.702552434990131 0.487069855369579 -1
v -0.590776045862715 0.217057051300382 -1
v -0.731191216656753 0.374881298441925 1
v -0.590776045862715 0.235651666619006 1
v -0.726856809539885 0.561519200589524 1
v -0.572564567921076 0.440033286033284 1
v -0.699225010929545 0.896120128179465 -1
v -0.590776045862715 0.669765769219771 -1
v -0.714235985138448 1 -0.48083235539279
v -0.685614275604826 1 -0.00571286568528107
v -0.734774897016982 1 0.39576456105717
v -0.715652709891124 1 0.659456838719237
v -0.590776045862715 0.688360384538395 1
v -0.624156022570015 0.867488417608605 1
v -0.569839469681744 1 -0.85548902351313
v -0.630075952946489 1 -0.675606280575378
v -0.57517821285131 1 0.208311848519295
v -0.577863564939853 1 0.470416887954964
v -0.605802620688862 1 0.857859430478707
v -0.482327080795885 -1 -0.565885897399235
v -0.482327080795885 -1 0.339531538439541
v 0.0903741375556916 -1 0.844180192269197
v -0.490282815602908 -1 0.698848388466537
v -0.844253722448936 -1 0.833417843449841
v -0.618557117479567 -1 0.844180192269197
v -1.555926075442 -1 0.816595481960706
v -0.354465627517629 -1 -0.688360384538394
v -0.35959325872426 -1 -0.418472387112073
v -0.425502052524323 -1 0.0187962003259067
v 0.191775912643312 1 0.791825579812001
v -0.462914592584459 -0.688360384538394 1
v -1.38157288284795 -1 -0.41136046406248
v -0.512857658337825 -0.516543942808956 -1
v -0.354465627517629 -0.688360384538394 -1
v -1.82223334215494 1 0.896120128179465
v 2 0.00951400479388731 0.526588672245113
v 2 0.343668839715333 0.511365958297208
v 2 0.29872320702791 0.226296566325048
v -0.37187430347617 -0.412141364143194 -1
v -0.354465627517629 -0.443411410260076 1
v -0.482327080795885 0.00929730765931198 -1
v -0.368363995698395 -0.229569361565157 1
v -0.368973372145306 0.0439242244085769 1
v -0.482327080795885 0.4620060255787 -1
v -0.363191555274416 0.228597246622975 -1
v -0.316103429056991 0.459077975481799 1
v -0.462914592584459 0.896120128179465 -1
v -0.348792798409572 0.677318915127612 -1
v -0.459687205020547 1 -0.55024322200667
v -0.464545625319686 1 0.353954525520857
v -2 -0.828219267842242 0.604594695123862
v -0.462914592584459 1 0.669765769219771
v 0.226304528742585 1 -0.0517754550334537
v 0.267157270145557 -0.0418741132555374 1
v -0.354465627517629 0.688360384538395 1
v 1.56440002026355 1 -0.596209862420752
v -0.390669697865286 0.86420309631902 1
v -0.343789940218195 1 -0.881696999050826
v -0.236310418345086 0.0519399359102678 -1
v 0.811466940485985 1 -0.684579781445876
v -0.305789711691014 1 -0.406866224550275
v -0.384885694285664 1 -0.241746727742568
v -0.354465627517629 1 0.00929730765931209
v -0.353159616849791 1 0.471925566451691
v 2 -0.264966349801122 0.649473335693025
v -0.369555158337762 1 0.860659353644834
v 2 -0.00467888891643786 -0.0648921567880488
v -0.242541300130113 -1 -0.56216911167725
v 2 0.226354358959694 -0.0545199391020275
v -2 0.508148438931152 -0.305145123884812
v -0.25742978915157 -1 -0.246341494691121
v -0.248112825585072 -1 0.0847825006049014
v -0.245050039406385 -1 0.286923264705832
v -2 -0.365524455030003 0.0808671936799685
v -0.240655540164447 -1 0.695960676694736
v -0.133660774247841 -0.867773258755261 -1
v -0.118155209172543 -1 -0.688360384538394
v -0.144380240726393 -1 -0.431403264541265
v -0.12660758949449 -1 -0.116636189922489
v -0.072997618950561 -1 0.470293624443233
v -0.244402296610898 -0.555747306710565 -1
v 1.23572400361496 0.601540967496133 -1
v -0.118155209172543 -0.688360384538394 -1
v 0.285367467908345 0.531966203983784 -1
v -0.246016662450799 -0.217057051300382 -1
v -0.143002546774415 -0.427026361082883 -1
v 1.33863124944065 -0.587957417661294 1
v 0.41184077577034 1 0.299247248052477
v -0.118155209172543 -0.443411410260076 1
v -0.149774133907947 -0.102994603259107 -1
v -0.249575685086127 -0.102034598307968 1
v -0.538662178544476 -0.164647301597683 1
v -0.526845319223587 -0.339531538439541 1
v -0.118155209172543 -0.217057051300382 1
v -0.226604174239373 0.217057051300382 1
v -0.0981161156966004 -0.00100730902835511 1
v -0.113950073826121 0.211674772285981 -1
v 0.841171096840192 0.286401611577593 1
v 2 0.515599114600509 -0.884130182172576
v -0.118155209172543 0.443411410260077 -1
v -0.0575286735262459 0.468087421964462 1
v -0.250654224557441 1 -0.757248497293478
v -0.226604174239373 0.896120128179465 -1
v -0.112185979745551 0.654626418242573 -1
v -0.240276842077442 1 -0.561230280512675
v -0.251520662459583 1 -0.113958006616664
v -0.232582914545537 1 0.242206031949928
v -0.226604174239373 1 0.669765769219771
v -0.0605426137140443 0.692050024411901 1
v -0.146007689489202 0.859053507894982 1
v -0.102425036263342 1 -0.861940247946944
v -0.118155209172543 1 -0.66976576921977
v -0.118155209172543 1 -0.443411410260076
v -0.123394951162543 1 -0.225351379697922
v -0.10501038177117 1 0.00531437586224093
v -0.104476224137441 1 0.455737584452448
v -0.126847559668541 1 0.863513476531501
v 0.00692852991561388 -1 -0.54825282863969
v -0.00970624410571316 -1 -0.339531538439541
v -0.00970624410571316 -1 0.00929730765931198
v 0.118155209172543 -1 -0.688360384538394
v 0.118155209172543 -1 0.217057051300382
v 0.126364523999936 -1 0.420843552341829
v 0.0099979695991852 -0.683354102189581 1
v -0.00551046915221498 -0.542362156134649 -1
v 0.118155209172543 -0.688360384538394 -1
v 0.00754132343912772 -0.348513612758748 -1
v 0.137015260720819 -0.437553065234497 1
v 0.0146305639124167 0.0432719885397828 -1
v 0.110703436441492 -0.20867881247997 1
v 0.11020496241754 0.132450620585057 1
v 0.1396439214453 0.232290108842452 -1
v 0.118155209172543 0.443411410260077 -1
v 0.0097062441057126 0.896120128179465 -1
v 0.10647332945747 0.682538522992942 -1
v 0.0296083633040709 1 -0.585045133848634
v 0.0435510112368451 1 0.67502003453318
v 0.118155209172543 0.688360384538395 1
v 0.090689675861483 0.872408968492685 1
v 0.131007954850975 1 -0.883167901871384
v 0.118155209172543 1 -0.443411410260076
v 0.107085044392971 1 -0.201582921178963
v 0.118155209172543 1 0.113177179479847
v 0.108621655477858 1 0.882915176823339
v 0.237656903132176 -1 -0.561269520133667
v 0.226604174239373 -1 -0.217057051300382
v 0.226604174239373 -1 0.688360384538395
v 0.339793166112093 -0.869463427684527 -1
v 0.354465627517629 -1 -0.688360384538394
v 0.351720715917867 -1 0.0058799355270418
v 0.236146322805945 -0.687772498540873 1
v 0.353004180854747 -0.69053313217109 -1
v 0.23540194518152 -0.238242664511481 -1
v 0.230069903310174 0.0264363184288161 -1
v 0.354465627517629 -0.217057051300382 1
v 0.246016662450799 0.443411410260076 1
v 0.221016476993091 1 -0.763478416030256
v 0.252542350036242 0.866332909840437 -1
v 0.246016662450799 1 0.443411410260076
v 0.357980863897937 0.675093813197881 1
v 0.322761473545258 0.858377252685547 1
v 0.354465627517629 1 -0.896120128179465
v 0.354465627517629 1 -0.66976576921977
v 0.357638168730098 1 -0.214578672710101
v 0.373973081864776 1 0.0423150306344819
v 0.354465627517629 1 0.688360384538395
v 0.341735430521624 1 0.864684694109069
v 0.461177641873954 -1 -0.432432514578164
v 0.466591620695024 -1 -0.186461464807881
v 0.45204009636484 -1 0.450811809697845
v 0.568837674365557 -0.861746400817354 -1
v 0.609903504124803 -1 -0.704880202901811
v 0.590776045862715 -1 -0.00929730765931165
v 0.601778116987323 -1 0.6722698943636
v 0.498386745388149 -0.654031339628433 1
v 0.462914592584459 -0.443411410260076 -1
v 0.590776045862715 -0.688360384538394 -1
v 0.462914592584459 -0.217057051300382 -1
v 0.590776045862715 -0.00929730765931165 -1
v 0.488397932100475 0.440818826871565 -1
v 0.585152675679671 0.248695093262209 1
v 0.493084411602429 0.795798590262518 -1
v 0.511418260473928 1 -0.524423299084946
v 0.604917360409406 0.69857795225919 1
v 0.563559035435635 0.863612466109975 1
v 0.604491251596592 1 -0.852711773370403
v 0.590776045862715 1 -0.66976576921977
v 0.620731564432241 1 0.240395415166796
v 0.590776045862715 1 0.4620060255787
v 0.591215497496933 1 0.86077549938495
v 0.721399777285876 -1 -0.442403366253708
v 0.699225010929545 -1 -0.217057051300382
v 0.717499065419691 -1 0.223074641566036
v 0.820279300980527 -0.857240812960727 -1
v 0.827086464207801 -1 -0.688360384538394
v 0.866139720340655 -1 0.403162426799781
v 0.838464879531299 -1 0.639853527511726
v 0.699225010929545 -0.443411410260076 -1
v 0.803538064229667 -0.659626273059325 -1
v 0.682700126192858 -0.455076404054059 1
v 0.720011848368696 -0.201762616906517 -1
v 0.709346170788706 -0.251647777761205 1
v 0.72418474727975 -0.0540407766161755 1
v 0.685240158209641 0.228388050643685 -1
v 0.708043817310826 0.479835303942518 1
v 0.827086464207801 0.443411410260077 -1
v 0.860187388373226 0.650479463244983 -1
v 0.70762565032242 1 -0.427747081829741
v 0.728459942679695 1 -0.136861859124974
v 0.732482413943362 1 0.0717128149474586
v 0.744618676412725 1 0.444687936991999
v 0.733020133249448 1 0.690885850762069
v 0.844487180008014 0.70275396341735 1
v 0.78955069561411 0.862894201330855 1
v 0.827086464207801 1 -0.896120128179465
v 0.838421502268568 1 0.278191853218948
v 0.846076936048906 1 0.861207191168293
v 0.912556648718832 -1 -0.858106226952344
v 0.935535429274631 -1 -0.443411410260076
v 0.926976501645239 -1 -0.235647225759731
v 0.923937062985708 -1 0.009912488890504
v 0.953589541151997 -1 0.214070791691932
v 1.0524485803016 -0.862244177035249 -1
v 1.05010715371226 -1 -0.708926719463699
v 1.1162358003196 -1 0.484072155082488
v 1.0907414944798 -1 0.675778420212807
v 0.954371017046064 -0.703765876767894 1
v 0.93518589865111 -0.476836802451595 -1
v 1.06339688255289 -0.688360384538394 -1
v 0.943259306664133 -0.456598411877665 1
v 1.04596517992041 -0.340492436255603 -1
v 0.954947917486057 -0.235651666619006 1
v 0.911341527186327 -0.00515950510753171 -1
v 0.93915592232973 0.208398333084185 -1
v 0.948952998726032 0.0475574832315484 1
v 1.06339688255289 0.339531538439541 1
v 1.06339688255289 0.443411410260077 -1
v 0.894614471727175 0.832244396240006 -1
v 1.06339688255289 0.669765769219771 -1
v 0.963239433278233 1 -0.447557438820199
v 0.9512045027924 1 -0.203446586028587
v 0.949028846981234 1 0.0479798635797275
v 1.08095121181951 0.708781240847843 1
v 1.02700557749359 0.863703146576525 1
v 1.06114275387141 1 -0.728088811770467
v 1.06685947277593 1 0.302785126712669
v 1.01626665815565 1 0.6927878640107
v 1.05001942703576 1 0.875668614971881
v 1.17244843423444 -1 -0.866895036642894
v 1.17184584761972 -1 -0.443411410260076
v 1.15057847615803 -1 -0.215561253018432
v 1.17750621652156 -1 0.0441727059991353
v 1.16555280807429 -1 0.296434953673648
v 1.27189472383711 -0.859338891672248 -1
v 1.27128717542521 -1 -0.705307921450896
v 1.19125833583114 -0.792240256358929 1
v 1.18638957085423 -0.509075088200632 -1
v 1.26757315117614 -0.664216396279879 -1
v 1.20047991086352 -0.478341907974662 1
v 1.17184584761972 -0.217057051300382 -1
v 1.17448919137312 -0.247538074596783 1
v 1.15661051410382 -0.00917705977090932 -1
v 1.17794254149309 -0.00470952114975809 1
v 1.17184584761972 0.235651666619006 -1
v 1.29506602888154 0.213304604615487 1
v 1.20041245586803 0.52153983056613 1
v 1.33169673783926 0.782418064337144 -1
v 1.19343619267737 1 -0.448036215686935
v 1.18525266197986 1 -0.225826726755921
v 1.18465763580214 1 0.0158537972726691
v 1.19125833583114 1 0.565885897399236
v 1.22721179702128 1 0.80409614673626
v 1.32021433164977 0.721520177180367 1
v 1.26960955765167 0.873758731871299 1
v 1.27177801880475 1 0.24535179902291
v 1.41561975852165 -1 -0.861314299496984
v 1.38210442421106 -1 0.113078394423571
v 1.38492463423556 -1 0.45103165533772
v 1.57616286667709 -1 -0.706645083330653
v 1.53601771924306 -1 -0.4620060255787
v 1.54705356641733 -1 0.232751067604818
v 1.53601771924306 -1 0.669765769219771
v 1.39439827127539 -0.450641228685344 -1
v 1.49204161719186 -0.712458513922249 -1
v 1.45635460928113 -0.445048615146804 1
v 1.53601771924306 -0.66976576921977 1
v 1.39712392623489 -0.228213801767018 -1
v 1.41092490709457 -0.211449971015694 1
v 1.39981859344105 0.00187712488444447 -1
v 1.41309159370967 0.235698130798447 -1
v 1.36534337455272 0.460663759875443 -1
v 1.42756875417623 0.339531538439541 1
v -2 0.68224859985374 -0.851295267005001
v 1.45564461459481 0.519611883321888 1
v 1.42756875417623 1 -0.792240256358929
v 1.42756875417623 1 -0.4620060255787
v 1.42756875417623 1 -0.113177179479847
v 1.39644487139158 1 -0.279308895101368
v 1.42141151543971 1 0.110192509078139
v 1.41053598253846 1 0.35166790731842
v 1.42756875417623 1 0.79224025635893
v 1.47787306701803 0.860150381201451 1
v 1.53601771924306 1 0.4620060255787
v 1.60579437440816 1 0.69197813077173
v 2 0.830380634992736 0.22670275513058
v 1.64446668430989 -1 -0.113177179479847
v 1.82372383295259 -1 -0.231855298484712
v 1.76624120929851 -1 0.0107156394298897
v 1.77232813758814 -1 0.217057051300382
v 1.78474959270695 -1 0.467076698290308
v 1.61111018667154 -0.477486874357155 -1
v 0.0575419555571663 1 -0.743913186135258
v 1.66387917252132 -0.565885897399235 1
v 1.78357908570398 -0.693668136690167 1
v 1.823217396968 -0.448624291914882 -1
v -0.408690110051044 1 -0.73100301278935
v 1.66387917252132 -0.235651666619006 1
v -1.25631048940062 0.145002214422599 -1
v 1.76114158895703 -0.249222105496774 -1
v 0.881310946741216 -0.278294294869962 -1
v 1.64445869495498 -0.00141136725368618 1
v 1.83871133113939 -0.238823680444789 1
v 1.77232813758814 -0.00929730765931165 -1
v 1.66387917252132 0.217057051300382 1
v 1.77137620927125 0.229791805994795 -1
v 1.61519328792925 0.733761568798638 -1
v 1.65468479946823 0.700636593015616 1
v 1.76723442363486 0.472096698125176 1
v 1.66387917252132 1 -0.792240256358929
v 1.66438048948372 1 -0.238898396497393
v 1.66387917252132 1 -0.00929730765931176
v 1.67102635156997 1 0.226130645769713
v 0.559610995781942 -0.15948614720199 1
v 2 -0.843035927661053 -0.656847804342097
v 2 -0.685311232840589 -0.851959711903791
v 2 -0.67492577560329 -0.67492577560329
v 1.41786251007052 0.648444455094293 -1
v 2 -0.67492577560329 -0.222217057683902
v 2 -0.823811297363695 0.228866721089596
v -0.895548113795114 -0.865325425032608 1
v 2 -0.67492577560329 0.00413730127579199
v 2 -0.800772969339603 0.472568458170013
v 2 -0.641272739036778 0.217759730287633
v 0.221725073923757 1 -0.569730054478152
v 0.368011672442291 1 -0.432680026458806
v -0.618664943006957 -1 -0.159819958639745
v 0.999466155913759 -0.165117115390115 -1
v -1.08969414148152 0.292384931353343 -1
v 2 -0.666652277613655 0.688427189120278
v -1.09117795416974 -1 0.844180192269197
v 2 -0.443870709817979 -0.704960684763925
v 1.45308542589816 -0.847378881786475 1
v 1.6796018917572 -0.826432129993698 1
v 0.764907796890801 -1 0.808902892696618
v 0.989384902542398 -1 0.836253712188316
v 2 -0.474670032502552 -0.0117012604310406
v 2 -0.448571416643596 0.230491660235486
v 2 -0.448810587713617 0.6930215903545
v 0.290534900878501 0.73100301278935 -1
v -1.69300433090253 -0.474875087341522 1
v 1.3636380275371 -0.73100301278935 1
v 1.67815871039206 -1 0.733355470702344
v -1.82375764018582 -0.407652581739592 1
v -1.82655262012156 1 -0.391471474349809
v 0.567353236323773 1 0.664454814707107
v 0.554386316342082 1 -0.270776671247233
v 0.0772007865380466 1 0.471552777170617
v 2 -0.381536701757521 -0.223627109157802
v 1.48788396703475 0.682323394583653 1
v 2 -0.222217057683902 -0.448571416643596
v 0.64500052839613 -1 0.452708717919388
v -1.2510107904726 1 0.213145246033946
v -1.58867919885446 1 0.640594929958049
v 2 -0.207878121573616 0.0205620191493172
v -1.57436336051501 1 0.456431530510556
v -1.59024220177647 1 1.66533453693773e-16
v -1.59024220177647 1.66533453693773e-16 1
v 2 -0.223905769670079 0.24814955263157
v 0.382087459978562 -0.0451533961518917 -1
v 0.416414917363753 -1 0.669971771466587
v 0.172379691705958 -1 1.66533453693773e-16
v -0.408690110051044 0.226354358959694 1
v -0.0445721264283183 -1 0.243913545809895
v 1.35393178343139 -1 -0.226354358959694
v -1.24060952821647 -1 -0.263912466227379
v -1.27504221984047 -0.178023991145939 -1
v 1.58780437563322 -0.184454127764123 -1
v 1.56164651119919 -1 0.44633170610296
v 2 -0.113177179479847 -0.222217057683902
v 2 -0.170661191977704 0.465364034978412
v 2 -0.0162535447725607 0.232059371548302
v 2 -0.10480037398555 0.704749950299177
v 2 0.142939839426023 -0.871002330844301
v 2 0.224862192674868 -0.6578000992999
v 2 0.0969995668761168 -0.241274558305127
v 2 0.230491660235486 -0.448571416643596
v 2 0.113177179479847 0.113177179479847
v 2 0.113177179479847 0.339531538439541
v 2 0.222359810912931 0.692974007626789
v 2 0.285070126456948 -0.24045288777385
v 2 0.45684601919518 -0.448571416643596
v 2 0.45684601919518 0.00413730127579199
v 2 0.45684601919518 0.339531538439541
v 2 0.462212820851368 0.693506359914182
v 2 0.683200378154875 -0.792240256358929
v 2 0.683200378154875 -0.565885897399235
v 2 0.704046342749674 -0.233948174638026
v 2 0.689749803681361 0.0924984992965341
v 2 0.683200378154875 0.339531538439541
v 2 0.683200378154875 0.565885897399236
v -1.77232813758815 1 -1
v -1.9991232508488 0.80936960328632 1
v 2 -0.998560987445055 -0.74021036071432
v -2 -1 -0.716106999967213
v -2 -1 -0.263398282047825
v -2 -1 -0.0370439230881303
v -2 -1 0.415664794831258
v -2 -1 0.642019153790952
v -2 -0.714296766103443 1
v -2 -0.565885897399235 -1
v -2 -0.452184975316914 1
v -2 -0.339531538439541 -1
v -2 -0.263398282047824 1
v -2 -0.113177179479847 -1
v -1.99931792951465 -0.0180819232433901 1
v 2 0.285011599337514 0.0586572403778196
v 0.593023777012593 -0.806373901583557 1
v -1.99796546827512 0.214449619388521 1
v -2 0.339531538439541 -1
v 1.04532205504175 -0.844180192269197 1
v -2 0.415664794831258 1
v -2 0.565885897399236 -1
v -0.869704745358951 0.0694369282430474 -1
v -2 0.642019153790952 1
v 0.0475508700019525 -0.150186436804459 -1
v 0.0601856514042662 -1 -0.165587386727327
v -2 1 -0.716106999967213
v -2 1 -0.489752641007519
v -1.3636380275371 -0.513945961488968 -1
v -2 1 -0.263398282047824
v -2 1 -0.0370439230881302
v -2 1 0.189310435871564
v -0.763155737568673 1 -0.844180192269197
v -2 1 0.415664794831258
v -2 1 0.642019153790952
v -1.28042410575281 1 -0.390616319305946
v -1.27175754851207 -0.409034125689114 1
v -1.70002882754359 -1 1
v -1.53601771924306 -1 -1
v -1.68061633933217 1 1
v -1.60831702928761 1 -1
v -1.46371840919851 -1 1
v -1.2858181273281 -1 -1
v -1.41608760009135 1 1
v -1.39967175427706 1 -1
v -1.22740799085342 -1 1
v -1.18712388840406 1 1
v -1.16621809789518 1 -1
v -0.991097572508334 -1 -1
v -0.991097572508334 -1 1
v -0.957075830635177 1 1
v -0.899385774252355 1 -1
v -0.754787154163248 -1 -1
v -0.754787154163248 -1 1
v -0.721826937867062 1 1
v -0.670579834358112 1 -1
v -0.518476735818162 -1 -1
v -0.518476735818162 -1 1
v -0.486380966020118 1 1
v -0.453907696279834 1 -1
v -0.282166317473076 -1 -1
v -0.282166317473076 -1 1
v -0.248820410694934 1 1
v -0.220730648715625 1 -1
v -0.0458558991279899 -1 -1
v -0.0458558991279898 -1 1
v -0.0106077654909151 1 1
v 0.0148047350589371 1 -1
v 0.190454519217096 -1 -1
v 0.190454519217096 -1 1
v 0.209867007428522 1 1
v 0.250808750816631 1 -1
v 0.426764937562182 -1 -1
v 0.446177425773608 1 1
v 0.490796361573413 1 -1
v 0.663075355907269 -1 -1
v 0.663075355907269 -1 1
v 0.682487844118695 1 1
v 0.754787154163248 1 -1
v 0.883941405659883 -0.998213196627504 -1
v 0.899385774252355 -1 1
v 1.06339688255289 -1 -1
v 0.934815863780942 1 1
v 0.991097572508334 1 -1
v 1.13785338151061 -1 1
v 1.29970730089797 -1 -1
v 1.17857183052854 1 1
v 1.22740799085342 1 -1
v 1.37200661094253 -1 1
v 1.53601771924306 -1 -1
v 1.39141909915395 1 1
v 1.46371840919851 1 -1
v 1.60831702928761 -1 1
v 1.62772951749904 1 -1
v 1.62772951749904 1 1
v 2 -1 -0.481478038455935
v 2 -1 -0.0287693205365465
v 2 -1 0.423939397382842
v 2 -1 0.650293756342536
v 2 -0.707832397415629 1
v 2 -0.565885897399235 -1
v 2 -0.481478038455935 1
v 2 -0.339531538439541 -1
v 2 -0.255123679496241 1
v 2 -0.113177179479847 -1
v 2 0.113177179479847 -1
v 2 0.197585038423148 1
v 2 0.339531538439541 -1
v 2 0.650293756342536 -1
v 2 0.650293756342536 1
v 2 1 -0.565885897399235
v 2 1 -0.339531538439541
v 2 1 -0.113177179479847
v 2 1 0.113177179479847
v 2 1 0.339531538439541
v 2 1 0.565885897399236
v -2 0.507228657021416 -0.0586572403778194
v -2 -0.38630265153094 -0.0471396746659922
v 1.8244834372524 1 -0.103103202396319
v -1.82180131687744 0.334378852699836 -1
v 2 -1 0.803575822582205
v -1.59024220177647 0.400768782009121 1
v 2 -0.132945225525108 0.869058135156134
v 0.259345306693288 -1 0.462030626619966
v -0.513601865808537 0.0396326972126374 1
v -0.529362163557604 1 0.0378525927954694
v 0.74628083510267 -0.020108600698868 -1
v 0.735459947852775 -1 -0.00661942106354196
v 2 0.472801839360148 -0.228545552885232
v 2 0.0476562611191056 0.693666699643427
v -1.60831702928761 0.844180192269197 1
v 2 -0.837462887801645 -0.846760195460957
v -2 0.394051477541569 -0.841600189077437
v 2 -0.896120128179465 0.10086116984947
v 0.118155209172543 -0.0519399359102674 1
v -1.6541729284156 1 0.348828846098853
v 0.00152897020346998 -0.114208538468606 1
v -1.67709681238452 1 0.127495810743717
v 0.234871835052997 1 -0.327928669866512
v 0.818708005027085 -1 -0.109304817438339
v -0.237247127516472 -0.323647693132611 1
v -1.16811913911114 1 -0.31307663359264
f 19 258 1
f 726 19 1
f 31 108 1
f 258 31 1
f 108 726 1
f 2 32 730
f 2 731 32
f 2 34 731
f 760 34 2
f 101 2 730
f 101 760 2
f 3 35 723
f 3 749 35
f 45 259 3
f 723 45 3
f 259 122 3
f 749 3 122
f 724 4 36
f 4 757 36
f 37 4 724
f 37 762 4
f 347 38 4
f 757 4 38
f 762 347 4
f 42 105 5
f 42 5 725
f 43 5 105
f 5 43 253
f 854 5 253
f 5 854 725
f 6 815 46
f 6 46 843
f 137 822 6
f 6 843 137
f 665 6 626
f 6 822 626
f 815 6 665
f 7 23 816
f 7 831 23
f 641 255 7
f 255 717 7
f 7 816 641
f 717 831 7
f 15 8 261
f 817 8 15
f 8 817 97
f 97 832 8
f 8 832 261
f 33 637 9
f 638 33 9
f 9 223 602
f 9 637 223
f 603 9 602
f 9 603 649
f 638 9 649
f 10 27 100
f 10 706 27
f 825 10 100
f 706 10 705
f 10 827 705
f 10 825 827
f 275 434 11
f 482 275 11
f 462 11 434
f 485 11 462
f 482 11 505
f 505 11 485
f 396 12 445
f 12 396 492
f 12 444 445
f 12 466 444
f 12 691 466
f 12 516 491
f 12 491 691
f 12 492 516
f 322 51 13
f 13 51 374
f 289 13 282
f 282 13 321
f 322 13 289
f 13 361 321
f 13 373 361
f 374 373 13
f 101 730 14
f 760 101 14
f 14 146 190
f 146 14 730
f 338 14 190
f 760 14 338
f 616 15 53
f 53 15 838
f 15 261 838
f 616 817 15
f 16 93 92
f 94 16 92
f 16 104 93
f 107 16 94
f 104 16 112
f 113 16 107
f 112 16 113
f 411 717 17
f 830 411 17
f 17 706 705
f 830 17 705
f 706 17 713
f 718 713 17
f 718 17 717
f 608 18 368
f 368 18 641
f 608 642 18
f 833 641 18
f 834 18 642
f 833 18 834
f 66 77 19
f 19 726 66
f 77 732 19
f 19 732 258
f 20 62 792
f 20 799 62
f 20 459 692
f 459 20 792
f 666 20 486
f 20 692 486
f 799 20 666
f 792 62 21
f 62 799 21
f 463 21 487
f 792 21 463
f 21 739 487
f 21 799 739
f 538 64 22
f 64 594 22
f 667 538 22
f 594 811 22
f 807 667 22
f 22 811 807
f 23 33 638
f 23 831 33
f 816 23 638
f 24 40 366
f 493 40 24
f 24 366 467
f 24 467 645
f 493 24 515
f 24 645 515
f 648 28 25
f 28 650 25
f 25 650 160
f 818 25 160
f 648 25 646
f 818 646 25
f 26 669 149
f 149 670 26
f 655 26 654
f 26 661 654
f 26 655 669
f 670 661 26
f 100 27 682
f 682 27 168
f 168 27 708
f 27 706 708
f 663 28 648
f 650 28 680
f 28 663 682
f 28 682 680
f 29 494 72
f 29 72 519
f 29 492 494
f 518 492 29
f 518 29 519
f 30 199 200
f 630 199 30
f 244 30 200
f 242 630 30
f 660 242 30
f 244 660 30
f 152 47 31
f 761 31 47
f 761 108 31
f 152 31 732
f 732 31 258
f 32 70 71
f 32 731 70
f 363 32 71
f 32 363 730
f 33 830 637
f 830 33 831
f 84 34 150
f 34 84 731
f 151 150 34
f 760 151 34
f 35 129 172
f 129 35 749
f 180 35 172
f 723 35 180
f 127 120 36
f 36 120 746
f 36 757 127
f 724 36 746
f 37 121 136
f 121 37 746
f 762 37 136
f 37 724 746
f 130 38 142
f 130 757 38
f 176 142 38
f 176 38 347
f 467 39 211
f 211 39 512
f 440 463 39
f 467 440 39
f 39 463 487
f 39 487 512
f 468 40 60
f 60 40 493
f 40 443 366
f 468 443 40
f 563 41 564
f 563 696 41
f 41 589 564
f 589 41 618
f 696 618 41
f 42 591 105
f 42 818 591
f 818 42 725
f 43 105 812
f 823 253 43
f 623 43 596
f 812 596 43
f 627 43 623
f 627 823 43
f 670 377 44
f 44 377 704
f 670 44 824
f 845 44 704
f 826 824 44
f 826 44 845
f 45 171 166
f 744 45 166
f 45 170 171
f 170 45 723
f 45 744 259
f 46 815 674
f 674 821 46
f 843 46 821
f 47 152 154
f 47 154 751
f 47 751 194
f 761 47 194
f 438 437 48
f 439 48 437
f 48 464 438
f 465 48 439
f 464 48 488
f 48 465 488
f 431 430 49
f 49 430 457
f 49 458 431
f 49 457 480
f 458 49 480
f 50 312 404
f 847 312 50
f 403 50 354
f 50 404 354
f 355 50 403
f 355 847 50
f 51 322 848
f 51 418 374
f 375 418 51
f 51 848 375
f 53 52 615
f 53 838 52
f 52 644 615
f 836 644 52
f 836 52 837
f 837 52 838
f 616 53 615
f 154 152 54
f 54 152 732
f 54 153 154
f 734 153 54
f 734 54 732
f 55 230 228
f 228 292 55
f 55 265 230
f 293 265 55
f 55 292 293
f 56 235 240
f 269 235 56
f 273 56 240
f 306 269 56
f 273 308 56
f 306 56 308
f 584 57 583
f 612 583 57
f 613 57 584
f 612 57 615
f 613 616 57
f 616 615 57
f 524 58 523
f 58 528 523
f 58 524 559
f 58 558 528
f 558 58 583
f 583 58 559
f 59 826 158
f 59 158 829
f 633 634 59
f 633 59 636
f 634 826 59
f 636 59 829
f 472 468 60
f 472 60 496
f 60 493 517
f 60 517 496
f 69 202 61
f 729 69 61
f 175 61 728
f 175 729 61
f 61 202 249
f 61 249 728
f 577 63 216
f 216 63 633
f 577 575 63
f 63 575 600
f 633 63 600
f 538 537 64
f 64 537 590
f 64 590 594
f 189 65 146
f 190 146 65
f 65 189 226
f 65 226 190
f 78 66 67
f 66 161 67
f 77 66 78
f 726 161 66
f 78 67 80
f 67 79 80
f 79 67 249
f 161 727 67
f 249 67 728
f 727 728 67
f 334 68 459
f 788 68 334
f 392 68 387
f 68 788 387
f 68 392 459
f 83 69 71
f 69 363 71
f 81 69 163
f 81 202 69
f 83 163 69
f 729 363 69
f 83 71 70
f 83 70 733
f 731 733 70
f 72 494 801
f 72 550 519
f 550 72 801
f 512 487 73
f 739 73 487
f 512 73 542
f 542 73 539
f 73 803 539
f 799 73 739
f 799 803 73
f 267 74 227
f 74 662 227
f 74 267 296
f 336 74 296
f 772 74 336
f 74 772 662
f 208 75 219
f 208 684 75
f 219 75 262
f 75 283 262
f 75 263 283
f 75 684 263
f 225 76 189
f 189 76 226
f 225 266 76
f 76 266 226
f 78 90 77
f 77 90 85
f 85 732 77
f 78 80 87
f 90 78 87
f 840 80 79
f 81 79 202
f 81 386 79
f 202 79 249
f 386 840 79
f 80 86 87
f 86 80 840
f 162 88 81
f 88 386 81
f 162 81 163
f 352 343 82
f 784 82 343
f 401 352 82
f 401 82 436
f 82 788 436
f 784 788 82
f 89 162 83
f 89 83 733
f 162 163 83
f 672 84 150
f 675 84 672
f 733 84 675
f 84 733 731
f 91 85 90
f 91 736 85
f 85 734 732
f 85 736 734
f 86 93 87
f 93 86 88
f 88 86 386
f 386 86 840
f 103 90 87
f 93 103 87
f 93 88 92
f 94 92 88
f 94 88 162
f 96 94 89
f 94 162 89
f 96 89 95
f 89 735 95
f 735 89 733
f 90 178 91
f 103 178 90
f 102 174 91
f 91 178 102
f 174 736 91
f 93 104 103
f 107 94 96
f 96 95 106
f 737 106 95
f 95 735 737
f 107 96 106
f 97 817 639
f 639 832 97
f 98 165 159
f 98 159 736
f 842 165 98
f 174 98 736
f 741 98 174
f 741 842 98
f 99 175 145
f 188 99 145
f 146 99 189
f 146 729 99
f 729 175 99
f 189 99 188
f 663 100 682
f 663 825 100
f 110 102 109
f 178 109 102
f 110 855 102
f 102 741 174
f 855 741 102
f 103 104 111
f 109 103 111
f 103 109 178
f 104 112 111
f 812 105 591
f 107 106 114
f 740 114 106
f 106 737 740
f 107 115 113
f 115 107 114
f 108 147 131
f 131 726 108
f 147 108 761
f 116 110 109
f 111 382 109
f 109 382 116
f 116 122 110
f 605 110 122
f 605 744 110
f 744 855 110
f 112 839 111
f 111 839 382
f 119 112 113
f 119 118 112
f 118 839 112
f 120 113 115
f 113 128 119
f 113 120 128
f 743 115 114
f 114 740 743
f 120 115 746
f 115 743 746
f 117 123 116
f 382 117 116
f 116 749 122
f 116 123 750
f 116 750 749
f 117 118 124
f 839 118 117
f 123 117 124
f 839 117 382
f 118 119 125
f 124 118 125
f 125 119 126
f 119 128 126
f 120 127 128
f 169 121 135
f 743 135 121
f 121 169 136
f 746 743 121
f 605 122 259
f 124 752 123
f 750 123 752
f 125 753 124
f 752 124 753
f 126 754 125
f 753 125 754
f 128 756 126
f 754 126 756
f 127 757 128
f 756 128 757
f 172 129 181
f 676 181 129
f 129 750 676
f 750 129 749
f 142 141 130
f 141 756 130
f 756 757 130
f 143 131 147
f 143 191 131
f 191 726 131
f 689 133 132
f 133 737 132
f 132 155 164
f 155 132 675
f 164 689 132
f 132 735 675
f 737 735 132
f 134 133 689
f 134 740 133
f 740 737 133
f 135 743 134
f 135 134 844
f 167 134 689
f 844 134 167
f 743 740 134
f 135 844 169
f 136 169 177
f 853 136 177
f 762 136 853
f 137 654 661
f 821 654 137
f 822 137 661
f 843 821 137
f 138 139 688
f 753 139 138
f 182 181 138
f 138 181 676
f 688 182 138
f 676 752 138
f 752 753 138
f 754 140 139
f 139 140 860
f 860 688 139
f 753 754 139
f 756 141 140
f 141 858 140
f 858 183 140
f 860 140 183
f 754 756 140
f 142 685 141
f 685 687 141
f 141 687 858
f 176 685 142
f 185 143 147
f 185 148 143
f 148 191 143
f 145 144 187
f 144 145 728
f 187 144 148
f 144 191 148
f 191 144 727
f 728 727 144
f 175 728 145
f 187 188 145
f 730 729 146
f 186 185 147
f 761 186 147
f 185 344 148
f 344 187 148
f 149 377 670
f 149 702 377
f 669 690 149
f 690 702 149
f 150 151 193
f 157 150 193
f 672 150 157
f 768 193 151
f 760 764 151
f 764 768 151
f 153 195 154
f 195 153 159
f 736 159 153
f 734 736 153
f 195 300 154
f 300 751 154
f 164 155 157
f 155 672 157
f 672 155 675
f 640 829 156
f 640 156 832
f 156 711 716
f 711 156 829
f 832 156 716
f 164 157 198
f 157 193 232
f 198 157 759
f 157 232 759
f 158 203 829
f 158 845 203
f 826 845 158
f 196 159 165
f 196 195 159
f 818 160 619
f 619 160 819
f 160 650 819
f 161 726 191
f 727 161 191
f 197 164 198
f 689 164 197
f 200 165 166
f 842 166 165
f 199 196 165
f 199 165 200
f 171 200 166
f 744 166 842
f 217 167 197
f 167 689 197
f 217 201 167
f 844 167 201
f 701 682 168
f 707 701 168
f 707 168 708
f 177 169 204
f 204 169 201
f 169 844 201
f 171 170 205
f 205 170 767
f 170 723 763
f 170 763 767
f 206 200 171
f 205 206 171
f 180 172 207
f 172 181 207
f 620 173 621
f 620 819 173
f 820 621 173
f 820 173 651
f 856 651 173
f 819 856 173
f 184 210 176
f 176 762 184
f 685 176 210
f 176 347 762
f 179 177 214
f 177 179 853
f 177 204 212
f 214 177 212
f 766 179 214
f 762 179 766
f 853 179 762
f 207 215 180
f 215 767 180
f 763 723 180
f 767 763 180
f 181 182 219
f 207 181 248
f 181 219 758
f 181 758 248
f 182 208 219
f 688 208 182
f 208 183 684
f 183 208 688
f 183 209 684
f 687 209 183
f 858 687 183
f 183 688 860
f 184 222 210
f 184 766 222
f 762 766 184
f 185 186 224
f 224 344 185
f 229 224 186
f 765 229 186
f 186 761 765
f 187 697 188
f 187 344 697
f 188 225 189
f 697 225 188
f 226 227 190
f 227 768 190
f 764 338 190
f 764 190 768
f 270 192 343
f 776 192 270
f 192 780 343
f 776 780 192
f 193 231 232
f 193 768 231
f 194 234 236
f 194 751 234
f 236 765 194
f 194 765 761
f 698 195 196
f 300 195 237
f 698 237 195
f 630 196 199
f 630 239 196
f 239 698 196
f 197 198 241
f 217 197 241
f 271 241 198
f 271 198 759
f 206 244 200
f 204 201 245
f 201 217 243
f 245 201 243
f 845 704 203
f 203 704 852
f 829 203 711
f 203 852 711
f 212 204 245
f 206 205 246
f 246 205 770
f 205 767 770
f 247 244 206
f 246 247 206
f 215 207 248
f 209 210 252
f 685 210 209
f 209 252 251
f 209 251 684
f 687 685 209
f 210 222 252
f 645 467 211
f 514 211 512
f 514 645 211
f 214 212 256
f 212 245 254
f 256 212 254
f 476 477 213
f 476 213 678
f 500 213 477
f 500 522 213
f 213 522 521
f 678 213 521
f 769 214 256
f 766 214 769
f 248 257 215
f 257 770 215
f 770 767 215
f 604 577 216
f 604 216 636
f 636 216 633
f 243 217 241
f 272 270 218
f 218 270 343
f 218 310 272
f 405 310 218
f 352 218 343
f 352 405 218
f 864 219 262
f 758 219 864
f 333 220 335
f 385 220 333
f 220 387 335
f 385 392 220
f 392 387 220
f 266 221 267
f 294 221 266
f 221 295 267
f 294 305 221
f 305 295 221
f 222 264 252
f 222 769 264
f 766 769 222
f 223 601 602
f 223 699 601
f 637 635 223
f 635 699 223
f 229 228 224
f 697 224 228
f 697 344 224
f 225 230 265
f 230 225 697
f 265 266 225
f 226 267 227
f 266 267 226
f 768 227 662
f 228 229 268
f 230 697 228
f 292 228 268
f 771 268 229
f 765 771 229
f 232 231 233
f 772 233 231
f 768 772 231
f 270 232 233
f 238 232 270
f 759 232 238
f 652 270 233
f 772 652 233
f 235 236 234
f 234 237 235
f 234 300 237
f 300 234 751
f 235 269 236
f 235 237 240
f 269 771 236
f 236 771 765
f 240 237 698
f 270 272 238
f 271 238 272
f 271 759 238
f 239 273 240
f 239 240 698
f 242 273 239
f 242 239 630
f 243 241 274
f 274 241 271
f 242 745 273
f 276 242 660
f 745 242 276
f 245 243 278
f 243 274 279
f 278 243 279
f 247 277 244
f 277 660 244
f 254 245 280
f 280 245 278
f 247 246 774
f 246 770 774
f 281 277 247
f 774 281 247
f 248 288 257
f 248 260 288
f 260 248 758
f 261 250 722
f 261 832 250
f 250 716 722
f 250 832 716
f 251 252 285
f 263 251 284
f 684 251 263
f 251 285 284
f 252 264 285
f 253 823 647
f 854 253 647
f 256 254 287
f 254 280 286
f 287 254 286
f 641 833 255
f 833 717 255
f 773 256 287
f 769 256 773
f 288 774 257
f 774 770 257
f 744 605 259
f 262 282 260
f 260 864 262
f 321 260 282
f 321 288 260
f 758 864 260
f 838 261 722
f 262 289 282
f 262 283 289
f 263 290 283
f 284 290 263
f 264 291 285
f 264 773 291
f 769 773 264
f 266 265 294
f 658 265 293
f 294 265 658
f 296 267 295
f 292 268 303
f 775 303 268
f 771 775 268
f 307 302 269
f 775 269 302
f 306 307 269
f 269 775 771
f 776 270 652
f 271 272 310
f 274 271 312
f 312 271 310
f 311 308 273
f 745 311 273
f 279 274 312
f 434 275 435
f 275 846 435
f 846 275 482
f 314 276 277
f 277 276 660
f 314 745 276
f 281 313 277
f 313 314 277
f 315 278 279
f 280 278 317
f 317 278 315
f 279 312 316
f 315 279 316
f 286 280 317
f 320 313 281
f 319 320 281
f 281 774 319
f 289 283 322
f 283 290 322
f 284 285 324
f 284 323 290
f 284 324 323
f 285 291 324
f 287 286 326
f 286 317 325
f 326 286 325
f 777 287 326
f 773 287 777
f 288 321 328
f 288 328 755
f 774 288 755
f 290 329 322
f 290 323 329
f 291 331 324
f 291 777 331
f 773 777 291
f 332 293 292
f 332 292 303
f 332 304 293
f 658 293 304
f 341 305 294
f 341 294 658
f 295 335 296
f 295 305 333
f 295 333 335
f 296 335 337
f 296 776 336
f 296 337 776
f 606 604 297
f 297 604 636
f 606 297 640
f 297 636 640
f 419 298 427
f 428 298 419
f 298 455 427
f 298 428 679
f 455 298 471
f 298 679 471
f 413 407 299
f 299 407 443
f 413 299 468
f 299 443 468
f 301 517 410
f 301 410 548
f 525 517 301
f 525 301 555
f 301 548 578
f 301 578 555
f 307 346 302
f 779 302 346
f 302 779 775
f 332 303 339
f 779 339 303
f 775 779 303
f 340 304 332
f 383 304 340
f 383 341 304
f 341 658 304
f 305 341 333
f 307 306 345
f 308 345 306
f 345 346 307
f 308 311 309
f 309 345 308
f 309 311 353
f 309 351 345
f 351 309 397
f 397 309 353
f 312 310 404
f 404 310 405
f 353 311 314
f 314 311 745
f 316 312 847
f 313 356 314
f 320 356 313
f 357 353 314
f 356 357 314
f 315 316 318
f 317 315 318
f 318 316 694
f 316 355 694
f 316 847 355
f 325 317 318
f 325 318 367
f 367 318 358
f 358 318 694
f 320 319 359
f 359 319 782
f 319 774 778
f 319 778 782
f 360 356 320
f 359 360 320
f 321 361 328
f 329 848 322
f 323 324 330
f 329 323 330
f 364 330 324
f 324 331 364
f 326 325 369
f 369 325 367
f 781 326 369
f 777 326 781
f 327 328 628
f 328 327 755
f 628 370 327
f 370 782 327
f 327 778 755
f 782 778 327
f 361 628 328
f 330 362 329
f 329 362 419
f 375 329 419
f 329 375 848
f 362 330 376
f 364 376 330
f 331 378 364
f 331 781 378
f 777 781 331
f 380 332 339
f 340 332 380
f 384 333 341
f 384 385 333
f 459 792 334
f 334 792 788
f 335 780 337
f 784 335 387
f 335 784 780
f 336 776 772
f 776 337 780
f 764 760 338
f 380 339 389
f 783 389 339
f 779 783 339
f 380 390 340
f 390 383 340
f 391 341 383
f 341 391 384
f 456 342 449
f 449 342 478
f 456 479 342
f 342 479 478
f 780 784 343
f 346 345 393
f 351 393 345
f 395 388 346
f 783 346 388
f 393 395 346
f 346 783 779
f 704 702 348
f 348 702 710
f 704 348 852
f 348 710 711
f 852 348 711
f 349 711 710
f 349 710 715
f 711 349 716
f 349 715 716
f 709 350 710
f 709 738 350
f 350 715 710
f 350 714 715
f 738 714 350
f 398 393 351
f 397 398 351
f 354 405 352
f 354 352 863
f 863 352 401
f 357 371 353
f 371 402 353
f 353 402 397
f 406 403 354
f 354 404 405
f 863 406 354
f 355 403 408
f 407 355 408
f 694 355 407
f 357 356 412
f 360 412 356
f 409 371 357
f 412 409 357
f 367 358 421
f 358 407 413
f 358 694 407
f 421 358 413
f 360 359 415
f 415 359 786
f 359 782 786
f 416 412 360
f 415 416 360
f 373 417 361
f 361 417 628
f 376 419 362
f 729 730 363
f 364 420 376
f 364 378 420
f 455 365 454
f 365 476 454
f 365 455 477
f 476 365 477
f 366 442 467
f 857 442 366
f 443 857 366
f 369 367 422
f 422 367 421
f 607 608 368
f 607 368 641
f 785 369 422
f 781 369 785
f 370 414 423
f 370 628 414
f 423 786 370
f 786 782 370
f 441 402 371
f 409 441 371
f 498 499 372
f 527 498 372
f 499 520 372
f 520 552 372
f 527 372 557
f 372 552 557
f 373 374 426
f 417 373 425
f 373 426 425
f 418 426 374
f 418 375 427
f 375 419 427
f 419 376 428
f 376 420 428
f 377 702 704
f 378 429 420
f 378 785 429
f 781 785 378
f 379 707 381
f 379 381 709
f 379 686 701
f 709 686 379
f 707 379 701
f 430 380 389
f 390 380 430
f 712 381 707
f 381 738 709
f 712 714 381
f 381 714 738
f 431 383 390
f 431 391 383
f 384 695 385
f 384 391 432
f 432 695 384
f 695 392 385
f 387 788 784
f 395 438 388
f 787 388 438
f 388 787 783
f 430 389 433
f 787 433 389
f 783 787 389
f 430 431 390
f 431 748 391
f 432 391 748
f 392 435 459
f 435 392 695
f 395 393 437
f 398 437 393
f 549 551 394
f 549 394 603
f 394 551 579
f 649 394 579
f 603 394 649
f 437 438 395
f 447 396 445
f 671 396 447
f 494 492 396
f 494 396 671
f 398 397 439
f 402 439 397
f 439 437 398
f 571 568 399
f 399 568 673
f 597 571 399
f 597 399 598
f 399 673 598
f 471 400 455
f 477 455 400
f 400 471 501
f 477 400 500
f 500 400 501
f 442 406 401
f 401 406 863
f 401 436 440
f 440 442 401
f 747 439 402
f 747 402 441
f 406 408 403
f 408 406 859
f 859 406 442
f 443 407 408
f 857 443 408
f 859 857 408
f 412 444 409
f 444 441 409
f 515 410 493
f 493 410 517
f 410 515 547
f 410 547 548
f 717 411 831
f 411 830 831
f 416 445 412
f 444 412 445
f 421 413 450
f 450 413 468
f 414 417 424
f 628 417 414
f 423 414 424
f 416 415 446
f 446 415 790
f 415 786 790
f 445 416 447
f 446 447 416
f 448 424 417
f 425 448 417
f 418 427 426
f 449 428 420
f 420 429 449
f 422 421 451
f 451 421 450
f 789 422 451
f 785 422 789
f 423 424 624
f 452 423 624
f 452 790 423
f 790 786 423
f 424 448 624
f 426 454 425
f 448 425 453
f 454 453 425
f 426 427 454
f 455 454 427
f 428 449 679
f 429 456 449
f 429 789 456
f 785 789 429
f 457 430 433
f 431 458 748
f 693 434 432
f 695 432 434
f 748 693 432
f 457 433 461
f 791 461 433
f 787 791 433
f 435 695 434
f 693 462 434
f 459 435 846
f 440 436 463
f 436 792 463
f 788 792 436
f 464 460 438
f 791 438 460
f 438 791 787
f 465 439 747
f 442 440 467
f 444 466 441
f 466 747 441
f 442 857 859
f 447 446 470
f 470 446 794
f 446 790 794
f 470 671 447
f 453 656 448
f 624 448 469
f 656 469 448
f 471 449 478
f 679 449 471
f 451 450 473
f 472 450 468
f 473 450 472
f 793 451 473
f 789 451 793
f 452 469 474
f 452 624 469
f 474 794 452
f 794 790 452
f 453 454 861
f 453 657 656
f 861 657 453
f 861 454 476
f 456 793 479
f 789 793 456
f 480 457 461
f 462 458 481
f 693 458 462
f 480 481 458
f 458 693 748
f 482 692 459
f 846 482 459
f 464 483 460
f 795 460 483
f 460 795 791
f 480 461 484
f 795 484 461
f 791 795 461
f 481 485 462
f 489 483 464
f 488 489 464
f 691 465 466
f 466 465 747
f 490 488 465
f 691 490 465
f 475 474 469
f 469 656 475
f 671 470 494
f 494 470 797
f 470 794 797
f 501 471 478
f 473 472 497
f 497 472 496
f 796 473 497
f 793 473 796
f 475 498 474
f 498 797 474
f 797 794 474
f 475 495 499
f 657 495 475
f 498 475 499
f 656 657 475
f 657 476 678
f 476 657 861
f 479 502 478
f 501 478 677
f 478 502 677
f 479 796 502
f 793 796 479
f 480 504 481
f 503 480 484
f 480 503 504
f 485 481 504
f 482 683 486
f 482 486 692
f 482 505 683
f 489 506 483
f 798 483 506
f 483 798 795
f 503 484 507
f 798 507 484
f 795 798 484
f 504 850 485
f 850 505 485
f 666 486 509
f 683 509 486
f 489 488 510
f 513 488 490
f 510 488 513
f 511 506 489
f 510 511 489
f 491 513 490
f 491 490 691
f 849 513 491
f 516 849 491
f 516 492 518
f 494 797 801
f 495 520 499
f 495 678 520
f 495 657 678
f 497 496 526
f 496 517 525
f 526 496 525
f 800 497 526
f 796 497 800
f 498 527 801
f 797 498 801
f 500 501 523
f 528 522 500
f 523 528 500
f 524 523 501
f 501 677 524
f 502 529 524
f 677 502 524
f 502 800 529
f 796 800 502
f 503 532 504
f 531 503 507
f 503 531 532
f 862 504 532
f 504 862 850
f 534 508 505
f 683 505 508
f 533 534 505
f 533 505 850
f 535 506 511
f 506 535 802
f 506 802 798
f 530 536 507
f 798 530 507
f 536 531 507
f 509 508 537
f 508 509 683
f 565 508 534
f 508 565 537
f 537 538 509
f 538 667 509
f 667 666 509
f 511 510 540
f 632 510 513
f 540 510 632
f 541 535 511
f 540 541 511
f 514 512 544
f 544 512 542
f 545 632 513
f 545 513 849
f 515 514 544
f 515 645 514
f 547 515 544
f 546 516 518
f 546 545 516
f 516 545 849
f 519 549 518
f 546 518 576
f 576 518 549
f 551 549 519
f 550 551 519
f 520 521 553
f 678 521 520
f 520 553 552
f 521 522 554
f 521 554 553
f 528 554 522
f 524 529 559
f 526 525 556
f 556 525 555
f 805 526 556
f 800 526 805
f 557 806 527
f 806 801 527
f 554 528 558
f 560 559 529
f 529 805 560
f 800 805 529
f 804 536 530
f 802 530 798
f 802 804 530
f 531 563 532
f 562 531 536
f 531 562 563
f 532 563 533
f 533 862 532
f 533 564 534
f 563 564 533
f 862 533 850
f 564 565 534
f 541 566 535
f 804 535 566
f 802 535 804
f 561 567 536
f 561 536 804
f 567 562 536
f 565 590 537
f 571 542 539
f 571 539 568
f 539 742 568
f 803 742 539
f 541 540 569
f 543 569 540
f 543 540 632
f 570 566 541
f 569 570 541
f 544 542 573
f 573 542 571
f 543 572 569
f 572 543 659
f 659 543 632
f 547 544 575
f 575 544 573
f 574 545 546
f 574 659 545
f 545 659 632
f 576 574 546
f 548 547 575
f 548 575 577
f 578 548 577
f 603 576 549
f 550 806 551
f 550 801 806
f 806 579 551
f 552 553 581
f 552 580 557
f 552 581 580
f 553 554 582
f 553 582 581
f 558 582 554
f 556 555 586
f 555 578 585
f 586 555 585
f 809 556 586
f 805 556 809
f 557 580 607
f 810 557 607
f 806 557 810
f 582 558 587
f 583 587 558
f 560 584 559
f 583 559 584
f 560 809 584
f 805 809 560
f 808 567 561
f 804 808 561
f 562 696 563
f 592 562 567
f 562 592 696
f 564 589 565
f 590 565 589
f 596 566 570
f 596 812 566
f 804 566 808
f 566 812 808
f 588 591 567
f 588 567 808
f 591 592 567
f 568 664 673
f 568 811 664
f 742 807 568
f 807 811 568
f 570 569 595
f 572 595 569
f 595 596 570
f 573 571 600
f 600 571 597
f 599 572 574
f 572 659 574
f 599 595 572
f 575 573 600
f 601 574 576
f 601 599 574
f 602 601 576
f 602 576 603
f 578 577 604
f 585 578 606
f 578 604 606
f 638 649 579
f 814 638 579
f 579 806 810
f 814 579 810
f 580 581 610
f 580 608 607
f 580 610 608
f 581 582 609
f 581 609 610
f 587 611 582
f 582 611 609
f 583 612 587
f 584 813 613
f 584 809 813
f 586 585 614
f 585 606 681
f 614 585 681
f 614 813 586
f 809 586 813
f 611 587 612
f 812 591 588
f 808 812 588
f 590 589 593
f 593 589 618
f 700 590 593
f 700 594 590
f 591 818 592
f 619 618 592
f 592 618 696
f 818 619 592
f 620 593 618
f 593 620 621
f 621 700 593
f 622 674 594
f 622 594 700
f 815 594 674
f 594 815 811
f 596 595 623
f 595 599 623
f 625 597 598
f 600 597 629
f 629 597 625
f 625 598 626
f 598 665 626
f 664 665 598
f 673 664 598
f 699 599 601
f 699 623 599
f 633 600 629
f 639 606 640
f 681 606 639
f 607 641 816
f 607 814 810
f 814 607 816
f 608 610 642
f 610 609 642
f 609 611 643
f 609 643 642
f 611 612 644
f 611 644 643
f 615 644 612
f 616 613 817
f 613 813 817
f 614 681 639
f 639 817 614
f 813 614 817
f 720 617 721
f 720 836 617
f 617 837 721
f 617 836 837
f 618 619 620
f 619 819 620
f 621 622 700
f 621 820 622
f 622 821 674
f 821 622 820
f 627 623 631
f 623 699 631
f 626 824 625
f 625 634 629
f 824 634 625
f 822 824 626
f 631 825 627
f 825 823 627
f 633 629 634
f 631 699 635
f 635 827 631
f 631 827 825
f 826 634 824
f 637 828 635
f 828 827 635
f 829 640 636
f 828 637 830
f 814 816 638
f 832 639 640
f 841 642 643
f 841 834 642
f 836 643 644
f 841 643 836
f 646 647 648
f 854 647 646
f 818 725 646
f 646 725 854
f 648 647 663
f 647 823 663
f 650 668 653
f 819 650 653
f 668 650 680
f 655 651 653
f 856 653 651
f 651 655 654
f 654 820 651
f 776 652 772
f 668 655 653
f 819 653 856
f 821 820 654
f 669 655 668
f 824 661 670
f 824 822 661
f 768 662 772
f 663 823 825
f 664 815 665
f 811 815 664
f 667 803 666
f 803 799 666
f 667 807 803
f 686 669 668
f 686 668 680
f 669 686 690
f 735 733 675
f 750 752 676
f 680 682 701
f 686 680 701
f 690 686 703
f 703 686 709
f 702 690 703
f 702 703 710
f 710 703 709
f 705 827 828
f 705 828 830
f 706 713 708
f 712 707 708
f 712 708 713
f 851 712 713
f 851 714 712
f 713 718 719
f 851 713 719
f 715 714 720
f 720 714 719
f 714 851 719
f 715 722 716
f 715 720 721
f 722 715 721
f 717 833 718
f 718 834 719
f 833 834 718
f 719 835 720
f 835 719 834
f 835 836 720
f 721 838 722
f 721 837 838
f 744 842 741
f 744 741 855
f 803 807 742
f 778 774 755
f 835 834 841
f 835 841 836
