v	-7.44581985474	-1.56699001789	0.0184800010175
v	-6.81251907349	-1.77468025684	0.0138376047835
v	-7.37353992462	-1.69219005108	-0.330549001694
v	-7.1824798584	-2.02310967445	-0.00438502011821
v	-7.37260007858	-1.69380998611	0.372032999992
v	-6.80212020874	-1.36444997787	0.372032999992
v	-7.19581985474	-2.0	-0.48151999712
v	-7.19581985474	-2.0	0.518480062485
v	-7.01905012131	-2.3061902523	-0.335074007511
v	-7.01905012131	-2.30619001389	0.372032999992
v	-6.94581985474	-2.43301010132	0.0184800010175
v	-6.27521038055	-1.87672996521	-0.335073977709
v	-6.43652105331	-1.96986985207	0.372033029795
v	-3.9425702095	-0.698252081871	0.016734899953
v	-4.07862949371	-0.605638980865	0.373071014881
v	-3.94366025925	-0.530610978603	-0.335073977709
v	-3.61560988426	-0.341210007668	0.372032999992
v	-3.21868038177	0.873553037643	0.0184800010175
v	-2.7356300354	0.983339011669	-0.335074037313
v	-3.37939023972	0.611663997173	-0.335073977709
v	-2.45257997513	0.734712958336	-0.480156958103
v	-0.357070028782	0.0702875107527	-2.90137052536
v	-0.353553026915	-0.405553072691	-3.70857024193
v	2.42861005395e-17	-0.162467986345	-2.99464011192
v	-0.0748585090041	0.00402034912258	-3.64137983322
v	-2.83435034752	0.104536004364	-0.323964059353
v	-2.30423998833	0.250361979008	0.0110386004671
v	-2.11661052704	0.905487775803	0.0190325044096
v	-1.56491005421	0.673658967018	0.0184800010175
v	-2.23432993889	0.46312302351	0.374489992857
v	-0.517619073391	2.43301010132	0.0184800010175
v	-0.00633640028536	1.89718997478	-0.0935468822718
v	-0.450631052256	1.31699001789	0.0184800010175
v	-0.453639000654	2.2396903038	0.47795805335
v	-1.1336401701	1.50000011921	-0.481520086527
v	-0.438704043627	1.44380986691	-0.420224070549
v	-0.877408087254	2.05619049072	-0.335074007511
v	-0.600315988064	1.75	-0.581835985184
v	-1.11418998241	1.50911998749	0.522139012814
v	-0.956867158413	1.19380986691	0.372033029795
v	-0.438704043627	1.44380986691	0.4571839571
v	-0.994443058968	1.55330038071	0.101354986429
v	-0.877408087254	2.05619049072	0.372033059597
v	-0.600315988064	1.75	0.618795990944
v	-0.353552997112	2.05619049072	-0.858928978443
v	-0.402419060469	2.27270007133	-0.435051977634
v	-4.6216301918	-0.513787984848	0.518480062485
v	-4.8438000679	-1.04582023621	0.373642027378
v	-4.47981119156	-0.654419064522	0.095596306026
v	-5.20918989182	-0.450473994017	0.374078989029
v	-0.35355296731	2.0561902523	0.895888090134
v	-0.5	1.5	-1.1151599884
v	-0.5	1.5	1.15211987495
v	1.11120998859	0.935601115227	0.0184800010175
v	1.75048947334	1.12004041672	0.0351190045476
v	0.994057059288	1.17234003544	0.372032999992
v	1.00413012505	1.16254007816	-0.326729029417
v	-0.5	-2.0	-7.17734050751
v	-0.0240998994559	-1.98882985115	-7.18379116058
v	-0.353552997112	-2.30619001389	-7.0005698204
v	0.00666415784508	-1.7113904953	-6.64953756332
v	-0.353552997112	-1.69380998611	-7.35411977768
v	-0.498887985945	-1.99767005444	7.21564054489
v	-0.5	-1.63442027569	6.58109045029
v	-0.238075003028	-1.75094020367	6.9325709343
v	-0.353553026915	-1.6938097477	7.39107942581
v	-3.70578932762	0.0182630028576	-0.00102913985029
v	-3.9390399456	0.457652032375	0.0184800010175
v	-0.358609050512	0.187475979328	-4.07121992111
v	0.00579264946282	-0.0854680165648	-4.51008987427
v	0.0233094058931	-0.203145012259	-4.11462211609
v	0.353553026915	0.0517391040921	-4.33073043823
v	-0.495981067419	-0.845482945442	-5.19706010818
v	-0.496985971928	-0.510049939156	-4.61122941971
v	0.0493776910007	-0.659489989281	-4.94906806946
v	-0.353553026915	-0.891829073429	-4.55083036423
v	-0.356081008911	-0.255183011293	-4.85012960434
v	0.438704013824	1.44380986691	0.457183986902
v	0.450632035732	1.31699001789	0.0184800010175
v	1.15267002583	1.4890100956	0.518479943275
v	-0.496808022261	-0.216324016452	4.14030075073
v	-0.132637992501	-0.129477009177	3.92613005638
v	-0.353553026915	0.386795014143	3.78735995293
v	-0.498403996229	0.259617030621	3.30823945999
v	0.0	0.987244069576	-1.00328016281
v	0.0	1.31699001789	-0.432151973248
v	-0.353553026915	1.19380998611	-0.938387930393
v	0.353553026915	1.19380986691	-0.938387989998
v	0.341419994831	-1.28619003296	5.26078033447
v	0.5	-1.1310801506	5.70928001404
v	-0.00963665917516	-1.35804986954	6.0480594635
v	0.342379063368	-0.669360101223	5.6259303093
v	-0.356005966663	1.17782986164	1.01487004757
v	0.357946962118	1.18239986897	1.01632988453
v	0.5	1.5	1.15212011337
v	-0.353553026915	1.66139006615	1.57968997955
v	-0.0326092913747	1.06978023052	1.73606979847
v	0.00794600974768	1.78226017952	1.65664982796
v	0.353553056717	2.05619049072	0.895888030529
v	0.0	1.31699001789	0.469111055136
v	0.0	2.43301010132	-0.499139040709
v	-0.357345074415	-0.0338534042239	-4.46067047119
v	0.0	2.43301010132	0.536099016666
v	0.0	-2.43301010132	-6.92734003067
v	-0.353553026915	-1.84214997292	-6.19682025909
v	5.49042034149	-0.607137978077	0.372033029795
v	5.22063016891	-0.859620094299	0.518480062485
v	4.80911970139	-0.661718189716	0.00913817994297
v	4.72023010254	-0.574554979801	0.51710408926
v	0.347485989332	-0.757347047329	4.3498301506
v	-0.10591301322	-0.373791068792	4.32646989822
v	0.0	-0.733343064785	4.02039003372
v	-0.353552937508	-0.697841882706	-5.62904167175
v	-0.5	-1.41446983814	-6.16316986084
v	-0.353553026915	-1.36226010323	-5.36564016342
v	0.00879943929613	-1.74095964432	-5.73596096039
v	4.46849012375	-0.0171276014298	-0.335073977709
v	4.49428987503	-0.032019905746	0.372033059597
v	4.08312988281	-0.202887043357	-0.481520056725
v	0.0125958025455	0.407448887825	2.98693084717
v	0.35355296731	-0.192372024059	3.37628960609
v	1.10485991911e-07	0.651763021946	3.62130975723
v	-0.010545401834	0.272058993578	4.27024030685
v	0.353553026915	0.355318039656	-3.80491995811
v	-0.00944547168911	0.707948982716	-3.4792098999
v	-5.76164054871	-1.16616010666	0.046883508563
v	-5.485039711	-1.01787984371	-0.479510039091
v	-5.53612947464	-1.45003020763	-0.335072994232
v	-5.07590961456	-1.35342025757	0.0184800028801
v	2.62541007996	0.649301052094	-0.477727949619
v	2.47263002396	1.13517987728	-0.335072994232
v	2.29090046883	0.700657963753	-0.0412560850382
v	1.97011971474	0.606814920902	-0.330902040005
v	-5.01805067062	-0.728777050972	-0.476538002491
v	-5.33880805969	-1.00564002991	0.148961022496
v	-4.71251010895	-0.974505186081	-0.335074007511
v	0.353553026915	-1.51320004463	-5.62707996368
v	0.498989075422	-1.26776993275	-5.90420103073
v	5.88766050339	-1.25851988792	0.0489762984216
v	6.1369600296	-0.980419039726	0.372032999992
v	6.44796037674	-1.56822001934	0.518480062485
v	5.70008945465	-1.13644015789	0.51848000288
v	0.353553026915	-1.90404009819	-6.3040304184
v	0.00439972011372	-2.08699011803	-6.33164978027
v	-6.07500982285	-0.776278078556	0.0199992991984
v	-6.26673936844	-1.05533993244	0.372032999992
v	-6.18788146973	-1.4110904932	0.0220848955214
v	0.349522024393	-0.946478962898	-6.0630402565
v	-0.353553026915	0.688511967659	-3.22780990601
v	-0.0248720999807	0.544044196606	-2.78282976151
v	0.0	0.108258001506	2.56269001961
v	-0.353553026915	0.040389098227	2.97314023972
v	5.55111975534e-17	-0.221264004707	3.1334400177
v	-4.58787965775	0.0830444097519	0.0184800028801
v	-4.0684299469	-0.194401010871	-0.48151999712
v	0.0	-2.43301010132	6.96430110931
v	-0.00205772998743	-2.16840004921	6.50768995285
v	0.23909804225	-1.8231395483	6.85710096359
v	-0.123471021652	-2.01646995544	6.85621881485
v	0.0	-0.602713048458	-3.75716996193
v	0.35355296731	-0.751498103142	-4.30776977539
v	0.0	-1.03474009037	-4.50545930862
v	0.877408087254	2.05619049072	0.372033059597
v	1.1336401701	1.50000011921	-0.481520086527
v	1.83272004128	1.09639000893	0.518480062485
v	1.58593010902	1.64711987972	0.372032999992
v	-0.353552937508	-1.40090990067	5.46954154968
v	-0.00365744018927	-0.513929009438	5.63732051849
v	0.0227524973452	-0.799177110195	5.06130981445
v	0.5	-0.101562008262	3.92611002922
v	0.353553026915	0.49658998847	3.5971903801
v	0.499040037394	0.259912997484	3.29538011551
v	0.0402088947594	-0.462850987911	4.71540021896
v	0.353553026915	-0.369877040386	5.09794998169
v	-0.00731488084421	-0.21450099349	5.11566972733
v	0.353553026915	2.0561902523	-0.858929038048
v	0.464190989733	1.54587984085	-0.502479016781
v	0.018878499046	0.740489006042	-2.33808946609
v	0.353553056717	0.231761008501	-2.60470986366
v	-0.00553318997845	0.182037010789	-2.40252995491
v	0.404956996441	2.29866027832	0.424515008926
v	-4.71728038788	-0.160768032074	-0.335072994232
v	-0.498403996229	-0.681464135647	4.93824005127
v	-0.353553026915	-0.60311204195	5.50193023682
v	0.347485989332	-1.54635000229	5.71641969681
v	-0.5	-1.1465998888	5.73617982864
v	0.0	-0.813357114792	6.15898084641
v	0.877408027649	2.0561902523	-0.335073977709
v	0.600315988064	1.75	0.618795990944
v	0.517619132996	2.43301010132	0.0184800028801
v	1.71940994263	1.73365998268	0.0299825053662
v	1.04198002815	2.13028001785	0.0184799991548
v	3.45901012421	0.565700054169	0.372033059597
v	3.73857998848	-0.0132804019377	0.515137076378
v	3.17332959175	-0.0886738151312	0.366150975227
v	3.12672996521	0.35279199481	0.517223000526
v	1.73730015755	1.55973005295	-0.335074037313
v	2.2917804718	1.23960018158	0.372033029795
v	-0.00533226970583	-1.59949994087	7.0397195816
v	0.00026808003895	-1.20520985126	6.83747053146
v	0.0	-1.5669901371	7.46430110931
v	4.16822004318	-0.660261034966	0.372033059597
v	4.10736942291	0.358743965626	0.0220833998173
v	3.65610957146	-0.0454052910209	-0.0561082996428
v	3.43363976479	-0.405256003141	0.0184800010175
v	3.90430021286	-0.507888019085	-0.335073977709
v	4.07717990875	-0.776803970337	0.0184800010175
v	-5.83521986008	-0.806208908558	-0.335072994232
v	-5.95831012726	-1.29392004013	-0.478509008884
v	2.52314972878	0.120417997241	0.0184800028801
v	2.89282989502	0.490048021078	-0.0676444023848
v	2.93788981438	0.0500710979104	-0.335073977709
v	2.3868303299	1.34879004955	0.0289929024875
v	2.98448038101	1.00562000275	0.0118919005617
v	6.78770065308	-1.87173056602	0.0592945925891
v	7.37260007858	-1.69380998611	-0.335072994232
v	6.97186994553	-1.46246004105	-0.335072994232
v	7.19581985474	-2.0	-0.48151999712
v	4.98052978516	-1.29834997654	0.0184800010175
v	5.38979005814	-1.37116014957	0.360269069672
v	5.35104227066	-0.971012711525	0.0246855001897
v	5.43870973587	-1.39377987385	-0.335072994232
v	-0.353553026915	1.41847002506	-1.9634898901
v	-0.353553056717	1.19518005848	-2.35022974014
v	-0.0233101118356	1.1687002182	-1.72573053837
v	0.0	1.51693999767	-2.08582997322
v	4.84666013718	-1.05195999146	-0.335073024035
v	-0.353553026915	0.830384135246	3.01904010773
v	-0.5	0.735556900501	2.47618055344
v	0.0	1.15719008446	2.74587988853
v	-0.353552997112	-2.30619001389	7.03751993179
v	-1.38777993883e-17	-0.876996994019	-6.23223972321
v	0.000339791993611	0.958706974983	-3.05242991447
v	0.5	0.401938974857	-3.01705980301
v	0.498881965876	0.607498049736	2.69257998466
v	-0.350650012493	1.27155995369	2.25729966164
v	0.0	0.919529080391	1.15752995014
v	0.0	0.234496995807	-4.30707979202
v	2.51275992393	0.703768014908	0.51848000288
v	-1.57871997356	0.834787964821	-0.335073977709
v	-0.354166001081	-0.719195008278	4.29174041748
v	0.0	-1.21318006516	4.85148048401
v	-0.91796195507	1.21257984638	-0.341466963291
v	7.00101947784	-1.68140017986	0.221626028419
v	7.44581985474	-1.56699001789	0.0184800010175
v	7.1958193779	-2.0	0.51848000288
v	7.37260007858	-1.69380998611	0.372032999992
v	-0.354876995087	-0.32964399457	3.62044978142
v	-3.59494018555	0.0789719969034	-0.48151999712
v	-3.40153002739	-0.217612013221	-0.335074007511
v	-0.353553026915	-1.21727001667	-6.52872037888
v	0.00178243999835	-1.19543004036	-6.78232002258
v	0.0	-1.5669901371	-7.42734050751
v	-0.353553026915	1.6597802639	-1.5455300808
v	-0.0104981996119	2.01646995544	-1.21192002296
v	-0.00205772998743	-1.56842017174	5.46849012375
v	-3.51326012611	0.534375071526	0.372033089399
v	-5.76649951935	-0.76653200388	0.372033029795
v	-5.46158981323	-0.421387970448	0.0184800010175
v	3.41099023819	-0.223075017333	-0.335074007511
v	0.34782999754	0.210897997022	4.09675979614
v	-0.495474040508	0.131551012397	-3.50724005699
v	5.77587032318	-0.604830026627	0.0143237989396
v	-6.62625932693	-1.09381997585	0.0184800010175
v	-3.80896997452	-0.044602598995	0.518480062485
v	-4.37513017654	0.0367757081985	0.372033059597
v	-3.12414979935	-0.0574644990265	0.372033029795
v	-3.11284995079	-0.220047980547	0.0184800010175
v	-0.885460019112	1.06594002247	0.0184800010175
v	7.00767993927	-1.48312997818	0.372032999992
v	-1.23136997223	2.01914000511	0.02220730111
v	6.2044210434	-1.83867025375	0.366150975227
v	0.5	-0.617086946964	4.81903028488
v	0.353553026915	0.860124051571	2.96753001213
v	0.176777005196	-1.40390992165	7.03539991379
v	0.353553026915	-1.69380986691	7.39107990265
v	0.353747993708	1.7068400383	1.50004005432
v	0.0614304021001	1.36450994015	1.78367030621
v	0.353553026915	1.31354999542	2.18218016624
v	1.79806017876	1.11639988422	-0.481519967318
v	4.64108991623	0.0523285008967	0.0184799991548
v	5.19522094727	-0.271575003862	0.0101675018668
v	-0.354571044445	0.393721044064	2.36606001854
v	0.353553026915	0.497361034155	2.18164014816
v	-2.77555987767e-17	0.442337989807	1.98404991627
v	0.0340751037002	-0.384219020605	-4.5306596756
v	0.5	-0.433752030134	-4.46451997757
v	0.353553026915	-0.241954028606	-4.8394203186
v	-5.91851997375	-1.83990001678	0.0184800010175
v	-5.59178113937	-1.48765015602	0.360536068678
v	3.02295994759	0.818854987621	-0.332143038511
v	0.0101061007008	-1.3951100111	-5.1380200386
v	-2.81311988831	0.938603997231	0.372033029795
v	-2.0882999897	0.948826909065	0.51848000288
v	-2.78311014175	0.547680974007	0.518480062485
v	3.55394029617	0.510890007019	-0.335073024035
v	0.5	-2.0	7.21430110931
v	0.0	-2.0	7.21430206299
v	0.496879070997	-1.60446000099	6.51413965225
v	-2.54901003838	1.25567996502	0.02789430134
v	-0.0405174084008	-1.57958996296	6.60394191742
v	0.353553056717	-1.24083995819	6.60649967194
v	-0.353553026915	-1.19359004498	6.52467012405
v	-1.53157043457	1.2056003809	0.0503923967481
v	-1.59560000896	0.8284689188	0.373261958361
v	7.01701068878	-2.30909991264	-0.326519995928
v	6.94581985474	-2.43301010132	0.0184800010175
v	7.225689888	-1.94825994968	-0.00112506002188
v	6.82189130783	-1.78410983086	0.518479943275
v	-2.77555987767e-17	-0.145014002919	-4.96440935135
v	-1.95211017132	1.60037994385	0.00922559108585
v	-2.26618003845	1.25438010693	-0.335074007511
v	-2.09304022789	1.35433983803	0.372032999992
v	0.35438400507	0.115860998631	2.84643030167
v	-0.353552997112	-0.887477993965	5.9944601059
v	-1.48521995544	1.70526003838	0.372033059597
v	2.04981994629	0.562798976898	0.372033029795
v	-3.0551199913	0.390635997057	-0.48151999712
v	0.499040096998	1.06069004536	1.90839004517
v	0.353553026915	0.845588028431	1.57849013805
v	-6.60390949249	-1.25001001358	-0.335073977709
v	-6.4315905571	-1.56994998455	-0.477508038282
v	3.28706026077	0.256725043058	-0.48151999712
v	2.63729023933	0.222215980291	0.36909198761
v	1.54764997959	0.852725028992	0.372032999992
v	6.5287604332	-2.02292013168	-0.33514598012
v	6.48976993561	-1.59235990047	-0.481520026922
v	-0.353553026915	-0.127903982997	4.67884016037
v	-1.84076011181	1.09175002575	-0.481519967318
v	0.353553026915	-2.05634999275	6.60479068756
v	-0.353553026915	0.814908027649	-1.59467017651
v	-0.5	1.2462900877	-1.55461013317
v	3.97664999962	0.266840010881	0.372032999992
v	4.81576013565	-1.03411996365	0.372032999992
v	5.91888999939	-1.84012007713	0.0184793993831
v	0.353553026915	1.46719002724	-1.8791000843
v	0.5	1.21402001381	-1.61049997807
v	0.497806042433	1.50281000137	-1.07763004303
v	0.353553026915	0.712787032127	-1.77155005932
v	-0.353553026915	-1.43283009529	6.93904066086
v	0.353553026915	1.04658997059	-2.60759973526
v	0.5	0.896320998669	-2.16077017784
v	-6.53669071198	-1.61572003365	0.517139971256
v	0.357744961977	-1.32061004639	-6.68746089935
v	-0.497956991196	0.496286958456	-2.86350989342
v	-0.353553056717	0.932834982872	-2.80463027954
v	-0.5	0.750898063183	-2.41265010834
v	-0.353552997112	0.436001926661	-2.2509598732
v	2.7827000618	0.95616799593	0.372032999992
v	-5.29544019699	-0.507574081421	-0.339739024639
v	6.61173009872	-2.0724298954	0.369092017412
v	-0.353552997112	0.117743998766	4.2533698082
v	0.353552997112	0.696009993553	-3.21481990814
v	-1.50047004223	1.69645988941	-0.335073977709
v	-2.18734002113	0.494430989027	-0.339031010866
v	-0.5	0.992576062679	-1.99405002594
v	-0.354249000549	-1.80859971046	6.1790394783
v	-0.00411545950919	-1.90380048752	6.05107975006
v	5.00212049484	-0.733466088772	-0.48151999712
v	5.06281995773	-0.360262989998	-0.335074007511
v	1.19610998883e-09	0.503472983837	-1.8412001133
v	7.01905012131	-2.30619001389	0.372032999992
v	6.43236064911	-2.13655996323	0.0184797011316
v	-2.08166982553e-17	-0.525439023972	-5.62332963943
v	0.5	-0.946485877037	-5.35260009766
v	0.353553026915	-0.593321025372	-5.4480099678
v	0.353553026915	-0.259869039059	-3.45624041557
v	0.5	-0.0504629015923	-3.80065011978
v	5.47262001038	-1.58246004581	0.0184796992689
v	6.90117883682	-1.25254011154	0.0184800010175
v	5.65715026855	-0.703397929668	-0.335073977709
v	6.57115030289	-1.23109996319	-0.335072994232
v	5.80276966095	-1.19571983814	-0.481519967318
v	-4.01893997192	0.244894012809	-0.329531013966
v	-0.353553026915	0.727535009384	1.78297019005
v	0.353553026915	-0.05857020244	4.55875015259
v	-4.44654989243	-0.990059018135	0.0184800010175
v	0.353553056717	-1.0938501358	-4.90073013306
v	-0.353553026915	-0.648690998554	-4.12970018387
v	-0.5	-0.230783984065	-4.11297035217
v	-5.34961032867	-0.93409204483	0.518480062485
v	0.000679584045429	1.20211017132	-2.63055992126
v	0.353552997112	-1.86786997318	6.27833986282
v	-1.6185400486	1.22003996372	0.51848000288
v	0.353552997112	-1.69380998611	-7.35411977768
v	1.86872982979	0.498245000839	0.0184800010175
v	0.5	-2.0	-7.17734050751
v	3.53452992439	0.68803101778	0.0118546998128
v	-5.91587972641	-1.26103007793	0.51848000288
v	5.01764011383	-0.334179013968	0.372032999992
v	-4.50104045868	-0.444164007902	-0.481520026922
v	-3.50681996346	-0.447504997253	0.0184800010175
v	2.36754012108	0.376706987619	-0.32951900363
v	-0.5	1.11029005051	1.82712006569
v	0.5	-0.709411084652	-4.9419798851
v	0.353553026915	-2.30248999596	-6.99416065216
v	0.495373010635	-1.60130000114	-6.50911998749
v	-3.33020997047	0.231812998652	0.51848000288
v	5.97229003906	-1.70184016228	-0.335072994232
v	-0.00987841095775	0.0570763014257	-4.60620069504
v	0.353553026915	1.77533996105	-1.34535992146
v	0.0	1.75321996212	-1.67657017708
v	-5.20321989059	-1.25782001019	0.372032999992
v	0.353552997112	-2.30619001389	7.03751993179
v	-0.353553026915	-2.07364010811	6.63474988937
t		0	1	2	3
t		0	4	1	3
t		0	1	4	5
t		2	1	6	3
t		4	1	3	7
t		4	7	5	1
t		6	3	1	8
t		3	7	1	9
t		3	1	8	10
t		3	9	1	10
t		8	11	10	1
t		9	10	12	1
t		9	1	12	7
t		13	14	15	16
t		17	18	19	20
t		21	22	23	24
t		19	17	20	25
t		10	12	1	11
t		26	27	28	29
t		30	31	32	33
t		34	35	36	37
t		38	39	40	41
t		38	42	40	43
t		39	40	41	32
t		34	32	41	36
t		36	44	37	45
t		46	47	48	49
t		42	43	33	40
t		42	43	50	33
t		42	33	30	32
t		42	33	32	40
t		37	44	51	35
t		37	44	35	45
t		43	52	50	40
t		43	40	50	33
t		53	54	55	56
t		57	58	59	60
t		57	61	58	60
t		62	63	64	65
t		19	17	66	67
t		68	69	70	71
t		72	73	74	75
t		76	72	73	74
t		77	78	55	79
t		80	81	82	83
t		84	85	86	87
t		88	89	90	91
t		51	35	85	86
t		52	50	40	92
t		52	92	93	50
t		52	50	94	95
t		52	94	50	93
t		52	95	94	96
t		50	94	97	98
t		50	93	94	99
t		45	100	31	30
t		32	33	31	99
t		45	32	30	31
t		35	51	85	44
t		40	33	99	50
t		40	33	32	99
t		40	99	92	50
t		68	101	70	69
t		33	50	102	99
t		59	60	103	104
t		105	106	107	108
t		109	110	111	81
t		112	113	114	115
t		107	116	117	118
t		82	119	120	121
t		82	121	120	122
t		92	93	50	99
t		123	68	124	24
t		50	94	95	97
t		50	99	98	102
t		50	98	99	94
t		125	126	127	128
t		129	130	131	132
t		133	134	135	126
t		115	136	112	137
t		138	139	140	141
t		115	142	60	143
t		144	145	125	146
t		115	147	60	137
t		148	21	149	124
t		119	150	151	152
t		153	15	66	154
t		155	156	157	158
t		159	24	22	70
t		74	75	160	161
t		162	79	163	78
t		164	165	79	54
t		166	91	167	168
t		120	169	170	171
t		119	170	120	121
t		168	172	173	174
t		44	175	176	100
t		25	17	20	26
t		177	178	149	179
t		99	180	78	77
t		99	102	180	98
t		99	77	94	98
t		99	77	98	180
t		48	15	153	181
t		85	31	78	99
t		182	183	174	168
t		88	90	89	184
t		185	90	186	166
t		93	94	99	77
t		175	100	187	176
t		98	188	180	77
t		98	162	180	188
t		98	188	77	94
t		180	77	162	78
t		180	162	77	188
t		100	187	176	189
t		77	78	79	162
t		77	79	188	162
t		162	190	187	163
t		162	191	189	187
t		162	163	165	190
t		78	176	163	187
t		78	163	176	56
t		192	193	194	195
t		187	163	190	196
t		162	163	79	165
t		78	162	187	163
t		190	197	54	165
t		198	65	199	200
t		201	202	203	118
t		204	201	205	206
t		207	125	126	208
t		53	56	55	78
t		209	194	210	211
t		212	213	131	197
t		214	215	216	217
t		218	219	220	221
t		222	223	224	225
t		206	218	107	226
t		227	228	119	229
t		62	230	155	158
t		115	231	60	147
t		232	233	124	149
t		228	234	229	235
t		79	78	55	56
t		79	165	163	54
t		205	201	118	107
t		99	93	236	92
t		68	237	123	124
t		213	238	131	197
t		163	56	79	54
t		26	239	28	27
t		240	168	241	166
t		166	183	167	186
t		32	41	242	34
t		32	36	34	35
t		32	242	35	34
t		243	244	245	246
t		80	83	247	81
t		15	248	249	66
t		219	138	220	221
t		50	98	97	102
t		250	251	252	60
t		115	112	250	231
t		44	253	51	254
t		166	241	255	88
t		66	17	25	256
t		169	170	122	120
t		166	90	88	184
t		204	201	118	205
t		257	49	258	134
t		44	254	175	100
t		203	204	118	259
t		169	170	260	122
t		163	56	78	79
t		261	68	22	24
t		70	68	123	24
t		262	105	139	141
t		1	0	2	263
t		66	19	25	17
t		66	256	264	265
t		266	66	267	256
t		268	39	242	32
t		248	19	25	66
t		243	269	246	245
t		120	122	121	170
t		270	36	34	41
t		265	256	67	66
t		219	271	141	138
t		72	75	74	161
t		88	109	272	168
t		220	141	219	106
t		115	112	147	137
t		119	273	121	229
t		198	274	200	199
t		200	157	275	274
t		97	94	276	98
t		277	94	278	97
t		88	91	166	168
t		261	22	21	24
t		148	24	124	68
t		163	56	54	279
t		132	56	279	54
t		280	117	281	116
t		96	92	93	52
t		282	283	228	284
t		115	137	60	142
t		285	74	286	287
t		288	289	127	128
t		48	14	15	13
t		259	204	118	205
t		210	129	290	130
t		129	130	210	131
t		291	136	112	115
t		210	213	130	290
t		130	213	210	131
t		29	292	293	294
t		29	27	293	292
t		295	193	192	202
t		155	157	296	297
t		157	275	298	296
t		17	299	27	292
t		300	301	199	186
t		302	199	186	300
t		29	266	26	294
t		28	303	39	304
t		245	305	214	306
t		307	217	214	305
t		308	306	245	214
t		125	134	207	126
t		76	112	74	309
t		299	27	310	311
t		299	310	27	312
t		119	170	234	171
t		152	120	119	313
t		214	307	215	217
t		17	27	26	292
t		292	26	294	29
t		183	314	186	185
t		183	185	186	166
t		270	41	34	315
t		54	197	316	164
t		19	25	317	248
t		52	96	94	93
t		96	94	93	318
t		319	318	96	93
t		207	144	146	263
t		146	263	320	207
t		320	146	321	1
t		194	295	210	322
t		192	213	210	295
t		210	213	192	323
t		109	169	122	120
t		324	54	55	53
t		227	228	229	235
t		325	214	326	217
t		182	327	172	174
t		277	94	318	278
t		277	318	94	96
t		27	311	20	328
t		63	302	185	90
t		20	239	27	328
t		8	11	1	321
t		320	1	2	263
t		155	329	296	157
t		92	236	96	93
t		96	93	236	319
t		86	330	84	224
t		86	331	224	51
t		112	114	291	115
t		146	1	320	263
t		125	146	208	207
t		258	207	144	257
t		152	313	119	150
t		202	193	192	332
t		201	202	118	117
t		118	204	203	201
t		218	333	220	219
t		334	271	219	138
t		335	336	224	337
t		337	336	224	87
t		84	87	224	338
t		87	336	224	338
t		247	81	111	80
t		213	238	192	323
t		63	339	64	65
t		196	163	190	279
t		340	233	178	341
t		66	256	266	264
t		342	1	12	146
t		115	112	231	147
t		251	231	343	60
t		344	261	21	148
t		145	342	146	5
t		232	345	149	124
t		33	102	31	99
t		205	206	107	226
t		30	102	31	33
t		30	100	31	189
t		31	180	99	102
t		102	189	31	180
t		2	320	6	1
t		6	1	321	8
t		28	27	304	29
t		27	29	293	304
t		346	345	347	223
t		213	238	348	192
t		208	127	146	125
t		258	181	349	48
t		263	145	146	5
t		320	321	6	1
t		214	305	325	306
t		214	217	325	305
t		350	306	214	325
t		292	26	29	27
t		17	299	20	27
t		113	250	115	112
t		120	122	81	82
t		182	110	327	80
t		80	82	81	351
t		109	88	241	168
t		124	233	232	352
t		148	24	21	124
t		67	256	17	66
t		212	197	54	190
t		190	54	212	130
t		328	353	34	303
t		20	26	354	25
t		119	282	151	150
t		57	104	60	59
t		150	283	282	284
t		57	60	250	61
t		354	239	26	27
t		354	239	27	20
t		224	223	355	347
t		230	156	155	158
t		356	166	357	90
t		72	114	75	161
t		226	107	205	358
t		117	202	118	116
t		226	220	358	221
t		107	359	116	358
t		360	177	347	179
t		338	341	360	178
t		201	108	107	333
t		206	333	107	218
t		308	245	306	361
t		243	308	245	214
t		362	306	350	325
t		363	147	364	365
t		203	295	322	118
t		185	356	90	166
t		34	303	315	41
t		353	315	34	303
t		366	233	123	367
t		218	368	219	221
t		313	234	119	283
t		113	104	114	115
t		138	369	370	371
t		138	371	370	372
t		202	295	118	116
t		182	183	166	185
t		206	201	205	107
t		32	31	85	99
t		107	370	359	358
t		107	281	359	370
t		146	5	342	1
t		256	17	25	26
t		19	25	20	317
t		31	180	78	99
t		288	289	146	127
t		54	164	324	55
t		153	154	373	181
t		153	15	154	181
t		122	174	172	327
t		313	283	119	150
t		54	190	163	279
t		131	130	54	132
t		166	255	184	88
t		228	374	282	284
t		286	74	285	160
t		76	74	287	309
t		109	169	272	375
t		46	265	48	14
t		14	265	264	46
t		374	92	96	52
t		283	234	228	96
t		284	283	228	96
t		220	141	138	219
t		235	278	229	97
t		107	281	116	359
t		116	117	281	107
t		68	101	69	237
t		192	195	194	323
t		11	127	146	321
t		48	47	14	376
t		48	47	46	14
t		51	253	331	224
t		72	161	74	377
t		48	349	134	133
t		213	238	197	348
t		109	169	375	122
t		122	351	81	82
t		5	146	263	1
t		331	223	355	224
t		331	222	223	224
t		31	100	176	189
t		159	70	22	378
t		31	78	189	176
t		35	32	31	85
t		235	318	234	278
t		302	90	186	185
t		261	379	22	68
t		380	49	257	134
t		303	242	41	34
t		39	268	242	303
t		39	268	303	28
t		303	304	38	39
t		357	90	298	300
t		68	70	22	24
t		340	233	149	178
t		149	381	340	177
t		347	345	177	223
t		177	345	347	149
t		179	21	23	149
t		344	21	347	149
t		357	184	298	90
t		357	382	298	184
t		249	248	25	66
t		249	66	25	267
t		202	193	117	201
t		168	272	91	173
t		88	272	91	168
t		28	27	303	304
t		27	304	293	303
t		239	303	328	34
t		28	239	303	27
t		27	312	303	293
t		168	173	91	174
t		172	375	174	122
t		265	67	153	66
t		17	292	26	256
t		256	26	294	292
t		294	266	26	256
t		26	266	267	256
t		68	69	71	237
t		118	259	322	203
t		210	194	322	211
t		27	310	303	312
t		303	383	315	38
t		310	315	303	312
t		61	60	252	58
t		60	58	384	252
t		252	384	60	343
t		60	251	252	343
t		61	60	250	252
t		258	349	207	134
t		134	349	207	126
t		279	130	129	132
t		12	289	146	288
t		182	327	174	183
t		300	90	301	186
t		345	344	149	148
t		27	328	310	311
t		27	310	328	303
t		239	303	27	328
t		202	117	280	116
t		84	224	87	86
t		360	224	347	177
t		224	341	360	338
t		316	54	324	385
t		54	164	316	324
t		97	94	278	276
t		96	95	94	277
t		95	94	277	97
t		299	312	27	292
t		113	60	115	250
t		60	58	386	384
t		60	343	384	386
t		374	236	284	96
t		387	295	192	202
t		12	146	289	388
t		345	149	124	148
t		132	279	130	54
t		389	105	281	108
t		376	14	48	13
t		130	213	131	212
t		181	15	390	135
t		181	48	15	135
t		212	54	197	131
t		210	129	322	290
t		210	295	290	322
t		344	21	149	148
t		193	295	194	203
t		201	193	194	203
t		194	204	203	211
t		203	204	194	201
t		194	295	322	203
t		203	211	322	194
t		209	210	129	211
t		129	210	322	211
t		209	129	210	131
t		272	375	173	172
t		19	67	66	373
t		15	66	249	391
t		210	213	323	131
t		213	238	323	131
t		209	131	323	316
t		381	223	177	345
t		330	347	360	224
t		201	193	117	108
t		82	227	119	121
t		120	119	82	83
t		152	119	83	151
t		73	75	378	160
t		285	74	73	160
t		74	161	160	377
t		235	234	96	228
t		235	234	318	96
t		57	60	113	250
t		247	83	151	152
t		115	136	137	142
t		57	113	60	104
t		226	107	358	220
t		107	220	370	358
t		210	213	290	295
t		17	20	299	18
t		36	32	42	30
t		32	30	36	45
t		270	30	36	42
t		132	56	54	53
t		392	209	129	211
t		393	235	95	96
t		196	279	190	130
t		54	190	279	130
t		240	111	109	110
t		132	131	129	392
t		131	209	129	392
t		74	394	286	287
t		224	223	347	177
t		74	112	363	309
t		74	363	287	309
t		377	286	74	394
t		379	22	70	378
t		379	70	22	68
t		117	389	281	108
t		240	247	111	80
t		60	386	58	395
t		142	395	386	60
t		142	396	60	386
t		60	396	343	386
t		134	49	47	380
t		166	167	91	186
t		393	374	96	52
t		228	96	374	284
t		286	285	70	160
t		160	367	70	286
t		160	366	70	367
t		23	24	159	366
t		285	73	70	160
t		49	265	48	46
t		49	265	153	48
t		393	235	96	228
t		228	374	96	393
t		353	34	270	36
t		373	66	248	154
t		266	256	397	264
t		11	146	1	321
t		80	110	240	182
t		261	68	24	148
t		261	24	21	148
t		137	147	60	343
t		142	137	60	396
t		60	231	343	147
t		115	250	60	231
t		202	193	332	117
t		271	325	214	326
t		334	325	271	398
t		326	325	398	271
t		52	393	95	96
t		235	277	278	97
t		235	277	318	278
t		235	318	277	96
t		96	95	277	235
t		95	277	235	97
t		266	256	294	397
t		7	1	12	342
t		215	244	214	216
t		360	84	224	338
t		213	295	192	387
t		192	193	295	194
t		202	295	203	118
t		54	79	164	55
t		283	318	234	96
t		10	12	11	288
t		334	362	271	325
t		203	204	259	211
t		60	137	343	396
t		172	182	174	168
t		166	241	88	168
t		259	211	322	203
t		79	56	55	54
t		23	24	22	159
t		121	170	273	119
t		120	171	119	313
t		363	365	74	287
t		234	273	229	278
t		119	82	83	227
t		229	234	119	273
t		235	234	229	278
t		135	47	376	128
t		59	58	103	60
t		103	395	60	58
t		68	71	70	123
t		68	71	123	237
t		104	60	103	143
t		281	105	262	220
t		60	113	115	104
t		281	105	220	107
t		220	281	107	370
t		220	281	370	262
t		281	105	107	108
t		5	7	342	1
t		103	395	143	60
t		143	142	60	395
t		152	120	111	81
t		120	109	81	122
t		80	81	110	327
t		122	327	110	81
t		209	210	194	323
t		311	328	310	353
t		165	190	163	54
t		212	54	131	130
t		162	190	191	187
t		194	192	210	295
t		210	192	194	323
t		112	363	231	147
t		124	233	352	123
t		15	14	66	16
t		283	318	96	319
t		284	283	96	319
t		72	161	377	291
t		181	135	390	133
t		181	48	135	133
t		72	114	161	291
t		48	181	349	133
t		324	54	53	385
t		303	383	38	304
t		208	146	320	207
t		250	231	251	60
t		320	208	321	146
t		104	60	143	115
t		336	341	224	338
t		368	334	219	138
t		368	138	219	221
t		128	127	135	126
t		380	49	47	46
t		360	177	179	178
t		385	132	54	53
t		44	85	176	51
t		176	51	337	175
t		85	51	87	176
t		87	51	337	176
t		44	176	175	51
t		92	236	374	96
t		96	319	236	284
t		273	234	119	170
t		227	119	121	229
t		228	282	151	119
t		14	66	264	265
t		14	66	16	264
t		286	377	74	160
t		201	333	107	206
t		12	146	1	11
t		314	302	186	185
t		172	375	173	174
t		183	168	167	174
t		168	172	272	173
t		144	145	146	263
t		388	145	146	125
t		285	287	286	71
t		69	285	71	287
t		69	76	287	309
t		69	309	287	399
t		69	287	71	399
t		70	285	286	71
t		70	285	71	69
t		286	70	71	367
t		120	109	111	81
t		257	207	144	125
t		155	329	157	156
t		357	329	298	382
t		253	400	224	51
t		105	141	262	220
t		105	141	220	106
t		13	16	15	391
t		15	16	66	391
t		266	16	267	66
t		356	357	156	300
t		335	341	224	336
t		90	91	301	186
t		16	66	266	264
t		85	44	176	31
t		31	85	78	176
t		35	44	85	31
t		78	162	189	187
t		180	78	162	189
t		189	176	78	187
t		31	78	180	189
t		224	400	335	337
t		401	400	335	224
t		146	125	289	388
t		369	138	271	326
t		271	140	138	369
t		271	140	141	138
t		138	262	370	369
t		181	15	154	390
t		66	15	248	154
t		64	65	339	199
t		169	260	375	122
t		72	113	114	112
t		72	114	291	112
t		201	202	193	203
t		202	295	193	203
t		220	106	219	333
t		107	106	220	333
t		164	197	165	54
t		27	312	293	292
t		401	335	225	224
t		66	256	25	267
t		267	256	25	26
t		321	127	146	208
t		258	49	48	134
t		258	349	134	48
t		133	349	134	126
t		353	270	34	315
t		303	312	383	293
t		303	293	383	304
t		0	1	5	263
t		299	311	20	27
t		18	20	299	311
t		35	44	31	45
t		35	32	45	31
t		36	35	45	37
t		32	45	36	35
t		44	100	176	31
t		44	100	31	45
t		356	90	357	300
t		63	356	300	90
t		112	136	364	137
t		377	364	291	136
t		20	17	27	26
t		20	26	27	354
t		159	160	378	161
t		160	75	378	161
t		74	73	160	75
t		388	257	145	125
t		257	125	144	145
t		258	48	153	181
t		258	49	153	48
t		134	128	135	126
t		49	47	48	134
t		289	134	128	402
t		47	128	135	134
t		157	357	298	300
t		155	403	296	329
t		157	329	298	357
t		131	238	316	197
t		131	238	323	316
t		119	171	120	170
t		313	171	119	234
t		112	364	147	137
t		166	90	184	357
t		166	255	357	184
t		201	108	117	107
t		117	108	281	107
t		51	400	254	253
t		340	178	149	177
t		377	112	72	291
t		377	74	112	364
t		377	364	112	291
t		112	72	74	377
t		23	149	233	178
t		23	178	233	366
t		156	357	157	300
t		156	329	157	357
t		153	154	66	373
t		41	38	42	40
t		41	32	40	42
t		41	32	42	36
t		270	36	41	42
t		41	315	42	38
t		270	42	41	315
t		51	175	44	254
t		51	175	400	337
t		51	175	254	400
t		19	66	248	373
t		153	66	67	373
t		326	369	138	371
t		326	371	138	372
t		182	183	168	166
t		240	109	241	168
t		63	302	300	339
t		300	339	302	199
t		81	120	82	83
t		81	83	247	152
t		247	152	111	81
t		192	195	323	238
t		123	70	366	367
t		159	366	24	70
t		23	233	124	366
t		124	233	123	366
t		23	124	24	366
t		123	24	124	366
t		133	48	135	134
t		48	47	135	134
t		30	189	31	102
t		197	238	316	164
t		107	108	106	333
t		105	106	220	107
t		63	356	90	185
t		380	134	388	289
t		289	134	402	380
t		289	134	388	125
t		88	272	89	91
t		283	119	228	234
t		228	119	229	234
t		243	245	244	214
t		300	301	90	298
t		11	288	146	127
t		12	288	146	11
t		240	109	172	110
t		182	110	240	172
t		240	109	168	172
t		240	182	172	168
t		364	136	112	291
t		71	70	123	367
t		186	90	91	166
t		91	90	88	166
t		168	91	167	174
t		76	74	73	285
t		76	73	101	285
t		74	394	287	365
t		138	326	398	271
t		334	271	138	398
t		398	138	372	326
t		221	138	372	398
t		368	334	138	398
t		368	398	138	221
t		101	76	69	309
t		101	309	69	399
t		347	21	179	149
t		149	23	179	178
t		360	341	177	178
t		360	224	177	341
t		340	178	177	341
t		377	394	74	364
t		350	306	308	214
t		350	308	306	361
t		107	358	116	118
t		205	107	118	358
t		271	350	214	325
t		362	350	271	325
t		271	350	308	214
t		239	242	303	34
t		303	268	242	239
t		303	268	239	28
t		209	131	316	385
t		48	265	153	15
t		48	265	15	14
t		265	66	15	14
t		265	66	153	15
t		166	167	183	168
t		182	240	166	168
t		122	172	109	110
t		109	375	272	172
t		109	375	172	122
t		168	109	272	172
t		342	146	12	388
t		145	342	388	146
t		220	138	370	372
t		220	262	370	138
t		135	48	15	13
t		135	47	48	376
t		376	48	135	13
t		23	149	124	233
t		149	21	23	124
t		21	24	23	124
t		177	179	149	347
t		297	275	200	157
t		65	198	297	200
t		245	307	214	305
t		214	245	244	307
t		41	303	38	39
t		41	303	315	38
t		111	109	241	240
t		337	87	224	51
t		51	400	224	337
t		316	131	54	385
t		131	197	316	54
t		182	110	172	327
t		122	172	110	327
t		107	117	201	118
t		340	233	232	149
t		232	381	340	149
t		232	233	340	352
t		355	346	347	223
t		380	257	388	134
t		134	257	388	125
t		300	301	298	157
t		159	160	70	378
t		159	366	70	160
t		73	70	160	378
t		63	302	90	300
t		302	300	186	90
t		200	198	157	274
t		155	157	297	158
t		297	157	200	198
t		158	156	157	300
t		62	230	158	404
t		65	64	62	297
t		62	64	158	297
t		230	156	158	404
t		158	157	297	300
t		119	283	228	282
t		150	283	119	282
t		157	275	301	298
t		300	301	274	199
t		274	157	275	301
t		274	300	157	301
t		80	351	81	327
t		122	327	81	351
t		303	312	315	383
t		64	65	199	198
t		300	274	198	199
t		65	64	297	198
t		198	300	157	274
t		297	157	198	300
t		356	156	404	300
t		62	404	64	63
t		63	404	300	356
t		62	404	158	64
t		404	156	158	300
t		63	339	300	64
t		300	64	339	199
t		64	300	158	297
t		300	64	199	198
t		64	300	297	198
t		381	345	149	232
t		225	223	224	381
t		64	404	300	63
t		64	404	158	300
t		220	372	370	358
t		221	220	358	372
t		107	333	220	218
t		226	218	107	220
t		289	125	128	134
t		125	126	128	134
t		146	127	289	125
t		208	126	127	125
t		289	125	127	128
t		84	330	360	224
t		204	211	194	209
t		240	111	110	80
t		80	81	111	110
t		122	110	109	81
t		151	119	83	228
t		228	119	83	227
t		391	66	249	267
t		391	16	66	267
t		221	138	220	372
t		131	132	54	385
t		177	381	340	224
t		340	341	224	335
t		225	335	340	224
t		381	225	340	224
t		340	341	177	224
t		76	74	285	287
t		69	76	285	287
t		101	76	285	69
t		152	119	120	83
t		81	152	120	83
t		369	139	269	140
t		243	308	269	245
t		226	218	220	221
t		209	210	323	131
t		262	139	369	138
t		257	134	258	207
t		257	134	207	125
t		70	24	123	366
t		112	147	364	363
t		74	112	364	363
t		90	301	89	298
t		184	90	89	298
t		381	345	177	149
t		224	223	177	381
t		371	326	369	216
t		262	141	138	220
t		32	39	242	41
t		303	242	39	41
t		86	224	87	51
t		86	85	51	87
t		62	158	155	297
t		297	157	296	275
t		214	244	215	307
t		73	379	70	378
t		101	70	379	68
t		214	216	326	217
t		369	216	326	214
t		132	385	131	392
t		385	209	131	392
t		90	89	301	91
t		207	144	125	146
t		101	285	70	69
t		285	73	101	70
t		112	72	76	74
t		73	70	379	101
t		157	329	296	298
t		328	310	353	303
t		310	315	353	303
t		310	270	353	315
t		363	365	364	74
t		74	364	394	365
t		402	134	128	47
t		402	134	47	380
t		224	355	330	347
t		369	140	269	308
t		69	399	71	237
t		401	222	224	225
t		253	401	222	224
t		253	222	331	224
t		401	400	224	253
t		253	400	254	401
t		369	271	214	326
t		369	271	308	214
t		271	308	140	369
t		86	330	224	331
t		331	355	330	224
t		369	244	243	246
t		369	269	246	243
t		369	308	243	214
t		369	243	244	214
t		369	308	269	243
t		346	344	347	345
t		347	344	149	345
t		214	244	369	216
t		101	399	69	237
t		262	141	139	138
t		369	139	140	138
